<?xml version="1.0" standalone="no"?>
<!DOCTYPE svg PUBLIC "-//W3C//DTD SVG 1.1//EN" "http://www.w3.org/Graphics/SVG/1.1/DTD/svg11.dtd" >
<svg>
<metadata>
Created by FontForge 20090914 at Thu Mar 11 17:57:16 2021
 By www-data
Converted by ALLTYPE
</metadata>
<defs>
<font id="Bodoni" horiz-adv-x="220" >
  <font-face 
    font-family="Bodoni"
    font-weight="5"
    font-style="italic"
    font-stretch="normal"
    units-per-em="1000"
    panose-1="0 0 0 0 0 0 0 0 0 0"
    ascent="800"
    descent="-200"
    x-height="385.999"
    cap-height="667"
    bbox="-140 -268.998 1027 906"
    underline-thickness="50"
    underline-position="-55"
    slope="23853"
    unicode-range="U+0020-U+F002"
  />
<missing-glyph 
 />
    <glyph glyph-name=".notdef" 
 />
    <glyph glyph-name="space" unicode=" " 
 />
    <glyph glyph-name="space" unicode="&#xa0;" 
 />
    <glyph glyph-name="exclam" unicode="!" horiz-adv-x="265" 
d="M132 84c6 -1.33301 11.667 -3.16699 17 -5.5s10.333 -5.83301 15 -10.5s8.16699 -9.66699 10.5 -15s3.5 -11 3.5 -17c0 -6.66699 -1.16699 -12.667 -3.5 -18s-5.83301 -10 -10.5 -14c-4.66699 -2.66699 -9.66699 -5.16699 -15 -7.5s-11 -3.5 -17 -3.5
c-6.66699 0 -12.667 1.16699 -18 3.5s-10 4.83301 -14 7.5c-4.66699 4 -8 8.66699 -10 14s-3 11.333 -3 18c0 6 1 11.667 3 17s5.33301 10.333 10 15c4 4.66699 8.66699 8.16699 14 10.5s11.333 3.5 18 3.5v2v0zM122 145.999l-0.000976562 107.005
c0 26.667 -0.666992 53.667 -2 81s-3.66602 54.666 -6.99902 81.999c-2.66699 27.333 -7 54.5 -13 81.5s-13.667 53.833 -23 80.5c0 0.666992 0.166992 1.16699 0.5 1.5l1.5 1.5l0.5 0.5l1.5 1.5c0.666992 1.33301 1.16699 2.5 1.5 3.5s0.833008 1.83301 1.5 2.5l12 20
l12 20c4 6.66699 7.33301 13.667 10 21s5 15 7 23v0.5c0 0.333008 0.333008 0.833008 1 1.5v0.5v0.5v0.5c0 0.333008 0.333008 0.833008 1 1.5c0 0.666992 0.166992 1.16699 0.5 1.5s0.833008 0.5 1.5 0.5v0l1 1h0.5h0.5c0.666992 0 1.16699 -0.166992 1.5 -0.5l1.5 -1.5
c0.666992 -0.666992 1.16699 -1.33398 1.5 -2.00098l1.5 -3c0.666992 -2.66699 1.5 -5.83398 2.5 -9.50098s2.5 -7.5 4.5 -11.5c1.33301 -4 3 -8 5 -12l6 -12c1.33301 -2.66699 2.83301 -5.5 4.5 -8.5s3.5 -5.83301 5.5 -8.5
c1.33301 -2.66699 2.83301 -5.33398 4.5 -8.00098s3.5 -5.33398 5.5 -8.00098c1.33301 -1.33301 2.5 -2.83301 3.5 -4.5s1.83301 -3.16699 2.5 -4.5l3.5 -3.5c1 -1 1.83301 -2.16699 2.5 -3.5c-4.66699 -13.333 -9 -27.333 -13 -42s-7.66699 -29.667 -11 -45l-8 -46.5
c-2.66699 -15.667 -5 -31.167 -7 -46.5c-1.33301 -12.667 -2.5 -25.5 -3.5 -38.5s-1.83301 -25.833 -2.5 -38.5s-1 -25 -1 -37v-35l-1 -105h-18v0v0z" />
    <glyph glyph-name="quotedbl" unicode="&#x22;" horiz-adv-x="187" 
d="M64 418h-21l-3 248h27l-3 -248v0v0zM144 418h-21l-3 248h27l-3 -248v0v0z" />
    <glyph glyph-name="numbersign" unicode="#" horiz-adv-x="567" 
d="M368 254l-36 -254h-31l35 254h-118l-36 -254h-33l35 254h-143l-1 31h149l15 113h-139l-1 32h145l33 237h34l-33 -237h117l35 237h30l-32 -237h133l1 -32h-139l-15 -113h131l1 -31h-137v0v0zM356 398h-118l-16 -113h118l16 113v0v0z" />
    <glyph glyph-name="dollar" unicode="$" horiz-adv-x="533" 
d="M41 236l16.999 -0.00195312c0 -17.333 1.33301 -33.833 4 -49.5s6.33398 -31.167 11.001 -46.5c5.33301 -14.667 12.333 -28.5 21 -41.5s19.334 -25.167 32.001 -36.5c1.33301 -1.33301 2.83301 -2.66602 4.5 -3.99902s3.5 -2.66602 5.5 -3.99902
c1.33301 -1.33301 2.83301 -2.66602 4.5 -3.99902s3.5 -2.66602 5.5 -3.99902c5.33301 -4 10.666 -7.5 15.999 -10.5s11 -5.5 17 -7.5c5.33301 -2.66699 11.666 -5 18.999 -7s15.333 -4 24 -6l6 -2c2 -0.666992 4.33301 -1.33398 7 -2.00098s5.33398 -1.16699 8.00098 -1.5
s5.33398 -0.833008 8.00098 -1.5v286c-36.667 3.33301 -68 9.16602 -94 17.499s-46.667 18.5 -62 30.5s-26.833 27.5 -34.5 46.5s-11.5 41.167 -11.5 66.5c0 28.667 4.83301 55.167 14.5 79.5s24.167 46.833 43.5 67.5c19.333 20 41 35.167 65 45.5s50.333 15.5 79 15.5v84
h21v-82c5.33301 -1.33301 10.5 -2.5 15.5 -3.5s9.83301 -2.16699 14.5 -3.5c2 -0.666992 4 -1.16699 6 -1.5s4.33301 -0.833008 7 -1.5l6 -2l6 -2l12 -6c4 -2 8.33301 -4 13 -6l14.5 -8.5l15.5 -9.5c0 -0.666992 0.166992 -1.16699 0.5 -1.5s0.833008 -0.5 1.5 -0.5v0h1v0v0
l6 -4l6 -4c2 -0.666992 4.16699 -1.33398 6.5 -2.00098s4.83301 -1 7.5 -1c4 0 7.5 0.833008 10.5 2.5s5.5 3.83398 7.5 6.50098c1.33301 3.33301 2.5 6.83301 3.5 10.5s1.83301 7.5 2.5 11.5v2c0 0.666992 0.333008 1.66699 1 3v2v2v4.5v4.5l17 2v-209h-17
c-1.33301 28.667 -5.83301 54.5 -13.5 77.5s-18.5 42.833 -32.5 59.5c-14 17.333 -30.833 31 -50.5 41s-42.167 17 -67.5 21v-268c1.33301 -1.33301 2.66602 -2.16602 3.99902 -2.49902s2.66602 -0.5 3.99902 -0.5h2h2c0.666992 -0.666992 1.33398 -1 2.00098 -1h2
c25.333 -2.66699 49.833 -7.33398 73.5 -14.001s45.834 -15.667 66.501 -27c21.333 -10.667 37.333 -26.5 48 -47.5s16 -47.167 16 -78.5c0 -21.333 -2.66699 -42 -8 -62s-13.333 -39 -24 -57c-10.667 -18.667 -22.667 -34.167 -36 -46.5s-28 -21.833 -44 -28.5
c-3.33301 -1.33301 -6.5 -2.5 -9.5 -3.5s-5.83301 -2.16699 -8.5 -3.5c-2.66699 -0.666992 -5.16699 -1.5 -7.5 -2.5s-4.5 -1.83301 -6.5 -2.5c-4 -1.33301 -8 -2.33301 -12 -3s-8 -1 -12 -1s-8.66699 -0.333008 -14 -1s-11.333 -1.33398 -18 -2.00098h-4.5h-4.5h-2.5
c-1 0 -1.83301 -0.333008 -2.5 -1h-3h-3v-145h-21v145l-27 4c-8.66699 1.33301 -16.667 3 -24 5c-8 2 -15.333 4.33301 -22 7s-13 5.33398 -19 8.00098c-8 3.33301 -15.5 6.83301 -22.5 10.5s-13.5 6.83398 -19.5 9.50098c-6 3.33301 -11.5 5.66602 -16.5 6.99902
s-9.5 2 -13.5 2c-4.66699 0 -8.83398 -1 -12.501 -3s-6.5 -4.66699 -8.5 -8s-3.66699 -7 -5 -11s-2 -8 -2 -12c-0.666992 -1.33301 -1 -2.83301 -1 -4.5v-4.5v-3.5v-2.5h-17v236v0v0zM271.999 290.998l-0.00195312 -281.001c26 -0.666992 49.667 2.16602 71 8.49902
s40 15.833 56 28.5s28.167 27.334 36.5 44.001s12.5 35.334 12.5 56.001c0 25.333 -3.83301 46 -11.5 62s-19.167 28 -34.5 36c-14.667 8 -30.667 15.167 -48 21.5s-35.666 11.833 -54.999 16.5h-2c-0.666992 0 -1.33398 0.333008 -2.00098 1h-2h-2
c-1.33301 0 -2.66602 0.166992 -3.99902 0.5s-2.66602 0.833008 -3.99902 1.5h-1.5c-0.333008 0 -0.833008 0.333008 -1.5 1h-1.5h-1.5h-1.5c-0.333008 0 -0.5 0.333008 -0.5 1c-0.666992 0 -1.16699 0.166992 -1.5 0.5s-0.833008 0.5 -1.5 0.5v2v0zM250.997 384.997
l-0.000976562 266c-24.667 -2 -47 -6.5 -67 -13.5s-37 -16.5 -51 -28.5s-24.5 -26.167 -31.5 -42.5s-10.5 -34.833 -10.5 -55.5c0 -24.667 4 -45 12 -61s20.333 -28 37 -36c16 -8 33.333 -14.667 52 -20s38.334 -9 59.001 -11v2v0z" />
    <glyph glyph-name="percent" unicode="%" horiz-adv-x="729" 
d="M443 166l0.000976562 7.5c0 3 0.333008 6.16699 1 9.5c0 3.33301 0.166992 6.66602 0.5 9.99902s0.833008 6.66602 1.5 9.99902c3.33301 16 8.16602 31.5 14.499 46.5s14.5 29.167 24.5 42.5s22.167 23.5 36.5 30.5s30.833 10.5 49.5 10.5s35.5 -4 50.5 -12
s28.167 -19.667 39.5 -35s20 -33.166 26 -53.499s9 -43.166 9 -68.499c0 -24.667 -3.16699 -47 -9.5 -67s-15.5 -38 -27.5 -54s-25.667 -27.667 -41 -35s-32.333 -11 -51 -11s-35.5 3.66699 -50.5 11s-28.167 18.666 -39.5 33.999s-19.833 33.333 -25.5 54
s-8.5 43.334 -8.5 68.001v2v0zM497.001 176c0 -31.333 1.33496 -57.667 4.00195 -79s6.66699 -38.666 12 -51.999c5.33301 -12.667 12.5 -22.334 21.5 -29.001s19.833 -10 32.5 -10c13.333 0 24.666 3.16699 33.999 9.5s17 15.833 23 28.5s10.5 29.167 13.5 49.5
s4.5 44.833 4.5 73.5c0 27.333 -1.5 50.833 -4.5 70.5s-7.16699 35.5 -12.5 47.5s-12.5 21 -21.5 27s-19.833 9 -32.5 9s-23.834 -3 -33.501 -9s-17.5 -14.667 -23.5 -26c-6 -12 -10.333 -27.333 -13 -46s-4 -40.667 -4 -66v2v0zM203.003 -0.000976562h-31l356 667h29
l-354 -667v0v0zM34.0029 498.999l0.000976562 8.49707c0 3 0.333008 6.16699 1 9.5c0 3.33301 0.333008 6.83301 1 10.5l2 11.5c3.33301 15.333 8.16602 30.333 14.499 45s14.5 28.667 24.5 42s22 23.333 36 30s30 10 48 10c18.667 0 35.5 -4 50.5 -12
s28.167 -19.667 39.5 -35s20 -33.166 26 -53.499s9 -43.166 9 -68.499c0 -24 -3.16699 -46.167 -9.5 -66.5s-15.5 -38.5 -27.5 -54.5s-25.667 -28 -41 -36s-32 -12 -50 -12c-18.667 0 -35.5 3.83301 -50.5 11.5s-28.167 19.5 -39.5 35.5
c-11.333 15.333 -19.833 33.333 -25.5 54s-8.5 43.334 -8.5 68.001v2v0zM87.0039 508.996c0 -30.667 1.33301 -56.667 4 -78s6.66699 -38.666 12 -51.999c5.33301 -12.667 12.5 -22.334 21.5 -29.001s19.833 -10 32.5 -10c13.333 0 24.833 3.16699 34.5 9.5
s17.5 15.833 23.5 28.5s10.5 29.167 13.5 49.5s4.5 44.5 4.5 72.5s-1.5 51.833 -4.5 71.5s-7.16699 35.5 -12.5 47.5s-12.5 21 -21.5 27s-20.167 9 -33.5 9c-12.667 0 -23.667 -3 -33 -9s-17 -15 -23 -27s-10.5 -27.333 -13.5 -46s-4.5 -40.667 -4.5 -66v2v0z" />
    <glyph glyph-name="ampersand" unicode="&#x26;" horiz-adv-x="711" 
d="M682 134l13.9971 -5.99414c-0.666992 -2.66699 -1.5 -5 -2.5 -7l-2.5 -5c-1.33301 -2 -2.33301 -3.83301 -3 -5.5s-1.66699 -3.5 -3 -5.5l-6 -11.5l-6 -10.5c-6.66699 -12 -14.167 -23.333 -22.5 -34s-17.166 -20.667 -26.499 -30s-19.833 -16.166 -31.5 -20.499
s-24.167 -6.5 -37.5 -6.5c-14 0 -27 1.83301 -39 5.5s-23.333 9.83398 -34 18.501c-10.667 8 -20.834 16.667 -30.501 26s-19.167 19 -28.5 29c-2.66699 3.33301 -5.5 6.66602 -8.5 9.99902s-6.16699 6.66602 -9.5 9.99902l-8.5 10.5
c-3 3.66699 -5.83301 6.83398 -8.5 9.50098l-2.5 -2.5c-1 -1 -1.83301 -2.16699 -2.5 -3.5c-1.33301 -0.666992 -2.33301 -1.5 -3 -2.5s-1.66699 -2.16699 -3 -3.5l-5.5 -5.5l-4.5 -4.5c-12 -12.667 -24.333 -24.834 -37 -36.501s-25.667 -22.5 -39 -32.5
c-14 -10 -29 -17.333 -45 -22s-33 -7 -51 -7c-20.667 0 -40.334 3.83301 -59.001 11.5s-36.334 19.5 -53.001 35.5s-29.167 33.167 -37.5 51.5s-12.5 37.833 -12.5 58.5c0 19.333 3.16699 37.166 9.5 53.499s15.833 31.166 28.5 44.499c13.333 13.333 27 26 41 38
s28.667 23 44 33c2 1.33301 3.83301 2.5 5.5 3.5s3.5 2.16699 5.5 3.5c1.33301 0.666992 3 1.66699 5 3s4 2.33301 6 3c2 1.33301 3.83301 2.5 5.5 3.5s3.5 2.16699 5.5 3.5c1.33301 0.666992 2.83301 1.66699 4.5 3s3.5 2.33301 5.5 3
c-1.33301 1.33301 -2.66602 2.83301 -3.99902 4.5s-2.66602 3.5 -3.99902 5.5l-2 2c-0.666992 0.666992 -1 1.66699 -1 3c-0.666992 0.666992 -1.33398 1.5 -2.00098 2.5s-1.33398 1.83301 -2.00098 2.5l-14.5 23l-15.5 25c-4.66699 8.66699 -8.66699 17.5 -12 26.5
s-5.66602 17.833 -6.99902 26.5l-2 6c-0.666992 2 -1 4.33301 -1 7v3.5v3.5v3v3c0 18 3.5 34.833 10.5 50.5s17.833 29.834 32.5 42.501c14.667 13.333 30.667 23.333 48 30s36 10 56 10c17.333 0 33 -2.5 47 -7.5s26.333 -12.167 37 -21.5s18.667 -20.333 24 -33
s8 -27 8 -43c0 -14 -2.16699 -27.333 -6.5 -40s-10.833 -24.667 -19.5 -36s-19.667 -22.333 -33 -33s-29 -20.667 -47 -30c7.33301 -10 14.333 -19 21 -27s12.667 -15.667 18 -23l16 -20l15 -19c0 -0.666992 0.166992 -1.16699 0.5 -1.5s0.833008 -0.5 1.5 -0.5
c0 -0.666992 0.166992 -1 0.5 -1h1.5l15.5 -19.5l16.5 -20.5c6 -6.66699 12.5 -14.334 19.5 -23.001l23.5 -28c2.66699 3.33301 5.5 6.66602 8.5 9.99902s5.83301 7 8.5 11c3.33301 4 6.5 8 9.5 12s5.83301 8 8.5 12c7.33301 9.33301 15 18.166 23 26.499
s16.333 16.5 25 24.5c8.66699 7.33301 18 13 28 17s20.333 6 31 6c8.66699 0 16.667 -1.33301 24 -4s14 -6.66699 20 -12s10.5 -11.333 13.5 -18s4.5 -14 4.5 -22s-1.16699 -15.333 -3.5 -22s-6.16602 -12.667 -11.499 -18c-4.66699 -5.33301 -10.167 -9.33301 -16.5 -12
s-13.166 -4 -20.499 -4c-8.66699 0 -16.334 1.33301 -23.001 4s-12 6.66699 -16 12s-7 11.666 -9 18.999s-3 15.333 -3 24v4c0 0.666992 -0.166992 1.5 -0.5 2.5s-0.833008 1.83301 -1.5 2.5l-1.5 1.5c-0.333008 0.333008 -1.16602 0.5 -2.49902 0.5
c-2 0 -4.5 -1.16699 -7.5 -3.5s-6.5 -5.83301 -10.5 -10.5c-4.66699 -4.66699 -9.16699 -9.5 -13.5 -14.5s-9.16602 -10.167 -14.499 -15.5c-0.666992 -0.666992 -1.16699 -1.33398 -1.5 -2.00098s-0.833008 -1.33398 -1.5 -2.00098l-1.5 -1.5l-0.5 -0.5
c-3.33301 -4 -6.5 -8 -9.5 -12s-6.16699 -7.66699 -9.5 -11l-7.5 -9.5c-2.33301 -3 -4.5 -5.5 -6.5 -7.5c3.33301 -3.33301 6.5 -7 9.5 -11s6.16699 -8 9.5 -12c2 -2 3.83301 -4 5.5 -6s3.5 -4 5.5 -6c2 -2.66699 4 -5 6 -7l6 -6c8 -9.33301 16.333 -18.333 25 -27
s18 -16.667 28 -24c9.33301 -8 19.333 -13.833 30 -17.5s21.334 -5.5 32.001 -5.5c8 0 15.167 1.33301 21.5 4s11.833 6.66699 16.5 12c5.33301 5.33301 10 10.833 14 16.5s8 11.834 12 18.501c1.33301 1.33301 2.5 2.83301 3.5 4.5s1.83301 3.5 2.5 5.5
c1.33301 1.33301 2.5 2.83301 3.5 4.5s1.83301 3.5 2.5 5.5v2v0zM206.997 333.006c-0.666992 -1.33301 -1.50098 -2.33203 -2.50098 -2.99902s-1.83301 -1.33398 -2.5 -2.00098l-3 -1.5l-3 -1.5c-0.666992 -0.666992 -1.5 -1.33398 -2.5 -2.00098s-1.83301 -1 -2.5 -1
c-1.33301 -0.666992 -2.33301 -1.33398 -3 -2.00098l-2 -2c-9.33301 -6 -18.333 -12.5 -27 -19.5s-17 -14.5 -25 -22.5s-13.833 -16.833 -17.5 -26.5s-5.5 -20.5 -5.5 -32.5v-7.5c0 -2.33301 0.333008 -4.5 1 -6.5c0 -2.66699 0.166992 -5.16699 0.5 -7.5
s0.833008 -4.5 1.5 -6.5c3.33301 -17.333 9.5 -34 18.5 -50s20.833 -31.333 35.5 -46s30.167 -25.667 46.5 -33s33.5 -11 51.5 -11h6.5c2.33301 0 4.83301 0.333008 7.5 1c2 0 4.16699 0.5 6.5 1.5s4.83301 1.83301 7.5 2.5c6 2 12.333 5 19 9s13.334 9 20.001 15
c6.66699 5.33301 13.667 11.833 21 19.5s15 16.5 23 26.5l-26 30.5l-22 25.5l-19.5 22.5l-17.5 21.5c-0.666992 0 -1.16699 0.166992 -1.5 0.5l-1.5 1.5c-0.666992 0.666992 -1.16699 1.33398 -1.5 2.00098s-0.5 1.33398 -0.5 2.00098l-18 20.5c-6 7 -12 14.5 -18 22.5
l-20 26.5l-24 31.5v2v0zM279.996 394.007v-1.50781c0 -0.333008 0.333008 -0.5 1 -0.5v0v0v0l1 1h0.5h0.5c12 6 23.5 13.167 34.5 21.5s21.5 17.833 31.5 28.5c10 10 17.5 21.167 22.5 33.5s7.5 25.833 7.5 40.5c0 13.333 -2.33301 25.333 -7 36s-11.667 20.334 -21 29.001
c-8.66699 8.66699 -18.834 15.167 -30.501 19.5s-24.5 6.5 -38.5 6.5c-12 0 -22.667 -1.66699 -32 -5s-17.666 -8.33301 -24.999 -15c-6.66699 -6.66699 -11.834 -14.167 -15.501 -22.5s-5.5 -17.833 -5.5 -28.5c0 -10 1.33301 -19.833 4 -29.5s6.66699 -19.167 12 -28.5
l16.5 -27.5c5.66699 -9 11.834 -17.833 18.501 -26.5c1.33301 -1.33301 2.5 -2.66602 3.5 -3.99902s1.83301 -2.66602 2.5 -3.99902c1.33301 -2 2.5 -3.66699 3.5 -5s1.83301 -2.66602 2.5 -3.99902c1.33301 -1.33301 2.5 -2.66602 3.5 -3.99902
s2.16699 -2.66602 3.5 -3.99902c0.666992 -1.33301 1.66699 -2.66602 3 -3.99902s2.33301 -2.66602 3 -3.99902v2v0z" />
    <glyph glyph-name="quotesingle" unicode="'" horiz-adv-x="107" 
d="M64 418h-21l-3 248h27l-3 -248v0v0z" />
    <glyph glyph-name="parenleft" unicode="(" horiz-adv-x="261" 
d="M193 -263c-24 36 -45.332 72.502 -63.999 109.502s-34.667 74.5 -48 112.5c-14 36.667 -24.333 75.5 -31 116.5s-10 83.167 -10 126.5v27.5c0 9 0.333008 17.833 1 26.5c0.666992 9.33301 1.5 18.5 2.5 27.5s1.83301 17.833 2.5 26.5c4 35.333 10.5 70.333 19.5 105
s19.833 69 32.5 103c13.333 34 29.166 66.167 47.499 96.5s38.833 58.833 61.5 85.5l21 -11c-1.33301 -2.66699 -2.5 -4.5 -3.5 -5.5l-2.5 -2.5c-0.666992 -0.666992 -1.16699 -1.33398 -1.5 -2.00098s-0.833008 -1.33398 -1.5 -2.00098l-8 -12l-8 -12l-7.5 -13
c-2.33301 -4 -4.83301 -8 -7.5 -12l-14 -24c-4.66699 -8 -9 -16 -13 -24c-16 -29.333 -29.833 -59 -41.5 -89s-21.5 -60.333 -29.5 -91s-13.833 -62.5 -17.5 -95.5s-5.5 -67.5 -5.5 -103.5c0 -32 1.5 -62.333 4.5 -91s7.5 -55.667 13.5 -81c6 -24.667 13.5 -49.667 22.5 -75
s19.5 -50.333 31.5 -75l16 -30.5l17 -31.5l19.5 -31.5l21.5 -32.5l-20 -16v0v0z" />
    <glyph glyph-name="parenright" unicode=")" horiz-adv-x="261" 
d="M68 702c23.333 -36.667 44.334 -73.6621 63.001 -110.995s35 -75 49 -113c13.333 -38 23.5 -77.5 30.5 -118.5s10.5 -83.167 10.5 -126.5v-14.5c0 -5 -0.333008 -9.83301 -1 -14.5c0 -5.33301 -0.166992 -10.333 -0.5 -15s-0.5 -9.66699 -0.5 -15
c-0.666992 -4.66699 -1.16699 -9.5 -1.5 -14.5s-0.833008 -9.83301 -1.5 -14.5c-0.666992 -5.33301 -1.16699 -10.333 -1.5 -15s-0.833008 -9.66699 -1.5 -15c-4.66699 -34.667 -11.334 -68.667 -20.001 -102s-19.667 -66.333 -33 -99
c-12.667 -33.333 -28 -64.666 -46 -93.999s-38 -57 -60 -83l-21 13c2.66699 3.33301 5.16699 6.66602 7.5 9.99902s4.83301 6.66602 7.5 9.99902l6.5 10.5c2.33301 3.66699 4.83301 7.16699 7.5 10.5c4.66699 6.66699 9.16699 13.5 13.5 20.5s8.5 14.167 12.5 21.5l6 10
c2 3.33301 3.66699 6.66602 5 9.99902l5.5 11c1.66699 3.33301 3.5 6.66602 5.5 9.99902c14.667 28 27.167 56.167 37.5 84.5s18.833 56.833 25.5 85.5c6.66699 29.333 11.667 59.666 15 90.999s5 64.333 5 99c0 35.333 -2.16699 69 -6.5 101s-10.5 63 -18.5 93
s-18 59.667 -30 89s-25.667 58.333 -41 87l-12 20l-12 20l-6 10l-6 10c-2.66699 3.33301 -5 6.66602 -7 9.99902l-6 10l20 18v0v0z" />
    <glyph glyph-name="asterisk" unicode="*" horiz-adv-x="533" 
d="M255 506l0.0078125 11.0059c0 4 -0.333008 8.33301 -1 13c0 4 -0.166992 8 -0.5 12s-0.5 8 -0.5 12c-0.666992 8 -1.66699 16 -3 24s-3 16 -5 24c-0.666992 3.33301 -1.5 6.66602 -2.5 9.99902s-2.16699 6.66602 -3.5 9.99902c-0.666992 2 -1.33398 3.83301 -2.00098 5.5
s-1 3.5 -1 5.5c-0.666992 1.33301 -1.33398 2.83301 -2.00098 4.5s-1.33398 3.5 -2.00098 5.5s-1.5 3.83301 -2.5 5.5s-1.5 2.83398 -1.5 3.50098s-0.166992 1.16699 -0.5 1.5s-0.5 0.833008 -0.5 1.5v0.5v1.5c0 1.33301 0.333008 2.83301 1 4.5
s1.33398 2.83398 2.00098 3.50098c1.33301 1.33301 2.66602 2.16602 3.99902 2.49902s3 0.5 5 0.5h0.5h1.5v0h1v0v0c1.33301 -0.666992 2.66602 -1.16699 3.99902 -1.5s2.66602 -0.833008 3.99902 -1.5s2.83301 -1.33398 4.5 -2.00098s3.83398 -1.66699 6.50098 -3
c0 0.666992 0.166992 1.33398 0.5 2.00098s0.5 1.33398 0.5 2.00098c0.666992 0 1 0.333008 1 1v2c0 1.33301 0.166992 2.16602 0.5 2.49902l1.5 1.5c0.666992 1.33301 1.16699 2.5 1.5 3.5s0.833008 2.16699 1.5 3.5c0 0.666992 0.166992 1.66699 0.5 3
s0.833008 2.33301 1.5 3c1.33301 1.33301 2.5 2.83301 3.5 4.5s1.83301 3.16699 2.5 4.5l1.5 1.5l1.5 1.5c0 0.666992 0.166992 1.16699 0.5 1.5s0.833008 0.5 1.5 0.5c1.33301 0.666992 2.5 1.16699 3.5 1.5s1.83301 0.5 2.5 0.5c2 0 3.66699 -0.666992 5 -2
s2.33301 -3.66602 3 -6.99902c1.33301 -2.66699 2.16602 -6.16699 2.49902 -10.5s0.833008 -9.5 1.5 -15.5v-1.5v-2.5v-2.5c0 -1 0.333008 -2.16699 1 -3.5c2 0.666992 3.83301 1.16699 5.5 1.5s2.83398 0.833008 3.50098 1.5h2c0.666992 0 1.33398 0.333008 2.00098 1h1h2
h0.5h1.5h0.5h1.5c1.33301 0 2.83301 -0.166992 4.5 -0.5s2.83398 -0.833008 3.50098 -1.5c1.33301 -0.666992 2.33301 -1.66699 3 -3s1 -2.66602 1 -3.99902v0v0v-1v0v0v0v-1.5c0 -0.333008 -0.333008 -0.5 -1 -0.5c0 -0.666992 -0.166992 -1.16699 -0.5 -1.5
s-0.5 -0.833008 -0.5 -1.5c-0.666992 -0.666992 -1.33398 -1.66699 -2.00098 -3s-1.66699 -2.66602 -3 -3.99902l-9.5 -15c-3 -4.66699 -5.5 -9 -7.5 -13c-2.66699 -4 -5 -7.83301 -7 -11.5s-3.66699 -7.16699 -5 -10.5l-2 -4l-2 -4
c-0.666992 -2 -1.33398 -3.66699 -2.00098 -5l-2 -4c-0.666992 -2.66699 -1.5 -5.5 -2.5 -8.5s-2.16699 -6.16699 -3.5 -9.5c-0.666992 -3.33301 -1.5 -6.83301 -2.5 -10.5s-2.16699 -7.5 -3.5 -11.5l-2 -6c-0.666992 -2 -1 -4 -1 -6
c-0.666992 -2 -1.33398 -4.16699 -2.00098 -6.5s-1.33398 -4.83301 -2.00098 -7.5c1.33301 0 2.66602 0.166992 3.99902 0.5s2.66602 0.833008 3.99902 1.5h2c0.666992 0 1.33398 0.333008 2.00098 1l1 0.5c0.666992 0.333008 1.33398 0.5 2.00098 0.5
c13.333 4 25.666 8.16699 36.999 12.5s21.333 8.83301 30 13.5s17 9.66699 25 15s15.333 11.333 22 18l1.5 1.5c0.333008 0.333008 0.833008 0.5 1.5 0.5c0 0.666992 0.166992 1.16699 0.5 1.5s0.833008 0.5 1.5 0.5s1.16699 0.166992 1.5 0.5l1.5 1.5l0.5 0.5
c0.333008 0.333008 0.833008 0.5 1.5 0.5v0h1v0v0h0.5h1.5c1.33301 0 2.66602 -0.333008 3.99902 -1s2.33301 -1.66699 3 -3c1.33301 -1.33301 2.16602 -2.83301 2.49902 -4.5s0.5 -3.16699 0.5 -4.5v-2.5v-2.5c-0.666992 -1.33301 -1 -2.33301 -1 -3v-2
c0 -1.33301 -0.166992 -2.83301 -0.5 -4.5s-0.833008 -3.16699 -1.5 -4.5h2h2h2.5c1 0 1.83301 0.333008 2.5 1h2h2h2h2c4.66699 0 8.66699 -0.166992 12 -0.5s6.33301 -1.16602 9 -2.49902c2 -0.666992 3.66699 -1.83398 5 -3.50098s2 -3.16699 2 -4.5
c0 -2.66699 -0.666992 -5.16699 -2 -7.5s-3 -4.5 -5 -6.5s-4.16699 -3.5 -6.5 -4.5s-4.83301 -2.16699 -7.5 -3.5c-2 -0.666992 -3.83301 -1.33398 -5.5 -2.00098s-3.16699 -1.33398 -4.5 -2.00098s-2.5 -1.16699 -3.5 -1.5s-2.16699 -0.5 -3.5 -0.5
c2 -3.33301 3.66699 -6.33301 5 -9l3 -6c0.666992 -1.33301 1.16699 -2.66602 1.5 -3.99902s0.5 -2.66602 0.5 -3.99902c0 -2 -0.166992 -3.5 -0.5 -4.5s-1.16602 -2.16699 -2.49902 -3.5c-0.666992 -0.666992 -1.66699 -1.33398 -3 -2.00098s-2.66602 -1 -3.99902 -1
s-3.33301 0.333008 -6 1s-5.66699 1.33398 -9 2.00098l-12 4c-4 1.33301 -8.66699 2.66602 -14 3.99902c-2 0 -4 0.166992 -6 0.5s-4 0.833008 -6 1.5c-0.666992 0 -1.66699 0.166992 -3 0.5s-2.33301 0.833008 -3 1.5c-1.33301 0 -2.5 0.166992 -3.5 0.5
s-2.16699 0.833008 -3.5 1.5c-2.66699 0 -5.5 0.166992 -8.5 0.5s-6.16699 0.833008 -9.5 1.5c-2.66699 0.666992 -5.5 1.16699 -8.5 1.5s-5.83301 0.5 -8.5 0.5h-4h-4c-2 -0.666992 -3.83301 -1 -5.5 -1h-5.5h-6h-6c-2.66699 -0.666992 -5 -1 -7 -1h-6h-1.5h-0.5
c-0.666992 -0.666992 -1.16699 -1 -1.5 -1h-1.5h-1.5h-0.5h-1.5h-1.5l15.5 -22.5c5 -7 9.83301 -13.167 14.5 -18.5c4.66699 -6 9.16699 -11.333 13.5 -16s8.83301 -9 13.5 -13c3.33301 -2.66699 6.5 -5.5 9.5 -8.5l8.5 -8.5l9.5 -7.5c3 -2.33301 6.5 -4.5 10.5 -6.5
l1.5 -1.5c0.333008 -0.333008 0.833008 -0.5 1.5 -0.5l1.5 -1.5c0.333008 -0.333008 0.833008 -0.5 1.5 -0.5c2 -0.666992 3.66699 -1.5 5 -2.5s2.33301 -2.16699 3 -3.5c0.666992 -0.666992 1.16699 -1.33398 1.5 -2.00098l0.5 -1
c0.666992 -0.666992 1 -1.33398 1 -2.00098v-2c0 -2 -0.5 -3.66699 -1.5 -5s-2.5 -2.66602 -4.5 -3.99902s-4.16699 -2.33301 -6.5 -3s-5.16602 -1 -8.49902 -1h-1.5h-1.5h-2c-0.666992 0 -1.33398 0.333008 -2.00098 1v-2c0 -0.666992 0.333008 -1 1 -1
c0 -0.666992 0.166992 -1.33398 0.5 -2.00098s0.5 -1.33398 0.5 -2.00098v-2c0 -0.666992 0.333008 -1 1 -1c0 -0.666992 0.166992 -1.33398 0.5 -2.00098s0.5 -1.33398 0.5 -2.00098v0v0v-1v0v-1.5c0 -0.333008 0.333008 -0.5 1 -0.5
c0 -1.33301 0.166992 -2.83301 0.5 -4.5s0.833008 -3.16699 1.5 -4.5v-2c0 -0.666992 0.333008 -1.33398 1 -2.00098v-2v-2c0 -2.66699 -0.166992 -4.83398 -0.5 -6.50098s-0.833008 -3.16699 -1.5 -4.5c-0.666992 -0.666992 -1.5 -1.33398 -2.5 -2.00098
s-2.16699 -1 -3.5 -1c-2.66699 0 -5.16699 0.333008 -7.5 1s-4.5 2 -6.5 4l-6 6c-2 2 -3.66699 4 -5 6l-2 2l-2 2c-0.666992 0.666992 -1.16699 1.33398 -1.5 2.00098s-0.5 1.33398 -0.5 2.00098c-0.666992 0 -1.16699 0.166992 -1.5 0.5s-0.5 0.833008 -0.5 1.5
c-0.666992 0 -1.16699 0.166992 -1.5 0.5s-0.5 0.833008 -0.5 1.5l-1.5 -1.5l-1.5 -1.5l-1.5 -1.5l-0.5 -0.5c-1.33301 -2 -2.83301 -3.66699 -4.5 -5s-3.16699 -2.66602 -4.5 -3.99902c-1.33301 -0.666992 -2.83301 -1.33398 -4.5 -2.00098s-3.5 -1 -5.5 -1
c-1.33301 0 -2.5 0.333008 -3.5 1s-2.16699 1.33398 -3.5 2.00098c-0.666992 1.33301 -1.16699 2.66602 -1.5 3.99902s-0.5 2.66602 -0.5 3.99902c-0.666992 0.666992 -1 1.33398 -1 2.00098v2v1.5v1.5v0.5v1.5v2c0 0.666992 0.333008 1.33398 1 2.00098
c0 10 -0.333008 19.833 -1 29.5s-1.66699 19.167 -3 28.5c-0.666992 4.66699 -1.5 9.33398 -2.5 14.001s-2.16699 9.33398 -3.5 14.001c-1.33301 4 -2.66602 8.33301 -3.99902 13s-3 9.33398 -5 14.001l-1.5 3c-0.333008 0.666992 -0.5 1.66699 -0.5 3
c-0.666992 0.666992 -1.16699 1.5 -1.5 2.5s-0.833008 1.83301 -1.5 2.5l-1.5 3c-0.333008 0.666992 -0.5 1.66699 -0.5 3c-0.666992 0.666992 -1.16699 1.5 -1.5 2.5s-0.833008 1.83301 -1.5 2.5l-18.5 -28c-5.66699 -8.66699 -10.5 -16.667 -14.5 -24
s-7.66699 -14.5 -11 -21.5s-6.33301 -14.167 -9 -21.5c-0.666992 -1.33301 -1.16699 -2.83301 -1.5 -4.5s-0.833008 -3.16699 -1.5 -4.5c-0.666992 -2 -1.16699 -3.83301 -1.5 -5.5s-0.833008 -3.16699 -1.5 -4.5l-2 -10l-2 -10l-1.5 -6
c-0.333008 -1.33301 -1.16602 -2.66602 -2.49902 -3.99902l-1.5 -1.5l-0.5 -0.5c-0.666992 -0.666992 -1.16699 -1 -1.5 -1h-1.5c-1.33301 0 -2.66602 0.166992 -3.99902 0.5s-2.66602 0.833008 -3.99902 1.5l-2.5 2.5c-1 1 -2.16699 2.5 -3.5 4.5
c-0.666992 0.666992 -1.33398 1.5 -2.00098 2.5s-1.33398 1.83301 -2.00098 2.5c-0.666992 1.33301 -1.16699 2.66602 -1.5 3.99902s-0.833008 2.66602 -1.5 3.99902l-1.5 -1.5l-1.5 -1.5l-1.5 -1.5l-1.5 -1.5c-0.666992 -0.666992 -1.5 -1.33398 -2.5 -2.00098
s-1.83301 -1.33398 -2.5 -2.00098c-1.33301 -0.666992 -2.33301 -1.33398 -3 -2.00098s-1.66699 -1.33398 -3 -2.00098c-2 -1.33301 -4 -2.5 -6 -3.5s-4 -1.83301 -6 -2.5c-0.666992 -0.666992 -1.33398 -1 -2.00098 -1h-2h-1.5h-1.5c-1.33301 0 -2.5 0.333008 -3.5 1
s-2.16699 1.33398 -3.5 2.00098c-0.666992 1.33301 -1.16699 2.5 -1.5 3.5s-0.5 2.16699 -0.5 3.5v0.5v1.5v1.5v1.5c0 1.33301 0.333008 2.66602 1 3.99902s1.33398 3 2.00098 5c1.33301 1.33301 2.66602 3.5 3.99902 6.5s3.33301 6.5 6 10.5v0v1v0v0l0.5 0.5l1.5 1.5v0v1v0
v0v0l1 1v0.5v0.5h-1.5c-0.333008 0 -0.5 0.333008 -0.5 1c-0.666992 0 -1.16699 0.166992 -1.5 0.5s-0.833008 0.5 -1.5 0.5s-1.5 0.166992 -2.5 0.5s-1.83301 0.833008 -2.5 1.5c-2 1.33301 -4 2.5 -6 3.5l-5 2.5c-1.33301 1.33301 -2.33301 2.66602 -3 3.99902s-1 3 -1 5
v2c0 0.666992 0.333008 1.33398 1 2.00098l0.5 1c0.333008 0.666992 0.833008 1.33398 1.5 2.00098c1.33301 1.33301 2.66602 2.33301 3.99902 3s3 1.33398 5 2.00098c12.667 3.33301 24.5 7.66602 35.5 12.999s21.5 11.333 31.5 18s19.833 14 29.5 22
s19.167 16.333 28.5 25l-31.5 9l-23.5 7c-6.66699 1.33301 -13 2.5 -19 3.5s-11.667 1.83301 -17 2.5h-2.5c-1 0 -2.16699 0.333008 -3.5 1h-2.5h-3.5h-2.5h-2.5h-3h-3h-4.5h-4.5h-4h-4c-2 -0.666992 -3.66699 -1 -5 -1h-4h-4.5h-4.5c-2 0 -3.83301 0.166992 -5.5 0.5
s-3.16699 0.833008 -4.5 1.5c-0.666992 1.33301 -1.33398 2.5 -2.00098 3.5s-1 2.16699 -1 3.5v0.5v1.5v1.5c0 0.333008 0.333008 0.833008 1 1.5c0 1.33301 0.5 2.66602 1.5 3.99902s2.16699 2.66602 3.5 3.99902l4.5 4.5c1.66699 1.66699 3.83398 3.5 6.50098 5.5
c-0.666992 0 -1.5 0.333008 -2.5 1s-2.16699 1.33398 -3.5 2.00098c-0.666992 0.666992 -1.5 1.33398 -2.5 2.00098s-2.16699 1.33398 -3.5 2.00098c-2.66699 1.33301 -5.16699 2.83301 -7.5 4.5s-4.5 3.83398 -6.5 6.50098c-2 2 -3.5 4.16699 -4.5 6.5
s-1.5 4.83301 -1.5 7.5c0 1.33301 0.333008 2.5 1 3.5s1.66699 1.83301 3 2.5s3.16602 1.16699 5.49902 1.5s4.83301 0.5 7.5 0.5h3h3c0.666992 -0.666992 1.5 -1 2.5 -1h2.5c2 -0.666992 4 -1.16699 6 -1.5s4 -0.5 6 -0.5c0 -0.666992 0.333008 -1.16699 1 -1.5
s1.33398 -0.5 2.00098 -0.5h2h2v2.5v2.5v4c0 1.33301 0.333008 2.66602 1 3.99902c0 1.33301 0.166992 2.33301 0.5 3s0.5 1.66699 0.5 3c0.666992 0.666992 1.16699 1.5 1.5 2.5s0.833008 1.83301 1.5 2.5c1.33301 2 2.66602 3.5 3.99902 4.5s3 1.5 5 1.5
c1.33301 0 2.5 -0.166992 3.5 -0.5s1.83301 -0.833008 2.5 -1.5c1.33301 -0.666992 2.5 -1.66699 3.5 -3s1.83301 -2.66602 2.5 -3.99902c0.666992 -0.666992 1.33398 -1.5 2.00098 -2.5s1.33398 -2.16699 2.00098 -3.5c0 -0.666992 0.333008 -1.5 1 -2.5
s1.33398 -1.83301 2.00098 -2.5c1.33301 -2 2.66602 -3.83301 3.99902 -5.5s2.66602 -3.16699 3.99902 -4.5c5.33301 -6.66699 10.666 -12.667 15.999 -18l16 -16c5.33301 -4.66699 11.333 -9.33398 18 -14.001s13.667 -9 21 -13l6 -4l6 -4
c1.33301 -0.666992 2.5 -1.33398 3.5 -2.00098s2.16699 -1 3.5 -1c0.666992 -0.666992 1.66699 -1.33398 3 -2.00098l4 -2v2v0z" />
    <glyph glyph-name="plus" unicode="+" horiz-adv-x="533" 
d="M500 348v-27h-221v-233h-26v233h-220v27h220v233h26v-233h221v0v0z" />
    <glyph glyph-name="comma" unicode="," horiz-adv-x="241" 
d="M98 -186l-12.001 13c14.667 12.667 27.5 25.334 38.5 38.001s19.833 25.667 26.5 39c7.33301 12.667 12.833 25.834 16.5 39.501s5.5 27.5 5.5 41.5v2.5v3.5c-0.666992 0.666992 -1 1.5 -1 2.5v3.5v2v2c-0.666992 1.33301 -1 2.5 -1 3.5v2.5
c-2 7.33301 -4.5 14.333 -7.5 21s-6.5 13 -10.5 19s-9 10.5 -15 13.5s-13 4.5 -21 4.5l2 -2l2 -2c0 -0.666992 0.333008 -1.33398 1 -2.00098l2 -2l1.5 -1.5l1.5 -1.5c0 -0.666992 0.166992 -1.16699 0.5 -1.5l1.5 -1.5c1.33301 -2 2.16602 -3.83301 2.49902 -5.5
s0.833008 -3.16699 1.5 -4.5v-2c0 -0.666992 0.333008 -1.33398 1 -2.00098v-3v-2c0 -6.66699 -1 -12.5 -3 -17.5s-5 -9.5 -9 -13.5c-4 -3.33301 -8.66699 -6 -14 -8s-11.333 -3 -18 -3s-12.834 1.16699 -18.501 3.5s-10.5 5.16602 -14.5 8.49902
c-4.66699 4.66699 -8 10 -10 16s-3 12.333 -3 19s1.33301 13 4 19s7 11.333 13 16c5.33301 5.33301 11.333 9.33301 18 12s13.334 4 20.001 4c14 0 26.667 -2.5 38 -7.5s21 -12.5 29 -22.5s14 -21.667 18 -35s6 -28 6 -44c0 -6.66699 -0.5 -13.167 -1.5 -19.5
s-2.16699 -12.833 -3.5 -19.5c-1.33301 -6 -3.16602 -12.167 -5.49902 -18.5s-5.16602 -12.833 -8.49902 -19.5c-4 -7.33301 -8.33301 -14.5 -13 -21.5s-10 -14.167 -16 -21.5s-12.667 -14.666 -20 -21.999l-24 -23v0v0z" />
    <glyph glyph-name="hyphen" unicode="-" horiz-adv-x="223" 
d="M0 176l19 48h204l-15 -48h-208v0v0z" />
    <glyph glyph-name="period" unicode="." horiz-adv-x="240" 
d="M120 86c6.66699 -1.33301 12.667 -3.16699 18 -5.5s10.333 -5.83301 15 -10.5c4 -4.66699 7.16699 -9.66699 9.5 -15s3.5 -11 3.5 -17c0 -6.66699 -1.16699 -12.667 -3.5 -18s-5.5 -10.333 -9.5 -15c-4.66699 -3.33301 -9.66699 -6.16602 -15 -8.49902
s-11.333 -3.5 -18 -3.5s-12.667 1.16699 -18 3.5s-10.333 5.16602 -15 8.49902c-4.66699 4.66699 -8.16699 9.66699 -10.5 15s-3.5 11.333 -3.5 18s1.16699 12.667 3.5 18s5.83301 10.333 10.5 15c4.66699 4 9.66699 7.16699 15 9.5s11.333 3.5 18 3.5v2v0z" />
    <glyph glyph-name="slash" unicode="/" horiz-adv-x="390" 
d="M0 -253l273 945h43l-272 -945h-44v0v0z" />
    <glyph glyph-name="zero" unicode="0" horiz-adv-x="533" 
d="M38 331c0 20.667 0.663086 40.332 1.99609 58.999s3.33301 35.334 6 50.001c3.33301 15.333 7.5 30 12.5 44s11.167 27.667 18.5 41c1.33301 2 2.5 4 3.5 6s1.83301 4 2.5 6c0.666992 1.33301 1.33398 2.5 2.00098 3.5s1.33398 2.16699 2.00098 3.5
c0.666992 0.666992 1.33398 1.66699 2.00098 3s1.33398 2.33301 2.00098 3c9.33301 15.333 20.333 29.833 33 43.5s26.334 26.5 41.001 38.5c15.333 12 31.666 21 48.999 27s35.333 9 54 9c17.333 0 34.333 -2.5 51 -7.5s32.667 -12.5 48 -22.5s29.666 -22.167 42.999 -36.5
s25.333 -30.833 36 -49.5c8.66699 -14.667 16.167 -30 22.5 -46s11.5 -32.667 15.5 -50s7 -36.5 9 -57.5s3 -43.833 3 -68.5c0 -36 -3 -69.333 -9 -100s-14.667 -58.667 -26 -84c-11.333 -26 -25.5 -49.333 -42.5 -70s-36.833 -38.667 -59.5 -54
c-3.33301 -2.66699 -6.5 -5 -9.5 -7s-6.16699 -3.66699 -9.5 -5c-2.66699 -2 -5.5 -3.5 -8.5 -4.5s-6.16699 -2.16699 -9.5 -3.5c-4.66699 -1.33301 -9.16699 -2.5 -13.5 -3.5s-9.16602 -1.83301 -14.499 -2.5c-4.66699 -0.666992 -9.66699 -1.16699 -15 -1.5
s-11 -0.5 -17 -0.5c-16.667 0 -32.834 2 -48.501 6s-30.5 10.333 -44.5 19c-14 9.33301 -27.167 20.5 -39.5 33.5s-24.166 28.167 -35.499 45.5c-10 16 -18.667 32.333 -26 49s-13 34 -17 52c-4.66699 18 -8 37.833 -10 59.5s-3 45.167 -3 70.5v2v0zM127.996 351.998
c0 -45.333 1.1709 -85.167 3.50391 -119.5s5.83301 -63.166 10.5 -86.499s11 -44 19 -62s17.667 -33.667 29 -47c4 -4.66699 8.66699 -9 14 -13s11 -7.33301 17 -10s12.333 -4.66699 19 -6s13.667 -2 21 -2c25.333 0 47.166 6.5 65.499 19.5s33.166 32.5 44.499 58.5
s19.833 60 25.5 102s8.5 92 8.5 150c0 57.333 -2.66699 106.166 -8 146.499s-13.333 72.833 -24 97.5s-24.667 43.167 -42 55.5s-38.333 18.5 -63 18.5s-45.834 -6.16699 -63.501 -18.5s-32.167 -30.5 -43.5 -54.5c-10.667 -24.667 -18.834 -56.167 -24.501 -94.5
s-8.5 -83.833 -8.5 -136.5v2v0z" />
    <glyph glyph-name="one" unicode="1" horiz-adv-x="533" 
d="M346 667l0.000976562 -650.004h97v-17h-286v17h98v525v17v-1v1c-0.666992 0 -1 0.166992 -1 0.5v0.5v0l-1 1h-0.5h-0.5h-0.5c-0.333008 0 -0.5 0.333008 -0.5 1h-1v0h-1.5h-1.5c-4.66699 0 -10 -0.666992 -16 -2s-12.333 -3.33301 -19 -6l-10 -4l-10 -4
c-4 -1.33301 -7.66699 -2.83301 -11 -4.5s-6.66602 -3.5 -9.99902 -5.5c-2.66699 -1.33301 -5.16699 -2.66602 -7.5 -3.99902s-4.83301 -2.66602 -7.5 -3.99902l-8 -4c-2.66699 -1.33301 -5 -2.66602 -7 -3.99902l-14.5 -8.5c-5 -3 -9.5 -5.83301 -13.5 -8.5
c-4.66699 -2.66699 -8.83398 -5.16699 -12.501 -7.5l-10.5 -6.5v22c4 1.33301 8 3.33301 12 6s8.33301 5.33398 13 8.00098c4 2.66699 8.16699 5.16699 12.5 7.5l13.5 7.5c1.33301 1.33301 2.83301 2.5 4.5 3.5s3.5 1.83301 5.5 2.5c1.33301 1.33301 2.83301 2.5 4.5 3.5
s3.5 1.83301 5.5 2.5l40 25l39 26c13.333 9.33301 25.666 19 36.999 29s22 21 32 33l37 2v0v0z" />
    <glyph glyph-name="two" unicode="2" horiz-adv-x="533" 
d="M489 185c-2 -13.333 -3.83008 -25.002 -5.49707 -35.002l-4.5 -27c-0.666992 -8 -1.5 -15.5 -2.5 -22.5s-1.83301 -13.833 -2.5 -20.5c-0.666992 -1.33301 -1.16699 -2.5 -1.5 -3.5s-0.5 -2.16699 -0.5 -3.5v-2v-1v-2v-2
c-0.666992 -4.66699 -1.33398 -9.66699 -2.00098 -15l-2 -16c-0.666992 -5.33301 -1.33398 -11 -2.00098 -17l-2 -18h-442c5.33301 14.667 12.5 28.834 21.5 42.501s19.5 26.834 31.5 39.501c12 13.333 24.5 26.166 37.5 38.499l41.5 37.5
c3.33301 2.66699 6.5 5.33398 9.5 8.00098s5.83301 5.33398 8.5 8.00098l10 8l10 8c22.667 19.333 44.5 39.833 65.5 61.5s40.833 43.834 59.5 66.501c19.333 23.333 33.666 49.333 42.999 78s14 60.334 14 95.001c0 24 -3.5 45.5 -10.5 64.5s-17.5 35.833 -31.5 50.5
c-14 14 -30.5 24.667 -49.5 32s-40.167 11 -63.5 11c-18 0 -34.5 -1.66699 -49.5 -5s-28.833 -8.66602 -41.5 -15.999c-12.667 -6.66699 -23.667 -15.334 -33 -26.001s-17.666 -22.667 -24.999 -36c-1.33301 -3.33301 -2.5 -6.5 -3.5 -9.5s-2.16699 -6.16699 -3.5 -9.5
c-0.666992 -2.66699 -1.33398 -5.5 -2.00098 -8.5s-1 -5.5 -1 -7.5c0 -3.33301 0.333008 -6.5 1 -9.5s1.66699 -5.5 3 -7.5s3.16602 -3.5 5.49902 -4.5s4.83301 -1.5 7.5 -1.5h1.5h1.5h2c0.666992 0 1.33398 0.333008 2.00098 1h1h2h1.5h1.5
c8.66699 0 16.167 -1.16699 22.5 -3.5s11.5 -5.5 15.5 -9.5s7.16699 -9 9.5 -15s3.5 -13 3.5 -21c0 -6.66699 -1.16699 -12.834 -3.5 -18.501s-5.83301 -10.5 -10.5 -14.5c-4.66699 -4.66699 -9.66699 -8 -15 -10s-11.333 -3 -18 -3c-8.66699 0 -16.834 1.83301 -24.501 5.5
s-14.167 9.16699 -19.5 16.5c-6 7.33301 -10.333 15.833 -13 25.5s-4 20.167 -4 31.5c0 25.333 4.83301 48.5 14.5 69.5s24.167 39.833 43.5 56.5c19.333 16 41.5 28.167 66.5 36.5s52.833 12.5 83.5 12.5c33.333 0 63.833 -4.16699 91.5 -12.5s52.167 -21.166 73.5 -38.499
c21.333 -16.667 37.333 -36.167 48 -58.5s16 -47.166 16 -74.499c0 -30.667 -5.5 -58.667 -16.5 -84s-27.5 -48.666 -49.5 -69.999c-22 -20.667 -45 -40.834 -69 -60.501s-49 -38.834 -75 -57.501c-0.666992 -0.666992 -1.5 -1.33398 -2.5 -2.00098s-2.16699 -1 -3.5 -1
c-0.666992 -0.666992 -1.5 -1.33398 -2.5 -2.00098s-1.83301 -1.33398 -2.5 -2.00098c-2 -1.33301 -3.83301 -2.5 -5.5 -3.5s-3.16699 -2.16699 -4.5 -3.5l-40.5 -29.5l-37.5 -28.5c-12.667 -10 -24.167 -20 -34.5 -30s-20.166 -20.667 -29.499 -32l359 2l18 105h15v0v0z
" />
    <glyph glyph-name="three" unicode="3" horiz-adv-x="533" 
d="M104 367l1.00098 14.0029l66 1c29.333 -1.33301 56.166 -0.5 80.499 2.5s46.833 7.83301 67.5 14.5c20 6.66699 35.167 20.5 45.5 41.5s15.5 49.167 15.5 84.5c0 20.667 -2.66699 39 -8 55s-13.666 29.333 -24.999 40c-10.667 11.333 -24 19.666 -40 24.999
s-34.333 8 -55 8c-18.667 0 -36.334 -1.66699 -53.001 -5s-32.667 -8.66602 -48 -15.999c-14.667 -6.66699 -25.834 -14 -33.501 -22s-11.5 -16.333 -11.5 -25v-3.5c0 -1 0.333008 -1.83301 1 -2.5s1.5 -1 2.5 -1h2.5h2h2h0.5c0.333008 0 0.833008 0.333008 1.5 1h0.5h1.5h1
h2h0.5c0.333008 0 0.833008 0.333008 1.5 1h0.5h1.5c5.33301 0 10.333 -1 15 -3s9 -5 13 -9s7 -8.5 9 -13.5s3 -10.167 3 -15.5c0 -6.66699 -1 -13 -3 -19s-5 -11 -9 -15c-4 -4.66699 -8.66699 -8 -14 -10s-11 -3 -17 -3c-7.33301 0 -14 1.33301 -20 4s-11 6.66699 -15 12
c-4.66699 5.33301 -8 11.5 -10 18.5s-3 14.833 -3 23.5c0 16.667 4 32 12 46s20.333 26.667 37 38s35.167 19.833 55.5 25.5s42.833 8.5 67.5 8.5c32.667 0 62 -3.16699 88 -9.5s48.667 -15.833 68 -28.5s34 -27.667 44 -45s15 -36.666 15 -57.999
c0 -20.667 -3.66699 -39.5 -11 -56.5s-18 -32.167 -32 -45.5c-14 -12.667 -31.667 -23.5 -53 -32.5s-46.333 -15.833 -75 -20.5c31.333 -4 59.166 -11 83.499 -21s45.5 -23 63.5 -39s31.5 -34.167 40.5 -54.5s13.5 -42.833 13.5 -67.5c0 -27.333 -6.5 -52.666 -19.5 -75.999
s-32.5 -44.666 -58.5 -63.999c-26 -18.667 -54.667 -32.667 -86 -42s-65 -14 -101 -14c-28.667 0 -55 2.66699 -79 8s-45 13.333 -63 24c-18 11.333 -31.5 24.333 -40.5 39s-13.5 31 -13.5 49c0 11.333 1.33301 21.5 4 30.5s6.66699 16.833 12 23.5
c5.33301 7.33301 11.833 12.666 19.5 15.999s15.834 5 24.501 5c6.66699 0 12.834 -1.16699 18.501 -3.5s10.834 -5.83301 15.501 -10.5c5.33301 -4.66699 9.16602 -9.83398 11.499 -15.501s3.5 -11.834 3.5 -18.501c0 -7.33301 -1.16699 -14 -3.5 -20
s-5.83301 -11.667 -10.5 -17c-4.66699 -4.66699 -10.167 -8.16699 -16.5 -10.5s-13.166 -3.5 -20.499 -3.5h-1.5h-0.5h-1.5c-0.333008 0 -0.5 0.333008 -0.5 1h-1.5h-0.5h-1.5h-0.5l-5 4c-2 -1.33301 -4 -2.16602 -6 -2.49902s-3.66699 -0.833008 -5 -1.5
c-2 -0.666992 -3.33301 -1.83398 -4 -3.50098s-1 -3.83398 -1 -6.50098v-2.5v-2.5c0 -1.33301 0.166992 -2.33301 0.5 -3l1.5 -3c1.33301 -2 2.5 -3.83301 3.5 -5.5s2.5 -3.16699 4.5 -4.5c2 -2.66699 4.33301 -5.33398 7 -8.00098s5.33398 -5 8.00098 -7
c3.33301 -2.66699 6.5 -5 9.5 -7s6.5 -4 10.5 -6c8.66699 -4.66699 17.5 -8.5 26.5 -11.5s17.833 -5.5 26.5 -7.5c9.33301 -2 19.166 -3.5 29.499 -4.5s21.166 -1.5 32.499 -1.5c30 0 56.167 3.5 78.5 10.5s40.833 17.833 55.5 32.5c15.333 14 26.666 32.167 33.999 54.5
s11 48.833 11 79.5c0 25.333 -3.16699 48.666 -9.5 69.999s-16.166 40.333 -29.499 57c-12.667 16.667 -29 29.5 -49 38.5s-43.667 13.833 -71 14.5h-17.5h-16.5h-17.5h-16.5h-18h-17h-8.5c-3 0 -5.83301 0.333008 -8.5 1h-9h-8v2v0z" />
    <glyph glyph-name="four" unicode="4" horiz-adv-x="533" 
d="M494 304v-69h-99v-218h96v-17h-307v17h126v218h-296c-1.33301 -1.33301 -2.5 -2 -3.5 -2s-1.83301 0.333008 -2.5 1c-0.666992 0 -1 0.333008 -1 1v2v0.5c0 0.333008 0.333008 0.833008 1 1.5l0.5 0.5l1.5 1.5l369 442h17l-315 -379h229v228h85v-228h99v0v0z" />
    <glyph glyph-name="five" unicode="5" horiz-adv-x="533" 
d="M84 353l-11.0049 4.99805c2 5.33301 3.83301 11 5.5 17s3.16699 12 4.5 18c1.33301 5.33301 2.5 10.833 3.5 16.5s1.83301 11.167 2.5 16.5c0.666992 4.66699 1.16699 9.5 1.5 14.5s0.5 9.83301 0.5 14.5v7.5c0 2.33301 0.333008 4.83301 1 7.5v8.5v8.5
c0 6.66699 -0.166992 13.334 -0.5 20.001s-0.5 13.334 -0.5 20.001c-0.666992 6 -1.16699 12.333 -1.5 19s-0.833008 13.334 -1.5 20.001c-1.33301 13.333 -3 26.5 -5 39.5s-4.33301 25.833 -7 38.5h-0.5c-0.333008 0 -0.5 0.333008 -0.5 1v0v0v0.5v1.5
c0 3.33301 3 6.33301 9 9s15.333 5.33398 28 8.00098c12 2 25.333 3.66699 40 5s30.334 2 47.001 2c8.66699 0 18.5 -0.333008 29.5 -1s22.833 -1.66699 35.5 -3c13.333 -0.666992 26.666 -1.83398 39.999 -3.50098s27.333 -3.16699 42 -4.5
c2.66699 -0.666992 5.33398 -1.16699 8.00098 -1.5s5.33398 -0.833008 8.00098 -1.5s5.33398 -1.16699 8.00098 -1.5s5.33398 -0.5 8.00098 -0.5h0.5h1.5c0 -0.666992 0.166992 -1 0.5 -1h1.5h2h2h1.5h1.5c0.666992 -0.666992 1.16699 -1 1.5 -1h1.5h3h2c2 0 4 0.333008 6 1
s3.66699 1.66699 5 3s2.33301 3 3 5s1 4.33301 1 7v15h15c0 -17.333 -1.83301 -32.333 -5.5 -45s-9.16699 -23.667 -16.5 -33c-7.33301 -8.66699 -18.5 -15.334 -33.5 -20.001s-33.833 -7 -56.5 -7c-6.66699 0 -13.167 0.166992 -19.5 0.5s-12.5 0.833008 -18.5 1.5
c-6 1.33301 -12 2.5 -18 3.5s-12 1.83301 -18 2.5l-19.5 2l-18.5 2c-2.66699 0.666992 -5.66699 1.16699 -9 1.5s-6.33301 0.5 -9 0.5c-3.33301 0.666992 -6.5 1 -9.5 1h-9.5h-2h-2c-1.33301 -0.666992 -2.66602 -1 -3.99902 -1h-4h-4.5h-4.5
c-2 -0.666992 -3.83301 -1 -5.5 -1h-4.5c-4 -0.666992 -7.83301 -1.5 -11.5 -2.5s-7.16699 -2.16699 -10.5 -3.5s-5.83301 -2.83301 -7.5 -4.5s-2.5 -3.5 -2.5 -5.5c0.666992 -6.66699 1.16699 -13.5 1.5 -20.5s0.833008 -14.167 1.5 -21.5v-10.5
c0 -3.66699 0.333008 -7.16699 1 -10.5v-10.5v-10.5v-8.5v-9.5c-0.666992 -2.66699 -1 -5.33398 -1 -8.00098v-8c0 -4.66699 -0.166992 -9.5 -0.5 -14.5s-0.833008 -9.83301 -1.5 -14.5l-2 -12l-2 -12c-0.666992 -2 -1.16699 -4 -1.5 -6s-0.5 -4.33301 -0.5 -7
c-0.666992 -2 -1.16699 -4.16699 -1.5 -6.5s-0.833008 -4.5 -1.5 -6.5c9.33301 5.33301 19.166 10.166 29.499 14.499s20.833 7.83301 31.5 10.5c11.333 2.66699 23.666 4.66699 36.999 6s27.666 2 42.999 2c37.333 0 71.5 -5 102.5 -15s58.833 -24.667 83.5 -44
s43.167 -41.333 55.5 -66s18.5 -51.667 18.5 -81c0 -30.667 -6.66699 -58.834 -20 -84.501s-33.666 -48.5 -60.999 -68.5c-26.667 -20 -57.334 -34.667 -92.001 -44s-72.667 -14 -114 -14c-25.333 0 -48.5 2.83301 -69.5 8.5s-40.167 14.5 -57.5 26.5
c-16.667 12 -29.334 25.833 -38.001 41.5s-13 32.834 -13 51.501c0 10 1.33301 19 4 27s6.66699 15.333 12 22c5.33301 6 11.5 10.667 18.5 14s14.833 5 23.5 5c6.66699 0 12.834 -1.16699 18.501 -3.5s10.834 -5.5 15.501 -9.5c4.66699 -4.66699 8.16699 -9.66699 10.5 -15
s3.5 -11 3.5 -17c0 -6.66699 -1 -12.667 -3 -18s-5 -10 -9 -14s-8.66699 -7 -14 -9s-11 -3 -17 -3h-1.5h-1.5h-1.5h-0.5h-2h-2h-0.5c-0.333008 0 -0.5 0.333008 -0.5 1h-1v0c-2.66699 0 -5.33398 -0.5 -8.00098 -1.5s-5 -2.5 -7 -4.5s-3.5 -4.16699 -4.5 -6.5
s-1.5 -5.16602 -1.5 -8.49902c0 -9.33301 3.83301 -18.333 11.5 -27s18.834 -16.667 33.501 -24c15.333 -8 31.166 -13.833 47.499 -17.5s33.833 -5.5 52.5 -5.5s35.5 1 50.5 3s28.167 5 39.5 9s21.833 9.5 31.5 16.5s18.834 15.5 27.501 25.5c7.33301 8.66699 14 18 20 28
s11 21 15 33s7 24.167 9 36.5s3 24.833 3 37.5c0 28 -3.83301 53.833 -11.5 77.5s-19.167 44.834 -34.5 63.501c-15.333 19.333 -34.166 33.833 -56.499 43.5s-48.166 14.5 -77.499 14.5c-14 0 -27.333 -1 -40 -3s-24.667 -4.66699 -36 -8s-22.333 -7.83301 -33 -13.5
s-20.667 -12.167 -30 -19.5v2v0z" />
    <glyph glyph-name="six" unicode="6" horiz-adv-x="533" 
d="M454 683l3.99805 -13c-51.333 -12 -96.166 -26.5 -134.499 -43.5s-70.166 -36.833 -95.499 -59.5c-24.667 -22.667 -45 -53.167 -61 -91.5s-27.667 -85.166 -35 -140.499c10 15.333 20.667 28.5 32 39.5s23.333 19.833 36 26.5c13.333 7.33301 27.5 12.666 42.5 15.999
s31.5 5 49.5 5c30 0 57.5 -4.83301 82.5 -14.5s47.167 -24.167 66.5 -43.5c19.333 -18.667 34 -40.334 44 -65.001s15 -52 15 -82c0 -31.333 -5.66699 -60.333 -17 -87s-28.333 -50.667 -51 -72c-22.667 -22 -47.667 -38.167 -75 -48.5s-57.333 -15.5 -90 -15.5
c-38.667 0 -72.167 6.33301 -100.5 19s-52.166 32.334 -71.499 59.001c-18.667 26.667 -32.834 55.5 -42.501 86.5s-14.5 64.167 -14.5 99.5c0 52 9.5 100.667 28.5 146s47.5 87.333 85.5 126c38 39.333 82.167 71.5 132.5 96.5s106.833 43.167 169.5 54.5v2v0zM270.998 8
c22.667 -1.33301 42.501 2.33301 59.501 11s31.5 22 43.5 40c11.333 18 20 40 26 66s9 56.333 9 91c0 30 -2.83301 56.5 -8.5 79.5s-14.167 42.833 -25.5 59.5c-11.333 16 -25 28.167 -41 36.5s-34.333 12.5 -55 12.5c-10.667 0 -21 -1.16699 -31 -3.5
s-20 -5.83301 -30 -10.5s-19.5 -10 -28.5 -16s-17.167 -13 -24.5 -21c-2 -2 -3.66699 -3.83301 -5 -5.5s-2.66602 -3.16699 -3.99902 -4.5c-1.33301 -2 -2.5 -3.66699 -3.5 -5s-2.16699 -2.66602 -3.5 -3.99902c-4.66699 -6.66699 -8.5 -13.334 -11.5 -20.001
s-5.16699 -13.667 -6.5 -21c-1.33301 -6.66699 -2.33301 -15 -3 -25s-1 -21 -1 -33c0 -40.667 2.83301 -75.5 8.5 -104.5s14.167 -52.5 25.5 -70.5s26.166 -31.5 44.499 -40.5s40.166 -13.5 65.499 -13.5v2v0z" />
    <glyph glyph-name="seven" unicode="7" horiz-adv-x="533" 
d="M46 507h-14.9971c1.33301 8.66699 2.66602 16.667 3.99902 24s2.33301 14.333 3 21c1.33301 6.66699 2.5 13 3.5 19s1.83301 12 2.5 18v4.5c0 1.66699 0.333008 3.5 1 5.5v2c0 0.666992 0.333008 1.66699 1 3v2.5v2.5c0 4 0.166992 8 0.5 12s0.833008 8.33301 1.5 13
l2 14.5c0.666992 5 1.33398 10.5 2.00098 16.5l464 2l-131 -271l-49 -106.5c-14.667 -33 -27.667 -63.833 -39 -92.5s-19.833 -52.334 -25.5 -71.001s-8.5 -32 -8.5 -40c0 -2 0.166992 -3.83301 0.5 -5.5s0.833008 -3.16699 1.5 -4.5
c0.666992 -0.666992 1.5 -1.33398 2.5 -2.00098s1.83301 -1 2.5 -1h2h2h1.5c0.333008 0 0.833008 0.333008 1.5 1l0.5 0.5c0.333008 0.333008 0.833008 0.5 1.5 0.5h0.5h1.5v0l1 1h0.5h0.5c1.33301 0 2.5 0.166992 3.5 0.5s1.83301 0.833008 2.5 1.5h2
c0.666992 0 1.33398 0.333008 2.00098 1h2h2c6 0 11.5 -1 16.5 -3s9.5 -5 13.5 -9s7 -8.66699 9 -14s3 -11.333 3 -18s-1 -12.5 -3 -17.5s-5 -9.5 -9 -13.5c-4 -2.66699 -8.5 -5 -13.5 -7s-10.833 -3 -17.5 -3c-8.66699 0 -16.167 1.33301 -22.5 4s-11.833 6.66699 -16.5 12
c-4.66699 6 -8.16699 13 -10.5 21s-3.5 17.333 -3.5 28c0 6 0.5 12.667 1.5 20s2.5 15.333 4.5 24s4.66699 17.834 8 27.501l11 30.5l161 422h-361c-1.33301 -4.66699 -2.5 -8.5 -3.5 -11.5s-2.16699 -5.83301 -3.5 -8.5
c-0.666992 -2.66699 -1.33398 -5.16699 -2.00098 -7.5s-1.33398 -4.5 -2.00098 -6.5v-1.5v-0.5c-0.666992 -0.666992 -1 -1.16699 -1 -1.5v-0.5v-1.5v-0.5c-0.666992 -0.666992 -1 -1.16699 -1 -1.5v-0.5c-0.666992 -2.66699 -1.33398 -5.16699 -2.00098 -7.5
s-1.33398 -5.16602 -2.00098 -8.49902c-0.666992 -1.33301 -1.16699 -2.83301 -1.5 -4.5s-0.5 -3.16699 -0.5 -4.5c-0.666992 -2 -1.16699 -3.83301 -1.5 -5.5s-0.833008 -3.5 -1.5 -5.5v2v0z" />
    <glyph glyph-name="eight" unicode="8" horiz-adv-x="533" 
d="M240 357c-1.33301 -0.666992 -2.83008 -0.833008 -4.49707 -0.5s-3.16699 0.833008 -4.5 1.5c-2 0.666992 -3.83301 1.16699 -5.5 1.5s-3.16699 0.833008 -4.5 1.5s-2.83301 1.16699 -4.5 1.5s-3.16699 0.833008 -4.5 1.5c-2 0.666992 -3.83301 1.16699 -5.5 1.5
s-3.16699 0.833008 -4.5 1.5c-17.333 6 -34 13.167 -50 21.5s-31 17.833 -45 28.5c-14.667 11.333 -25.5 24.833 -32.5 40.5s-10.5 33.834 -10.5 54.501c0 21.333 4.83301 41.333 14.5 60s24.5 35.334 44.5 50.001c19.333 15.333 40.833 26.833 64.5 34.5
s49.5 11.5 77.5 11.5c30 0 57.167 -3.66699 81.5 -11s45.833 -18 64.5 -32c19.333 -14.667 33.666 -31.167 42.999 -49.5s14 -38.833 14 -61.5c0 -19.333 -3.16699 -36.333 -9.5 -51s-16.166 -27 -29.499 -37c-12.667 -10 -26.167 -19.167 -40.5 -27.5
s-29.166 -15.833 -44.499 -22.5c-2.66699 -1.33301 -5.5 -2.66602 -8.5 -3.99902s-6.16699 -2.66602 -9.5 -3.99902c-2.66699 -0.666992 -5.33398 -1.5 -8.00098 -2.5s-5.33398 -2.16699 -8.00098 -3.5l-4 -2l-4 -2c-0.666992 0 -1.33398 -0.166992 -2.00098 -0.5l-1 -0.5
c-0.666992 -0.666992 -1.33398 -1.16699 -2.00098 -1.5s-1.33398 -0.5 -2.00098 -0.5l13 -4.5c4.66699 -1.66699 9.33398 -3.16699 14.001 -4.5c4.66699 -2 9.33398 -3.83301 14.001 -5.5s9.33398 -3.16699 14.001 -4.5c18.667 -8 36.5 -17 53.5 -27s33.5 -21.667 49.5 -35
c15.333 -12.667 27 -27.834 35 -45.501s12 -37.5 12 -59.5c0 -24.667 -5.66699 -47.334 -17 -68.001s-28 -39.667 -50 -57c-22.667 -16.667 -47.667 -29.167 -75 -37.5s-57.333 -12.5 -90 -12.5c-36.667 0 -69.334 3.66699 -98.001 11s-53.667 18.666 -75 33.999
c-20.667 15.333 -36.334 33.5 -47.001 54.5s-16 44.833 -16 71.5c0 21.333 4.33301 41.166 13 59.499s21.667 35.5 39 51.5s39 30.5 65 43.5s56.333 24.833 91 35.5v2v0zM267.003 350.001c-26 -7.33301 -47.998 -16.1709 -65.998 -26.5039s-32.333 -23.166 -43 -38.499
c-10.667 -14.667 -18.667 -32.334 -24 -53.001s-8 -44.334 -8 -71.001c0 -24.667 3 -46.667 9 -66s15.333 -35.666 28 -48.999c12 -13.333 27 -23.333 45 -30s38.333 -10 61 -10c22 0 41.5 3.33301 58.5 10s31.5 16.667 43.5 30s21 29.5 27 48.5s9 40.833 9 65.5
c0 19.333 -1.5 37.333 -4.5 54s-7.5 32 -13.5 46s-13 26.167 -21 36.5s-17.667 18.833 -29 25.5h-1.5c-0.333008 0 -0.5 0.333008 -0.5 1c-0.666992 0 -1.16699 0.166992 -1.5 0.5s-0.833008 0.5 -1.5 0.5c-0.666992 0.666992 -1.33398 1.16699 -2.00098 1.5
s-1.33398 0.833008 -2.00098 1.5c-1.33301 0.666992 -2.83301 1.33398 -4.5 2.00098s-3.16699 1.33398 -4.5 2.00098s-2.83301 1.33398 -4.5 2.00098s-3.16699 1.33398 -4.5 2.00098c-2.66699 1.33301 -5.5 2.5 -8.5 3.5s-6.16699 1.83301 -9.5 2.5
c-4 1.33301 -8.16699 2.5 -12.5 3.5l-14.5 3.5v2v0zM269.005 363.996c19.333 3.33301 36.335 9.16699 51.002 17.5s26.334 18.5 35.001 30.5c9.33301 12 16.166 26.333 20.499 43s6.5 35.667 6.5 57c0 24.667 -2.33301 46 -7 64s-11.667 32.667 -21 44
c-8.66699 11.333 -20.5 19.833 -35.5 25.5s-32.833 8.5 -53.5 8.5c-19.333 0 -36.333 -3 -51 -9s-26.667 -14.667 -36 -26c-10 -11.333 -17.333 -25.833 -22 -43.5s-7 -38.167 -7 -61.5c0 -21.333 2.33301 -40.5 7 -57.5s11.667 -31.5 21 -43.5
c9.33301 -12.667 21.666 -23.167 36.999 -31.5s33.666 -14.833 54.999 -19.5v2v0z" />
    <glyph glyph-name="nine" unicode="9" horiz-adv-x="533" 
d="M88 -19l-4.00293 14.0029c51.333 10.667 96 24.667 134 42s69.667 38 95 62s45.333 55.5 60 94.5s24.334 85.5 29.001 139.5c-9.33301 -16 -19.5 -29.833 -30.5 -41.5s-22.5 -21.167 -34.5 -28.5c-12.667 -7.33301 -26.5 -12.833 -41.5 -16.5s-31.5 -5.5 -49.5 -5.5
c-30.667 0 -58.667 4.5 -84 13.5s-48 22.833 -68 41.5c-20.667 18.667 -36 39.667 -46 63s-15 49.333 -15 78c0 31.333 5.5 60.666 16.5 87.999s27.5 52.333 49.5 75s46.333 39.667 73 51s55.334 17 86.001 17c35.333 0 67 -6.16699 95 -18.5s53 -31.166 75 -56.499
c22 -24.667 38.5 -53.5 49.5 -86.5s16.5 -69.5 16.5 -109.5v-8c0 -2.66699 -0.333008 -5 -1 -7c0 -2.66699 -0.166992 -5.33398 -0.5 -8.00098s-0.5 -5.33398 -0.5 -8.00098c-0.666992 -4.66699 -1.16699 -9.5 -1.5 -14.5s-1.16602 -10.167 -2.49902 -15.5
c-4 -20.667 -9.83301 -41.5 -17.5 -62.5s-17.167 -41.5 -28.5 -61.5c-10.667 -20 -23 -38.667 -37 -56s-29.333 -33.666 -46 -48.999s-34.667 -29.5 -54 -42.5s-40 -24.5 -62 -34.5c-22 -10.667 -46 -19.834 -72 -27.501s-53.667 -14.834 -83 -21.501v0v0zM122.997 447.003
v-10.999v-10c0 -2.66699 0.166992 -5.5 0.5 -8.5s0.833008 -6.16699 1.5 -9.5c2 -18.667 5.83301 -36.667 11.5 -54s13.167 -33.666 22.5 -48.999c9.33301 -16 21.833 -27.833 37.5 -35.5s34.5 -11.5 56.5 -11.5c26 0 48.667 4.33301 68 13s35 21.667 47 39
s21.167 36.333 27.5 57s9.5 43 9.5 67c0 36.667 -3.16699 68.667 -9.5 96s-15.5 50.333 -27.5 69c-12.667 18.667 -28.167 32.667 -46.5 42s-39.833 14 -64.5 14c-23.333 0 -43.5 -4.16699 -60.5 -12.5s-30.833 -20.833 -41.5 -37.5s-18.667 -38.334 -24 -65.001
s-8 -58.334 -8 -95.001v2v0z" />
    <glyph glyph-name="colon" unicode=":" horiz-adv-x="240" 
d="M120 86c6.66699 -1.33301 12.667 -3.16699 18 -5.5s10.333 -5.83301 15 -10.5c4 -4.66699 7.16699 -9.66699 9.5 -15s3.5 -11 3.5 -17c0 -6.66699 -1.16699 -12.667 -3.5 -18s-5.5 -10.333 -9.5 -15c-4.66699 -3.33301 -9.66699 -6.16602 -15 -8.49902
s-11.333 -3.5 -18 -3.5s-12.667 1.16699 -18 3.5s-10.333 5.16602 -15 8.49902c-4.66699 4.66699 -8.16699 9.66699 -10.5 15s-3.5 11.333 -3.5 18s1.16699 12.667 3.5 18s5.83301 10.333 10.5 15c4.66699 4 9.66699 7.16699 15 9.5s11.333 3.5 18 3.5v2v0zM120 361.999
c6.66699 -1.33301 12.667 -3.16699 18 -5.5s10.333 -5.83301 15 -10.5c4 -4.66699 7.16699 -9.66699 9.5 -15s3.5 -11.333 3.5 -18s-1.16699 -12.667 -3.5 -18s-5.5 -10.333 -9.5 -15c-4.66699 -4.66699 -9.66699 -8 -15 -10s-11.333 -3 -18 -3s-12.667 1 -18 3
s-10.333 5.33301 -15 10s-8.16699 9.66699 -10.5 15s-3.5 11.333 -3.5 18s1.16699 12.667 3.5 18s5.83301 10.333 10.5 15s9.66699 8.16699 15 10.5s11.333 3.5 18 3.5v2v0z" />
    <glyph glyph-name="semicolon" unicode=";" horiz-adv-x="241" 
d="M98 -186l-12.001 13c14.667 12.667 27.5 25.334 38.5 38.001s19.833 25.667 26.5 39c7.33301 12.667 12.833 25.834 16.5 39.501s5.5 27.5 5.5 41.5v2.5v3.5c-0.666992 0.666992 -1 1.5 -1 2.5v3.5v2v2c-0.666992 1.33301 -1 2.5 -1 3.5v2.5
c-2 7.33301 -4.5 14.333 -7.5 21s-6.5 13 -10.5 19s-9 10.5 -15 13.5s-13 4.5 -21 4.5l2 -2l2 -2c0 -0.666992 0.333008 -1.33398 1 -2.00098l2 -2l1.5 -1.5l1.5 -1.5c0 -0.666992 0.166992 -1.16699 0.5 -1.5l1.5 -1.5c1.33301 -2 2.16602 -3.83301 2.49902 -5.5
s0.833008 -3.16699 1.5 -4.5v-2c0 -0.666992 0.333008 -1.33398 1 -2.00098v-3v-2c0 -6.66699 -1 -12.5 -3 -17.5s-5 -9.5 -9 -13.5c-4 -3.33301 -8.66699 -6 -14 -8s-11.333 -3 -18 -3s-12.834 1.16699 -18.501 3.5s-10.5 5.16602 -14.5 8.49902
c-4.66699 4.66699 -8 10 -10 16s-3 12.333 -3 19s1.33301 13 4 19s7 11.333 13 16c5.33301 5.33301 11.333 9.33301 18 12s13.334 4 20.001 4c14 0 26.667 -2.5 38 -7.5s21 -12.5 29 -22.5s14 -21.667 18 -35s6 -28 6 -44c0 -6.66699 -0.5 -13.167 -1.5 -19.5
s-2.16699 -12.833 -3.5 -19.5c-1.33301 -6 -3.16602 -12.167 -5.49902 -18.5s-5.16602 -12.833 -8.49902 -19.5c-4 -7.33301 -8.33301 -14.5 -13 -21.5s-10 -14.167 -16 -21.5s-12.667 -14.666 -20 -21.999l-24 -23v0v0zM110.999 362c6 -1.33301 11.667 -3.16699 17 -5.5
s10.333 -5.83301 15 -10.5s8.16699 -9.66699 10.5 -15s3.5 -11.333 3.5 -18s-1.16699 -12.667 -3.5 -18s-5.83301 -10.333 -10.5 -15s-9.66699 -8 -15 -10s-11 -3 -17 -3c-6.66699 0 -12.667 1 -18 3s-10.333 5.33301 -15 10s-8.16699 9.66699 -10.5 15s-3.5 11.333 -3.5 18
s1.16699 12.667 3.5 18s5.83301 10.333 10.5 15s9.66699 8.16699 15 10.5s11.333 3.5 18 3.5v2v0z" />
    <glyph glyph-name="less" unicode="&#x3c;" horiz-adv-x="500" 
d="M466 573v-78l-350 -160l350 -161v-77l-433 204v68l433 204v0v0z" />
    <glyph glyph-name="equal" unicode="=" horiz-adv-x="533" 
d="M500 292v-27h-467v27h467v0v0zM500 403v-27h-467v27h467v0v0z" />
    <glyph glyph-name="greater" unicode="&#x3e;" horiz-adv-x="500" 
d="M34 97v77l350 161l-350 161v77l433 -205v-67l-433 -204v0v0z" />
    <glyph glyph-name="question" unicode="?" horiz-adv-x="390" 
d="M133 83c6 -1.33301 11.667 -3.16699 17 -5.5s10.333 -5.5 15 -9.5c4 -4.66699 7.16699 -9.66699 9.5 -15s3.5 -11 3.5 -17c0 -6.66699 -1.16699 -12.667 -3.5 -18s-5.5 -10 -9.5 -14c-4.66699 -2.66699 -9.66699 -5.16699 -15 -7.5s-11 -3.5 -17 -3.5
s-11.667 1.16699 -17 3.5s-10.333 4.83301 -15 7.5c-4.66699 4 -8 8.66699 -10 14s-3 11.333 -3 18c0 6 1 11.667 3 17s5.33301 10.333 10 15c4.66699 4 9.66699 7.16699 15 9.5s11 3.5 17 3.5v2v0zM123 137.999c-2 7.33301 -3.83398 14.832 -5.50098 22.499
s-3.16699 15.167 -4.5 22.5c-0.666992 7.33301 -1.5 14.5 -2.5 21.5s-1.83301 13.833 -2.5 20.5v4v4c-0.666992 0.666992 -1 1.66699 -1 3v4v8v8c0 11.333 1.33301 22.5 4 33.5s6.33398 21.5 11.001 31.5c5.33301 10 11.333 19.167 18 27.5s14.334 15.833 23.001 22.5
c4 3.33301 8 6.5 12 9.5s8.33301 5.83301 13 8.5c4 3.33301 8.33301 6.5 13 9.5s9.33398 6.16699 14.001 9.5c13.333 10 26.166 20.667 38.499 32s23.833 23.333 34.5 36c11.333 12.667 19.666 26.334 24.999 41.001s8 30.334 8 47.001c0 14 -3.16699 26.833 -9.5 38.5
s-16.166 22.5 -29.499 32.5c-12.667 10 -26.834 17.5 -42.501 22.5s-32.5 7.5 -50.5 7.5c-2.66699 0 -5.83398 -0.166992 -9.50098 -0.5s-7.5 -0.833008 -11.5 -1.5c-4.66699 -0.666992 -9.16699 -1.66699 -13.5 -3s-9.16602 -2.66602 -14.499 -3.99902
c-6.66699 -2.66699 -13.334 -5.5 -20.001 -8.5s-13 -6.5 -19 -10.5s-10.5 -8.5 -13.5 -13.5s-4.5 -10.167 -4.5 -15.5c0 -2 0.333008 -3.66699 1 -5s1.66699 -2.66602 3 -3.99902c1.33301 -0.666992 2.83301 -1.5 4.5 -2.5s3.83398 -1.5 6.50098 -1.5
c8.66699 -2 16.167 -4 22.5 -6s11.5 -4.66699 15.5 -8c4 -2.66699 7 -6.83398 9 -12.501s3 -12.5 3 -20.5c0 -6.66699 -1.16699 -12.667 -3.5 -18s-5.5 -10 -9.5 -14c-4 -4.66699 -8.66699 -8 -14 -10s-11 -3 -17 -3c-8 0 -15 1.5 -21 4.5s-11.667 7.83301 -17 14.5
c-4.66699 6 -8.33398 13 -11.001 21s-4 17 -4 27c0 15.333 3.33301 29.5 10 42.5s16.667 24.833 30 35.5c13.333 11.333 28.166 19.666 44.499 24.999s33.833 8 52.5 8c24.667 0 46.834 -3.66699 66.501 -11s36.834 -18.666 51.501 -33.999
c14.667 -14.667 25.667 -32 33 -52s11 -42.333 11 -67c0 -17.333 -1.16699 -33 -3.5 -47s-6.16602 -26.333 -11.499 -37c-4.66699 -10.667 -10.334 -21 -17.001 -31s-14.667 -19.667 -24 -29l-13.5 -13.5c-4.33301 -4.33301 -9.16602 -8.83301 -14.499 -13.5
c-4.66699 -4.66699 -9.83398 -9.5 -15.501 -14.5l-17.5 -15.5l-7.5 -7.5c-2.33301 -2.33301 -4.83301 -4.5 -7.5 -6.5l-8 -6l-8 -6l-2.5 -2.5c-1 -1 -2.16699 -1.83301 -3.5 -2.5c-0.666992 -0.666992 -1.5 -1.33398 -2.5 -2.00098s-2.16699 -1.33398 -3.5 -2.00098
c-8 -6 -15.333 -12.167 -22 -18.5s-13 -13.166 -19 -20.499c-6 -6.66699 -10.5 -14.834 -13.5 -24.501s-4.5 -20.167 -4.5 -31.5v-3.5v-3.5v-2.5v-3.5c0 -2 0.166992 -4.16699 0.5 -6.5s0.833008 -4.83301 1.5 -7.5c0 -2.66699 0.5 -5.5 1.5 -8.5s1.83301 -6.5 2.5 -10.5
l-14 -2v0v0z" />
    <glyph glyph-name="at" unicode="@" horiz-adv-x="722" 
d="M574 512l-86.001 -298.996v-2.5v-0.5c-0.666992 -0.666992 -1 -1.16699 -1 -1.5v-0.5v-1.5v-0.5c-0.666992 -2.66699 -1.33398 -5.16699 -2.00098 -7.5s-1 -4.5 -1 -6.5c-0.666992 -2 -1 -3.83301 -1 -5.5v-4.5c0 -4.66699 0.5 -8.66699 1.5 -12s2.83301 -6.33301 5.5 -9
c2 -2.66699 4.66699 -4.66699 8 -6s7.33301 -2 12 -2c2.66699 0 5.66699 0.5 9 1.5s7 2.5 11 4.5s8.33301 4.33301 13 7s9.33398 5.66699 14.001 9l1 0.5c0.666992 0.333008 1.33398 0.833008 2.00098 1.5l1.5 1.5l1.5 1.5c12 9.33301 23.167 19.833 33.5 31.5
s19.833 24.834 28.5 39.501c8.66699 14 16 28.5 22 43.5s10.667 30.167 14 45.5c0.666992 2 1.16699 4 1.5 6s0.5 4.33301 0.5 7c0.666992 2 1.16699 4 1.5 6s0.5 4 0.5 6c0.666992 4 1.16699 8.16699 1.5 12.5s0.5 8.83301 0.5 13.5c0 38 -7 72.833 -21 104.5
s-35 60.5 -63 86.5c-28 25.333 -59.167 44.5 -93.5 57.5s-72.166 19.5 -113.499 19.5c-44 0 -84.833 -8.16699 -122.5 -24.5s-72.167 -40.5 -103.5 -72.5c-31.333 -32.667 -54.833 -68.334 -70.5 -107.001s-23.5 -80.667 -23.5 -126c0 -44.667 7.5 -86.334 22.5 -125.001
s37.5 -74 67.5 -106s63.333 -56 100 -72s76.334 -24 119.001 -24h3.5h2.5h3.5h2.5c30 1.33301 59 6.66602 87 15.999s55.333 22.666 82 39.999c26 17.333 47.667 36.333 65 57s30.333 43.334 39 68.001l24 2c-11.333 -30.667 -27 -58.167 -47 -82.5s-44.333 -45.5 -73 -63.5
s-58.834 -31.333 -90.501 -40s-64.834 -13 -99.501 -13c-44.667 0 -86.334 8.16699 -125.001 24.5s-74 41.166 -106 74.499s-56 70.166 -72 110.499s-24 84.166 -24 131.499c0 48 8.33301 92.5 25 133.5s41.667 78.833 75 113.5s70.166 60.667 110.499 78
s83.833 26 130.5 26c43.333 0 83.333 -6.66699 120 -20s69.667 -33.666 99 -60.999c29.333 -26.667 51.333 -57 66 -91s22 -71.333 22 -112c0 -22.667 -2.5 -45 -7.5 -67s-12.5 -43 -22.5 -63s-21.833 -38.167 -35.5 -54.5s-29.167 -30.833 -46.5 -43.5
c-1.33301 -0.666992 -2.66602 -1.5 -3.99902 -2.5s-2.66602 -2.16699 -3.99902 -3.5c-0.666992 -0.666992 -1.33398 -1.16699 -2.00098 -1.5l-1 -0.5c-0.666992 -0.666992 -1.33398 -1.16699 -2.00098 -1.5s-1.33398 -0.5 -2.00098 -0.5
c-6.66699 -4 -13.167 -7.66699 -19.5 -11s-12.5 -6 -18.5 -8s-11.833 -3.5 -17.5 -4.5s-11.167 -1.5 -16.5 -1.5c-10 0 -19.167 1.33301 -27.5 4s-16.166 6.66699 -23.499 12c-6.66699 5.33301 -11.667 11.333 -15 18s-5 14 -5 22v5c0 2 0.333008 4 1 6c0 2 0.333008 4 1 6
s1.33398 4.33301 2.00098 7l-7.5 -9.5l-7.5 -9.5c-2.66699 -2.66699 -5.16699 -5.5 -7.5 -8.5l-6.5 -8.5l-12 -11.5l-12 -10.5l-13 -7.5c-4 -2.33301 -8 -4.5 -12 -6.5c-8 -4 -16.5 -6.83301 -25.5 -8.5s-18.167 -2.5 -27.5 -2.5c-17.333 0 -33 3.33301 -47 10
s-26.667 16.667 -38 30c-10.667 13.333 -18.667 29 -24 47s-8 38 -8 60v9.5c0 3 0.333008 6.16699 1 9.5v4.5c0 1.66699 0.333008 3.5 1 5.5c0 1.33301 0.166992 2.83301 0.5 4.5s0.833008 3.16699 1.5 4.5c4.66699 27.333 13.667 53.5 27 78.5s31 48.833 53 71.5
s45.5 39.667 70.5 51s51.833 17 80.5 17c11.333 0 21.333 -1.5 30 -4.5s16.334 -7.5 23.001 -13.5s12.167 -13.5 16.5 -22.5s7.83301 -19.5 10.5 -31.5l14 53h74v0v0zM431.999 274.004l43.002 148.999v-1v1v0.5c0 0.333008 0.333008 0.833008 1 1.5v0.5v1.5v0.5v1.5
c0 13.333 -1.66699 25 -5 35s-8 18.667 -14 26s-13.167 13 -21.5 17s-17.833 6 -28.5 6c-14.667 0 -28.334 -2.66699 -41.001 -8s-24.667 -13.666 -36 -24.999c-10.667 -10.667 -20.834 -24.334 -30.501 -41.001s-18.167 -36 -25.5 -58
c-6 -17.333 -11.333 -33.833 -16 -49.5s-8.66699 -30.5 -12 -44.5c-2.66699 -14 -4.83398 -26.667 -6.50098 -38s-2.5 -21.333 -2.5 -30c0 -12.667 1.33301 -23.5 4 -32.5s6.33398 -16.5 11.001 -22.5c5.33301 -6 11.5 -10.5 18.5 -13.5s15.5 -4.5 25.5 -4.5h6
c2 0 4.33301 0.333008 7 1h3.5c1 0 2.16699 0.333008 3.5 1c0.666992 0 1.66699 0.166992 3 0.5s2.33301 0.833008 3 1.5c11.333 3.33301 22.5 8.83301 33.5 16.5s21.833 17.167 32.5 28.5c10 11.333 18.667 23.333 26 36s13.333 26.334 18 41.001v2v0z" />
    <glyph glyph-name="A" unicode="A" horiz-adv-x="666" 
d="M-3 17c14 -1.33301 26.002 -1.66602 36.002 -0.999023s18 1.66699 24 3c5.33301 1.33301 10.5 4.5 15.5 9.5s9.5 11.5 13.5 19.5c1.33301 2.66699 2.66602 5.5 3.99902 8.5s2.66602 6.16699 3.99902 9.5s2.66602 7.16602 3.99902 11.499s3 8.83301 5 13.5l210 586h14
l251 -660h85v-17h-291v17h100l-77 201h-228l-46 -127l-5 -18.5c-1.33301 -5 -2.66602 -9.16699 -3.99902 -12.5c-0.666992 -4 -1.33398 -7.33301 -2.00098 -10s-1 -4.66699 -1 -6c0 -5.33301 1.33301 -10 4 -14s6.33398 -7 11.001 -9c5.33301 -2 12.333 -3.5 21 -4.5
s19 -1.5 31 -1.5l31 2v-17h-210v17v0v0zM173.002 235h216l-111 296l-105 -296v0v0z" />
    <glyph glyph-name="B" unicode="B" horiz-adv-x="616" 
d="M370 354l0.00195312 -1.50195c0 -0.333008 0.333008 -0.5 1 -0.5v0v0h0.5h1.5c25.333 -4 49.333 -10 72 -18s44.334 -18 65.001 -30c21.333 -12 37.166 -28.333 47.499 -49s15.5 -46 15.5 -76c0 -14.667 -1.66699 -28.667 -5 -42s-8.33301 -26 -15 -38
c-6.66699 -12.667 -14.667 -24.167 -24 -34.5s-20.333 -19.833 -33 -28.5c-2.66699 -2 -5.5 -4 -8.5 -6s-5.83301 -3.66699 -8.5 -5s-5.16699 -2.66602 -7.5 -3.99902s-4.5 -2.66602 -6.5 -3.99902c-8 -4.66699 -16.667 -8.16699 -26 -10.5s-19.333 -4.16602 -30 -5.49902
c-10.667 -0.666992 -24.167 -1 -40.5 -1h-58.5h-293v17h97v633h-97v17h239c8 -1.33301 16.5 -2.16602 25.5 -2.49902s18.5 -0.5 28.5 -0.5c9.33301 -0.666992 19 -1.16699 29 -1.5s20 -1.16602 30 -2.49902c23.333 -2.66699 45.666 -7.33398 66.999 -14.001
s41.666 -15.334 60.999 -26.001s34 -25.334 44 -44.001s15 -41.334 15 -68.001c0 -28 -4.66699 -51.667 -14 -71s-23.666 -34.666 -42.999 -45.999c-18.667 -11.333 -38.834 -20.333 -60.501 -27s-44.5 -10.667 -68.5 -12v2v0zM211.002 347.998l-0.000976562 -331.001h28
c31.333 -1.33301 58 -1 80 1s39.667 5.33301 53 10s25.333 11.5 36 20.5s20.334 20.167 29.001 33.5c4.66699 7.33301 8.66699 14.833 12 22.5s6.33301 15.834 9 24.501c2 8 3.66699 16.5 5 25.5s2 17.833 2 26.5c0 19.333 -2.66699 37.333 -8 54s-13.333 32 -24 46
s-23.5 25.5 -38.5 34.5s-32.5 15.833 -52.5 20.5c-2.66699 0.666992 -5.66699 1.16699 -9 1.5s-6.33301 0.833008 -9 1.5c-3.33301 0.666992 -6.5 1.16699 -9.5 1.5s-6.16699 0.833008 -9.5 1.5c-6.66699 0.666992 -13.167 1.16699 -19.5 1.5s-12.5 0.833008 -18.5 1.5h-7.5
c-2.33301 0 -4.5 0.333008 -6.5 1h-7.5h-6.5h-14h-14v2v0zM211.001 649.997v-288.004h18c25.333 -1.33301 46.666 -1.66602 63.999 -0.999023s31.333 1.33398 42 2.00098c10.667 1.33301 20.5 3 29.5 5s17.167 4.66699 24.5 8h0.5h1.5c0.666992 0 1.16699 0.166992 1.5 0.5
l1.5 1.5c10 4.66699 18.833 10.667 26.5 18s14.167 16 19.5 26s9.5 20.833 12.5 32.5s4.5 24.167 4.5 37.5s-1.33301 25.833 -4 37.5s-6.66699 22.834 -12 33.501c-5.33301 10 -12 19.333 -20 28s-17 16.334 -27 23.001c-2 1.33301 -3.83301 2.5 -5.5 3.5
s-3.16699 1.83301 -4.5 2.5c-2 1.33301 -3.66699 2.5 -5 3.5s-2.66602 1.83301 -3.99902 2.5c-8.66699 4 -17.834 7.5 -27.501 10.5s-19.5 5.16699 -29.5 6.5s-22.167 2.5 -36.5 3.5s-31.166 1.5 -50.499 1.5l-20 2v0v0z" />
    <glyph glyph-name="C" unicode="C" horiz-adv-x="642" 
d="M568 0c0 8 -0.834961 15.499 -2.50195 22.499s-4.16699 13.167 -7.5 18.5c-2.66699 5.33301 -6.16699 9.33301 -10.5 12s-9.16602 4 -14.499 4c-4 0 -8.33301 -1 -13 -3s-9.66699 -4.66699 -15 -8c-5.33301 -4 -11.166 -8 -17.499 -12s-13.166 -8 -20.499 -12
c-7.33301 -4.66699 -15.333 -8.83398 -24 -12.501s-18 -6.83398 -28 -9.50098c-10 -3.33301 -20.667 -6 -32 -8s-23.666 -3 -36.999 -3c-44.667 0 -85.5 7.83301 -122.5 23.5s-70.167 39.5 -99.5 71.5s-51.333 68.167 -66 108.5s-22 84.833 -22 133.5
c0 48 7.66699 92.5 23 133.5s38.333 78.5 69 112.5c31.333 34 65.5 59.667 102.5 77s77.5 26 121.5 26c12 0 23.333 -1 34 -3s21 -4.66699 31 -8c9.33301 -3.33301 18.333 -6.83301 27 -10.5s17 -7.5 25 -11.5l21 -13l18 -11c5.33301 -3.33301 10.5 -5.83301 15.5 -7.5
s9.5 -2.5 13.5 -2.5c4.66699 0 8.66699 0.833008 12 2.5s6.33301 3.83398 9 6.50098c2 3.33301 4 7.66602 6 12.999s3.33301 11.333 4 18l17 2v-201h-17c-2.66699 28.667 -9.66699 55.334 -21 80.001s-27 47.334 -47 68.001c-20.667 21.333 -43.667 37.166 -69 47.499
s-53 15.5 -83 15.5c-32.667 0 -60.834 -6 -84.501 -18s-42.5 -30 -56.5 -54s-25.5 -49 -34.5 -75s-15.167 -53.667 -18.5 -83c-1.33301 -9.33301 -2.5 -18.666 -3.5 -27.999s-1.83301 -18.666 -2.5 -27.999c-0.666992 -8.66699 -1 -17.5 -1 -26.5v-25.5
c0 -52.667 4.16699 -99 12.5 -139s20.833 -73.667 37.5 -101c16.667 -26.667 37.167 -46.667 61.5 -60s52.833 -20 85.5 -20c23.333 0 45.666 3.5 66.999 10.5s42 17.5 62 31.5s36.833 30 50.5 48s24.167 38 31.5 60c0.666992 1.33301 1.16699 2.5 1.5 3.5
s0.5 2.16699 0.5 3.5c0.666992 0.666992 1.16699 1.66699 1.5 3s0.5 2.33301 0.5 3l2 6l2 6c0.666992 3.33301 1.16699 7 1.5 11s0.833008 8.33301 1.5 13s1.16699 10 1.5 16s0.5 12.333 0.5 19l17 2v-238h-17v0v0z" />
    <glyph glyph-name="D" unicode="D" horiz-adv-x="717" 
d="M16 667l246.003 -0.000976562c5.33301 -1.33301 10.166 -2 14.499 -2h13.5h12h11c3.33301 -0.666992 6.66602 -1 9.99902 -1h9h8.5h6.5c47.333 -0.666992 90.833 -9.16699 130.5 -25.5s75.5 -40.166 107.5 -71.499c31.333 -31.333 55 -66.833 71 -106.5
s24 -83.167 24 -130.5c0 -37.333 -5 -72.5 -15 -105.5s-24.667 -63.833 -44 -92.5c-20 -28.667 -42.833 -52.5 -68.5 -71.5s-54.5 -33.167 -86.5 -42.5c-4.66699 -2 -9.33398 -3.5 -14.001 -4.5s-9 -2.16699 -13 -3.5c-4 -0.666992 -8 -1.5 -12 -2.5
s-7.66699 -1.83301 -11 -2.5c-8 -2 -16.5 -3.33301 -25.5 -4s-18.167 -1 -27.5 -1h-36h-50h-261v17h97v633h-97v17v0v0zM211.003 16.999c1.33301 -1.33301 2.49902 -2.00098 3.49902 -2.00098h2.5h2h2h1h2c1.33301 -0.666992 2.5 -1 3.5 -1h2.5h2h2h1h2
c23.333 0 44.166 0.333008 62.499 1s34.166 2 47.499 4s26.333 4.66699 39 8s25 7.33301 37 12c0.666992 0 1.33398 0.166992 2.00098 0.5s1.33398 0.833008 2.00098 1.5l1 0.5c0.666992 0.333008 1.33398 0.5 2.00098 0.5l4 2l4 2c22 10 41.333 23.5 58 40.5
s30.334 37.167 41.001 60.5c11.333 23.333 19.666 50.333 24.999 81s8 64.667 8 102c0 50 -6 94.333 -18 133s-29.667 71.667 -53 99c-24 27.333 -54.833 48.333 -92.5 63s-82.167 22.334 -133.5 23.001l-62 2v-633v0v0z" />
    <glyph glyph-name="E" unicode="E" horiz-adv-x="648" 
d="M211 17l126.003 -0.000976562c29.333 -1.33301 55 -1.33301 77 0s40.333 3.33301 55 6c15.333 2.66699 29.166 6.5 41.499 11.5s23.833 10.833 34.5 17.5c14 9.33301 25 19.166 33 29.499s13.333 21.166 16 32.499c2 11.333 3.66699 23.833 5 37.5s2 27.834 2 42.501
l16 2v-196h-600v17h97v633h-97v17h549l16 -163h-16c-0.666992 0.666992 -1.16699 1.5 -1.5 2.5s-0.5 2.16699 -0.5 3.5v2v2c-0.666992 0.666992 -1 1.33398 -1 2.00098v2c-2.66699 16 -5.83398 29.667 -9.50098 41s-7.5 20.333 -11.5 27c-4 7.33301 -9 13.833 -15 19.5
s-13.333 10.834 -22 15.501s-18.5 8.66699 -29.5 12s-23.5 6 -37.5 8s-30.333 3.66699 -49 5s-39.667 2 -63 2l-115 2v-303h40c27.333 -1.33301 50.666 -0.166016 69.999 3.50098s35 8.83398 47 15.501c12 7.33301 21.167 16.666 27.5 27.999s9.5 24.666 9.5 39.999v33h17
v-251h-17v34c0 15.333 -2.66699 28.333 -8 39s-13.333 18.667 -24 24s-26.167 9.5 -46.5 12.5s-45.833 4.5 -76.5 4.5l-39 2v-315v0v0z" />
    <glyph glyph-name="F" unicode="F" horiz-adv-x="588" 
d="M579 492h-19v1.5v2.5c-0.666992 1.33301 -1 2.5 -1 3.5v2.5v3.5v3.5v3v3c-0.666992 8 -2 15.833 -4 23.5s-4.33301 15.167 -7 22.5s-5.66699 14.5 -9 21.5s-7.33301 13.5 -12 19.5c-6 7.33301 -13.5 13.833 -22.5 19.5s-19.5 10.5 -31.5 14.5s-24.5 7 -37.5 9
s-26.833 3 -41.5 3l-68 2h-115v-301h41c27.333 -1.33301 51.5 -0.666016 72.5 2.00098s38.5 7 52.5 13c14 5.33301 24.667 17 32 35s11 42.333 11 73l17 2v-261h-17v7.5v9.5c0 3.33301 -0.166992 6.66602 -0.5 9.99902s-0.833008 7 -1.5 11
c-0.666992 5.33301 -1.66699 10.833 -3 16.5s-3 10.834 -5 15.501c-2 5.33301 -4.66699 10.166 -8 14.499s-7.33301 7.83301 -12 10.5c-6.66699 4 -14 7.5 -22 10.5s-17 5.16699 -27 6.5s-22.5 2.5 -37.5 3.5s-32.167 1.5 -51.5 1.5l-41 2v-315h104v-17h-298v17h97v633h-97
v17h544l18 -175v0v0z" />
    <glyph glyph-name="G" unicode="G" horiz-adv-x="716" 
d="M588 454l0.00195312 -0.99707v1c-0.666992 0 -1 0.166992 -1 0.5v1.5v1.5v1.5c-0.666992 0 -1 0.166992 -1 0.5v1.5c-2 10 -4 19 -6 27s-4 15.333 -6 22c-2.66699 6 -5.5 12 -8.5 18s-6.16699 12 -9.5 18c-1.33301 2 -2.83301 4 -4.5 6s-3.16699 4 -4.5 6
s-2.83301 4 -4.5 6s-3.16699 4 -4.5 6c-10.667 12.667 -22.334 24 -35.001 34s-26.334 19 -41.001 27c-14.667 7.33301 -29.667 13.166 -45 17.499s-30.666 6.83301 -45.999 7.5h-2h-2h-2h-2c-36 0 -67.333 -6.83301 -94 -20.5s-49 -34.167 -67 -61.5
c-18 -26.667 -31.333 -60.5 -40 -101.5s-13 -89.167 -13 -144.5s4.33301 -103.5 13 -144.5s22 -74.5 40 -100.5s40.833 -45.5 68.5 -58.5s60.5 -19.5 98.5 -19.5c24 0 45.5 2.33301 64.5 7s35.5 12 49.5 22s24.667 21.833 32 35.5s11 28.834 11 45.501v83h-96v17h281v-17
h-83v-107c-19.333 -16.667 -39 -31 -59 -43s-40.667 -22.667 -62 -32c-20.667 -8.66699 -42.834 -15 -66.501 -19s-48.167 -6 -73.5 -6c-50.667 0 -96 7.33301 -136 22s-75 37.334 -105 68.001s-52.333 66.5 -67 107.5s-22 87.5 -22 139.5c0 47.333 7.83301 91 23.5 131
s39.167 77 70.5 111s65.833 59.5 103.5 76.5s78.5 25.5 122.5 25.5c16 0 30.5 -0.833008 43.5 -2.5s24.5 -4.16699 34.5 -7.5c9.33301 -3.33301 18.333 -6.83301 27 -10.5s16.334 -7.5 23.001 -11.5c1.33301 -0.666992 2.5 -1.33398 3.5 -2.00098
s2.16699 -1.33398 3.5 -2.00098c0.666992 -0.666992 1.66699 -1.33398 3 -2.00098s2.33301 -1.33398 3 -2.00098c2 -1.33301 4 -2.5 6 -3.5s4 -2.16699 6 -3.5c3.33301 -2 6.66602 -3.83301 9.99902 -5.5s6.66602 -3.16699 9.99902 -4.5s7 -2.5 11 -3.5s8 -1.83301 12 -2.5
c6 0 11.167 1 15.5 3s7.5 5 9.5 9s3.83301 8.5 5.5 13.5s2.83398 9.83301 3.50098 14.5v0v1v0v1v0v0v0l1 1v0v0v0.5v1.5l16 2v-202h-16v0v0z" />
    <glyph glyph-name="H" unicode="H" horiz-adv-x="788" 
d="M211 333v-316h97v-17h-291v17h97v633h-97v17h291v-17h-97v-300h367v300h-98v17h292v-17h-97v-633h97v-17h-292v17h98v316h-367v0v0z" />
    <glyph glyph-name="I" unicode="I" horiz-adv-x="334" 
d="M20 667h294v-17h-97v-633h97v-17h-294v17h97v633h-97v17v0v0z" />
    <glyph glyph-name="J" unicode="J" horiz-adv-x="351" 
d="M344 650l-96.001 0.000976562v-541v-3v-2v-1.5v-1.5c-0.666992 -22 -3 -42.833 -7 -62.5s-10 -38.167 -18 -55.5c-8 -18 -20.5 -31.5 -37.5 -40.5s-39.167 -13.5 -66.5 -13.5c-14.667 0 -27.834 2 -39.501 6s-22.167 9.66699 -31.5 17c-9.33301 8 -16.333 16.667 -21 26
s-7 19.333 -7 30c0 8.66699 1.16699 16.5 3.5 23.5s5.83301 12.833 10.5 17.5c5.33301 5.33301 11 9.33301 17 12s12.667 4 20 4c6.66699 0 12.667 -1.16699 18 -3.5s10 -5.5 14 -9.5s7.16699 -8.66699 9.5 -14s3.5 -11.333 3.5 -18c0 -4.66699 -0.666992 -9 -2 -13
s-3 -6.66699 -5 -8c-2 -2.66699 -4.16699 -5 -6.5 -7s-4.83301 -4 -7.5 -6c-1.33301 -0.666992 -2.66602 -1.16699 -3.99902 -1.5s-2.66602 -0.833008 -3.99902 -1.5c-0.666992 -0.666992 -1.5 -1.16699 -2.5 -1.5s-1.83301 -0.833008 -2.5 -1.5
c-1.33301 -0.666992 -2.5 -1.33398 -3.5 -2.00098s-2.16699 -1.33398 -3.5 -2.00098c-0.666992 -0.666992 -1.16699 -1.5 -1.5 -2.5s-0.5 -1.83301 -0.5 -2.5c0 -3.33301 0.666992 -6 2 -8s3.33301 -4 6 -6s5.5 -3.83301 8.5 -5.5s6.16699 -2.83398 9.5 -3.50098
c1.33301 0 2.83301 -0.166992 4.5 -0.5s3.5 -0.833008 5.5 -1.5h2c0.666992 0 1.66699 -0.333008 3 -1h2h2c8 0 15.667 1.66699 23 5s14 8 20 14s10.5 12.5 13.5 19.5s4.5 14.167 4.5 21.5c0 4 -0.5 8.16699 -1.5 12.5s-2.16699 8.83301 -3.5 13.5
s-2.83301 9.33398 -4.5 14.001s-3.5 9.33398 -5.5 14.001l-6 15.5c-2 5 -3.66699 9.83301 -5 14.5c-1.33301 5.33301 -2.33301 10.5 -3 15.5s-1 10.5 -1 16.5v529h-97v16h292v-16v0v0z" />
    <glyph glyph-name="K" unicode="K" horiz-adv-x="701" 
d="M296 397l321.998 -379.999h96v-17h-325v17h94l-261 315l-12 -11v-304h106v-17h-299v17h97v633h-97v17h294v-17h-101v-307l250 224c8 6.66699 15.167 13.167 21.5 19.5s11.5 12.166 15.5 17.499s7.16699 10.166 9.5 14.499s3.5 7.83301 3.5 10.5
c0 3.33301 -0.833008 6.33301 -2.5 9s-4.16699 4.66699 -7.5 6c-2.66699 1.33301 -7.16699 2.33301 -13.5 3s-14.166 1 -23.499 1l-51 2v17h285v-17h-53c-1.33301 -1.33301 -2.83301 -2.16602 -4.5 -2.49902s-3.16699 -0.5 -4.5 -0.5h-4.5h-4.5c-12 -2 -24 -5.5 -36 -10.5
s-24 -11.5 -36 -19.5l-35 -24c-11.333 -8 -22 -16.667 -32 -26l-13 -11.5l-12 -10.5l-11 -9.5c-3.33301 -3 -6.66602 -6.16699 -9.99902 -9.5l-145 -129v0v0z" />
    <glyph glyph-name="L" unicode="L" horiz-adv-x="634" 
d="M607 220l0.00390625 -220.001h-591v17h97v633h-97v17h305v-17h-111v-633h100c35.333 -1.33301 66.166 -1.33301 92.499 0s47.833 3.33301 64.5 6c17.333 2.66699 32.666 6.5 45.999 11.5s24.333 11.167 33 18.5c7.33301 6 13.666 13 18.999 21s9.66602 17 12.999 27
s6 21.333 8 34s3 26.334 3 41.001v44h18v0v0z" />
    <glyph glyph-name="M" unicode="M" horiz-adv-x="832" 
d="M10 17l34 -0.000976562c12 -1.33301 22.167 -1 30.5 1s14.833 5 19.5 9c4 4 7.16699 10.167 9.5 18.5s3.5 18.833 3.5 31.5v46v509l-9 18h-84v17h186l218 -501l204 501h194v-17h-97v-633h97v-17h-290v17h96v599l-248 -603l-251 582v-471v-6.5v-4.5v-4
c0 -1.33301 0.333008 -2.66602 1 -3.99902v-4v-4v-4v-4c0 -12.667 0.833008 -23.667 2.5 -33s4.16699 -17 7.5 -23s10.5 -10.5 21.5 -13.5s25.833 -4.5 44.5 -4.5l29 2v-17h-219v17v0v0z" />
    <glyph glyph-name="N" unicode="N" horiz-adv-x="725" 
d="M10 17l33.002 -0.000976562c13.333 -1.33301 24.333 -1 33 1s14.334 5 17.001 9c3.33301 4 6.16602 9.83301 8.49902 17.5s3.83301 16.834 4.5 27.501v1v2v0.5c0 0.333008 0.333008 0.833008 1 1.5v0.5v1.5v44v515l-18 12h-79v17h207l389 -492v392
c0 12.667 -0.166992 23.334 -0.5 32.001s-0.833008 15.334 -1.5 20.001s-1.83398 8.66699 -3.50098 12s-3.83398 6 -6.50098 8c-2 1.33301 -4.66699 2.66602 -8 3.99902s-7 2.33301 -11 3s-9.5 1.16699 -16.5 1.5s-15.5 0.5 -25.5 0.5l-29 2v17h214v-17h-28
c-10 -1.33301 -18.5 -2.16602 -25.5 -2.49902s-12.5 -0.833008 -16.5 -1.5s-7.5 -1.83398 -10.5 -3.50098s-5.16699 -3.5 -6.5 -5.5l-1.5 -1.5l-0.5 -0.5v-0.5v-0.5h-1v0c-2 -2.66699 -3.5 -5.5 -4.5 -8.5s-1.5 -6.5 -1.5 -10.5c-0.666992 -4 -1 -10.167 -1 -18.5v-31.5
v-570h-6l-492 625v-497c0 -27.333 1.16699 -48.833 3.5 -64.5s5.83301 -25.834 10.5 -30.501s14.5 -8 29.5 -10s35.167 -3 60.5 -3v-15h-217v17v0v0z" />
    <glyph glyph-name="O" unicode="O" horiz-adv-x="697" 
d="M37 331c0 24.667 1.99902 48.5029 5.99902 71.5029s10.333 44.833 19 65.5s19.5 40.5 32.5 59.5s28.167 37.167 45.5 54.5c9.33301 9.33301 19.333 18.166 30 26.499s21.334 15.833 32.001 22.5c11.333 7.33301 22.5 13.666 33.5 18.999s22.167 10 33.5 14
c6.66699 2.66699 13.167 5 19.5 7s12.833 3.33301 19.5 4c6.66699 1.33301 13.167 2.33301 19.5 3s12.833 1 19.5 1c41.333 0 80.333 -8.66699 117 -26s70.667 -43.333 102 -78s54.833 -72.334 70.5 -113.001s23.5 -84.334 23.5 -131.001s-7.66699 -90.167 -23 -130.5
s-38.666 -77.5 -69.999 -111.5c-30.667 -34 -64.5 -59.333 -101.5 -76s-76.833 -25 -119.5 -25c-40.667 0 -78.834 8.33301 -114.501 25s-69.167 42.334 -100.5 77.001s-54.833 72 -70.5 112s-23.5 82.333 -23.5 127v2v0zM348.999 665.003
c-32.667 -1.33301 -61.5 -9.16699 -86.5 -23.5s-46.167 -35.5 -63.5 -63.5c-16.667 -28.667 -29.334 -63.5 -38.001 -104.5s-13 -88.167 -13 -141.5c0 -55.333 4.16699 -103.833 12.5 -145.5s20.833 -76.167 37.5 -103.5c17.333 -27.333 38.5 -47.833 63.5 -61.5
s54.167 -20.5 87.5 -20.5s62.5 6.83301 87.5 20.5s45.833 34.167 62.5 61.5s29.167 61.833 37.5 103.5s12.5 90.167 12.5 145.5c0 53.333 -4.16699 100.5 -12.5 141.5s-21.166 75.833 -38.499 104.5c-16.667 28 -37.5 49.167 -62.5 63.5s-53.833 21.5 -86.5 21.5v2v0z" />
    <glyph glyph-name="P" unicode="P" horiz-adv-x="608" 
d="M210 312l-0.00390625 -295.001h103v-17h-297v17h97v633h-97v17h278c5.33301 -1.33301 10.833 -2.16602 16.5 -2.49902s11.5 -0.5 17.5 -0.5c6 -0.666992 12 -1.16699 18 -1.5s12 -0.833008 18 -1.5c27.333 -2.66699 53.333 -8 78 -16s48.334 -18.667 71.001 -32
s39.667 -31.5 51 -54.5s17 -50.5 17 -82.5c0 -26.667 -6.16699 -51 -18.5 -73s-30.833 -41.667 -55.5 -59s-52.667 -30.333 -84 -39s-66 -13 -104 -13h-20.5c-6.33301 0 -12.166 0.333008 -17.499 1c-4.66699 0 -9.5 0.5 -14.5 1.5s-9.5 1.83301 -13.5 2.5
c-3.33301 0.666992 -6.66602 1.5 -9.99902 2.5s-6.66602 1.83301 -9.99902 2.5c-3.33301 1.33301 -7 2.5 -11 3.5s-8 2.5 -12 4.5v2v0zM209.996 649.999l0.00195312 -318c3.33301 -2.66699 6.5 -4.83398 9.5 -6.50098s5.83301 -3.16699 8.5 -4.5
c3.33301 -0.666992 6.16602 -1.5 8.49902 -2.5s4.83301 -1.83301 7.5 -2.5c4 -1.33301 8 -2.5 12 -3.5s8 -1.5 12 -1.5c4 -0.666992 8.83301 -1 14.5 -1h18.5c27.333 0 51.666 3.5 72.999 10.5s40 17.5 56 31.5c15.333 14 27 30.833 35 50.5s12 41.834 12 66.501
c0 36 -5.5 66.167 -16.5 90.5s-27.167 42.5 -48.5 54.5c-22 12 -46.333 21 -73 27s-55.667 9 -87 9h-2h-1h-2h-2h-2.5h-3.5c-0.666992 0 -1.66699 -0.166992 -3 -0.5s-2.33301 -0.5 -3 -0.5h-3.5h-3.5h-3h-4c-1.33301 -0.666992 -2.83301 -1 -4.5 -1h-4.5v2v0z" />
    <glyph glyph-name="Q" unicode="Q" horiz-adv-x="697" 
d="M397 -8l-0.999023 -94.999c0 -14.667 2.33301 -27.167 7 -37.5s11.334 -18.5 20.001 -24.5c9.33301 -6 21.5 -10.667 36.5 -14s32.833 -5 53.5 -5h5.5h5.5c2 0.666992 4.16699 1 6.5 1h7.5c5.33301 0 10.5 0.166992 15.5 0.5s10.167 0.833008 15.5 1.5v-17h-8.5
c-3 0 -5.83301 -0.333008 -8.5 -1h-8h-8h-7c-2 0 -4 -0.333008 -6 -1h-6h-5h-5.5h-4.5c-2 0.666992 -3.83301 1 -5.5 1h-4.5h-4.5h-4.5c-2 0.666992 -3.83301 1 -5.5 1h-4.5c-11.333 0.666992 -22.5 2 -33.5 4l-32.5 6c-10.667 2.66699 -20.5 5.5 -29.5 8.5
s-17.5 6.16699 -25.5 9.5c-8.66699 3.33301 -16.334 7.5 -23.001 12.5s-12 11.167 -16 18.5c-4 6.66699 -7.16699 14.334 -9.5 23.001s-3.5 18.334 -3.5 29.001v79c-38.667 8.66699 -73.834 23.167 -105.501 43.5s-59.834 46.166 -84.501 77.499s-43 65 -55 101
s-18 74.333 -18 115c0 25.333 2 49.666 6 72.999s10.333 45.333 19 66s19.5 40.5 32.5 59.5s28.167 37.167 45.5 54.5c9.33301 9.33301 19.333 18.333 30 27s21.334 16.334 32.001 23.001c11.333 7.33301 22.5 13.666 33.5 18.999s22.167 10 33.5 14l19.5 6
c6.33301 2 12.833 3.33301 19.5 4c6.66699 1.33301 13.167 2.33301 19.5 3s12.833 1 19.5 1c41.333 0 80.333 -8.66699 117 -26s70.667 -43.333 102 -78s54.833 -72.334 70.5 -113.001s23.5 -84.334 23.5 -131.001c0 -42 -6 -81.167 -18 -117.5s-29.667 -69.833 -53 -100.5
s-51 -56.167 -83 -76.5s-68.333 -35.166 -109 -44.499v0v0zM349.001 665.001c-32.667 -1.33301 -61.5 -9.16699 -86.5 -23.5s-46.167 -35.5 -63.5 -63.5c-16.667 -28.667 -29.334 -63.5 -38.001 -104.5s-13 -88.167 -13 -141.5c0 -55.333 4.16699 -103.833 12.5 -145.5
s20.833 -76.167 37.5 -103.5c17.333 -27.333 38.5 -47.833 63.5 -61.5s54.167 -20.5 87.5 -20.5s62.5 6.83301 87.5 20.5s45.833 34.167 62.5 61.5s29.167 61.833 37.5 103.5s12.5 90.167 12.5 145.5c0 53.333 -4.16699 100.5 -12.5 141.5s-21.166 75.833 -38.499 104.5
c-16.667 28 -37.5 49.167 -62.5 63.5s-53.833 21.5 -86.5 21.5v2v0z" />
    <glyph glyph-name="R" unicode="R" horiz-adv-x="679" 
d="M212 340l0.00488281 -323.001h103v-17h-298v17h97v633h-97v17h345c2 -1.33301 4 -2 6 -2h6h3.5h3.5c0.666992 -0.666992 1.66699 -1 3 -1h3c23.333 -1.33301 45.666 -5.16602 66.999 -11.499s41.666 -15.166 60.999 -26.499c19.333 -10.667 34 -26 44 -46s15 -44 15 -72
s-5 -51.667 -15 -71s-24.667 -34.666 -44 -45.999c-20 -10.667 -40.833 -19.667 -62.5 -27s-44.167 -12.666 -67.5 -15.999h-1.5h-1.5c-0.666992 -0.666992 -1.16699 -1 -1.5 -1h-1.5h-1.5h-0.5h-1.5h-1.5c20.667 -2.66699 39 -6 55 -10s29.333 -8.33301 40 -13
c11.333 -4.66699 21.333 -10.334 30 -17.001s16.334 -14.667 23.001 -24c5.33301 -6.66699 9.83301 -14.5 13.5 -23.5s6.5 -19.167 8.5 -30.5l6 -33.5c2 -11.667 3.33301 -23.5 4 -35.5v-5.5v-4.5c0 -2 0.166992 -3.83301 0.5 -5.5s0.833008 -3.16699 1.5 -4.5
c1.33301 -16.667 3.16602 -32.5 5.49902 -47.5s4.83301 -29.167 7.5 -42.5c3.33301 -12.667 8.66602 -22.334 15.999 -29.001s16.333 -10 27 -10h2h2h1h2h3.5c1 0 1.83301 0.333008 2.5 1c1.33301 0 3 0.166992 5 0.5s4 0.833008 6 1.5l7.5 2.5c3 1 6.16699 1.83301 9.5 2.5
l6 -12c-2 -1.33301 -4 -2.5 -6 -3.5s-4 -1.83301 -6 -2.5c-0.666992 -0.666992 -1.5 -1 -2.5 -1h-2.5h-3h-3c-4.66699 -1.33301 -9.16699 -2.33301 -13.5 -3l-13.5 -2c-4.66699 -0.666992 -9.33398 -1.16699 -14.001 -1.5s-9.66699 -0.5 -15 -0.5
c-20.667 0 -38.834 2.16699 -54.501 6.5s-28.167 11.5 -37.5 21.5c-9.33301 9.33301 -17 22.5 -23 39.5s-10.333 37.833 -13 62.5c-0.666992 2 -1.16699 4 -1.5 6s-0.5 4.33301 -0.5 7c-0.666992 2 -1 4 -1 6v6c-0.666992 4 -1.16699 8 -1.5 12s-0.833008 8 -1.5 12
c-4 31.333 -9.33301 57.666 -16 78.999s-15 38 -25 50s-27.833 21.167 -53.5 27.5s-59.167 9.5 -100.5 9.5l-39 2v0v0zM212.005 649.999l-0.00195312 -294c6 -1.33301 12.5 -2 19.5 -2h20.5c7.33301 0 14.5 0.333008 21.5 1l20.5 2c22 1.33301 43 4.83301 63 10.5
s39.333 13.5 58 23.5c18.667 9.33301 32.667 23.166 42 41.499s14 40.833 14 67.5v3.5v3.5c-0.666992 1.33301 -1 2.66602 -1 3.99902v4c-0.666992 2.66699 -1.16699 5.33398 -1.5 8.00098s-0.5 5.33398 -0.5 8.00098c-1.33301 5.33301 -3 10.833 -5 16.5l-6 17.5
c-2 5.33301 -4.16699 10.5 -6.5 15.5s-5.16602 9.5 -8.49902 13.5c-8.66699 11.333 -18.167 20.5 -28.5 27.5s-22.166 12.167 -35.499 15.5c-12.667 3.33301 -30 6 -52 8s-48.333 3 -79 3l-35 2v0v0z" />
    <glyph glyph-name="S" unicode="S" horiz-adv-x="554" 
d="M57 238l17.0039 0.00585938l3.5 -38.5c1 -11 2.16699 -20.5 3.5 -28.5s3.33301 -15.667 6 -23l8 -21c0.666992 -2 1.33398 -3.83301 2.00098 -5.5s1.33398 -3.16699 2.00098 -4.5c1.33301 -1.33301 2.5 -2.83301 3.5 -4.5s1.83301 -3.16699 2.5 -4.5
c9.33301 -16 20.666 -30.5 33.999 -43.5s29 -24.5 47 -34.5c17.333 -10 35.333 -17.333 54 -22s37.667 -7 57 -7c26.667 0 50.667 3.33301 72 10s40 17 56 31s28 30.333 36 49s12 39.334 12 62.001c0 9.33301 -1 18.333 -3 27s-4.66699 16.667 -8 24
s-7.5 14.166 -12.5 20.499s-11.167 12.166 -18.5 17.499c-10.667 7.33301 -21.834 13.833 -33.501 19.5s-24.167 9.83398 -37.5 12.501c-13.333 3.33301 -27 6.33301 -41 9l-42 8c-26.667 4 -52.334 9.33301 -77.001 16s-48.334 15 -71.001 25s-39.5 27.5 -50.5 52.5
s-16.5 57.5 -16.5 97.5c0 29.333 4.66699 55.666 14 78.999s23.333 44.333 42 63c19.333 18 41 31.667 65 41s50.667 14 80 14c11.333 0 22 -0.833008 32 -2.5s19.333 -4.16699 28 -7.5c9.33301 -2.66699 18 -5.83398 26 -9.50098l22 -10.5c7.33301 -4 14 -7.83301 20 -11.5
l17 -10.5c5.33301 -2.66699 10.5 -4.83398 15.5 -6.50098s9.83301 -2.5 14.5 -2.5c4 0 7.33301 0.666992 10 2s4.66699 3.33301 6 6c1.33301 3.33301 2.5 6.5 3.5 9.5s1.83301 6.16699 2.5 9.5v0.5c0 0.333008 0.333008 0.833008 1 1.5v0.5v1.5v3.5
c0 1 0.333008 1.83301 1 2.5v0v0v0.5v1.5l17 2v-200h-17c-2 30.667 -8.16699 58.334 -18.5 83.001s-24.833 46.334 -43.5 65.001s-40 32.667 -64 42s-50.667 14 -80 14c-22.667 0 -43.334 -3.16699 -62.001 -9.5s-35 -16.166 -49 -29.499
c-14 -12.667 -24.5 -27.334 -31.5 -44.001s-10.5 -35.334 -10.5 -56.001c0 -25.333 4.66699 -46.333 14 -63s23.333 -28.667 42 -36c19.333 -7.33301 39.666 -13.833 60.999 -19.5s44 -10.5 68 -14.5c1.33301 -0.666992 2.83301 -1.16699 4.5 -1.5s3.5 -0.5 5.5 -0.5
c2 -0.666992 4 -1.16699 6 -1.5s4 -0.5 6 -0.5c26 -4.66699 50.833 -10.834 74.5 -18.501s46.167 -16.834 67.5 -27.501s37.5 -27.334 48.5 -50.001s16.5 -51.667 16.5 -87c0 -34 -5 -64.333 -15 -91s-25 -49.667 -45 -69s-43.333 -33.666 -70 -42.999s-57 -14 -91 -14
c-10.667 0 -21.334 0.666992 -32.001 2s-20.667 3.33301 -30 6l-27 7.5c-8.66699 2.33301 -17 4.83301 -25 7.5l-12 4c-4 1.33301 -7.66699 3 -11 5c-4 1.33301 -7.66699 2.66602 -11 3.99902l-10 4c-6.66699 2.66699 -13.167 4.66699 -19.5 6s-12.166 2 -17.499 2
c-4.66699 0 -8.5 -0.833008 -11.5 -2.5s-5.5 -4.16699 -7.5 -7.5c-2 -2.66699 -3.66699 -6.83398 -5 -12.501s-2.33301 -12.167 -3 -19.5h-17v245v0v0z" />
    <glyph glyph-name="T" unicode="T" horiz-adv-x="632" 
d="M267 650h-17.9971c-28 -1.33301 -52.667 -3 -74 -5s-39.333 -4.66699 -54 -8c-14.667 -4 -27.334 -9 -38.001 -15s-19.667 -13.667 -27 -23c-4.66699 -5.33301 -8.5 -11.833 -11.5 -19.5s-5.5 -16.167 -7.5 -25.5s-3.5 -20.333 -4.5 -33s-1.5 -26.667 -1.5 -42v-12h-17
l7 200h589l7 -200h-17v14c0 24.667 -1.33301 46.167 -4 64.5s-6.66699 32.833 -12 43.5c-4.66699 11.333 -11.834 20.666 -21.501 27.999s-21.5 13 -35.5 17c-4 1.33301 -8 2.33301 -12 3l-12 2c-4.66699 0.666992 -9 1.33398 -13 2.00098l-12 2
c-4 0.666992 -8 1.16699 -12 1.5s-8 0.5 -12 0.5c-4.66699 0.666992 -9 1.16699 -13 1.5s-8 0.5 -12 0.5h-8c-2.66699 0 -5.33398 0.333008 -8.00098 1h-9h-8h-16h-16v-631h107v-17h-311v17h107v633v0v0z" />
    <glyph glyph-name="U" unicode="U" horiz-adv-x="721" 
d="M722 650l-41.0029 -0.000976562c-11.333 -1.33301 -20.833 -3.33301 -28.5 -6s-13.167 -6.66699 -16.5 -12c-4 -4.66699 -6.83301 -12.5 -8.5 -23.5s-2.5 -25.167 -2.5 -42.5v-339c0 -43.333 -5.16699 -80.5 -15.5 -111.5s-25.5 -55.833 -45.5 -74.5
c-20.667 -18.667 -46.667 -32.5 -78 -41.5s-68.666 -13.5 -111.999 -13.5c-30 0 -57.333 1.5 -82 4.5s-46.667 7.16699 -66 12.5c-19.333 6 -36.5 13.667 -51.5 23s-27.833 20.333 -38.5 33l-1.5 1.5c-0.333008 0.333008 -0.5 0.833008 -0.5 1.5
c-0.666992 0 -1.16699 0.166992 -1.5 0.5l-1.5 1.5c-0.666992 1.33301 -1.33398 2.5 -2.00098 3.5s-1 1.83301 -1 2.5c-4.66699 6.66699 -8.83398 14 -12.501 22s-6.16699 16.333 -7.5 25c-1.33301 9.33301 -2.33301 21.333 -3 36s-1 32.334 -1 53.001v444h-97v17h300v-17
h-105v-447c0 -24 0.666992 -44.333 2 -61s3.33301 -30 6 -40s6.83398 -19.333 12.501 -28s12.834 -16.667 21.501 -24c0.666992 -0.666992 1.33398 -1.16699 2.00098 -1.5s1.33398 -0.833008 2.00098 -1.5s1.33398 -1.16699 2.00098 -1.5s1.33398 -0.833008 2.00098 -1.5
c9.33301 -6.66699 19.166 -12.834 29.499 -18.501s21.5 -10.167 33.5 -13.5s24.833 -5.83301 38.5 -7.5s28.167 -2.5 43.5 -2.5c22 0 42.667 1.83301 62 5.5s37 9.5 53 17.5s30 17.833 42 29.5s22.333 25.167 31 40.5c0.666992 1.33301 1.16699 2.5 1.5 3.5
s0.833008 1.83301 1.5 2.5v1.5c0 0.333008 0.333008 0.833008 1 1.5l0.5 0.5l1.5 1.5c3.33301 7.33301 6.16602 14.833 8.49902 22.5s3.83301 15.834 4.5 24.501c1.33301 8 2.33301 17.833 3 29.5s1 24.834 1 39.501v346c0 16.667 -1 30.5 -3 41.5s-5 18.833 -9 23.5
c-4 5.33301 -10.667 9.16602 -20 11.499s-21.333 3.5 -36 3.5l-48 2v17h230v-17v0v0z" />
    <glyph glyph-name="V" unicode="V" horiz-adv-x="644" 
d="M-10 667l293.999 0.00195312v-17h-97l180 -511l155 416c2.66699 5.33301 5 11 7 17s3.66699 12 5 18l3.5 15.5c1 4.33301 1.5 7.83301 1.5 10.5c0 5.33301 -1 10 -3 14s-4.66699 7.33301 -8 10c-4 2.66699 -8.5 4.66699 -13.5 6s-10.833 2 -17.5 2l-49 2v17h219v-17h-48
l-17.5 -3.5c-5 -1 -9.5 -2.16699 -13.5 -3.5c-4 -2 -7.66699 -4.83301 -11 -8.5s-6.66602 -8.16699 -9.99902 -13.5c-0.666992 -1.33301 -1.5 -2.83301 -2.5 -4.5s-1.83301 -3.5 -2.5 -5.5c-1.33301 -2 -2.33301 -4 -3 -6s-1.66699 -4 -3 -6
c-0.666992 -2 -1.5 -4.16699 -2.5 -6.5s-1.83301 -4.5 -2.5 -6.5c-1.33301 -2.66699 -2.33301 -5.33398 -3 -8.00098s-1.66699 -5.33398 -3 -8.00098l-223 -594l-244 674h-88v17v0v0z" />
    <glyph glyph-name="W" unicode="W" horiz-adv-x="904" 
d="M-10 666l683.001 -0.000976562v-16h-50l-23.5 -3.5c-7 -1 -12.833 -2.16699 -17.5 -3.5s-8.83398 -4 -12.501 -8s-7.16699 -9 -10.5 -15c-2 -2.66699 -3.83301 -5.66699 -5.5 -9s-3.16699 -7 -4.5 -11s-2.83301 -8.16699 -4.5 -12.5l-5.5 -14.5l-50 -125l121 -326
l183 461l0.5 1.5c0.333008 1 0.833008 1.83301 1.5 2.5c0 1.33301 0.166992 2.5 0.5 3.5s0.833008 2.16699 1.5 3.5c1.33301 2.66699 2.16602 5.16699 2.49902 7.5s0.833008 4.83301 1.5 7.5s1.16699 5 1.5 7s0.5 3.66699 0.5 5c0 4.66699 -1 8.66699 -3 12s-5 6 -9 8
s-8.83301 3.66699 -14.5 5s-12.167 2 -19.5 2l-51 2v16h221v-16h-42c-12.667 -1.33301 -23.5 -3.66602 -32.5 -6.99902s-16.167 -8.66602 -21.5 -15.999c-4.66699 -6.66699 -9.16699 -14.334 -13.5 -23.001s-8.16602 -18 -11.499 -28l-2 -6l-2 -6
c-0.666992 -0.666992 -1.16699 -1.5 -1.5 -2.5s-0.5 -1.83301 -0.5 -2.5l-1.5 -3c-0.333008 -0.666992 -0.5 -1.66699 -0.5 -3l-227 -577h-11l-120 326l-112 -326h-12l-239 674h-87v16v0v0zM431.001 324.999l-118 325h-130l181 -517l67 192v0v0zM482.001 471.999l42 110.998
c3.33301 6.66699 5.83301 12.334 7.5 17.001s2.83398 8.33398 3.50098 11.001c1.33301 2.66699 2.16602 5 2.49902 7s0.5 3.66699 0.5 5c0 4.66699 -1 8.5 -3 11.5s-4.66699 5.5 -8 7.5c-4 2 -9 3.5 -15 4.5s-13.667 1.5 -23 1.5l-71 2l64 -178v0v0z" />
    <glyph glyph-name="X" unicode="X" horiz-adv-x="713" 
d="M0 17c18.667 -1.33301 35.001 -1.67285 49.001 -1.00586s25.667 2 35 4s18.166 5.33301 26.499 10s16.5 10.667 24.5 18c4 4 8 8.5 12 13.5l13 16.5c4.66699 6 9.66699 12.833 15 20.5l17 24.5l138 203l-191 324h-90v17h292v-17h-82l133 -227l107 157
c0.666992 -0.666992 1.16699 -0.666992 1.5 0s0.833008 1.33398 1.5 2.00098c0 0.666992 0.333008 1.33398 1 2.00098l2 2c2.66699 4 5 8 7 12l6 12c1.33301 3.33301 2.5 6.5 3.5 9.5s1.5 5.5 1.5 7.5c0 3.33301 -0.666992 6.33301 -2 9s-3.66602 5 -6.99902 7
c-2.66699 1.33301 -6.33398 2.5 -11.001 3.5s-10 1.5 -16 1.5l-61 2v17h234v-17h-41c-4.66699 -1.33301 -9.33398 -2.16602 -14.001 -2.49902s-9 -1.16602 -13 -2.49902c-4 -0.666992 -8 -2 -12 -4s-7.66699 -4.33301 -11 -7
c-4.66699 -2.66699 -9.16699 -6.16699 -13.5 -10.5s-8.83301 -9.16602 -13.5 -14.499s-9.5 -11.5 -14.5 -18.5s-10.5 -15.167 -16.5 -24.5l-109 -159l229 -390h82v-17h-296v17h93l-169 293l-151 -218c-6 -9.33301 -10.833 -17.166 -14.5 -23.499l-8.5 -14.5
c-2 -3.33301 -3.5 -6.5 -4.5 -9.5s-1.5 -5.83301 -1.5 -8.5c0 -4 1 -7.33301 3 -10s5 -4.66699 9 -6c4 -2 9.33301 -3.33301 16 -4s14.334 -1 23.001 -1l46 2v-17h-258v17v0v0z" />
    <glyph glyph-name="Y" unicode="Y" horiz-adv-x="595" 
d="M405 667h213v-17h-33c-6.66699 -1.33301 -12.5 -2.33301 -17.5 -3s-9.5 -1.66699 -13.5 -3c-4 -0.666992 -7.5 -2.33398 -10.5 -5.00098s-6.16699 -6 -9.5 -10c-2.66699 -2.66699 -5.16699 -5.66699 -7.5 -9s-4.5 -7 -6.5 -11l-6.5 -13.5l-7.5 -16.5l-152 -315v-247h104
v-17h-305v17h103v224l-192 409h-88v17h294v-17h-91l167 -363l121 253c5.33301 10.667 9.83301 20.334 13.5 29.001l9.5 23c2 6.66699 3.66699 12.5 5 17.5s2 9.16699 2 12.5c0 4.66699 -1 8.66699 -3 12s-5 6 -9 8s-9 3.5 -15 4.5s-13.333 1.5 -22 1.5l-43 2v17v0v0z" />
    <glyph glyph-name="Z" unicode="Z" horiz-adv-x="610" 
d="M27 0l431 650h-127c-22 -1.33301 -42.333 -2.66602 -61 -3.99902s-35.667 -3 -51 -5c-16 -2 -30.333 -4.66699 -43 -8s-23.667 -7 -33 -11c-12 -4.66699 -22 -11 -30 -19s-13.667 -17.333 -17 -28c-4 -10.667 -7 -21.334 -9 -32.001s-3.33301 -21.667 -4 -33v-7.5v-7.5
v-7.5v-6.5l-17 2v184h516l-432 -650h128c52 -1.33301 96.667 0.5 134 5.5s67.333 12.5 90 22.5s39.667 23.5 51 40.5s17 37.167 17 60.5v47h17v-193h-560v0v0z" />
    <glyph glyph-name="bracketleft" unicode="[" horiz-adv-x="261" 
d="M235 -228v-25h-175v945h175v-25h-148v-895h148v0v0z" />
    <glyph glyph-name="backslash" unicode="\" horiz-adv-x="390" 
d="M390 -253h-43l-273 945h43l273 -945v0v0z" />
    <glyph glyph-name="bracketright" unicode="]" horiz-adv-x="261" 
d="M26 667v25h175v-945h-175v25h149v895h-149v0v0z" />
    <glyph glyph-name="asciicircum" unicode="^" horiz-adv-x="500" 
d="M105 374h-73l174 294h89l174 -294h-74l-145 241l-145 -241v0v0z" />
    <glyph glyph-name="underscore" unicode="_" horiz-adv-x="500" 
d="M0 -72h500v-51h-500v51v0v0z" />
    <glyph glyph-name="grave" unicode="`" horiz-adv-x="500" 
d="M255 453l-119 114.002c-6 4.66699 -11 9.16699 -15 13.5s-7 8.16602 -9 11.499c-2.66699 3.33301 -4.5 6.5 -5.5 9.5s-1.5 5.83301 -1.5 8.5c0 4 0.833008 7.83301 2.5 11.5s4.5 6.83398 8.5 9.50098c4 3.33301 8.33301 5.66602 13 6.99902s9.66699 2 15 2
c3.33301 0 6.33301 -0.166992 9 -0.5s5.33398 -0.833008 8.00098 -1.5c1.33301 -0.666992 2.5 -1.16699 3.5 -1.5s2.16699 -0.833008 3.5 -1.5c0.666992 -0.666992 1.66699 -1.33398 3 -2.00098s2.33301 -1.66699 3 -3c2.66699 -2.66699 5.5 -5.66699 8.5 -9
s5.83301 -7.66602 8.5 -12.999c3.33301 -4.66699 6.66602 -10.334 9.99902 -17.001s7.33301 -14 12 -22l62 -116h-20v0v0z" />
    <glyph glyph-name="a" unicode="a" horiz-adv-x="488" 
d="M325 225l-0.00488281 94.9971c0 13.333 -1.66699 24.833 -5 34.5s-8.66602 16.834 -15.999 21.501c-6.66699 5.33301 -16.5 9.33301 -29.5 12s-29.167 4 -48.5 4c-16 0 -30.333 -1.16699 -43 -3.5s-23.667 -5.83301 -33 -10.5c-10 -4.66699 -17.333 -9.66699 -22 -15
s-7 -11.666 -7 -18.999c0 -1.33301 0.166992 -2.5 0.5 -3.5s0.833008 -2.16699 1.5 -3.5l2.5 -2.5c1 -1 1.83301 -2.16699 2.5 -3.5l2 -2l2 -2c0.666992 -0.666992 1.5 -1.33398 2.5 -2.00098s1.83301 -1 2.5 -1c0.666992 -0.666992 1.33398 -1.66699 2.00098 -3
s1.66699 -2.33301 3 -3c0.666992 -1.33301 1.5 -2.5 2.5 -3.5s1.83301 -2.16699 2.5 -3.5c1.33301 -2 2.5 -4.5 3.5 -7.5s1.5 -6.16699 1.5 -9.5c0 -6.66699 -1 -12.5 -3 -17.5s-5 -9.5 -9 -13.5s-8.5 -7 -13.5 -9s-10.5 -3 -16.5 -3c-6.66699 0 -12.667 1 -18 3
s-10 5.33301 -14 10c-4.66699 4.66699 -8 10 -10 16s-3 12.333 -3 19c0 14.667 3.83301 28.334 11.5 41.001s19.5 24.334 35.5 35.001s33.333 18.667 52 24s39 8 61 8c12 0 23.833 -0.666992 35.5 -2s23.167 -3.66602 34.5 -6.99902
c11.333 -2.66699 22.333 -6.33398 33 -11.001s20.667 -10 30 -16c1.33301 -0.666992 2.83301 -1.5 4.5 -2.5s3.16699 -2.16699 4.5 -3.5c0.666992 -0.666992 1.33398 -1.16699 2.00098 -1.5s1.33398 -0.5 2.00098 -0.5c0.666992 -0.666992 1.33398 -1.16699 2.00098 -1.5
s1.33398 -0.833008 2.00098 -1.5c5.33301 -4.66699 10 -9.33398 14 -14.001s7 -9.66699 9 -15c2 -4.66699 3.5 -10.5 4.5 -17.5s1.5 -14.5 1.5 -22.5v-170l2 -56c0 -10.667 0.5 -19.334 1.5 -26.001s2.5 -11.667 4.5 -15s4.83301 -5.83301 8.5 -7.5
s7.83398 -2.5 12.501 -2.5c2 0 4 0.166992 6 0.5s4 0.833008 6 1.5s4 1.5 6 2.5s4 2.5 6 4.5c1.33301 1.33301 3 2.83301 5 4.5s4 3.83398 6 6.50098c2 2 4 4.5 6 7.5s4 6.16699 6 9.5l13 -5c-4.66699 -9.33301 -9.83398 -17.333 -15.501 -24s-12.167 -12 -19.5 -16
c-6.66699 -4 -13.834 -7 -21.501 -9s-15.834 -3 -24.501 -3c-12 0 -22.833 1.16699 -32.5 3.5s-18.167 5.83301 -25.5 10.5c-6.66699 5.33301 -12.334 11.833 -17.001 19.5s-7.66699 16.834 -9 27.501c-6.66699 -10.667 -14.667 -20 -24 -28s-20.666 -14.667 -33.999 -20
c-12.667 -4.66699 -26.5 -8.5 -41.5 -11.5s-30.833 -4.5 -47.5 -4.5c-22.667 0 -43 2 -61 6s-33.667 10 -47 18c-13.333 8.66699 -23.333 19 -30 31s-10 25.333 -10 40c0 19.333 4.33301 36.333 13 51s21.667 27 39 37c17.333 9.33301 35.5 17.333 54.5 24
s38.833 11.667 59.5 15c11.333 2 22.833 3.66699 34.5 5s22.834 2.33301 33.501 3c11.333 0.666992 21.833 1.16699 31.5 1.5s18.5 0.5 26.5 0.5v2v0zM324.995 209.997l-6.99902 0.00195312c-20 -1.33301 -38.667 -2.66602 -56 -3.99902s-33.666 -3.66602 -48.999 -6.99902
c-14.667 -2.66699 -27.334 -5.83398 -38.001 -9.50098s-19.334 -7.83398 -26.001 -12.501c-4.66699 -3.33301 -8.83398 -7.33301 -12.501 -12s-6.5 -10 -8.5 -16s-3.5 -12.833 -4.5 -20.5s-1.5 -16.167 -1.5 -25.5c0 -16.667 1.5 -30.834 4.5 -42.501
s7.5 -21.167 13.5 -28.5c6 -6.66699 14.167 -11.834 24.5 -15.501s22.833 -5.5 37.5 -5.5c14 0 27.333 1.5 40 4.5s24.334 7.5 35.001 13.5c11.333 6 21 13.167 29 21.5s14.333 17.833 19 28.5v131v0v0z" />
    <glyph glyph-name="b" unicode="b" horiz-adv-x="544" 
d="M163 312c8.66699 15.333 18.167 29 28.5 41s21.833 22 34.5 30c12 8 25.667 14 41 18s32.333 6 51 6c24 0 46.667 -4.83301 68 -14.5s41.333 -24.167 60 -43.5s33.5 -39.5 44.5 -60.5s18.167 -43.167 21.5 -66.5v-3c0 -1.33301 0.333008 -2.33301 1 -3v-3.5v-3.5v-2.5
c0 -1 0.333008 -2.16699 1 -3.5v-2.5v-3.5c0 -29.333 -5.16699 -56.5 -15.5 -81.5s-26.166 -47.833 -47.499 -68.5c-20.667 -20.667 -43.834 -35.834 -69.501 -45.501s-53.167 -14.5 -82.5 -14.5c-15.333 0 -29.833 1.83301 -43.5 5.5s-26.167 8.83398 -37.5 15.501
c-12 7.33301 -22.5 16.333 -31.5 27s-16.833 23 -23.5 37v-72h-156v17h77v640h-77v16h94c9.33301 -1.33301 17.333 -1.5 24 -0.5s12 2.5 16 4.5s8 5 12 9s7.33301 8.66699 10 14v-388v0v0zM423 165v44.9971c0 17.333 -0.333008 33 -1 47s-1.66699 25.333 -3 34
c-0.666992 9.33301 -2 17.833 -4 25.5s-4.66699 14.834 -8 21.501c-3.33301 8 -8 15.333 -14 22s-13 12.334 -21 17.001c-8.66699 4.66699 -17.667 8.16699 -27 10.5s-19.333 3.5 -30 3.5c-19.333 0 -37.833 -3.66699 -55.5 -11s-34.167 -18 -49.5 -32
c-16 -14.667 -27.833 -30 -35.5 -46s-11.5 -33 -11.5 -51v-125c0 -16.667 3.83301 -32.167 11.5 -46.5s18.834 -28.166 33.501 -41.499c15.333 -12.667 31.166 -22.167 47.499 -28.5s33.833 -9.5 52.5 -9.5c26 0 47.167 4 63.5 12s27.5 20.333 33.5 37
c6 16 10.5 33.5 13.5 52.5s4.5 39.5 4.5 61.5v2v0z" />
    <glyph glyph-name="c" unicode="c" horiz-adv-x="416" 
d="M416 135c-2.66699 -23.333 -8.49707 -44.166 -17.4971 -62.499s-21.167 -34.166 -36.5 -47.499c-14.667 -12.667 -31.5 -22.167 -50.5 -28.5s-40.167 -9.5 -63.5 -9.5c-30.667 0 -58.834 4.33301 -84.501 13s-49.167 22 -70.5 40c-20.667 18 -36.334 38 -47.001 60
s-16 46 -16 72c0 31.333 5.83301 60.5 17.5 87.5s29.167 51.833 52.5 74.5c23.333 23.333 48.5 40.666 75.5 51.999s55.833 17 86.5 17c18.667 0 36 -2.16699 52 -6.5s30.333 -11.166 43 -20.499c13.333 -8.66699 23.333 -18.5 30 -29.5s10 -22.5 10 -34.5
c0 -6.66699 -1.16699 -12.834 -3.5 -18.501s-5.5 -10.5 -9.5 -14.5c-4.66699 -4.66699 -9.66699 -8 -15 -10s-11.333 -3 -18 -3c-5.33301 0 -10.5 1.16699 -15.5 3.5s-9.5 5.83301 -13.5 10.5c-4.66699 4.66699 -8 9.66699 -10 15s-3 11 -3 17v2v2v1.5v1.5l0.5 0.5
c0.333008 0.333008 0.5 0.833008 0.5 1.5c0 2 0.5 4.16699 1.5 6.5s1.83301 4.83301 2.5 7.5c1.33301 2 2.5 4 3.5 6s2.16699 3.66699 3.5 5l0.5 0.5l1.5 1.5l0.5 0.5l1.5 1.5c0.666992 0 1.16699 0.166992 1.5 0.5l1.5 1.5c0 0.666992 0.166992 1.16699 0.5 1.5l1.5 1.5
c0.666992 1.33301 1.16699 2.5 1.5 3.5s0.5 2.16699 0.5 3.5c0 4 -1.66699 7.66699 -5 11s-8.33301 6 -15 8s-15 3.66699 -25 5s-21.667 2 -35 2c-24.667 0 -45.667 -3.16699 -63 -9.5s-30.666 -15.833 -39.999 -28.5c-8.66699 -12.667 -15.334 -30.834 -20.001 -54.501
s-7 -52.834 -7 -87.501v-43c0 -31.333 2.16699 -57.666 6.5 -78.999s10.833 -38 19.5 -50c9.33301 -12 21.666 -21 36.999 -27s34 -9 56 -9s41.833 2.83301 59.5 8.5s33.5 14.167 47.5 25.5s25.5 25.333 34.5 42s15.5 35.667 19.5 57l14 2v0v0z" />
    <glyph glyph-name="d" unicode="d" horiz-adv-x="544" 
d="M380 316l0.000976562 340.997h-76v17h94c9.33301 -1.33301 17.333 -1.5 24 -0.5s12 2.5 16 4.5s8 4.83301 12 8.5s7.33301 8.16699 10 13.5v-683h77v-17h-157v70c-6 -13.333 -13.5 -25.166 -22.5 -35.499s-19.833 -19.166 -32.5 -26.499
c-12.667 -6.66699 -25.667 -11.834 -39 -15.501s-27.333 -5.5 -42 -5.5c-29.333 0 -56.5 4.83301 -81.5 14.5s-48.167 24.834 -69.5 45.501c-20.667 20.667 -36.334 43.167 -47.001 67.5s-16 50.833 -16 79.5s5.16699 55.5 15.5 80.5s25.833 47.833 46.5 68.5
c20.667 21.333 43 37.333 67 48s49.667 16 77 16c16 0 31.167 -2 45.5 -6s27.833 -10 40.5 -18c12 -8 23 -17.667 33 -29s18.333 -24.666 25 -39.999v2v0zM380.001 135.997v109.994c0 19.333 -3.66699 37.5 -11 54.5s-18.333 32.833 -33 47.5
c-14.667 14 -30.667 24.667 -48 32s-36.333 11 -57 11c-22.667 0 -41.167 -3.66699 -55.5 -11s-24.833 -18.666 -31.5 -33.999c-6.66699 -14.667 -11.667 -30.167 -15 -46.5s-5.33301 -33.166 -6 -50.499c0 -1.33301 -0.166992 -2.66602 -0.5 -3.99902
s-0.5 -2.66602 -0.5 -3.99902v-5v-4v-8v-8v-40v-4.5v-3.5v-1.5v-0.5v-1.5v-1.5c0 -20.667 1.5 -40.167 4.5 -58.5s7.5 -36.166 13.5 -53.499c6 -16.667 17 -29.334 33 -38.001s37 -13 63 -13c19.333 0 37.5 3.33301 54.5 10s32.5 16.334 46.5 29.001
c14 13.333 24.667 27.833 32 43.5s11 32.834 11 51.501v2v0z" />
    <glyph glyph-name="e" unicode="e" horiz-adv-x="440" 
d="M408 136l16 -3c-5.33301 -23.333 -13.5 -43.833 -24.5 -61.5s-24.833 -33.167 -41.5 -46.5c-16.667 -12.667 -34.834 -22.167 -54.501 -28.5s-41.167 -9.5 -64.5 -9.5c-28.667 0 -55.167 4.83301 -79.5 14.5s-46.833 24.5 -67.5 44.5s-36.167 42 -46.5 66
s-15.5 50 -15.5 78s5 54.667 15 80s25 49 45 71s41.5 38.5 64.5 49.5s47.5 16.5 73.5 16.5c17.333 0 34.333 -2.66699 51 -8s32.667 -13.333 48 -24s29 -23.167 41 -37.5s22.333 -30.5 31 -48.5v-1.5v-0.5c0 -0.666992 0.166992 -1.16699 0.5 -1.5s0.833008 -0.5 1.5 -0.5
c2 -4.66699 3.83301 -9.5 5.5 -14.5l4.5 -13.5c1.33301 -4.66699 2.5 -8.5 3.5 -11.5s1.5 -5.5 1.5 -7.5c0 -0.666992 -0.166992 -1.5 -0.5 -2.5s-1.16602 -1.83301 -2.49902 -2.5c-0.666992 -0.666992 -1.83398 -1 -3.50098 -1h-5.5l-281 2v-6.5v-4.5
c-0.666992 -2 -1 -3.83301 -1 -5.5v-4.5v-8.5v-9.5v-4.5v-4.5c-0.666992 -2 -1 -3.83301 -1 -5.5v-4.5v-8.5v-9.5c0 -21.333 1.5 -41.333 4.5 -60s7.83301 -35.667 14.5 -51c6 -15.333 17 -26.833 33 -34.5s37 -11.5 63 -11.5c22.667 0 43 2.83301 61 8.5s34 14.5 48 26.5
s26.333 26.167 37 42.5s19.334 34.833 26.001 55.5v2v0zM123 251l182 0.000976562c3.33301 -1.33301 6 -2 8 -2s3.33301 0.333008 4 1c1.33301 0.666992 2.16602 1.66699 2.49902 3s0.5 3.33301 0.5 6c0 16.667 -1.33301 32.667 -4 48s-6.66699 30 -12 44
s-14.5 24.5 -27.5 31.5s-29.833 10.5 -50.5 10.5c-22.667 0 -41.167 -3.66699 -55.5 -11s-24.166 -18 -29.499 -32c-4.66699 -14.667 -8.5 -30.334 -11.5 -47.001s-5.16699 -34.667 -6.5 -54v2v0z" />
    <glyph glyph-name="f" unicode="f" horiz-adv-x="288" 
d="M175 370l-0.00390625 -352.999h89v-17h-247v17h77v353h-77v17h77v68c0 32.667 3.5 63 10.5 91s17.5 53.333 31.5 76c14 23.333 29.833 40.666 47.5 51.999s36.834 17 57.501 17c11.333 0 21.833 -2 31.5 -6s18.5 -10 26.5 -18c7.33301 -8 13 -17 17 -27s6 -21 6 -33
c0 -7.33301 -1 -14 -3 -20s-5 -11.333 -9 -16s-8.66699 -8 -14 -10s-11.333 -3 -18 -3c-6 0 -11.333 1 -16 3s-9 5 -13 9s-7 8.5 -9 13.5s-3 10.5 -3 16.5c0 5.33301 0.833008 10.166 2.5 14.499s3.83398 8.16602 6.50098 11.499
c3.33301 3.33301 7.33301 6.16602 12 8.49902s10 3.83301 16 4.5c2 0.666992 3.83301 1.33398 5.5 2.00098s2.83398 1.33398 3.50098 2.00098c0.666992 1.33301 1.16699 2.66602 1.5 3.99902s0.5 3 0.5 5c0 3.33301 -1 6.5 -3 9.5s-5 5.5 -9 7.5s-8.66699 3.66699 -14 5
s-11.333 2 -18 2c-12.667 0 -23.167 -2.5 -31.5 -7.5s-15.166 -12.167 -20.499 -21.5c-4.66699 -9.33301 -8.16699 -22.666 -10.5 -39.999s-3.5 -38.666 -3.5 -63.999v-156h110v-17h-110v0v0z" />
    <glyph glyph-name="g" unicode="g" horiz-adv-x="447" 
d="M328 368l15.999 13.999c5.33301 4.66699 11.333 8.33398 18 11.001c6.66699 3.33301 13.5 5.83301 20.5 7.5s14.5 2.5 22.5 2.5c6 0 11.5 -1 16.5 -3s9.83301 -5 14.5 -9c4 -4 7.16699 -8.5 9.5 -13.5s3.5 -10.5 3.5 -16.5c0 -4.66699 -0.833008 -9.16699 -2.5 -13.5
s-4.16699 -8.16602 -7.5 -11.499s-7 -5.83301 -11 -7.5s-8.66699 -2.5 -14 -2.5s-10.166 0.833008 -14.499 2.5s-8.16602 4.16699 -11.499 7.5s-5.83301 7.33301 -7.5 12s-2.5 9.66699 -2.5 15v2v2v2c0 0.666992 0.333008 1.33398 1 2.00098c0 1.33301 0.333008 2.5 1 3.5
s1.33398 1.83301 2.00098 2.5c0.666992 1.33301 1.5 2.66602 2.5 3.99902s1.83301 3 2.5 5c-0.666992 -0.666992 -1.5 -1.16699 -2.5 -1.5s-2.16699 -0.5 -3.5 -0.5c-0.666992 -0.666992 -1.33398 -1 -2.00098 -1h-2c-4 -1.33301 -7.5 -2.83301 -10.5 -4.5
s-5.5 -3.16699 -7.5 -4.5s-4 -2.83301 -6 -4.5s-4 -3.5 -6 -5.5l-1.5 -1.5l-0.5 -0.5l-1.5 -1.5c-0.333008 -0.333008 -0.5 -0.833008 -0.5 -1.5l-1.5 -1.5l-0.5 -0.5l-1.5 -1.5c-0.333008 -0.333008 -0.5 -0.833008 -0.5 -1.5c6 -8 11.333 -16 16 -24
s8.33398 -15.667 11.001 -23c3.33301 -7.33301 5.66602 -14.666 6.99902 -21.999s2 -14.666 2 -21.999c0 -19.333 -4 -37.333 -12 -54s-20 -32 -36 -46s-33.333 -24.5 -52 -31.5s-38.667 -10.5 -60 -10.5h-2.5h-3.5h-2.5h-2.5c-4 0 -8 0.5 -12 1.5s-8 2.16699 -12 3.5
s-8.66699 3 -14 5l-19 7h-3h-3c-1.33301 -0.666992 -2.5 -1 -3.5 -1h-3.5h-4h-3c-1.33301 -0.666992 -2.5 -1 -3.5 -1h-3.5c-8 -0.666992 -15.5 -2.33398 -22.5 -5.00098s-13.5 -6 -19.5 -10c-6.66699 -4 -11.5 -9.16699 -14.5 -15.5s-4.5 -13.833 -4.5 -22.5
c0 -8 1 -14.5 3 -19.5s5.33301 -8.83301 10 -11.5c4 -2.66699 10 -4.66699 18 -6s17.667 -2 29 -2l195 2c17.333 -1.33301 32.833 -4.5 46.5 -9.5s24.834 -12.167 33.501 -21.5c9.33301 -9.33301 16.333 -21.166 21 -35.499s7 -30.833 7 -49.5
c0 -28.667 -5.16699 -54.834 -15.5 -78.501s-26.166 -44.834 -47.499 -63.501c-20.667 -19.333 -44.334 -33.666 -71.001 -42.999s-56 -14 -88 -14c-26.667 0 -50.834 3 -72.501 9s-40.834 14.667 -57.501 26c-16.667 12 -29.167 25.5 -37.5 40.5s-12.5 31.833 -12.5 50.5
c0 10.667 2 21 6 31s10 19.667 18 29c8 10 17.667 19 29 27s24.333 15.667 39 23c-12 0.666992 -22.667 3.16699 -32 7.5s-17 10.166 -23 17.499c-6.66699 6.66699 -11.5 15.5 -14.5 26.5s-4.5 23.5 -4.5 37.5c0 15.333 1.83301 28.666 5.5 39.999s9.16699 21 16.5 29
s16.833 14 28.5 18s25.167 6.33301 40.5 7c-12 7.33301 -22.333 15.166 -31 23.499s-15.667 16.833 -21 25.5c-6 9.33301 -10.333 19.333 -13 30s-4 22 -4 34c0 18.667 4 36.167 12 52.5s20.333 31.833 37 46.5c16 14.667 33.5 25.667 52.5 33s38.833 11 59.5 11
c6 0 12 -0.166992 18 -0.5s11.333 -1.16602 16 -2.49902c5.33301 -0.666992 10.5 -1.83398 15.5 -3.50098s9.83301 -3.5 14.5 -5.5l10 -6l10 -6c3.33301 -2.66699 7 -5.16699 11 -7.5s8 -5.16602 12 -8.49902v2v0zM149.999 -34.001
c-14 -3.33301 -26.166 -8.33203 -36.499 -14.999s-19.166 -14.334 -26.499 -23.001c-6.66699 -9.33301 -11.834 -19.5 -15.501 -30.5s-5.5 -23.167 -5.5 -36.5c0 -16.667 3.33301 -31.667 10 -45s16.667 -25.333 30 -36c13.333 -10 28.666 -17.667 45.999 -23
s36.666 -8 57.999 -8c25.333 0 48.833 3.83301 70.5 11.5s41.834 19.167 60.501 34.5c19.333 14.667 33.666 31 42.999 49s14 37 14 57c0 10.667 -1.66699 20 -5 28s-8.66602 14.667 -15.999 20c-6.66699 6 -15 10.333 -25 13s-21.333 4 -34 4h-168v0v0zM140 266
c0 -25.333 1.33105 -46.501 3.99805 -63.501s6.66699 -30.167 12 -39.5s12.833 -16.333 22.5 -21s21.834 -7 36.501 -7c15.333 0 28.5 2.33301 39.5 7s19.5 11.334 25.5 20.001c6 9.33301 10.5 22.333 13.5 39s4.5 37.334 4.5 62.001c0 25.333 -1.33301 46.666 -4 63.999
s-6.66699 30.333 -12 39c-4.66699 8.66699 -12.167 15.167 -22.5 19.5s-23.166 6.5 -38.499 6.5c-14.667 0 -27.167 -2.5 -37.5 -7.5s-18.5 -12.5 -24.5 -22.5c-6.66699 -10 -11.5 -23.167 -14.5 -39.5s-4.5 -35.833 -4.5 -58.5v2v0z" />
    <glyph glyph-name="h" unicode="h" horiz-adv-x="542" 
d="M164 309c10 15.333 20.835 29.001 32.502 41.001s23.834 21.667 36.501 29c13.333 7.33301 28.166 13 44.499 17s33.833 6 52.5 6c13.333 0 26.333 -1.16699 39 -3.5s24.334 -6.16602 35.001 -11.499c11.333 -4.66699 21 -10.5 29 -17.5s14.333 -14.833 19 -23.5v-1.5
v-0.5v0h1v-1v0c2 -4.66699 3.83301 -9.5 5.5 -14.5s2.83398 -10.5 3.50098 -16.5c1.33301 -6 2.16602 -13.667 2.49902 -23s0.5 -20.666 0.5 -33.999v-238h77v-17h-238v17h79v301c0 9.33301 -1.66699 18.166 -5 26.499s-8.33301 15.833 -15 22.5
c-6.66699 6 -14.334 10.667 -23.001 14s-18.334 5 -29.001 5h-1.5h-1.5h-1.5h-0.5c-14.667 -0.666992 -29 -3.83398 -43 -9.50098s-27.667 -13.834 -41 -24.501c-12.667 -10.667 -24 -22.667 -34 -36s-18 -28 -24 -44v-255h76v-17h-234v17h77v640h-77v16h96
c9.33301 -1.33301 17.166 -1.5 23.499 -0.5s11.5 2.5 15.5 4.5s8 5 12 9s7.66699 8.66699 11 14v-391v0v0z" />
    <glyph glyph-name="i" unicode="i" horiz-adv-x="258" 
d="M94 370l-75.999 -0.000976562v17h94c9.33301 -1.33301 17.166 -1.66602 23.499 -0.999023s11.5 2 15.5 4s8 4.83301 12 8.5s7.66699 8.16699 11 13.5v0v1v0v0v0l1 1v0.5v0.5v-398h77v-17h-235v17h77v353v0v0zM135.001 678.999c6.66699 -1.33301 12.667 -3.16699 18 -5.5
s10.333 -5.83301 15 -10.5s8.16699 -9.66699 10.5 -15s3.5 -11 3.5 -17c0 -6.66699 -1.16699 -12.667 -3.5 -18s-5.83301 -10.333 -10.5 -15s-9.66699 -8.16699 -15 -10.5s-11.333 -3.5 -18 -3.5s-12.667 1.16699 -18 3.5s-10.333 5.83301 -15 10.5s-8 9.66699 -10 15
s-3 11.333 -3 18c0 6 1 11.667 3 17s5.33301 10.333 10 15s9.66699 8.16699 15 10.5s11.333 3.5 18 3.5v2v0z" />
    <glyph glyph-name="j" unicode="j" horiz-adv-x="234" 
d="M7 371l-0.000976562 16.001h101c9.33301 -1.33301 17.166 -1.66602 23.499 -0.999023s11.833 2 16.5 4c4 1.33301 8 3.5 12 6.5s7.33301 6.83301 10 11.5v-460c0 -31.333 -0.5 -57.5 -1.5 -78.5s-2.5 -37.5 -4.5 -49.5c-2 -11.333 -5.33301 -21.833 -10 -31.5
s-10.667 -18.167 -18 -25.5c-2.66699 -3.33301 -5.5 -6.16602 -8.5 -8.49902s-6.16699 -4.5 -9.5 -6.5s-6.66602 -3.83301 -9.99902 -5.5s-6.66602 -2.83398 -9.99902 -3.50098c-1.33301 0 -2.83301 -0.166992 -4.5 -0.5s-3.16699 -0.833008 -4.5 -1.5h-2.5
c-1 0 -1.83301 -0.333008 -2.5 -1h-3h-2c-6.66699 0 -12.5 1 -17.5 3s-9.5 5 -13.5 9s-7 8.66699 -9 14s-3 11.333 -3 18c0 4.66699 0.833008 9.16699 2.5 13.5s4.5 8.16602 8.5 11.499c3.33301 2.66699 7.33301 4.83398 12 6.50098s9.66699 2.5 15 2.5v0h1v0v0h0.5h1.5
c4 0 8 -1 12 -3s7.66699 -4.66699 11 -8s6 -7.16602 8 -11.499s3 -8.83301 3 -13.5v-2v-2c-0.666992 0 -1 -0.333008 -1 -1v-2v-2v-2c-0.666992 -0.666992 -1 -1.33398 -1 -2.00098v-2c3.33301 2.66699 6.5 5.66699 9.5 9s5.5 6.66602 7.5 9.99902s3.5 7 4.5 11
s1.5 8.66699 1.5 14c0 2.66699 -0.166992 5.33398 -0.5 8.00098s-0.833008 5.33398 -1.5 8.00098c-0.666992 1.33301 -1.16699 2.66602 -1.5 3.99902s-0.5 2.33301 -0.5 3c-0.666992 1.33301 -1.16699 2.66602 -1.5 3.99902s-0.833008 2.66602 -1.5 3.99902l-2 4
c-0.666992 1.33301 -1 2.33301 -1 3l-2 4l-2 4l-2 4c-0.666992 1.33301 -1 2.33301 -1 3l-2 4l-2 4l-8.5 17c-3 6 -5.5 12.333 -7.5 19s-3.5 13.667 -4.5 21s-1.5 15.333 -1.5 24v422h-82v0v0zM129.999 680.001c6.66699 -1.33301 12.834 -3.16699 18.501 -5.5
s10.834 -5.83301 15.501 -10.5s8.16699 -9.66699 10.5 -15s3.5 -11.333 3.5 -18s-1.16699 -12.667 -3.5 -18s-5.83301 -10.333 -10.5 -15s-9.83398 -8.16699 -15.501 -10.5s-11.834 -3.5 -18.501 -3.5s-12.667 1.16699 -18 3.5s-10.333 5.83301 -15 10.5
s-8.16699 9.66699 -10.5 15s-3.5 11.333 -3.5 18s1.16699 12.667 3.5 18s5.83301 10.333 10.5 15s9.66699 8.16699 15 10.5s11.333 3.5 18 3.5v2v0z" />
    <glyph glyph-name="k" unicode="k" horiz-adv-x="487" 
d="M83 657l-76.9941 0.000976562v16h87c9.33301 -1.33301 17.166 -1.5 23.499 -0.5s11.5 2.5 15.5 4.5s8 4.83301 12 8.5s7.66699 8.5 11 14.5v0v1v0v0v0l1 1v0.5v0.5v-533l137 136c1.33301 0.666992 2.66602 1.5 3.99902 2.5s2.66602 2.16699 3.99902 3.5l2 2l2 2
c0 0.666992 0.333008 1.33398 1 2.00098l2 2c3.33301 4 6.5 8 9.5 12l8.5 11c2 3.33301 3.66699 6.33301 5 9s2 4.66699 2 6s-0.666992 2.66602 -2 3.99902s-3.33301 2.33301 -6 3c-2.66699 1.33301 -5.83398 2.16602 -9.50098 2.49902s-8.16699 0.5 -13.5 0.5l-47 2v17h206
v-17h-38c-8.66699 -1.33301 -16.834 -3 -24.501 -5s-14.5 -5 -20.5 -9c-6.66699 -4 -13 -8.5 -19 -13.5s-11.667 -10.167 -17 -15.5l-4 -4l-4 -4l-2 -2c-0.666992 -0.666992 -1.33398 -1 -2.00098 -1l-2 -2l-2 -2l-80 -76l169 -219h82v-17h-251v17h67l-123 161l-34 -33v-128
h73v-17h-223v17h77v640v0v0z" />
    <glyph glyph-name="l" unicode="l" horiz-adv-x="248" 
d="M83 657h-77v16h96c9.33301 -1.33301 17.333 -1.5 24 -0.5s12 2.5 16 4.5s8 5 12 9s7.33301 9 10 15v-684h77v-17h-235v17h77v640v0v0z" />
    <glyph glyph-name="m" unicode="m" horiz-adv-x="815" 
d="M175 306c4.66699 13.333 11.665 26.0029 20.998 38.0029s21.333 22.667 36 32c14 9.33301 29 16.5 45 21.5s33 7.5 51 7.5c19.333 0 36.5 -2.16699 51.5 -6.5s27.833 -11.166 38.5 -20.499c10 -8.66699 18.167 -19.667 24.5 -33s10.833 -29 13.5 -47
c5.33301 16 12.833 30.5 22.5 43.5s20.834 24.167 33.501 33.5c13.333 9.33301 27.5 16.333 42.5 21s30.833 7 47.5 7c14 0 27 -1.16699 39 -3.5s23.333 -5.83301 34 -10.5c10 -4.66699 19 -10.334 27 -17.001s14.667 -14.334 20 -23.001
c0 -0.666992 0.166992 -1.33398 0.5 -2.00098s0.833008 -1.33398 1.5 -2.00098s1.16699 -1.33398 1.5 -2.00098s0.833008 -1.33398 1.5 -2.00098c2 -4.66699 3.83301 -9.66699 5.5 -15s2.83398 -11 3.50098 -17s1.16699 -13.667 1.5 -23s0.5 -20.666 0.5 -33.999v-235h77
v-17h-237v17h78v293c0 11.333 -1.5 21.666 -4.5 30.999s-7.16699 17.333 -12.5 24c-6 6.66699 -13 11.667 -21 15s-17.667 5 -29 5c-14.667 0 -28.667 -2.66699 -42 -8s-26 -13.666 -38 -24.999c-12.667 -10.667 -23 -21.834 -31 -33.501s-14 -23.834 -18 -36.501
c-0.666992 -2.66699 -1.33398 -5.16699 -2.00098 -7.5s-1 -4.5 -1 -6.5c-0.666992 -2.66699 -1 -5.16699 -1 -7.5v-6.5v-237h76v-17h-236v17h79v308c0 8.66699 -1.5 16.834 -4.5 24.501s-7.16699 14.5 -12.5 20.5s-11.833 10.5 -19.5 13.5s-16.167 4.5 -25.5 4.5
c-15.333 0 -30 -2.83301 -44 -8.5s-27.667 -14.167 -41 -25.5c-12.667 -10.667 -23.5 -23 -32.5 -37s-15.833 -29.333 -20.5 -46v-254h75v-17h-233v17h77v353h-77v17h96c9.33301 -1.33301 17.333 -1.66602 24 -0.999023s12.334 2 17.001 4s8.66699 4.83301 12 8.5
s6.33301 7.83398 9 12.501v-105v0v0z" />
    <glyph glyph-name="n" unicode="n" horiz-adv-x="550" 
d="M174 308c8 14.667 17.5 27.8311 28.5 39.498s23.833 21.5 38.5 29.5c14 8 29.333 14.167 46 18.5s34.334 6.5 53.001 6.5c22 0 41.5 -2.66699 58.5 -8s30.833 -13.333 41.5 -24c11.333 -10.667 19.833 -24.167 25.5 -40.5s8.5 -35.166 8.5 -56.499v-256h77v-17h-236v17
h77v291c0 13.333 -1.16699 25 -3.5 35s-6.16602 18 -11.499 24c-4.66699 6 -11.334 10.5 -20.001 13.5s-18.667 4.5 -30 4.5c-16.667 0 -32.5 -2.66699 -47.5 -8s-29.5 -13 -43.5 -23c-14 -10.667 -26.167 -22.667 -36.5 -36s-18.833 -28.333 -25.5 -45v-256h78v-17h-235v17
h77v353h-77v17h95c9.33301 -1.33301 17.166 -1.66602 23.499 -0.999023s11.833 2 16.5 4c4 2 8 4.83301 12 8.5s7.33301 8.16699 10 13.5v-104v0v0z" />
    <glyph glyph-name="o" unicode="o" horiz-adv-x="493" 
d="M256 407c26.667 -1.33301 52.002 -7.33105 76.002 -17.998s46.333 -26.667 67 -48c21.333 -20.667 37.333 -43 48 -67s16 -49.333 16 -76c0 -28.667 -5.33301 -55.167 -16 -79.5s-26.667 -47.166 -48 -68.499c-21.333 -20.667 -44.5 -36.167 -69.5 -46.5
s-52.167 -15.5 -81.5 -15.5c-28.667 0 -55.667 5.16699 -81 15.5s-49 26.166 -71 47.499s-38.5 44.166 -49.5 68.499s-16.5 50.166 -16.5 77.499c0 25.333 5 49.333 15 72s25.333 43.667 46 63s42.167 35 64.5 47s45.833 20 70.5 24h4c1.33301 0 2.66602 0.333008 3.99902 1
h3h4h4c1.33301 0 2.66602 0.333008 3.99902 1h3h4v2v0zM372.002 127.002l-0.000976562 139c0 21.333 -2.16699 40 -6.5 56s-11.166 29 -20.499 39c-8.66699 10 -20.5 17.5 -35.5 22.5s-32.833 7.5 -53.5 7.5c-23.333 0 -43.5 -2.5 -60.5 -7.5s-30.833 -12.5 -41.5 -22.5
s-18.5 -23 -23.5 -39s-7.5 -34.667 -7.5 -56v-137c0 -23.333 2.33301 -43.166 7 -59.499s12 -29.5 22 -39.5s23 -17.5 39 -22.5s35.333 -7.5 58 -7.5s42 2.33301 58 7s28.333 11.667 37 21c9.33301 9.33301 16.333 22.166 21 38.499s7 35.833 7 58.5v2v0z" />
    <glyph glyph-name="p" unicode="p" horiz-adv-x="542" 
d="M164 77l-0.00195312 -313h77v-17h-234v17h77v606h-77v17h95c9.33301 -1.33301 17.333 -1.66602 24 -0.999023s12.334 2 17.001 4s8.66699 4.83301 12 8.5s6.33301 7.83398 9 12.501v-84c6 10.667 13.5 20.5 22.5 29.5s19.167 17.167 30.5 24.5s22.833 13.166 34.5 17.499
s23.834 6.83301 36.501 7.5h1.5h1.5h0.5h1.5h3.5h2.5c28.667 0 55.5 -5.16699 80.5 -15.5s47.833 -25.833 68.5 -46.5c21.333 -20.667 37.333 -43 48 -67s16 -49.667 16 -77c0 -30 -5.16699 -57.5 -15.5 -82.5s-25.5 -48.167 -45.5 -69.5
c-20 -20.667 -42.167 -36.167 -66.5 -46.5s-50.833 -15.5 -79.5 -15.5c-15.333 0 -29.833 2 -43.5 6s-26.5 9.33301 -38.5 16c-12 7.33301 -23 16.666 -33 27.999s-18.667 24.333 -26 39v2v0zM163.998 262l0.000976562 -115.001c0 -21.333 3.66699 -40.666 11 -57.999
s18.333 -33 33 -47s30.667 -24.5 48 -31.5s36.333 -10.5 57 -10.5c23.333 -0 42.166 3.83301 56.499 11.5s24.5 18.834 30.5 33.501c6 15.333 10.667 31.166 14 47.499s5.33301 33.5 6 51.5v4v4v4v4v70c0 20.667 -1.5 40.167 -4.5 58.5s-7.5 35.833 -13.5 52.5
s-17 29.167 -33 37.5s-37.333 12.5 -64 12.5c-18.667 0 -36.167 -3.33301 -52.5 -10s-31.5 -16.667 -45.5 -30c-14.667 -13.333 -25.5 -27.5 -32.5 -42.5s-10.5 -31.167 -10.5 -48.5v2v0z" />
    <glyph glyph-name="q" unicode="q" horiz-adv-x="542" 
d="M378 327v86c2.66699 -6 5.66699 -10.833 9 -14.5s7.33301 -6.5 12 -8.5s10.5 -3.33301 17.5 -4s14.833 -1 23.5 -1l96 2v-17h-77v-606h77v-17h-234v17h76v313c-8 -15.333 -16.833 -28.833 -26.5 -40.5s-20.5 -21.167 -32.5 -28.5c-12 -6.66699 -24.833 -12 -38.5 -16
s-28.167 -6 -43.5 -6c-28.667 0 -55.167 5.16699 -79.5 15.5s-46.5 25.833 -66.5 46.5c-20.667 21.333 -36 44.5 -46 69.5s-15 52.5 -15 82.5c0 27.333 5.33301 53 16 77s26.667 46.333 48 67s44.333 36.167 69 46.5s51.334 15.5 80.001 15.5h0.5h1.5h1.5h1.5
c13.333 -0.666992 26.166 -3 38.499 -7s24.5 -9.66699 36.5 -17s22.5 -15.833 31.5 -25.5s16.833 -20.167 23.5 -31.5v2v0zM122 230v-68.001v-4.5v-3.5v-1.5v-0.5v-1.5v-1.5c0 -18.667 1.66699 -36.667 5 -54s8 -33.666 14 -48.999s16.5 -26.833 31.5 -34.5
s34.167 -11.5 57.5 -11.5c20 0 38.667 3.5 56 10.5s33.333 17.5 48 31.5s25.667 29.667 33 47s11 36 11 56v113c0 17.333 -3.5 33.833 -10.5 49.5s-17.5 30.167 -31.5 43.5s-29 23.333 -45 30s-33.667 10 -53 10c-26.667 0 -48.167 -4.16699 -64.5 -12.5
s-27.5 -20.5 -33.5 -36.5c-6 -16.667 -10.5 -34.5 -13.5 -53.5s-4.5 -39.167 -4.5 -60.5v2v0z" />
    <glyph glyph-name="r" unicode="r" horiz-adv-x="367" 
d="M175 290c4.66699 16.667 10.834 31.833 18.501 45.5s16.834 25.5 27.501 35.5c11.333 10 23.166 17.667 35.499 23s25.833 8 40.5 8c10 0 19 -1.16699 27 -3.5s15 -6.16602 21 -11.499c6 -4.66699 10.667 -10.5 14 -17.5s5 -14.833 5 -23.5
c0 -6.66699 -1 -12.834 -3 -18.501s-5 -10.5 -9 -14.5s-8.5 -7 -13.5 -9s-10.833 -3 -17.5 -3c-6 0 -11.333 1 -16 3s-9 5 -13 9s-7 8.66699 -9 14s-3 11.333 -3 18c0 3.33301 0.5 6.83301 1.5 10.5s2.5 7.16699 4.5 10.5s4.5 6.5 7.5 9.5s6.16699 5.5 9.5 7.5l-15 4
c-0.666992 -0.666992 -1.16699 -1 -1.5 -1h-0.5h-0.5h-1.5c-2.66699 0 -5.16699 -0.166992 -7.5 -0.5s-4.5 -0.833008 -6.5 -1.5c-2.66699 -0.666992 -5.16699 -1.5 -7.5 -2.5s-4.5 -2.16699 -6.5 -3.5c-6 -4 -12 -8.66699 -18 -14s-12 -11.666 -18 -18.999
c-6 -6.66699 -11.333 -14.334 -16 -23.001s-8.66699 -17.667 -12 -27c-1.33301 -2.66699 -2.5 -5.5 -3.5 -8.5s-2.16699 -5.83301 -3.5 -8.5c-0.666992 -2.66699 -1.33398 -5.16699 -2.00098 -7.5s-1.33398 -4.5 -2.00098 -6.5
c-1.33301 -4.66699 -2.5 -9.83398 -3.5 -15.501s-1.5 -11.167 -1.5 -16.5c-0.666992 -6 -1 -12.833 -1 -20.5v-25.5v-169h87v-17h-245v17h77v353h-77v17h99c7.33301 -1.33301 13.833 -1.66602 19.5 -0.999023s10.834 2 15.501 4c4 2 8 4.66699 12 8s8 7.33301 12 12v-120v0
v0z" />
    <glyph glyph-name="s" unicode="s" horiz-adv-x="374" 
d="M36 140l13 -0.00292969c3.33301 -22.667 9.33301 -42.334 18 -59.001s19.667 -31 33 -43s28.333 -21 45 -27s35.334 -9 56.001 -9c15.333 0 29.333 2 42 6s24 10.333 34 19c9.33301 8.66699 16.5 18.5 21.5 29.5s7.5 23.5 7.5 37.5c0 12.667 -2 23.667 -6 33
s-10 17.333 -18 24s-18 11.667 -30 15s-25.667 5 -41 5l-69 2c-14.667 -1.33301 -28.334 0.5 -41.001 5.5s-23.667 12.5 -33 22.5s-16.333 21.667 -21 35s-7 28 -7 44c0 19.333 3.16699 36.5 9.5 51.5s15.833 28.5 28.5 40.5c12.667 11.333 27.167 20 43.5 26
s34.833 9 55.5 9c7.33301 0 14.333 -0.5 21 -1.5s13 -2.16699 19 -3.5c6 -2 12 -3.83301 18 -5.5l16 -4.5c5.33301 -2 10 -4 14 -6s7.66699 -3.66699 11 -5c3.33301 -2 6.5 -3.33301 9.5 -4s5.5 -1 7.5 -1c1.33301 0 2.33301 0.333008 3 1s1.33398 1.66699 2.00098 3v2.5
c0 1 0.333008 2.16699 1 3.5v5v6v4v7h15l4 -116h-15c-2.66699 16 -7.16699 30.333 -13.5 43s-15.166 23.334 -26.499 32.001c-10.667 8.66699 -23.5 15.167 -38.5 19.5s-32.167 6.5 -51.5 6.5c-15.333 0 -29.333 -1.66699 -42 -5s-23.667 -8.66602 -33 -15.999
c-9.33301 -6.66699 -16.333 -14.834 -21 -24.501s-7 -20.167 -7 -31.5c0 -10.667 2.33301 -20 7 -28s11.334 -15 20.001 -21c9.33301 -6 20.333 -10.5 33 -13.5s27.334 -4.5 44.001 -4.5l63 2c17.333 -1.33301 32.666 -4.66602 45.999 -9.99902s25 -13 35 -23
c9.33301 -10.667 16.5 -23.167 21.5 -37.5s7.5 -30.833 7.5 -49.5c0 -20.667 -3.66699 -39.667 -11 -57s-18 -32.666 -32 -45.999c-14.667 -13.333 -31 -23.166 -49 -29.499s-37.667 -9.5 -59 -9.5c-8.66699 0 -17 0.5 -25 1.5s-15.667 2.5 -23 4.5l-19.5 6
c-6.33301 2 -12.166 4.33301 -17.499 7c-2.66699 1.33301 -5.33398 2.5 -8.00098 3.5s-5.33398 2.16699 -8.00098 3.5c-2.66699 0.666992 -5 1.66699 -7 3s-4 2.33301 -6 3c-4 2 -7.66699 3.66699 -11 5s-6 2 -8 2c-2.66699 0 -4.83398 -0.666992 -6.50098 -2
s-3.16699 -3 -4.5 -5c-0.666992 -2 -1.33398 -4.66699 -2.00098 -8s-1 -7.33301 -1 -12v-4h-13v143v0v0z" />
    <glyph glyph-name="t" unicode="t" horiz-adv-x="285" 
d="M270 66l15.002 -3.99902c-5.33301 -14 -11.5 -25.833 -18.5 -35.5s-14.5 -17.167 -22.5 -22.5c-8 -4.66699 -17.167 -8.33398 -27.5 -11.001s-22.166 -4 -35.499 -4c-16.667 0 -31.334 1.83301 -44.001 5.5s-23.667 9.16699 -33 16.5c-9.33301 8 -16.333 17.5 -21 28.5
s-7 23.833 -7 38.5v292h-82v17h27c18 -1.33301 34.5 1.33398 49.5 8.00098s28.167 17 39.5 31c11.333 13.333 19.833 27.833 25.5 43.5s8.5 32.167 8.5 49.5l14 2v-134h127v-17h-127v-304c0 -11.333 0.833008 -20.833 2.5 -28.5s4.16699 -13.834 7.5 -18.501
s7.83301 -8 13.5 -10s12.5 -3 20.5 -3c7.33301 0 14.166 1.16699 20.499 3.5s12.166 5.83301 17.499 10.5c5.33301 5.33301 10.5 11.5 15.5 18.5s9.83301 15.5 14.5 25.5v2v0z" />
    <glyph glyph-name="u" unicode="u" horiz-adv-x="543" 
d="M460 17l75.9971 -0.000976562v-17h-157v93c-8.66699 -19.333 -18.167 -35.833 -28.5 -49.5s-22.166 -24.5 -35.499 -32.5c-12.667 -7.33301 -27.5 -13.166 -44.5 -17.499s-35.833 -6.5 -56.5 -6.5c-11.333 0 -22.333 1 -33 3s-21 4.66699 -31 8
c-10 2.66699 -18.833 6.5 -26.5 11.5s-14.5 10.833 -20.5 17.5l-2 2l-2 2c-0.666992 0.666992 -1.16699 1.33398 -1.5 2.00098s-0.833008 1.33398 -1.5 2.00098c-4 5.33301 -7.16699 10.5 -9.5 15.5s-4.16602 10.5 -5.49902 16.5s-2.33301 13.167 -3 21.5s-1 17.833 -1 28.5
v253h-77v17h109c5.33301 -1.33301 9.83301 -1.83301 13.5 -1.5s6.83398 0.833008 9.50098 1.5s5.16699 1.66699 7.5 3s4.5 3 6.5 5l3.5 3.5l2.5 2.5c1.33301 1.33301 2.5 2.66602 3.5 3.99902s1.83301 3 2.5 5v-322c0 -16.667 1.33301 -30.5 4 -41.5s6.66699 -19.5 12 -25.5
s12.666 -10.5 21.999 -13.5s20.333 -4.5 33 -4.5c19.333 0 37.833 3.83301 55.5 11.5s33.834 19.167 48.501 34.5c15.333 15.333 26.833 31.666 34.5 48.999s11.5 36 11.5 56v216h-76v17h109c2.66699 -1.33301 5.16699 -2 7.5 -2s4.5 0.333008 6.5 1
c1.33301 0 2.5 0.166992 3.5 0.5s2.16699 0.833008 3.5 1.5c0.666992 0.666992 1.66699 1.16699 3 1.5s2.33301 0.833008 3 1.5c1.33301 1.33301 2.83301 2.5 4.5 3.5s3.5 2.16699 5.5 3.5l5 5c2 2 4 4.33301 6 7v-393v0v0z" />
    <glyph glyph-name="v" unicode="v" horiz-adv-x="442" 
d="M-16 387l224.998 -0.000976562v-17h-73l122 -281l94 216c0.666992 1.33301 1.33398 3 2.00098 5l2 6c0.666992 1.33301 1.33398 3 2.00098 5l2 6c1.33301 4 2.33301 7.5 3 10.5s1 5.5 1 7.5c0 4 -0.833008 7.33301 -2.5 10s-4.16699 5 -7.5 7
c-2.66699 2 -6.5 3.5 -11.5 4.5s-11.167 1.5 -18.5 1.5l-43 2v17h178v-17h-27c-3.33301 -1.33301 -6.5 -2.16602 -9.5 -2.49902s-5.83301 -1.16602 -8.5 -2.49902c-2.66699 -0.666992 -5.16699 -1.83398 -7.5 -3.50098s-4.5 -3.5 -6.5 -5.5
c-2.66699 -2.66699 -5.5 -6.5 -8.5 -11.5l-9.5 -16.5l-10 -21.5l-14 -29.5l-132 -301h-8l-174 394h-60v17v0v0z" />
    <glyph glyph-name="w" unicode="w" horiz-adv-x="661" 
d="M-17 370l0.000976562 15.999h446v-16h-79l124 -285l84 193c3.33301 5.33301 6 11 8 17l6 18c1.33301 5.33301 2.5 10.333 3.5 15s1.5 8.66699 1.5 12c0 4.66699 -0.833008 8.66699 -2.5 12s-4.16699 6.33301 -7.5 9c-3.33301 2 -7.5 3.66699 -12.5 5s-10.5 2 -16.5 2
l-36 2v16h176v-16h-23c-4.66699 -1.33301 -8.83398 -2.16602 -12.501 -2.49902s-7.16699 -1.16602 -10.5 -2.49902c-2.66699 -0.666992 -5.5 -2.33398 -8.5 -5.00098s-6.16699 -5.66699 -9.5 -9c-2.66699 -3.33301 -5.5 -7.5 -8.5 -12.5l-9.5 -16.5
c-2.66699 -6.66699 -6 -14.167 -10 -22.5l-13 -28.5l-128 -298h-9l-106 238l-97 -238h-10l-175 397h-65v0v0zM261.001 369.999h-123l123 -285l61 146l-61 139v0v0z" />
    <glyph glyph-name="x" unicode="x" horiz-adv-x="477" 
d="M9 370l0.00488281 17h237v-17h-66l80 -117l54 63c3.33301 3.33301 6.33301 7 9 11s5 7.33301 7 10c2 3.33301 3.5 6.33301 4.5 9s1.5 5 1.5 7c0 2.66699 -0.666992 5 -2 7s-3.33301 3.33301 -6 4c-2.66699 1.33301 -6.33398 2.33301 -11.001 3s-10.334 1 -17.001 1l-30 2
v17h188v-17h-26c-7.33301 -1.33301 -14 -2.33301 -20 -3s-11.333 -1.66699 -16 -3c-4.66699 -0.666992 -9 -2 -13 -4s-8 -4.66699 -12 -8c-2 -1.33301 -3.83301 -2.83301 -5.5 -4.5s-3.16699 -3.5 -4.5 -5.5l-2.5 -2.5c-1 -1 -1.83301 -2.16699 -2.5 -3.5
c-1.33301 -0.666992 -2.33301 -1.5 -3 -2.5s-1.66699 -2.16699 -3 -3.5l-10 -12l-10 -12l-10 -11.5l-10 -10.5l-10 -12l-10 -12c-2 -2 -3.83301 -4 -5.5 -6s-3.16699 -3.66699 -4.5 -5c-2 -2 -3.83301 -4 -5.5 -6s-3.16699 -4 -4.5 -6l155 -220h69v-17h-248v17h80l-106 151
l-69 -82l-15.5 -20.5c-4.33301 -5.66699 -7.5 -10.167 -9.5 -13.5c-2.66699 -3.33301 -4.5 -6.5 -5.5 -9.5s-1.5 -5.83301 -1.5 -8.5c0 -4 0.833008 -7.16699 2.5 -9.5s3.83398 -4.16602 6.50098 -5.49902c3.33301 -1.33301 8.16602 -2.33301 14.499 -3s13.833 -1 22.5 -1
l29 2v-17h-210v17c13.333 -1.33301 25.166 -1.5 35.499 -0.5s19.5 2.83301 27.5 5.5s16 6.16699 24 10.5s15.333 9.5 22 15.5c3.33301 3.33301 6.66602 6.5 9.99902 9.5s6.66602 6.16699 9.99902 9.5s6.83301 7.16602 10.5 11.499l11.5 13.5l75 90l-130 188h-71v0v0z" />
    <glyph glyph-name="y" unicode="y" horiz-adv-x="438" 
d="M-17 370v16h220v-16h-71l125 -291l80 198c2.66699 6 5 12.167 7 18.5l6 18.5c2 6 3.5 11.167 4.5 15.5s1.5 7.83301 1.5 10.5c0 5.33301 -1.16699 9.66602 -3.5 12.999s-5.5 6 -9.5 8c-4.66699 2 -10.5 3.66699 -17.5 5s-15.167 2 -24.5 2l-40 2v16h193v-16h-31
c-8 -1.33301 -14.833 -3.16602 -20.5 -5.49902s-10.167 -6.16602 -13.5 -11.499c-3.33301 -4.66699 -6.5 -9.83398 -9.5 -15.501s-5.5 -11.5 -7.5 -17.5c-0.666992 -0.666992 -1 -1.16699 -1 -1.5v-0.5v-1v0c-0.666992 -1.33301 -1.33398 -2.5 -2.00098 -3.5
s-1.33398 -2.16699 -2.00098 -3.5c-0.666992 -0.666992 -1.16699 -1.5 -1.5 -2.5s-0.5 -2.16699 -0.5 -3.5l-123 -300l-6 -14.5c-2 -5 -3.66699 -10.5 -5 -16.5c-1.33301 -5.33301 -2.66602 -11.166 -3.99902 -17.499l-4 -19.5
c-0.666992 -3.33301 -1.5 -6.66602 -2.5 -9.99902s-1.83301 -7 -2.5 -11c-0.666992 -2 -1.16699 -4 -1.5 -6s-0.5 -4 -0.5 -6c-0.666992 -1.33301 -1.16699 -3 -1.5 -5s-0.833008 -4 -1.5 -6c-4.66699 -18 -10 -35.5 -16 -52.5s-12.667 -33.167 -20 -48.5
s-16.833 -26.833 -28.5 -34.5s-25.5 -11.5 -41.5 -11.5c-8 0 -15 1.16699 -21 3.5s-11.667 5.83301 -17 10.5c-4.66699 4.66699 -8.33398 10 -11.001 16s-4 12.667 -4 20c0 6 1 11.667 3 17s5.33301 10.333 10 15c4 4.66699 8.5 8 13.5 10s10.167 3 15.5 3
c7.33301 0 13.666 -1 18.999 -3s10 -5.33301 14 -10c4 -4 7 -8.83301 9 -14.5s3 -11.834 3 -18.501c-0.666992 -0.666992 -1 -1.16699 -1 -1.5v-1.5v-1.5v-1.5v-3.5c0 -1 0.333008 -1.83301 1 -2.5s1.5 -1.16699 2.5 -1.5s2.16699 -0.5 3.5 -0.5
c0.666992 0 1.33398 0.166992 2.00098 0.5s1.33398 0.833008 2.00098 1.5c1.33301 0.666992 2.5 1.16699 3.5 1.5s1.83301 1.16602 2.5 2.49902c3.33301 3.33301 6.5 8 9.5 14s5.83301 13.667 8.5 23c3.33301 8.66699 6.5 17.667 9.5 27s5.83301 19 8.5 29l6 27.5l6 26.5
c2 8.66699 3.83301 16 5.5 22s2.83398 11 3.50098 15l-173 400h-58v0v0z" />
    <glyph glyph-name="z" unicode="z" horiz-adv-x="423" 
d="M75 241l-16 -0.000976562l-1 146h353l-276 -370h90c25.333 -1.33301 47.333 0 66 4s33.334 10 44.001 18c11.333 8 19.666 20.5 24.999 37.5s8 38.833 8 65.5l17 2v-144h-363l280 370h-76c-26 -1.33301 -48.5 -3.66602 -67.5 -6.99902s-34.5 -8.33301 -46.5 -15
c-12.667 -6.66699 -22 -19 -28 -37s-9 -42 -9 -72v2v0z" />
    <glyph glyph-name="braceleft" unicode="{" horiz-adv-x="261" 
d="M61 218c10.667 -5.33301 19.6709 -11.1689 27.0039 -17.502s13.333 -13.833 18 -22.5s8.16699 -19 10.5 -31s3.5 -25.667 3.5 -41v-235c0 -18.667 1.66699 -34.334 5 -47.001s8.33301 -22.334 15 -29.001c7.33301 -7.33301 17 -13.166 29 -17.499
s26.667 -7.83301 44 -10.5v-20c-26.667 0 -48.334 3.5 -65.001 10.5s-28.334 17.167 -35.001 30.5s-11.5 29.333 -14.5 48s-4.5 39.667 -4.5 63v214c0 14.667 -1 27.334 -3 38.001s-5 19.334 -9 26.001c-4 7.33301 -10 13.666 -18 18.999s-17.667 10.333 -29 15v13
c11.333 2.66699 20.666 6.83398 27.999 12.501s13.333 11.834 18 18.501c4 7.33301 7.16699 16.666 9.5 27.999s3.5 24.333 3.5 39v238c0 20.667 2.16699 39.334 6.5 56.001s10.833 30.334 19.5 41.001c8.66699 11.333 20.667 19.666 36 24.999s34.333 8 57 8v-18
c-16.667 -2.66699 -31 -6.16699 -43 -10.5s-21.667 -10.166 -29 -17.499c-6.66699 -6.66699 -11.834 -16 -15.501 -28s-5.5 -26.333 -5.5 -43v-248c0 -16.667 -1.16699 -30.834 -3.5 -42.501s-5.5 -21.5 -9.5 -29.5s-9.83301 -15 -17.5 -21s-17.167 -11.333 -28.5 -16v2v0z
" />
    <glyph glyph-name="bar" unicode="|" horiz-adv-x="500" 
d="M211 666h78v-833h-78v833v0v0z" />
    <glyph glyph-name="braceright" unicode="}" horiz-adv-x="261" 
d="M199 221c-10.667 2.66699 -19.668 7.00488 -27.001 13.0049s-13.333 13.333 -18 22s-8.16699 19 -10.5 31s-3.5 26 -3.5 42v240c0 15.333 -1.66699 29.333 -5 42s-8.66602 23.334 -15.999 32.001c-6.66699 9.33301 -16 16.166 -28 20.499s-26.333 6.5 -43 6.5v22
c26.667 -1.33301 48.167 -5.33301 64.5 -12s27.833 -16.667 34.5 -30c6.66699 -12.667 11.667 -28.5 15 -47.5s5 -40.5 5 -64.5v-212c0 -16.667 1 -30.5 3 -41.5s5 -20.167 9 -27.5c4 -6.66699 10 -12.834 18 -18.501s17.667 -10.5 29 -14.5v-9
c-11.333 -5.33301 -21 -10.833 -29 -16.5s-14 -12.167 -18 -19.5c-4 -6.66699 -7 -15.5 -9 -26.5s-3 -24.167 -3 -39.5v-234c0 -21.333 -2.16699 -40.333 -6.5 -57s-10.833 -30.334 -19.5 -41.001c-8.66699 -11.333 -20.667 -19.833 -36 -25.5s-34.333 -8.5 -57 -8.5v20
c17.333 1.33301 31.833 4.16602 43.5 8.49902s20.834 10.166 27.501 17.499c7.33301 7.33301 12.666 17 15.999 29s5 26.333 5 43v249c0 14.667 1 27.667 3 39s5.33301 21 10 29c4 7.33301 10 14.166 18 20.499s17.333 11.833 28 16.5v2v0z" />
    <glyph glyph-name="asciitilde" unicode="~" horiz-adv-x="500" 
d="M52 261l-42.001 32.9961c6.66699 12.667 14.5 25.334 23.5 38.001s18.833 25 29.5 37c11.333 11.333 23.833 20 37.5 26s28.834 9 45.501 9c9.33301 0 18.666 -1 27.999 -3s18.333 -5 27 -9l25.5 -12l25.5 -12v-1h1v0h1v-1v0c8 -4.66699 16.167 -9 24.5 -13
s16.833 -7.66699 25.5 -11c8 -4 16.5 -6.83301 25.5 -8.5s18.167 -2.5 27.5 -2.5s17.833 1.5 25.5 4.5s14.834 7.5 21.501 13.5s12.834 12.5 18.501 19.5s10.834 14.5 15.501 22.5c0.666992 0.666992 1.16699 1.33398 1.5 2.00098s0.833008 1.33398 1.5 2.00098l0.5 1
c0.333008 0.666992 0.833008 1.33398 1.5 2.00098l2 4l2 4l42 -31l-1.5 -3c-0.333008 -0.666992 -0.5 -1.33398 -0.5 -2.00098v-0.5v-0.5c-0.666992 -0.666992 -1 -1.16699 -1 -1.5v-0.5c-6.66699 -12.667 -14.5 -25.167 -23.5 -37.5s-19.167 -24.166 -30.5 -35.499
c-11.333 -10.667 -23.833 -18.834 -37.5 -24.501s-28.167 -8.5 -43.5 -8.5c-10 0 -19.5 0.833008 -28.5 2.5s-17.833 4.5 -26.5 8.5l-26 12c-8.66699 4 -17.334 8.33301 -26.001 13l-22.5 12c-7.66699 4 -15.167 7.66699 -22.5 11c-8 3.33301 -16 6.33301 -24 9
s-16.333 4.33398 -25 5.00098c-12.667 0 -23.834 -2 -33.501 -6s-18.167 -9.66699 -25.5 -17s-14.333 -15.333 -21 -24s-12.667 -18 -18 -28v2v0z" />
    <glyph glyph-name="exclamdown" unicode="&#xa1;" horiz-adv-x="265" 
d="M142 274l0.00292969 -106.996v-14v-12v-6v-5v-6v-6c0.666992 -24 2 -47.667 4 -71s4.33301 -46.333 7 -69c3.33301 -23.333 7.83301 -46.333 13.5 -69s12.5 -45.334 20.5 -68.001l-14.5 -22.5c-5 -7.66699 -9.83301 -15.5 -14.5 -23.5
c-4.66699 -7.33301 -8.5 -15.333 -11.5 -24s-5.5 -17.334 -7.5 -26.001c-0.666992 -1.33301 -1.16699 -2.5 -1.5 -3.5s-0.833008 -1.83301 -1.5 -2.5l-1.5 -1.5c-0.333008 -0.333008 -0.833008 -0.5 -1.5 -0.5s-1.33398 0.166992 -2.00098 0.5
s-1.33398 0.833008 -2.00098 1.5s-1.16699 1.5 -1.5 2.5s-0.5 2.16699 -0.5 3.5c-0.666992 2.66699 -1.66699 5.83398 -3 9.50098l-4 11.5c-1.33301 4 -3 8 -5 12l-6 12c-0.666992 1.33301 -1.5 2.66602 -2.5 3.99902s-1.83301 2.66602 -2.5 3.99902
c-1.33301 2 -2.33301 3.66699 -3 5l-2 4c-1.33301 2.66699 -2.83301 5.33398 -4.5 8.00098s-3.5 5 -5.5 7c-0.666992 1.33301 -1.5 2.83301 -2.5 4.5s-2.16699 3.16699 -3.5 4.5c-0.666992 1.33301 -1.5 2.5 -2.5 3.5l-3.5 3.5c5.33301 13.333 10 27.333 14 42
s7.33301 29.667 10 45c3.33301 15.333 6.16602 30.666 8.49902 45.999s4.5 30.333 6.5 45c1.33301 13.333 2.33301 26.166 3 38.499l2 37.5c0.666992 12.667 1.16699 25 1.5 37s0.5 24 0.5 36l1 109h18v0v0zM132.003 427.004c6 -1.33301 11.667 -3.16699 17 -5.5
s10.333 -5.5 15 -9.5c4 -4.66699 7.16699 -9.66699 9.5 -15s3.5 -11 3.5 -17c0 -6.66699 -1.16699 -12.667 -3.5 -18s-5.5 -10 -9.5 -14c-4.66699 -4.66699 -9.66699 -8 -15 -10s-11 -3 -17 -3c-6.66699 0 -12.667 1 -18 3s-10.333 5.33301 -15 10
c-4.66699 4 -8 8.66699 -10 14s-3 11.333 -3 18c0 6 1 11.667 3 17s5.33301 10.333 10 15c4.66699 4 9.66699 7.16699 15 9.5s11.333 3.5 18 3.5v2v0z" />
    <glyph glyph-name="cent" unicode="&#xa2;" horiz-adv-x="533" 
d="M459 275c-2.66699 -23.333 -8.5 -43.9971 -17.5 -61.9971s-20.5 -33.333 -34.5 -46c-14.667 -12.667 -31.667 -22.667 -51 -30s-41.333 -11.666 -66 -12.999v-106h-21v108c-28 1.33301 -53.5 7.16602 -76.5 17.499s-44.167 24.5 -63.5 42.5
c-18.667 18 -32.667 37.5 -42 58.5s-14 43.833 -14 68.5c0 28 4.83301 54.5 14.5 79.5s23.834 48.167 42.501 69.5c19.333 21.333 40.666 38.833 63.999 52.5s48.333 22.834 75 27.501v105h21v-103c0.666992 -1.33301 1.33398 -2 2.00098 -2h2h2
c0.666992 0 1.33398 0.333008 2.00098 1h2h2h1.5h1.5c18.667 0 36 -2.16699 52 -6.5s30.333 -11.166 43 -20.499c13.333 -8.66699 23.333 -18.334 30 -29.001s10 -22.334 10 -35.001c0 -6.66699 -1.16699 -12.834 -3.5 -18.501s-5.5 -10.5 -9.5 -14.5
c-4.66699 -4 -9.66699 -7 -15 -9s-11.333 -3 -18 -3c-5.33301 0 -10.5 1.16699 -15.5 3.5s-9.5 5.83301 -13.5 10.5c-4.66699 4.66699 -8 9.5 -10 14.5s-3 10.5 -3 16.5v4.5c0 1.66699 0.333008 3.5 1 5.5c0 1.33301 0.166992 2.83301 0.5 4.5s0.833008 3.16699 1.5 4.5
c1.33301 3.33301 2.66602 6.16602 3.99902 8.49902s3 4.83301 5 7.5v0l1 1v0v0v0l1 1v0v0v0h1v0v0v0.5c0 0.333008 0.333008 0.833008 1 1.5c0.666992 0 1.16699 0.166992 1.5 0.5l1.5 1.5c0 0.666992 0.166992 1.16699 0.5 1.5l1.5 1.5
c0.666992 1.33301 1.16699 2.5 1.5 3.5s0.5 2.16699 0.5 3.5c0 3.33301 -1.66699 6.5 -5 9.5s-8 5.83301 -14 8.5c-6.66699 2 -14.167 3.66699 -22.5 5s-17.833 2 -28.5 2h-2.5h-3.5h-2h-2c-1.33301 -0.666992 -2.33301 -1 -3 -1h-2v-386c21.333 0 40.666 3 57.999 9
s32.333 14.667 45 26c13.333 11.333 24.333 25.166 33 41.499s15 34.833 19 55.5l14 2v0v0zM269 142.003v385.999c-20.667 -3.33301 -37.834 -8.83301 -51.501 -16.5s-24.167 -17.5 -31.5 -29.5c-6.66699 -12.667 -11.834 -30.167 -15.501 -52.5s-5.5 -49.5 -5.5 -81.5v-43
c0 -21.333 1.33301 -41.166 4 -59.499s6.33398 -35.5 11.001 -51.5c5.33301 -16 15.333 -28.5 30 -37.5s34.334 -14.5 59.001 -16.5v2v0z" />
    <glyph glyph-name="sterling" unicode="&#xa3;" horiz-adv-x="533" 
d="M524 96l14.0068 -8.99609c-0.666992 -2 -1.33398 -3.5 -2.00098 -4.5s-1.33398 -2.16699 -2.00098 -3.5l-2 -2l-2 -2c-8 -10.667 -16.167 -20.834 -24.5 -30.501s-17.166 -19.167 -26.499 -28.5c-9.33301 -8.66699 -20 -15 -32 -19s-25.333 -6 -40 -6
c-8 0 -16.333 0.666992 -25 2s-17.667 3.66602 -27 6.99902c-4.66699 0.666992 -9.33398 1.83398 -14.001 3.50098s-9 3.5 -13 5.5l-14 6c-4.66699 2 -9.33398 4.33301 -14.001 7l-4 2c-1.33301 0.666992 -2.33301 1.33398 -3 2.00098
c-1.33301 0 -2.66602 0.333008 -3.99902 1l-4 2c-2.66699 1.33301 -5.16699 2.66602 -7.5 3.99902s-4.83301 2.66602 -7.5 3.99902l-20.5 10.5c-7 3.66699 -14.167 7.16699 -21.5 10.5c-6.66699 3.33301 -13.5 6.5 -20.5 9.5l-19.5 8.5
c-4.66699 -10.667 -10.167 -20.334 -16.5 -29.001s-13.166 -16.667 -20.499 -24c-7.33301 -6.66699 -14.833 -12.167 -22.5 -16.5s-15.5 -6.83301 -23.5 -7.5h-2c-0.666992 0 -1.33398 -0.333008 -2.00098 -1h-2h-2h-2c-0.666992 0 -1 -0.333008 -1 -1h-2h-2
c-8.66699 0 -16.5 1.16699 -23.5 3.5s-13.167 5.83301 -18.5 10.5c-6 5.33301 -10.333 11.166 -13 17.499s-4 13.166 -4 20.499c0 12.667 3.5 24.5 10.5 35.5s17.5 21.167 31.5 30.5s29.333 16.5 46 21.5s34.334 7.5 53.001 7.5h1.5h1.5h0.5h1.5h2h2h1.5h1.5
c0.666992 -0.666992 1.16699 -1 1.5 -1h1.5h2h2c1.33301 -0.666992 2.5 -1 3.5 -1h2.5c0.666992 1.33301 1.16699 2.83301 1.5 4.5s0.833008 3.16699 1.5 4.5c0 1.33301 0.166992 2.83301 0.5 4.5s0.833008 3.16699 1.5 4.5v4.5v5.5v2.5c0 1 0.333008 1.83301 1 2.5v3.5v2.5
c0 9.33301 -1 18.833 -3 28.5s-5 19.5 -9 29.5s-9 20.667 -15 32s-13 23.333 -21 36l-126 2v19h113c-0.666992 0 -1.33398 0.333008 -2.00098 1l-2 2c-0.666992 1.33301 -1.33398 2.5 -2.00098 3.5s-1.33398 1.83301 -2.00098 2.5c-8 11.333 -15.667 22.833 -23 34.5
l-22 35.5c-6.66699 12 -11.667 24.833 -15 38.5s-5 27.834 -5 42.501c0 26.667 5.16699 50.667 15.5 72s25.833 40.333 46.5 57c20.667 16 44.5 28.167 71.5 36.5s57.5 12.5 91.5 12.5h4.5h5.5c1.33301 -0.666992 2.83301 -1 4.5 -1h4.5h4.5h5.5
c1.33301 -0.666992 2.83301 -1 4.5 -1h5.5c22 -2.66699 43.333 -7.66699 64 -15s40.334 -17 59.001 -29c19.333 -12.667 33.666 -28.667 42.999 -48s14 -42.333 14 -69c0 -10.667 -1.33301 -20.167 -4 -28.5s-6.66699 -16.166 -12 -23.499
c-5.33301 -6.66699 -11.5 -11.667 -18.5 -15s-14.5 -5 -22.5 -5c-6.66699 0 -12.834 1 -18.501 3s-11.167 5.33301 -16.5 10c-4.66699 4.66699 -8.33398 9.66699 -11.001 15s-4 11.333 -4 18s1 12.834 3 18.501s5.33301 10.834 10 15.501
c4 5.33301 8.66699 9.16602 14 11.499s11 3.5 17 3.5h0.5h1.5c0 -0.666992 0.166992 -1 0.5 -1h1.5h1.5h1.5c0.666992 -0.666992 1.33398 -1 2.00098 -1h2c0.666992 0 1.33398 -0.166992 2.00098 -0.5s1.33398 -0.5 2.00098 -0.5c0 -0.666992 0.333008 -1 1 -1h2
c1.33301 0 2.66602 -0.166992 3.99902 -0.5s2.66602 -0.833008 3.99902 -1.5l1 2c1.33301 -1.33301 2.66602 -1.66602 3.99902 -0.999023s2.33301 1.66699 3 3c1.33301 1.33301 2.16602 3 2.49902 5s0.5 4.33301 0.5 7c0 13.333 -2.66699 25.333 -8 36
s-13.666 20.334 -24.999 29.001c-10.667 8.66699 -21.834 16.167 -33.501 22.5s-24.167 11.833 -37.5 16.5l-16 4c-5.33301 1.33301 -10.666 2.33301 -15.999 3c-5.33301 1.33301 -10.5 2.16602 -15.5 2.49902s-9.5 0.5 -13.5 0.5c-24.667 0 -47 -3.66699 -67 -11
s-37.333 -18.333 -52 -33s-25.5 -31.834 -32.5 -51.501s-10.5 -42.167 -10.5 -67.5c0 -8 0.333008 -16 1 -24s2 -15.667 4 -23c1.33301 -8 3 -15.667 5 -23s4.33301 -14.666 7 -21.999c0.666992 -2 1.16699 -4 1.5 -6s0.833008 -3.66699 1.5 -5
c0 -0.666992 0.166992 -1.5 0.5 -2.5s0.833008 -1.83301 1.5 -2.5c0 -1.33301 0.166992 -2.33301 0.5 -3l1.5 -3l2 -6c0.666992 -2 1.33398 -3.66699 2.00098 -5c0 -2 0.333008 -4 1 -6l2 -6l2 -6l2 -6c0 -2 0.333008 -4 1 -6l2 -6l250 2v-19h-244
c0.666992 -2.66699 1.16699 -5 1.5 -7s0.833008 -3.66699 1.5 -5c0 -2 0.166992 -3.83301 0.5 -5.5s0.833008 -3.5 1.5 -5.5s1.16699 -3.83301 1.5 -5.5s0.833008 -3.16699 1.5 -4.5c0 -2 0.166992 -3.83301 0.5 -5.5s0.833008 -3.5 1.5 -5.5
c1.33301 -6 2.5 -11.833 3.5 -17.5s1.83301 -11.167 2.5 -16.5s1.16699 -10.333 1.5 -15s0.5 -9 0.5 -13v-4v-4v-2v-1c-0.666992 -0.666992 -1 -1.33398 -1 -2.00098v-2c0 -4 -0.166992 -7.83301 -0.5 -11.5s-1.16602 -7.16699 -2.49902 -10.5
c-0.666992 -4 -1.5 -8 -2.5 -12s-2.16699 -8.33301 -3.5 -13c2 -0.666992 4.16699 -1.33398 6.5 -2.00098s4.83301 -1 7.5 -1c2.66699 -0.666992 5.16699 -1.33398 7.5 -2.00098s4.83301 -1.33398 7.5 -2.00098c5.33301 -0.666992 10.666 -1.83398 15.999 -3.50098
s10.666 -3.16699 15.999 -4.5l12 -4c4 -1.33301 8.33301 -2.66602 13 -3.99902l12 -4l12 -4c8 -2.66699 15.667 -5.5 23 -8.5s14 -6.16699 20 -9.5c2 -0.666992 4.16699 -1.83398 6.5 -3.50098s4.83301 -3.16699 7.5 -4.5c2 -1.33301 4.16699 -2.66602 6.5 -3.99902
s4.83301 -2.66602 7.5 -3.99902l10 -6c3.33301 -2 6.66602 -3.66699 9.99902 -5c3.33301 -2 6.66602 -3.66699 9.99902 -5l10 -4c2 -0.666992 4.33301 -1.5 7 -2.5s5.33398 -1.83301 8.00098 -2.5s5.16699 -1 7.5 -1h7.5c6.66699 0 12.667 1 18 3s10.333 5 15 9
c4 4 8 8.33301 12 13l12 14l0.5 0.5l1.5 1.5c0 0.666992 0.166992 1.16699 0.5 1.5l1.5 1.5v2v0zM175.007 84.0039c-6.66699 1.33301 -12.834 3 -18.501 5s-11.167 3.66699 -16.5 5c-4.66699 1.33301 -9.5 2.33301 -14.5 3s-9.83301 1 -14.5 1
c-8.66699 0 -16.834 -1.16699 -24.501 -3.5s-14.5 -5.83301 -20.5 -10.5c-6.66699 -4.66699 -11.5 -9.66699 -14.5 -15s-4.5 -11.333 -4.5 -18c0 -5.33301 1 -10.5 3 -15.5s5.33301 -9.5 10 -13.5c4 -4 8.5 -7 13.5 -9s10.5 -3 16.5 -3c7.33301 0 14.833 1.5 22.5 4.5
s14.834 7.5 21.501 13.5c7.33301 6 14.333 13.5 21 22.5s13.334 19.5 20.001 31.5v2v0z" />
    <glyph glyph-name="currency" unicode="&#xa4;" horiz-adv-x="667" 
d="M79 113l88.999 87.999c-10 10.667 -18.5 21.667 -25.5 33s-12.833 23 -17.5 35s-8.16699 24.333 -10.5 37s-3.5 25.667 -3.5 39s1 26.333 3 39s5.33301 24.667 10 36c4 11.333 9.5 22.833 16.5 34.5s15.167 23.167 24.5 34.5l-89 91l21 21l89 -88
c11.333 8.66699 22.833 16.5 34.5 23.5s23.5 12.833 35.5 17.5s24.5 8.16699 37.5 10.5s26.5 3.5 40.5 3.5c13.333 0 26.5 -1.16699 39.5 -3.5s25.5 -5.83301 37.5 -10.5s23.833 -10.667 35.5 -18s22.834 -15.666 33.501 -24.999l89 90l21 -21l-89 -88
c9.33301 -12.667 17.333 -24.834 24 -36.501s12.334 -23.167 17.001 -34.5c4 -12 7.16699 -24.333 9.5 -37s3.5 -25.667 3.5 -39s-1.16699 -26.333 -3.5 -39s-5.5 -25 -9.5 -37c-4.66699 -12 -10.5 -23.5 -17.5 -34.5s-15.167 -22.167 -24.5 -33.5l90 -88l-20 -21l-90 91
c-10.667 -10.667 -22 -19.5 -34 -26.5s-24 -12.833 -36 -17.5s-24.5 -8.16699 -37.5 -10.5s-26.167 -3.5 -39.5 -3.5c-12 0 -23.5 0.833008 -34.5 2.5s-21.833 4.16699 -32.5 7.5s-21.167 7.83301 -31.5 13.5s-20.5 11.834 -30.5 18.501
c-1.33301 1.33301 -2.66602 2.5 -3.99902 3.5s-2.66602 1.83301 -3.99902 2.5c-0.666992 0.666992 -1.33398 1.16699 -2.00098 1.5s-1 0.833008 -1 1.5c-0.666992 0.666992 -1.33398 1.16699 -2.00098 1.5s-1.33398 0.833008 -2.00098 1.5l-89 -87l-21 21v0v0z
M332.999 538.999c-26.667 -1.33301 -51.167 -6.66699 -73.5 -16s-42.833 -23.333 -61.5 -42s-32.5 -39.334 -41.5 -62.001s-13.5 -47.334 -13.5 -74.001c0 -26 4.66699 -50.167 14 -72.5s23.333 -42.833 42 -61.5s39.167 -32.667 61.5 -42s46.5 -14 72.5 -14
s50.167 4.5 72.5 13.5s42.833 22.833 61.5 41.5s32.667 39.167 42 61.5s14 46.833 14 73.5s-4.66699 51.334 -14 74.001s-23 43.334 -41 62.001c-18.667 18.667 -39.167 32.667 -61.5 42s-46.833 14 -73.5 14v2v0z" />
    <glyph glyph-name="yen" unicode="&#xa5;" horiz-adv-x="533" 
d="M20 400l143.001 -0.00195312l-105 250h-75v17h253v-17h-77l147 -363l104 253c4.66699 10 8.66699 19.5 12 28.5s6 16.833 8 23.5l5 18.5c1.33301 5 2 9.16699 2 12.5c0 4 -1 7.66699 -3 11s-5 6 -9 8s-9 3.5 -15 4.5s-13.333 1.5 -22 1.5l-30 2v17h193v-17h-26
c-6.66699 -1.33301 -12.834 -2.33301 -18.501 -3s-10.5 -1.66699 -14.5 -3s-7.83301 -3.5 -11.5 -6.5s-7.16699 -7.16699 -10.5 -12.5c-2 -2.66699 -3.83301 -5.66699 -5.5 -9s-3.16699 -6.66602 -4.5 -9.99902l-6 -12.5c-2 -4.33301 -4 -9.16602 -6 -14.499l-76 -179h142
v-17h-150l-50 -119v-31h200v-16h-200v-200h104v-17h-291v17h102v200h-209v16h209l-59 150h-150v17v0v0z" />
    <glyph glyph-name="brokenbar" unicode="&#xa6;" 
 />
    <glyph glyph-name="section" unicode="&#xa7;" horiz-adv-x="533" 
d="M143 396c-7.33301 4.66699 -14.0039 10.3389 -20.0039 17.0059s-11 14 -15 22s-7 16.5 -9 25.5s-3 18.167 -3 27.5c0 28.667 4.5 54.667 13.5 78s22.833 44.333 41.5 63s39.667 32.667 63 42s49 14 77 14c21.333 0 40.833 -2.66699 58.5 -8s33.5 -13 47.5 -23
s24.5 -21.5 31.5 -34.5s10.5 -27.167 10.5 -42.5c0 -9.33301 -1.33301 -18 -4 -26s-6.66699 -15 -12 -21c-4.66699 -6.66699 -10.334 -11.5 -17.001 -14.5s-13.667 -4.5 -21 -4.5c-6.66699 0 -12.667 1.16699 -18 3.5s-10.333 5.83301 -15 10.5s-8.16699 9.66699 -10.5 15
s-3.5 11.333 -3.5 18c0 6 0.833008 11.5 2.5 16.5s4.5 9.5 8.5 13.5s8.33301 7.16699 13 9.5s9.66699 3.5 15 3.5c2 0 3.83301 -0.166992 5.5 -0.5s3.16699 -0.833008 4.5 -1.5s2.83301 -1.33398 4.5 -2.00098s3.16699 -1.33398 4.5 -2.00098l1.5 -1.5
c0.333008 -0.333008 0.833008 -0.5 1.5 -0.5c0.666992 -0.666992 1.33398 -1.16699 2.00098 -1.5s1.33398 -0.5 2.00098 -0.5c0 -0.666992 0.333008 -1.16699 1 -1.5s1.33398 -0.5 2.00098 -0.5h2h2c1.33301 0 2.16602 0.166992 2.49902 0.5l1.5 1.5
c0.666992 0.666992 1.16699 1.5 1.5 2.5s0.5 1.83301 0.5 2.5c0 9.33301 -3.16699 18.333 -9.5 27s-15.5 16.667 -27.5 24c-12.667 7.33301 -26 13 -40 17s-29 6 -45 6c-22 0 -41.833 -2.66699 -59.5 -8s-33.167 -13.666 -46.5 -24.999
c-13.333 -10.667 -23.333 -22.834 -30 -36.501s-10 -29.167 -10 -46.5c0 -15.333 2.5 -28.833 7.5 -40.5s12.833 -21.167 23.5 -28.5s21.667 -14 33 -20s23.333 -11.667 36 -17c1.33301 -0.666992 2.5 -1.16699 3.5 -1.5s1.83301 -0.5 2.5 -0.5
c1.33301 -0.666992 2.5 -1.16699 3.5 -1.5s1.83301 -0.833008 2.5 -1.5l6 -2l6 -2l4 -2l4 -2c1.33301 -0.666992 2.83301 -1.16699 4.5 -1.5s3.16699 -0.833008 4.5 -1.5c2 -0.666992 4.16699 -1.66699 6.5 -3s4.83301 -2.33301 7.5 -3
c2.66699 -1.33301 5.16699 -2.5 7.5 -3.5s4.83301 -2.16699 7.5 -3.5c2.66699 -0.666992 5.33398 -1.66699 8.00098 -3s5.33398 -2.33301 8.00098 -3c2 -1.33301 4.33301 -2.5 7 -3.5s5.33398 -2.16699 8.00098 -3.5c17.333 -8 33.666 -17 48.999 -27s30.333 -20.667 45 -32
c14 -12 24.667 -26 32 -42s11 -34.333 11 -55c0 -4 -0.166992 -8 -0.5 -12s-0.833008 -8 -1.5 -12c0 -2 -0.166992 -4 -0.5 -6s-0.833008 -3.66699 -1.5 -5c0 -2 -0.166992 -4 -0.5 -6s-0.833008 -4 -1.5 -6c-2.66699 -12 -6.83398 -23.833 -12.501 -35.5
s-12.167 -23.167 -19.5 -34.5c-7.33301 -12 -15.5 -23.333 -24.5 -34s-19.167 -21 -30.5 -31c11.333 -6.66699 21 -14.167 29 -22.5s14.667 -17.5 20 -27.5c5.33301 -9.33301 9.5 -19.333 12.5 -30s4.5 -22.334 4.5 -35.001c0 -29.333 -4.66699 -55.833 -14 -79.5
s-23.333 -44.5 -42 -62.5s-40.167 -31.5 -64.5 -40.5s-51.833 -13.5 -82.5 -13.5c-24.667 0 -47 2.66699 -67 8s-37.667 13.333 -53 24c-14.667 10.667 -25.667 23.167 -33 37.5s-11 30.5 -11 48.5c0 9.33301 1.33301 18 4 26s6.66699 15.333 12 22s11.5 11.5 18.5 14.5
s14.833 4.5 23.5 4.5c6 0 11.667 -1.33301 17 -4s10.333 -6.33398 15 -11.001c4 -5.33301 7.16699 -10.833 9.5 -16.5s3.5 -11.834 3.5 -18.501v-1.5v-1.5c-0.666992 0 -1 -0.166992 -1 -0.5v-1.5v-1.5v-1.5v-0.5v-1.5c-0.666992 -4 -2.16699 -8 -4.5 -12
s-5.16602 -8 -8.49902 -12c-3.33301 -3.33301 -7 -6 -11 -8s-8.33301 -3 -13 -3h-1.5h-0.5v0v0l-1 1v0c-0.666992 0 -1.33398 0.166992 -2.00098 0.5l-1 0.5c-0.666992 0.666992 -1.33398 1.16699 -2.00098 1.5s-1.33398 0.5 -2.00098 0.5
c-0.666992 0.666992 -1.5 1.16699 -2.5 1.5s-2.16699 0.5 -3.5 0.5c-1.33301 0.666992 -2.83301 1.33398 -4.5 2.00098s-3.16699 1.33398 -4.5 2.00098s-2.66602 1.16699 -3.99902 1.5s-2.66602 0.5 -3.99902 0.5c-0.666992 0 -1.5 -0.166992 -2.5 -0.5
s-1.83301 -0.833008 -2.5 -1.5c-0.666992 -1.33301 -1 -2.5 -1 -3.5v-3.5c0 -10 3.33301 -19.333 10 -28s17 -17 31 -25s28.833 -14 44.5 -18s32.5 -6 50.5 -6c24.667 0 46.834 3 66.501 9s36.834 14.667 51.501 26s25.667 24.666 33 39.999s11 32.666 11 51.999
c0 12.667 -2.66699 24.5 -8 35.5s-13 21.167 -23 30.5c-10.667 10 -24.167 19.167 -40.5 27.5s-35.833 16.833 -58.5 25.5l-123 47c-19.333 6.66699 -36.333 14.667 -51 24s-27 20.333 -37 33c-10 12 -17.333 25.5 -22 40.5s-7 31.167 -7 48.5c0 16 2 32 6 48
s10 31.333 18 46c8 15.333 18.167 30.166 30.5 44.499s26.5 28.833 42.5 43.5v2v0zM154.996 386.005c-6 -5.33301 -11.5039 -10.6689 -16.5039 -16.002l-15.5 -16c-4.66699 -5.33301 -9.16699 -10.833 -13.5 -16.5s-8.16602 -11.167 -11.499 -16.5l-8 -14.5
c-2.66699 -5 -4.66699 -10.167 -6 -15.5c-2 -4.66699 -3.33301 -9.16699 -4 -13.5s-1 -8.5 -1 -12.5c0 -6.66699 0.833008 -13.334 2.5 -20.001s3.83398 -12.667 6.50098 -18c3.33301 -5.33301 7.66602 -10.666 12.999 -15.999s11.666 -10.666 18.999 -15.999
c3.33301 -2.66699 6.83301 -5.16699 10.5 -7.5s7.83398 -4.83301 12.501 -7.5s9.5 -5.16699 14.5 -7.5l15.5 -7.5l51.5 -23.5l51.5 -22.5l52 -20.5l52 -21.5l15.5 15.5c5 5 9.5 10.167 13.5 15.5c4.66699 4.66699 8.83398 9.66699 12.501 15s6.83398 10.333 9.50098 15
c2.66699 5.33301 5 10.333 7 15s4 9.66699 6 15c1.33301 4.66699 2.33301 9.5 3 14.5s1 9.83301 1 14.5v1.5v1.5v2v2c-0.666992 4.66699 -1.66699 9.16699 -3 13.5s-3.33301 8.83301 -6 13.5c-2.66699 4 -5.66699 8.16699 -9 12.5s-7 8.83301 -11 13.5
c-8.66699 8.66699 -18.667 16.5 -30 23.5s-23.666 13.167 -36.999 18.5l-140 56c-4 0.666992 -8 1.83398 -12 3.50098s-8 3.5 -12 5.5c-2 1.33301 -4 2.5 -6 3.5s-3.66699 2.16699 -5 3.5c-2 0.666992 -3.83301 1.66699 -5.5 3s-3.5 2.33301 -5.5 3
c-0.666992 0.666992 -1.5 1.16699 -2.5 1.5s-2.16699 0.833008 -3.5 1.5c-0.666992 0 -1.16699 0.166992 -1.5 0.5s-0.5 0.833008 -0.5 1.5c-0.666992 0 -1.16699 0.166992 -1.5 0.5l-1.5 1.5v2v0z" />
    <glyph glyph-name="dieresis" unicode="&#xa8;" horiz-adv-x="500" 
d="M164 587c6 -1.33301 11.667 -3.16699 17 -5.5s10.333 -5.5 15 -9.5c4 -4.66699 7.16699 -9.66699 9.5 -15s3.5 -11 3.5 -17c0 -6.66699 -1.16699 -12.667 -3.5 -18s-5.5 -10.333 -9.5 -15c-4.66699 -4.66699 -9.66699 -8 -15 -10s-11 -3 -17 -3
c-6.66699 0 -12.667 1 -18 3s-10.333 5.33301 -15 10s-8 9.66699 -10 15s-3 11.333 -3 18c0 6 1 11.667 3 17s5.33301 10.333 10 15c4.66699 4 9.66699 7.16699 15 9.5s11.333 3.5 18 3.5v2v0zM337 586.999c6 -1.33301 11.667 -3.16699 17 -5.5s10.333 -5.5 15 -9.5
c4 -4.66699 7.16699 -9.66699 9.5 -15s3.5 -11.333 3.5 -18s-1.16699 -12.667 -3.5 -18s-5.5 -10 -9.5 -14c-4.66699 -4.66699 -9.66699 -8 -15 -10s-11 -3 -17 -3c-6.66699 0 -12.667 1 -18 3s-10 5.33301 -14 10c-4.66699 4 -8 8.66699 -10 14s-3 11.333 -3 18
c0 6 1 11.667 3 17s5.33301 10.333 10 15c4 4.66699 8.66699 8.16699 14 10.5s11.333 3.5 18 3.5v2v0z" />
    <glyph glyph-name="copyright" unicode="&#xa9;" horiz-adv-x="767" 
d="M384 680c48 -1.33301 92.333 -10.5 133 -27.5s78 -42.5 112 -76.5s59.5 -71.333 76.5 -112s25.5 -85 25.5 -133s-8.5 -92.5 -25.5 -133.5s-42.5 -78.167 -76.5 -111.5c-34 -34 -71.333 -59.167 -112 -75.5s-85 -24.5 -133 -24.5s-92.333 8.16699 -133 24.5
s-78 41.5 -112 75.5s-59.5 71.333 -76.5 112s-25.5 85 -25.5 133s8.33301 92.333 25 133s42 78 76 112s71.5 59.5 112.5 76.5s85.5 25.5 133.5 25.5v2v0zM384 665c-45.333 -1.33301 -87.5 -10.167 -126.5 -26.5s-74.5 -40.833 -106.5 -73.5
c-32.667 -32.667 -57 -68.5 -73 -107.5s-24 -81.167 -24 -126.5c0 -46 8 -88.5 24 -127.5s40.333 -74.833 73 -107.5c32 -32.667 67.5 -56.834 106.5 -72.501s81.167 -23.5 126.5 -23.5s87.5 7.83301 126.5 23.5s74.5 39.834 106.5 72.501s56.167 68.5 72.5 107.5
s24.5 81.5 24.5 127.5c0 45.333 -8.16699 87.5 -24.5 126.5s-40.5 74.833 -72.5 107.5s-67.5 57.167 -106.5 73.5s-81.167 24.5 -126.5 24.5v2v0zM520 132.999l-0.00390625 1.5v3.5v2v2c-0.666992 0.666992 -1 1.33398 -1 2.00098v2c0 1.33301 -0.166992 2.5 -0.5 3.5
s-0.833008 2.16699 -1.5 3.5c0 0.666992 -0.166992 1.66699 -0.5 3s-0.833008 2.33301 -1.5 3c-0.666992 2 -2 3.5 -4 4.5s-4 1.5 -6 1.5s-4.5 -0.666992 -7.5 -2s-6.16699 -3 -9.5 -5c-2 -0.666992 -3.83301 -1.66699 -5.5 -3s-3.5 -2.33301 -5.5 -3
c-2 -1.33301 -4.16699 -2.5 -6.5 -3.5s-4.5 -2.16699 -6.5 -3.5c-4.66699 -2.66699 -10 -5.33398 -16 -8.00098s-12 -5 -18 -7s-12.5 -3.5 -19.5 -4.5s-14.167 -1.5 -21.5 -1.5c-28.667 0 -54.667 4.83301 -78 14.5s-44.666 24.167 -63.999 43.5
c-18.667 19.333 -32.667 41.333 -42 66s-14 51.334 -14 80.001s4.83301 55.167 14.5 79.5s24.5 46.833 44.5 67.5c19.333 20.667 41 36.167 65 46.5s50 15.5 78 15.5c7.33301 0 14.333 -0.5 21 -1.5s13 -2.5 19 -4.5s11.667 -4.16699 17 -6.5s10.333 -4.83301 15 -7.5
l13 -7.5c4 -2.33301 8 -4.5 12 -6.5c3.33301 -2 6.5 -3.5 9.5 -4.5s5.83301 -1.5 8.5 -1.5c1.33301 0 2.83301 0.333008 4.5 1s2.83398 2 3.50098 4c0.666992 1.33301 1.16699 2.5 1.5 3.5l1.5 4.5c0 1.33301 0.166992 3 0.5 5s0.833008 4 1.5 6l16 2v-125h-16l-1 2
c-1.33301 16.667 -5.5 32.167 -12.5 46.5s-16.5 27.5 -28.5 39.5s-25.333 21 -40 27s-30.667 9 -48 9c-19.333 0 -36.333 -4.16699 -51 -12.5s-27 -20.833 -37 -37.5s-17.5 -37.334 -22.5 -62.001s-7.5 -53 -7.5 -85c0 -30.667 2.33301 -57.667 7 -81s12 -42.666 22 -57.999
c9.33301 -15.333 21.333 -26.833 36 -34.5s31.334 -11.5 50.001 -11.5c19.333 0 36.833 3.16699 52.5 9.5s29.834 15.833 42.501 28.5c12 13.333 21.167 28.166 27.5 44.499s9.83301 34.833 10.5 55.5l16 2v-147h-17v0v0z" />
    <glyph glyph-name="ordfeminine" unicode="&#xaa;" horiz-adv-x="356" 
d="M356 330v-33h-356v33h356v0v0zM227 558l-0.00195312 61.0049c0 8.66699 -1.16699 16.167 -3.5 22.5s-5.83301 10.833 -10.5 13.5c-4.66699 3.33301 -11.167 5.66602 -19.5 6.99902s-19.166 2 -32.499 2c-10.667 0 -20.167 -0.666992 -28.5 -2s-15.833 -3.33301 -22.5 -6
s-11.5 -5.83398 -14.5 -9.50098s-4.5 -7.5 -4.5 -11.5v-2c0 -0.666992 0.333008 -1.33398 1 -2.00098c0 -0.666992 0.166992 -1.16699 0.5 -1.5l1.5 -1.5l2 -2l2 -2c0.666992 -0.666992 1.33398 -1.16699 2.00098 -1.5s1.33398 -0.833008 2.00098 -1.5l2 -2l2 -2
c0 -1.33301 0.333008 -2.33301 1 -3l2 -2c1.33301 -1.33301 2.33301 -3 3 -5s1 -4 1 -6c0 -4.66699 -0.666992 -8.83398 -2 -12.501s-3.66602 -7.16699 -6.99902 -10.5c-2.66699 -2.66699 -6 -4.83398 -10 -6.50098s-8.33301 -2.5 -13 -2.5s-9 0.833008 -13 2.5
s-7.66699 4.16699 -11 7.5c-2.66699 3.33301 -4.83398 7.16602 -6.50098 11.499s-2.5 8.83301 -2.5 13.5c0 10.667 2.83301 20.5 8.5 29.5s13.834 17.167 24.501 24.5c11.333 7.33301 23.5 12.833 36.5 16.5s27.5 5.5 43.5 5.5c18.667 0 35.5 -2 50.5 -6
s28.5 -9.66699 40.5 -17c11.333 -7.33301 20 -15.833 26 -25.5s9 -20.5 9 -32.5v-114v-9v-7v-2.5c0 -1 0.333008 -2.16699 1 -3.5v-2.5v-3.5c0 -10.667 0.333008 -19 1 -25s1.33398 -10 2.00098 -12c1.33301 -2 3 -3.5 5 -4.5s4.66699 -1.5 8 -1.5h3.5
c1 0 1.83301 0.333008 2.5 1h2c0.666992 0 1.33398 0.333008 2.00098 1l1 0.5c0.666992 0.333008 1.33398 0.833008 2.00098 1.5c1.33301 1.33301 2.66602 2.5 3.99902 3.5s3 2.5 5 4.5c1.33301 1.33301 2.83301 3.33301 4.5 6s3.5 5.33398 5.5 8.00098l13 -5
c-3.33301 -7.33301 -7 -13.5 -11 -18.5s-8.66699 -9.16699 -14 -12.5c-4.66699 -3.33301 -10 -5.83301 -16 -7.5s-12.333 -2.5 -19 -2.5c-8 0 -15 0.666992 -21 2s-11 3.33301 -15 6c-4.66699 3.33301 -8.83398 7.5 -12.501 12.5s-7.16699 10.833 -10.5 17.5
c-4.66699 -6 -10.334 -11.5 -17.001 -16.5s-14.667 -9.16699 -24 -12.5c-8.66699 -4 -18 -6.83301 -28 -8.5s-20.333 -2.5 -31 -2.5c-16 0 -30.5 1.5 -43.5 4.5s-24.167 7.5 -33.5 13.5s-16.333 13.167 -21 21.5s-7 17.833 -7 28.5c0 14.667 3 27.167 9 37.5
s15 18.833 27 25.5c12 6 24.5 11.167 37.5 15.5s26.833 7.5 41.5 9.5c3.33301 0.666992 6.83301 1.16699 10.5 1.5s7.5 0.833008 11.5 1.5c3.33301 0.666992 6.83301 1.16699 10.5 1.5s7.16699 0.5 10.5 0.5c7.33301 0.666992 14.166 1.16699 20.499 1.5
s12.166 0.833008 17.499 1.5h1h2h1.5h1.5v2v0zM226.998 542.005c-28.667 -2 -52.3291 -4.33105 -70.9961 -6.99805s-32 -6 -40 -10s-14 -10.5 -18 -19.5s-6 -20.167 -6 -33.5c0 -10.667 1 -19.834 3 -27.501s5 -13.834 9 -18.501s9.5 -8.16699 16.5 -10.5
s15.167 -3.5 24.5 -3.5s18.166 1 26.499 3s16.166 5 23.499 9s13.666 8.66699 18.999 14s9.66602 11.333 12.999 18v86v0v0z" />
    <glyph glyph-name="guillemotleft" unicode="&#xab;" horiz-adv-x="373" 
d="M178 357l19 -16l-111 -141l116 -144l-18 -16l-131 158l125 159v0v0zM277 357l20 -16l-110 -141l119 -144l-21 -16l-130 160l122 157v0v0z" />
    <glyph glyph-name="logicalnot" unicode="&#xac;" 
 />
    <glyph glyph-name="sfthyphen" unicode="&#xad;" horiz-adv-x="500" 
 />
    <glyph glyph-name="registered" unicode="&#xae;" horiz-adv-x="767" 
d="M384 680c48 -1.33301 92.333 -10.5 133 -27.5s78 -42.5 112 -76.5s59.5 -71.333 76.5 -112s25.5 -85 25.5 -133s-8.5 -92.5 -25.5 -133.5s-42.5 -78.167 -76.5 -111.5c-34 -34 -71.333 -59.167 -112 -75.5s-85 -24.5 -133 -24.5s-92.333 8.16699 -133 24.5
s-78 41.5 -112 75.5s-59.5 71.333 -76.5 112s-25.5 85 -25.5 133s8.33301 92.333 25 133s42 78 76 112s71.5 59.5 112.5 76.5s85.5 25.5 133.5 25.5v2v0zM384 665c-45.333 -1.33301 -87.5 -10.167 -126.5 -26.5s-74.5 -40.833 -106.5 -73.5
c-32.667 -32.667 -57 -68.5 -73 -107.5s-24 -81.167 -24 -126.5c0 -46 8 -88.5 24 -127.5s40.333 -74.833 73 -107.5c32 -32.667 67.5 -56.834 106.5 -72.501s81.167 -23.5 126.5 -23.5s87.5 7.83301 126.5 23.5s74.5 39.834 106.5 72.501s56.167 68.5 72.5 107.5
s24.5 81.5 24.5 127.5c0 45.333 -8.16699 87.5 -24.5 126.5s-40.5 74.833 -72.5 107.5s-67.5 57.167 -106.5 73.5s-81.167 24.5 -126.5 24.5v2v0zM312 333.999l0.000976562 -183.999h64v-17h-198v17h60v367h-60v16h221c21.333 -1.33301 40.5 -4.16602 57.5 -8.49902
s31.5 -10.833 43.5 -19.5s21.167 -18.667 27.5 -30s9.5 -24.666 9.5 -39.999c0 -12.667 -2.16699 -24.334 -6.5 -35.001s-10.833 -20 -19.5 -28s-19.667 -14.5 -33 -19.5s-29 -9.16699 -47 -12.5c16.667 -3.33301 30.667 -7.83301 42 -13.5s20.333 -12.167 27 -19.5
s12 -17.5 16 -30.5s7 -28.5 9 -46.5v-1.5v-1.5v-2c0 -0.666992 0.333008 -1.33398 1 -2.00098v-6.5v-8.5c0 -2.66699 0.166992 -5.5 0.5 -8.5s0.833008 -6.16699 1.5 -9.5c0.666992 -6 1.66699 -11.5 3 -16.5s3 -9.83301 5 -14.5s4.5 -8.16699 7.5 -10.5s6.5 -3.5 10.5 -3.5
h0.5h1.5h1.5h1.5c1.33301 0 2.66602 0.166992 3.99902 0.5s3 0.833008 5 1.5s4.33301 1.5 7 2.5s5.66699 1.83301 9 2.5l5 -13c-2 -2 -4 -3.5 -6 -4.5s-4 -1.83301 -6 -2.5s-4 -1.16699 -6 -1.5s-4 -0.5 -6 -0.5c-2.66699 -0.666992 -5.16699 -1.33398 -7.5 -2.00098
s-4.83301 -1 -7.5 -1h-4h-4h-5h-4c-14 0 -26 1.5 -36 4.5s-18.333 7.5 -25 13.5s-12 14.167 -16 24.5s-6.66699 22.833 -8 37.5c-0.666992 3.33301 -1.16699 6.83301 -1.5 10.5s-0.5 6.83398 -0.5 9.50098c-0.666992 3.33301 -1.16699 6.5 -1.5 9.5s-0.5 5.83301 -0.5 8.5
c-1.33301 15.333 -3.83301 28.5 -7.5 39.5s-8.16699 19.833 -13.5 26.5c-5.33301 7.33301 -15.833 12.666 -31.5 15.999s-36.167 5 -61.5 5l-18 2v0v0zM312.001 517l-0.000976562 -169c3.33301 -1.33301 6.83301 -2 10.5 -2h11.5c3.33301 0 7 0.166992 11 0.5
s8 0.833008 12 1.5c13.333 1.33301 25.833 3.5 37.5 6.5s22.834 7.16699 33.501 12.5s18.667 13.333 24 24s8 23.667 8 39s-2.5 28.5 -7.5 39.5s-12.167 19.833 -21.5 26.5c-10 6 -23.5 10.667 -40.5 14s-37.833 5 -62.5 5l-16 2v0v0z" />
    <glyph glyph-name="overstore" unicode="&#xaf;" 
 />
    <glyph glyph-name="degree" unicode="&#xb0;" 
 />
    <glyph glyph-name="plusminus" unicode="&#xb1;" horiz-adv-x="533" 
d="M500 28v-27h-467v27h467v0v0zM500 348v-27h-221v-233h-26v233h-220v27h220v233h26v-233h221v0v0z" />
    <glyph glyph-name="twosuperior" unicode="&#xb2;" 
 />
    <glyph glyph-name="threesuperior" unicode="&#xb3;" 
 />
    <glyph glyph-name="acute" unicode="&#xb4;" horiz-adv-x="500" 
d="M245 453h-19.998l62 118l13 21l10 17c1.33301 2.66699 2.66602 5 3.99902 7s3 4 5 6c1.33301 2 2.66602 3.66699 3.99902 5l4 4l6 4c2 1.33301 4.33301 2.33301 7 3c2 0.666992 4.5 1.16699 7.5 1.5s5.83301 0.5 8.5 0.5c5.33301 0 10.333 -0.666992 15 -2
s9 -3.66602 13 -6.99902c3.33301 -2.66699 6 -5.83398 8 -9.50098s3 -7.5 3 -11.5c0 -2.66699 -0.666992 -5.5 -2 -8.5s-3 -6.16699 -5 -9.5l-10 -12c-4 -4.66699 -8.66699 -9.66699 -14 -15l-119 -112v0v0z" />
    <glyph glyph-name="mu" unicode="&#xb5;" horiz-adv-x="535" 
d="M62 -166l-0.000976562 643.999h72v-270c0 -12 0.333008 -23.5 1 -34.5s2 -21.833 4 -32.5c1.33301 -10.667 4.33301 -20.667 9 -30s11 -18 19 -26c6 -6.66699 12.667 -12.667 20 -18s15.333 -9.66602 24 -12.999c8 -4 16.5 -6.83301 25.5 -8.5s18.167 -2.5 27.5 -2.5
c20 0 37.833 3.83301 53.5 11.5s28.834 18.834 39.501 33.501c11.333 15.333 20.333 31.166 27 47.499s11.334 33.5 14.001 51.5v3.5c0 1 0.333008 2.16699 1 3.5v3v4v3.5c0 1 0.333008 2.16699 1 3.5v3v4v263h72v-478h-72v93c-6 -16 -13.333 -30.333 -22 -43
s-19 -24 -31 -34c-12 -9.33301 -25 -16.333 -39 -21s-29.333 -7 -46 -7c-14.667 0 -28.334 1.5 -41.001 4.5s-24 7.16699 -34 12.5c-10 6 -19.5 13.5 -28.5 22.5s-17.167 19.5 -24.5 31.5v-225h-72v0v0z" />
    <glyph glyph-name="paragraph" unicode="&#xb6;" horiz-adv-x="533" 
d="M246 -105l-0.000976562 412.999c-28.667 -1.33301 -55.667 1.33398 -81 8.00098s-48.666 16.667 -69.999 30s-37.333 31.5 -48 54.5s-16 50.833 -16 83.5c0 31.333 5.33301 58.5 16 81.5s26.334 41.5 47.001 55.5c21.333 14 44.166 24.667 68.499 32s50.833 11 79.5 11
l239 2v-16h-47v-755h-33v755h-122v-755h-33v0v0z" />
    <glyph glyph-name="middot" unicode="&#xb7;" 
 />
    <glyph glyph-name="cedilla" unicode="&#xb8;" horiz-adv-x="500" 
d="M254 0l18.9951 0.000976562l-55 -95c3.33301 1.33301 6.5 2.5 9.5 3.5s5.83301 1.83301 8.5 2.5s5.16699 1.33398 7.5 2.00098s4.83301 1 7.5 1c1.33301 0.666992 2.83301 1.16699 4.5 1.5s3.5 0.5 5.5 0.5h5h6c11.333 0 21.833 -1.33301 31.5 -4s17.834 -7 24.501 -13
c7.33301 -5.33301 12.833 -11.666 16.5 -18.999s5.5 -15.333 5.5 -24c0 -10.667 -2.5 -20.334 -7.5 -29.001s-12.5 -16.334 -22.5 -23.001s-21.5 -11.667 -34.5 -15s-27.167 -5 -42.5 -5h-4h-4c-1.33301 0.666992 -2.66602 1 -3.99902 1h-4
c-2.66699 0 -5.16699 0.166992 -7.5 0.5s-4.83301 0.833008 -7.5 1.5c-5.33301 0.666992 -10.666 1.66699 -15.999 3l-16 4l-14.5 6c-5 2 -10.167 4.33301 -15.5 7l7 13c4 -2 8.5 -4 13.5 -6s10.167 -3.66699 15.5 -5s10.833 -2.33301 16.5 -3l17.5 -2h1.5h1.5h0.5h1.5h1.5
h1.5h0.5h1.5c8 0 15.333 1.16699 22 3.5s12.334 6.16602 17.001 11.499c5.33301 4.66699 9.33301 10 12 16s4 12.667 4 20c0 6.66699 -1.16699 12.5 -3.5 17.5s-5.83301 9.5 -10.5 13.5s-9.66699 6.83301 -15 8.5s-11.666 2.5 -18.999 2.5h-3.5h-3.5h-1.5h-0.5
c-0.666992 0 -1.16699 -0.166992 -1.5 -0.5s-0.833008 -0.5 -1.5 -0.5h-2.5c-1 0 -1.83301 -0.333008 -2.5 -1c-1.33301 0 -2.33301 -0.166992 -3 -0.5l-3 -1.5c-2 -0.666992 -4 -1.5 -6 -2.5s-4.66699 -2.5 -8 -4.5l-8 7l62 107v0v0z" />
    <glyph glyph-name="onesuperior" unicode="&#xb9;" 
 />
    <glyph glyph-name="ordmasculine" unicode="&#xba;" horiz-adv-x="356" 
d="M356 330v-33h-356v33h356v0v0zM184 678c18.667 -1.33301 36.5 -5.66602 53.5 -12.999s32.833 -18.333 47.5 -33c15.333 -14.667 26.666 -30.334 33.999 -47.001s11 -34 11 -52c0 -20 -3.66699 -38.5 -11 -55.5s-18.666 -32.833 -33.999 -47.5
c-14.667 -14.667 -31 -25.5 -49 -32.5s-37.333 -10.5 -58 -10.5c-20 0 -38.833 3.66699 -56.5 11s-34.167 18.333 -49.5 33c-15.333 15.333 -26.833 31.5 -34.5 48.5s-11.5 34.833 -11.5 53.5c0 17.333 3.5 33.833 10.5 49.5s17.5 29.834 31.5 42.501
c14 13.333 28.667 24.166 44 32.499s31.333 13.833 48 16.5h3.5c1 0 1.83301 0.333008 2.5 1h3.5h2.5h3.5c1 0 1.83301 0.333008 2.5 1h3.5h2.5v2v0zM261 486l-0.000976562 94c0 14 -1.5 26.167 -4.5 36.5s-7.5 18.833 -13.5 25.5c-6 6 -13.833 10.667 -23.5 14
s-21.5 5 -35.5 5c-15.333 0 -28.666 -1.66699 -39.999 -5s-20.666 -8 -27.999 -14c-6.66699 -6.66699 -11.834 -15.167 -15.501 -25.5s-5.5 -22.833 -5.5 -37.5v-92c0 -15.333 1.5 -28.5 4.5 -39.5s7.83301 -19.833 14.5 -26.5s15.5 -11.5 26.5 -14.5s23.833 -4.5 38.5 -4.5
c15.333 0 28.333 1.5 39 4.5s19 7.5 25 13.5s10.5 14.333 13.5 25s4.5 23.667 4.5 39v2v0z" />
    <glyph glyph-name="guillemotright" unicode="&#xbb;" horiz-adv-x="373" 
d="M96 357l122 -157l-131 -160l-20 16l118 144l-109 141l20 16v0v0zM195 357l125 -159l-131 -158l-19 16l117 144l-112 141l20 16v0v0z" />
    <glyph glyph-name="onequarter" unicode="&#xbc;" 
 />
    <glyph glyph-name="onehalf" unicode="&#xbd;" horiz-adv-x="813" 
d="M244 0h-30l355 667h30l-355 -667v0v0zM780 116l-3.49902 -22.001c-1 -6 -1.83301 -11.667 -2.5 -17l-2 -14.5c-0.666992 -5 -1.33398 -9.5 -2.00098 -13.5c0 -0.666992 -0.166992 -1.16699 -0.5 -1.5l-0.5 -0.5v-1.5v-1.5v-1.5v-0.5
c-0.666992 -0.666992 -1 -1.16699 -1 -1.5v-0.5c0 -1.33301 -0.166992 -2.83301 -0.5 -4.5s-0.5 -3.16699 -0.5 -4.5c-0.666992 -2 -1 -3.83301 -1 -5.5v-4.5c-0.666992 -3.33301 -1.16699 -6.83301 -1.5 -10.5s-0.833008 -7.16699 -1.5 -10.5h-286
c5.33301 11.333 11.5 22.5 18.5 33.5s15.5 20.833 25.5 29.5l30.5 27.5l31.5 26.5c14.667 11.333 28.667 23.166 42 35.499s26 24.833 38 37.5c12 13.333 21.167 28.5 27.5 45.5s9.5 35.833 9.5 56.5c0 13.333 -2.16699 25.5 -6.5 36.5s-10.5 20.5 -18.5 28.5
c-8.66699 8 -18.667 14.167 -30 18.5s-24.333 6.5 -39 6.5c-12.667 0 -24.5 -1.66699 -35.5 -5s-21.5 -8.33301 -31.5 -15s-17.5 -13.834 -22.5 -21.501s-7.5 -15.834 -7.5 -24.501c0 -2 0.166992 -3.5 0.5 -4.5s0.833008 -2.16699 1.5 -3.5
c1.33301 -0.666992 2.5 -1.16699 3.5 -1.5s2.5 -0.5 4.5 -0.5l1 2h4c6 -1.33301 11.333 -2.66602 16 -3.99902s8.33398 -3.33301 11.001 -6c3.33301 -2.66699 5.66602 -6 6.99902 -10s2 -8.66699 2 -14c0 -4.66699 -0.833008 -8.66699 -2.5 -12
s-4.16699 -6.66602 -7.5 -9.99902c-2.66699 -2.66699 -6 -4.83398 -10 -6.50098s-8.33301 -2.5 -13 -2.5c-6 0 -11.5 1.16699 -16.5 3.5s-9.5 5.83301 -13.5 10.5s-7 10 -9 16s-3 12.667 -3 20c0 15.333 3 29.5 9 42.5s15.333 24.5 28 34.5s27.167 17.5 43.5 22.5
s34.5 7.5 54.5 7.5c21.333 0 40.833 -2.66699 58.5 -8s33.5 -13 47.5 -23c13.333 -10.667 23.5 -22.667 30.5 -36s10.5 -28.333 10.5 -45c0 -19.333 -3.5 -36.833 -10.5 -52.5s-17.167 -29.5 -30.5 -41.5s-27.5 -23.5 -42.5 -34.5s-30.5 -21.5 -46.5 -31.5l-1.5 -1.5
l-0.5 -0.5l-1.5 -1.5c-0.333008 -0.333008 -0.833008 -0.5 -1.5 -0.5c-0.666992 -0.666992 -1.5 -1.16699 -2.5 -1.5s-2.16699 -0.833008 -3.5 -1.5c-8.66699 -5.33301 -17 -10.833 -25 -16.5l-24 -16.5c-8 -5.33301 -15.5 -11 -22.5 -17s-13.167 -12.333 -18.5 -19l217 2
c0 1.33301 0.166992 3.16602 0.5 5.49902s0.833008 4.83301 1.5 7.5s1.16699 5.33398 1.5 8.00098s0.833008 5.33398 1.5 8.00098s1.16699 5.16699 1.5 7.5s0.833008 4.83301 1.5 7.5s1.16699 5.33398 1.5 8.00098s0.833008 5.33398 1.5 8.00098l16 2v0v0zM230.001 666.999
l0.000976562 -384.002h61v-16h-187v16h62v307v8v-1v0h-1v0h-1.5h-1.5c-2.66699 0 -6 -0.5 -10 -1.5s-8.33301 -2.16699 -13 -3.5l-13.5 -6l-13.5 -6c-0.666992 -0.666992 -1.5 -1.16699 -2.5 -1.5s-1.83301 -0.5 -2.5 -0.5l-3 -1.5
c-0.666992 -0.333008 -1.33398 -0.833008 -2.00098 -1.5s-1.33398 -1.16699 -2.00098 -1.5s-1.33398 -0.5 -2.00098 -0.5l-3 -1.5c-0.666992 -0.333008 -1.33398 -0.833008 -2.00098 -1.5c-2.66699 -2 -5.5 -3.83301 -8.5 -5.5s-5.83301 -3.16699 -8.5 -4.5
s-5.16699 -2.66602 -7.5 -3.99902s-4.5 -2.66602 -6.5 -3.99902v22c2 0.666992 4 1.5 6 2.5s4 1.83301 6 2.5c2 1.33301 4 2.5 6 3.5s4 2.16699 6 3.5c0.666992 0 1.33398 0.166992 2.00098 0.5s1.33398 0.833008 2.00098 1.5l1 0.5
c0.666992 0.333008 1.33398 0.833008 2.00098 1.5l4 2l4 2l13.5 7.5l13.5 7.5l12.5 8.5c4.33301 3 8.83301 5.83301 13.5 8.5c8.66699 5.33301 17 11.333 25 18s15.667 13.667 23 21l28 2v0v0z" />
    <glyph glyph-name="threequarters" unicode="&#xbe;" 
 />
    <glyph glyph-name="questiondown" unicode="&#xbf;" horiz-adv-x="390" 
d="M267 282c2 -9.33301 4 -18.001 6 -26.001s3.33301 -15.667 4 -23c1.33301 -7.33301 2.33301 -14.5 3 -21.5l2 -20.5v-4c0 -1.33301 0.333008 -2.66602 1 -3.99902v-4v-4v-7.5v-7.5c0 -12 -1.16699 -23.5 -3.5 -34.5s-6.16602 -21.5 -11.499 -31.5
c-4.66699 -10 -10.334 -19.167 -17.001 -27.5s-14.334 -15.5 -23.001 -21.5c-2 -1.33301 -4 -2.83301 -6 -4.5s-4 -3.16699 -6 -4.5c-2.66699 -1.33301 -5 -2.83301 -7 -4.5s-4 -3.16699 -6 -4.5c-4.66699 -2.66699 -9.16699 -5.5 -13.5 -8.5s-8.5 -6.16699 -12.5 -9.5
c-13.333 -8.66699 -26.166 -18.667 -38.499 -30s-24.166 -23.333 -35.499 -36c-11.333 -13.333 -19.833 -27.333 -25.5 -42s-8.5 -30.334 -8.5 -47.001c0 -14 3.16699 -26.833 9.5 -38.5s15.833 -22.5 28.5 -32.5c13.333 -10 27.666 -17.5 42.999 -22.5s32.333 -7.5 51 -7.5
c2.66699 0 5.66699 0.166992 9 0.5s7.33301 0.833008 12 1.5c4 0.666992 8.16699 1.5 12.5 2.5s8.83301 2.16699 13.5 3.5c7.33301 2.66699 14.333 5.66699 21 9s13 7 19 11s10.667 8.5 14 13.5s5 10.167 5 15.5c0 2 -0.333008 3.66699 -1 5s-1.66699 2.66602 -3 3.99902
c-0.666992 0.666992 -2 1.5 -4 2.5s-4 1.5 -6 1.5h-0.5h-0.5c-0.666992 0.666992 -1.16699 1 -1.5 1h-0.5h-1.5h-0.5c-6.66699 1.33301 -12.667 3 -18 5s-10.333 4.33301 -15 7s-8 6.83398 -10 12.501s-3 12.834 -3 21.501c0 6.66699 1 12.667 3 18s5 10 9 14
c4 4.66699 8.66699 8 14 10s11.333 3 18 3c7.33301 0 14.333 -1.5 21 -4.5s12.334 -7.83301 17.001 -14.5c5.33301 -6 9.16602 -13 11.499 -21s3.5 -17 3.5 -27c0 -15.333 -3.5 -29.5 -10.5 -42.5s-17.167 -24.833 -30.5 -35.5c-13.333 -11.333 -28 -19.666 -44 -24.999
s-33.333 -8 -52 -8c-24.667 0 -46.667 3.66699 -66 11s-36.666 18.666 -51.999 33.999c-14.667 14.667 -25.667 32 -33 52s-11 42.333 -11 67c0 18 1.33301 34 4 48s6.33398 26.333 11.001 37c5.33301 10 11.5 20 18.5 30s15.167 19.667 24.5 29l13 12.5l14 13.5
c5.33301 4.66699 10.5 9.5 15.5 14.5s10.5 9.83301 16.5 14.5l6 6c2 2 4.33301 4 7 6c1.33301 1.33301 2.5 2.33301 3.5 3s2.16699 1.66699 3.5 3c0.666992 0.666992 1.66699 1.5 3 2.5s2.66602 1.83301 3.99902 2.5l2 2c0.666992 0.666992 1.66699 1.33398 3 2.00098
c0.666992 0 1.5 0.333008 2.5 1s1.83301 1.33398 2.5 2.00098c1.33301 1.33301 2.83301 2.66602 4.5 3.99902s3.5 2.66602 5.5 3.99902c7.33301 5.33301 14.166 11 20.499 17s12.166 12.333 17.499 19s9.5 14.667 12.5 24s4.5 20 4.5 32v2v2v1v2v3.5v2.5
c-0.666992 2 -1.16699 4 -1.5 6s-0.5 4.33301 -0.5 7c-0.666992 2.66699 -1.16699 5.66699 -1.5 9s-1.16602 7 -2.49902 11l14 6v0v0zM257 426.999c6 -1.33301 11.667 -3.16699 17 -5.5s10.333 -5.5 15 -9.5c4 -4.66699 7.16699 -9.66699 9.5 -15s3.5 -11 3.5 -17
c0 -6.66699 -1.16699 -12.667 -3.5 -18s-5.5 -10 -9.5 -14c-4.66699 -4.66699 -9.66699 -8 -15 -10s-11 -3 -17 -3c-6.66699 0 -12.667 1 -18 3s-10 5.33301 -14 10c-4.66699 4 -8 8.66699 -10 14s-3 11.333 -3 18c0 6 1 11.667 3 17s5.33301 10.333 10 15
c4 4 8.66699 7.16699 14 9.5s11.333 3.5 18 3.5v2v0z" />
    <glyph glyph-name="Agrave" unicode="&#xc0;" horiz-adv-x="666" 
d="M-3 17c14 -1.33301 26.002 -1.66602 36.002 -0.999023s18 1.66699 24 3c5.33301 1.33301 10.5 4.5 15.5 9.5s9.5 11.5 13.5 19.5c1.33301 2.66699 2.66602 5.5 3.99902 8.5s2.66602 6.16699 3.99902 9.5s2.66602 7.16602 3.99902 11.499s3 8.83301 5 13.5l210 586h14
l251 -660h85v-17h-291v17h100l-77 201h-228l-46 -127l-5 -18.5c-1.33301 -5 -2.66602 -9.16699 -3.99902 -12.5c-0.666992 -4 -1.33398 -7.33301 -2.00098 -10s-1 -4.66699 -1 -6c0 -5.33301 1.33301 -10 4 -14s6.33398 -7 11.001 -9c5.33301 -2 12.333 -3.5 21 -4.5
s19 -1.5 31 -1.5l31 2v-17h-210v17v0v0zM173.002 235h216l-111 296l-105 -296v0v0zM311.002 707l-119 114.002c-6 4.66699 -11 9.16699 -15 13.5s-7 8.16602 -9 11.499c-2.66699 3.33301 -4.5 6.5 -5.5 9.5s-1.5 5.83301 -1.5 8.5c0 4 0.833008 7.83301 2.5 11.5
s4.5 6.83398 8.5 9.50098c4 3.33301 8.33301 5.66602 13 6.99902s9.66699 2 15 2c3.33301 0 6.33301 -0.166992 9 -0.5s5.33398 -0.833008 8.00098 -1.5c1.33301 -0.666992 2.5 -1.16699 3.5 -1.5s2.16699 -0.833008 3.5 -1.5
c0.666992 -0.666992 1.66699 -1.33398 3 -2.00098s2.33301 -1.66699 3 -3c2.66699 -2.66699 5.5 -5.66699 8.5 -9s5.83301 -7.66602 8.5 -12.999c3.33301 -4.66699 6.66602 -10.334 9.99902 -17.001s7.33301 -14 12 -22l62 -116h-20v0v0z" />
    <glyph glyph-name="Aacute" unicode="&#xc1;" horiz-adv-x="666" 
d="M-3 17c14 -1.33301 26.002 -1.66602 36.002 -0.999023s18 1.66699 24 3c5.33301 1.33301 10.5 4.5 15.5 9.5s9.5 11.5 13.5 19.5c1.33301 2.66699 2.66602 5.5 3.99902 8.5s2.66602 6.16699 3.99902 9.5s2.66602 7.16602 3.99902 11.499s3 8.83301 5 13.5l210 586h14
l251 -660h85v-17h-291v17h100l-77 201h-228l-46 -127l-5 -18.5c-1.33301 -5 -2.66602 -9.16699 -3.99902 -12.5c-0.666992 -4 -1.33398 -7.33301 -2.00098 -10s-1 -4.66699 -1 -6c0 -5.33301 1.33301 -10 4 -14s6.33398 -7 11.001 -9c5.33301 -2 12.333 -3.5 21 -4.5
s19 -1.5 31 -1.5l31 2v-17h-210v17v0v0zM173.002 235h216l-111 296l-105 -296v0v0zM335.002 707h-19.998l62 118l13 21l10 17c1.33301 2.66699 2.66602 5 3.99902 7s3 4 5 6c1.33301 2 2.66602 3.66699 3.99902 5l4 4l6 4c2 1.33301 4.33301 2.33301 7 3
c2 0.666992 4.5 1.16699 7.5 1.5s5.83301 0.5 8.5 0.5c5.33301 0 10.333 -0.666992 15 -2s9 -3.66602 13 -6.99902c3.33301 -2.66699 6 -5.83398 8 -9.50098s3 -7.5 3 -11.5c0 -2.66699 -0.666992 -5.5 -2 -8.5s-3 -6.16699 -5 -9.5l-10 -12
c-4 -4.66699 -8.66699 -9.66699 -14 -15l-119 -112v0v0z" />
    <glyph glyph-name="Acircumflex" unicode="&#xc2;" horiz-adv-x="666" 
d="M-3 17c14 -1.33301 26.002 -1.66602 36.002 -0.999023s18 1.66699 24 3c5.33301 1.33301 10.5 4.5 15.5 9.5s9.5 11.5 13.5 19.5c1.33301 2.66699 2.66602 5.5 3.99902 8.5s2.66602 6.16699 3.99902 9.5s2.66602 7.16602 3.99902 11.499s3 8.83301 5 13.5l210 586h14
l251 -660h85v-17h-291v17h100l-77 201h-228l-46 -127l-5 -18.5c-1.33301 -5 -2.66602 -9.16699 -3.99902 -12.5c-0.666992 -4 -1.33398 -7.33301 -2.00098 -10s-1 -4.66699 -1 -6c0 -5.33301 1.33301 -10 4 -14s6.33398 -7 11.001 -9c5.33301 -2 12.333 -3.5 21 -4.5
s19 -1.5 31 -1.5l31 2v-17h-210v17v0v0zM173.002 235h216l-111 296l-105 -296v0v0zM355.002 896l103 -188h-18l-119 122l-114 -122h-18l102 188h64v0v0z" />
    <glyph glyph-name="Atilde" unicode="&#xc3;" horiz-adv-x="666" 
d="M-3 17c14 -1.33301 26.002 -1.66602 36.002 -0.999023s18 1.66699 24 3c5.33301 1.33301 10.5 4.5 15.5 9.5s9.5 11.5 13.5 19.5c1.33301 2.66699 2.66602 5.5 3.99902 8.5s2.66602 6.16699 3.99902 9.5s2.66602 7.16602 3.99902 11.499s3 8.83301 5 13.5l210 586h14
l251 -660h85v-17h-291v17h100l-77 201h-228l-46 -127l-5 -18.5c-1.33301 -5 -2.66602 -9.16699 -3.99902 -12.5c-0.666992 -4 -1.33398 -7.33301 -2.00098 -10s-1 -4.66699 -1 -6c0 -5.33301 1.33301 -10 4 -14s6.33398 -7 11.001 -9c5.33301 -2 12.333 -3.5 21 -4.5
s19 -1.5 31 -1.5l31 2v-17h-210v17v0v0zM173.002 235h216l-111 296l-105 -296v0v0zM474.002 858l17.0039 -0.00195312c-4.66699 -18.667 -10.5 -34.834 -17.5 -48.501s-14.833 -25.167 -23.5 -34.5s-17.667 -16.333 -27 -21s-19.666 -7 -30.999 -7
c-6.66699 0 -13.334 0.5 -20.001 1.5s-13 2.83301 -19 5.5c-6.66699 2.66699 -13.167 5.5 -19.5 8.5l-18.5 8.5l-10 4c-3.33301 1.33301 -6.66602 3 -9.99902 5c-3.33301 1.33301 -6.83301 2.83301 -10.5 4.5s-7.16699 2.83398 -10.5 3.50098
c-2.66699 1.33301 -5.33398 2.16602 -8.00098 2.49902s-5.33398 0.833008 -8.00098 1.5s-5.33398 1.16699 -8.00098 1.5s-5.33398 0.5 -8.00098 0.5c-6.66699 0 -12.5 -1 -17.5 -3s-9.5 -5 -13.5 -9s-7.5 -9 -10.5 -15s-5.83301 -13.333 -8.5 -22l-17 2
c3.33301 16 8 30.5 14 43.5s13 24.167 21 33.5s17 16.333 27 21s20.667 7 32 7c7.33301 0 14.166 -0.666992 20.499 -2s12.833 -3 19.5 -5c3.33301 -1.33301 6.5 -2.66602 9.5 -3.99902s6.16699 -2.66602 9.5 -3.99902c2.66699 -1.33301 5.66699 -2.66602 9 -3.99902
s6.33301 -2.66602 9 -3.99902v0h1c0 -0.666992 0.166992 -1 0.5 -1h0.5v0h1c0 -0.666992 0.166992 -1 0.5 -1h0.5l18 -8c6 -2.66699 12 -5 18 -7s12 -3.5 18 -4.5s12.333 -1.5 19 -1.5c3.33301 0 6.33301 0.333008 9 1l8 2c2.66699 1.33301 5.16699 3.16602 7.5 5.49902
l7.5 7.5l4.5 6.5c1.66699 2.33301 3.16699 4.83301 4.5 7.5l4.5 9l5.5 11v2v0z" />
    <glyph glyph-name="Adieresis" unicode="&#xc4;" horiz-adv-x="666" 
d="M-3 17c14 -1.33301 26.002 -1.66602 36.002 -0.999023s18 1.66699 24 3c5.33301 1.33301 10.5 4.5 15.5 9.5s9.5 11.5 13.5 19.5c1.33301 2.66699 2.66602 5.5 3.99902 8.5s2.66602 6.16699 3.99902 9.5s2.66602 7.16602 3.99902 11.499s3 8.83301 5 13.5l210 586h14
l251 -660h85v-17h-291v17h100l-77 201h-228l-46 -127l-5 -18.5c-1.33301 -5 -2.66602 -9.16699 -3.99902 -12.5c-0.666992 -4 -1.33398 -7.33301 -2.00098 -10s-1 -4.66699 -1 -6c0 -5.33301 1.33301 -10 4 -14s6.33398 -7 11.001 -9c5.33301 -2 12.333 -3.5 21 -4.5
s19 -1.5 31 -1.5l31 2v-17h-210v17v0v0zM173.002 235h216l-111 296l-105 -296v0v0zM232.002 847c6 -1.33301 11.667 -3.16699 17 -5.5s10.333 -5.5 15 -9.5c4 -4.66699 7.16699 -9.66699 9.5 -15s3.5 -11 3.5 -17c0 -6.66699 -1.16699 -12.667 -3.5 -18
s-5.5 -10.333 -9.5 -15c-4.66699 -4.66699 -9.66699 -8 -15 -10s-11 -3 -17 -3c-6.66699 0 -12.667 1 -18 3s-10.333 5.33301 -15 10s-8 9.66699 -10 15s-3 11.333 -3 18c0 6 1 11.667 3 17s5.33301 10.333 10 15c4.66699 4 9.66699 7.16699 15 9.5s11.333 3.5 18 3.5v2v0z
M405.002 846.999c6 -1.33301 11.667 -3.16699 17 -5.5s10.333 -5.5 15 -9.5c4 -4.66699 7.16699 -9.66699 9.5 -15s3.5 -11.333 3.5 -18s-1.16699 -12.667 -3.5 -18s-5.5 -10 -9.5 -14c-4.66699 -4.66699 -9.66699 -8 -15 -10s-11 -3 -17 -3c-6.66699 0 -12.667 1 -18 3
s-10 5.33301 -14 10c-4.66699 4 -8 8.66699 -10 14s-3 11.333 -3 18c0 6 1 11.667 3 17s5.33301 10.333 10 15c4 4.66699 8.66699 8.16699 14 10.5s11.333 3.5 18 3.5v2v0z" />
    <glyph glyph-name="Aring" unicode="&#xc5;" horiz-adv-x="666" 
d="M-3 17c14 -1.33301 26.002 -1.66602 36.002 -0.999023s18 1.66699 24 3c5.33301 1.33301 10.5 4.5 15.5 9.5s9.5 11.5 13.5 19.5c1.33301 2.66699 2.66602 5.5 3.99902 8.5s2.66602 6.16699 3.99902 9.5s2.66602 7.16602 3.99902 11.499s3 8.83301 5 13.5l210 586h14
l251 -660h85v-17h-291v17h100l-77 201h-228l-46 -127l-5 -18.5c-1.33301 -5 -2.66602 -9.16699 -3.99902 -12.5c-0.666992 -4 -1.33398 -7.33301 -2.00098 -10s-1 -4.66699 -1 -6c0 -5.33301 1.33301 -10 4 -14s6.33398 -7 11.001 -9c5.33301 -2 12.333 -3.5 21 -4.5
s19 -1.5 31 -1.5l31 2v-17h-210v17v0v0zM173.002 235h216l-111 296l-105 -296v0v0zM320.002 906c12.667 -1.33301 24.5 -4.33301 35.5 -9s20.833 -11.667 29.5 -21c9.33301 -8.66699 16.333 -18.5 21 -29.5s7 -22.833 7 -35.5s-2.33301 -24.5 -7 -35.5
s-11.667 -21.167 -21 -30.5c-8.66699 -8.66699 -18.5 -15.334 -29.5 -20.001s-22.833 -7 -35.5 -7s-24.5 2.33301 -35.5 7s-21.167 11.334 -30.5 20.001c-8.66699 9.33301 -15.334 19.5 -20.001 30.5s-7 22.833 -7 35.5s2.33301 24.5 7 35.5s11.334 20.833 20.001 29.5
c9.33301 9.33301 19.5 16.333 30.5 21s22.833 7 35.5 7v2v0zM320.002 881c-9.33301 -1.33301 -18 -3.66699 -26 -7s-15.333 -8.33301 -22 -15s-11.667 -14 -15 -22s-5 -16.667 -5 -26s1.66699 -18 5 -26s8.33301 -15.333 15 -22s14 -11.667 22 -15s16.667 -5 26 -5
s18 1.66699 26 5s15.333 8.33301 22 15s11.667 14 15 22s5 16.667 5 26s-1.66699 18 -5 26s-8.33301 15.333 -15 22s-14 11.667 -22 15s-16.667 5 -26 5v2v0z" />
    <glyph glyph-name="AE" unicode="&#xc6;" horiz-adv-x="887" 
d="M-27 0l-0.00292969 17.0029c16.667 -1.33301 30.834 -1.33301 42.501 0s21.834 3.33301 30.501 6s17 7 25 13s15.333 13.667 22 23c1.33301 1.33301 2.5 2.66602 3.5 3.99902s2.16699 2.66602 3.5 3.99902c0.666992 2 1.66699 3.83301 3 5.5s2.33301 3.5 3 5.5l6.5 11
l7.5 13l291 548h-105v17h496l16 -163h-17v2.5v3.5c-0.666992 1.33301 -1 2.83301 -1 4.5v4.5c-0.666992 3.33301 -1.16699 6.5 -1.5 9.5s-0.5 5.83301 -0.5 8.5c-2 8 -4.33301 15.833 -7 23.5s-5.66699 15.167 -9 22.5s-7.5 14 -12.5 20s-10.5 11.333 -16.5 16
c-6.66699 4.66699 -14.667 8.66699 -24 12s-20 6.33301 -32 9s-25.167 4.66699 -39.5 6s-30.166 2 -47.499 2l-90 2v-303c26.667 -1.33301 49.667 -0.5 69 2.5s35.333 7.5 48 13.5s22.167 17.5 28.5 34.5s9.5 39.833 9.5 68.5l16 2v-252h-16c0 26.667 -2.33301 48 -7 64
s-11.667 26.667 -21 32c-8.66699 5.33301 -21 9.33301 -37 12s-35 4 -57 4l-33 2v-313h87c36 -1.33301 68.167 0.333984 96.5 5.00098s52.833 12 73.5 22s36.167 27.5 46.5 52.5s15.5 57.833 15.5 98.5l17 2v-197h-542v17h109v201h-224l-55 -103l-12.5 -27l-10.5 -22
c-2.66699 -6.66699 -4.66699 -12.334 -6 -17.001s-2 -8.33398 -2 -11.001c0 -4 1.16699 -7.5 3.5 -10.5s5.83301 -5.5 10.5 -7.5c5.33301 -2 12 -3.33301 20 -4s17.667 -1 29 -1l31 2v-17h-36.5h-31.5h-13.5h-12.5h-11h-10h-11h-12h-12.5h-14.5h-31.5h-35.5h-2v0z
M422.997 638.003l-216 -403h216v403v0v0z" />
    <glyph glyph-name="Ccedilla" unicode="&#xc7;" horiz-adv-x="641" 
d="M568 12c-0.666992 6 -1.83105 11.667 -3.49805 17s-4.16699 10.333 -7.5 15c-3.33301 4 -7 7.16699 -11 9.5s-8.33301 3.5 -13 3.5c-4 0 -8.33301 -1 -13 -3s-9.66699 -4.66699 -15 -8c-4.66699 -4 -10.167 -8 -16.5 -12s-13.166 -8 -20.499 -12
c-6.66699 -4 -14.167 -7.83301 -22.5 -11.5s-17.166 -7.16699 -26.499 -10.5c-9.33301 -2.66699 -19.5 -5 -30.5 -7s-22.833 -3.33301 -35.5 -4l-49 -84c3.33301 1.33301 6.83301 2.5 10.5 3.5s6.83398 2.16699 9.50098 3.5c1.33301 0.666992 2.66602 1.16699 3.99902 1.5
s3 0.5 5 0.5c1.33301 0.666992 2.66602 1 3.99902 1h4h2h2c0.666992 0.666992 1.33398 1 2.00098 1h2h4.5h4.5c11.333 0 21.833 -1.33301 31.5 -4s18.167 -7 25.5 -13c7.33301 -5.33301 12.833 -11.666 16.5 -18.999s5.5 -15.333 5.5 -24
c0 -10.667 -2.66699 -20.334 -8 -29.001s-13 -16.334 -23 -23.001s-21.5 -11.667 -34.5 -15s-27.167 -5 -42.5 -5h-8c-2.66699 0 -5 0.333008 -7 1c-2.66699 0 -5.33398 0.166992 -8.00098 0.5s-5.33398 0.833008 -8.00098 1.5s-5.33398 1.16699 -8.00098 1.5
s-5 0.833008 -7 1.5l-8 2l-8 2c-2.66699 0.666992 -5.33398 1.5 -8.00098 2.5s-5.33398 2.16699 -8.00098 3.5l-4 2c-1.33301 0.666992 -2.33301 1 -3 1l-4 2l-4 2l7 13c5.33301 -2.66699 10.666 -5 15.999 -7s11.333 -3.66699 18 -5s13.334 -2.33301 20.001 -3
s13.334 -1 20.001 -1c7.33301 0 14.333 1.16699 21 3.5s12.334 6.16602 17.001 11.499c5.33301 4.66699 9.33301 10 12 16s4 12.667 4 20c0 6.66699 -1.16699 12.5 -3.5 17.5s-5.83301 9.5 -10.5 13.5s-9.66699 6.83301 -15 8.5s-11.666 2.5 -18.999 2.5h-3.5h-3.5h-2.5
c-1 0 -2.16699 -0.333008 -3.5 -1c-1.33301 0 -2.83301 -0.333008 -4.5 -1s-3.5 -1.33398 -5.5 -2.00098s-4 -1.5 -6 -2.5s-4.33301 -2.5 -7 -4.5l-8 7l55 96c-46 2 -87 11.5 -123 28.5s-67.667 42.5 -95 76.5c-26.667 34 -46.667 70.333 -60 109s-20 79.667 -20 123
c0 48 7.66699 92.5 23 133.5s38.333 78.5 69 112.5c31.333 34 65.5 59.667 102.5 77s77.5 26 121.5 26c11.333 0 22.333 -1 33 -3s21 -4.66699 31 -8c9.33301 -3.33301 18.333 -6.83301 27 -10.5s17 -7.5 25 -11.5l21 -13l19 -11c5.33301 -3.33301 10.5 -5.83301 15.5 -7.5
s9.5 -2.5 13.5 -2.5c4.66699 0 8.66699 0.833008 12 2.5s6.33301 3.83398 9 6.50098c2 3.33301 4 7.66602 6 12.999s3.33301 11.333 4 18l16 2l-3 -80l3 -107v-14h-16c-2.66699 28.667 -9.66699 55.334 -21 80.001s-27 47.334 -47 68.001
c-20.667 21.333 -43.667 37.166 -69 47.499s-53 15.5 -83 15.5c-32.667 0 -60.834 -6 -84.501 -18s-42.5 -30 -56.5 -54s-25.5 -49 -34.5 -75s-15.167 -53.667 -18.5 -83c-1.33301 -9.33301 -2.5 -18.666 -3.5 -27.999s-1.83301 -18.666 -2.5 -27.999
c-0.666992 -8.66699 -1 -17.5 -1 -26.5v-25.5c0 -53.333 4.16699 -100 12.5 -140s20.833 -73.333 37.5 -100s37.167 -46.667 61.5 -60s52.833 -20 85.5 -20c23.333 0 45.666 3.5 66.999 10.5s42 17.5 62 31.5s36.833 30 50.5 48s24.167 38 31.5 60
c0.666992 1.33301 1.16699 2.5 1.5 3.5s0.5 2.16699 0.5 3.5c0.666992 0.666992 1.16699 1.66699 1.5 3s0.5 2.33301 0.5 3l2 6l2 6c0.666992 3.33301 1.16699 7 1.5 11s0.833008 8.33301 1.5 13s1.16699 10 1.5 16s0.5 12.333 0.5 19l16 2
c-0.666992 -14.667 -1.16699 -28.167 -1.5 -40.5s-0.5 -23.833 -0.5 -34.5c-0.666992 -10.667 -1 -20.334 -1 -29.001v-24v-2.5v-3.5v-2v-2v-18.5c0 -6.33301 0.333008 -12.833 1 -19.5c0 -6.66699 0.166992 -14.167 0.5 -22.5s0.833008 -18.166 1.5 -29.499l-16 2v0v0z" />
    <glyph glyph-name="Egrave" unicode="&#xc8;" horiz-adv-x="648" 
d="M211 17l126.003 -0.000976562c29.333 -1.33301 55 -1.33301 77 0s40.333 3.33301 55 6c15.333 2.66699 29.166 6.5 41.499 11.5s23.833 10.833 34.5 17.5c14 9.33301 25 19.166 33 29.499s13.333 21.166 16 32.499c2 11.333 3.66699 23.833 5 37.5s2 27.834 2 42.501
l16 2v-196h-600v17h97v633h-97v17h549l16 -163h-16c-0.666992 0.666992 -1.16699 1.5 -1.5 2.5s-0.5 2.16699 -0.5 3.5v2v2c-0.666992 0.666992 -1 1.33398 -1 2.00098v2c-2.66699 16 -5.83398 29.667 -9.50098 41s-7.5 20.333 -11.5 27c-4 7.33301 -9 13.833 -15 19.5
s-13.333 10.834 -22 15.501s-18.5 8.66699 -29.5 12s-23.5 6 -37.5 8s-30.333 3.66699 -49 5s-39.667 2 -63 2l-115 2v-303h40c27.333 -1.33301 50.666 -0.166016 69.999 3.50098s35 8.83398 47 15.501c12 7.33301 21.167 16.666 27.5 27.999s9.5 24.666 9.5 39.999v33h17
v-251h-17v34c0 15.333 -2.66699 28.333 -8 39s-13.333 18.667 -24 24s-26.167 9.5 -46.5 12.5s-45.833 4.5 -76.5 4.5l-39 2v-315v0v0zM289.003 706.999l-119 114.002c-6 4.66699 -11 9.16699 -15 13.5s-7 8.16602 -9 11.499c-2.66699 3.33301 -4.5 6.5 -5.5 9.5
s-1.5 5.83301 -1.5 8.5c0 4 0.833008 7.83301 2.5 11.5s4.5 6.83398 8.5 9.50098c4 3.33301 8.33301 5.66602 13 6.99902s9.66699 2 15 2c3.33301 0 6.33301 -0.166992 9 -0.5s5.33398 -0.833008 8.00098 -1.5c1.33301 -0.666992 2.5 -1.16699 3.5 -1.5
s2.16699 -0.833008 3.5 -1.5c0.666992 -0.666992 1.66699 -1.33398 3 -2.00098s2.33301 -1.66699 3 -3c2.66699 -2.66699 5.5 -5.66699 8.5 -9s5.83301 -7.66602 8.5 -12.999c3.33301 -4.66699 6.66602 -10.334 9.99902 -17.001s7.33301 -14 12 -22l62 -116h-20v0v0z" />
    <glyph glyph-name="Eacute" unicode="&#xc9;" horiz-adv-x="648" 
d="M211 17l126.003 -0.000976562c29.333 -1.33301 55 -1.33301 77 0s40.333 3.33301 55 6c15.333 2.66699 29.166 6.5 41.499 11.5s23.833 10.833 34.5 17.5c14 9.33301 25 19.166 33 29.499s13.333 21.166 16 32.499c2 11.333 3.66699 23.833 5 37.5s2 27.834 2 42.501
l16 2v-196h-600v17h97v633h-97v17h549l16 -163h-16c-0.666992 0.666992 -1.16699 1.5 -1.5 2.5s-0.5 2.16699 -0.5 3.5v2v2c-0.666992 0.666992 -1 1.33398 -1 2.00098v2c-2.66699 16 -5.83398 29.667 -9.50098 41s-7.5 20.333 -11.5 27c-4 7.33301 -9 13.833 -15 19.5
s-13.333 10.834 -22 15.501s-18.5 8.66699 -29.5 12s-23.5 6 -37.5 8s-30.333 3.66699 -49 5s-39.667 2 -63 2l-115 2v-303h40c27.333 -1.33301 50.666 -0.166016 69.999 3.50098s35 8.83398 47 15.501c12 7.33301 21.167 16.666 27.5 27.999s9.5 24.666 9.5 39.999v33h17
v-251h-17v34c0 15.333 -2.66699 28.333 -8 39s-13.333 18.667 -24 24s-26.167 9.5 -46.5 12.5s-45.833 4.5 -76.5 4.5l-39 2v-315v0v0zM206.003 706.999h-19.998l62 118l13 21l10 17c1.33301 2.66699 2.66602 5 3.99902 7s3 4 5 6c1.33301 2 2.66602 3.66699 3.99902 5l4 4
l6 4c2 1.33301 4.33301 2.33301 7 3c2 0.666992 4.5 1.16699 7.5 1.5s5.83301 0.5 8.5 0.5c5.33301 0 10.333 -0.666992 15 -2s9 -3.66602 13 -6.99902c3.33301 -2.66699 6 -5.83398 8 -9.50098s3 -7.5 3 -11.5c0 -2.66699 -0.666992 -5.5 -2 -8.5s-3 -6.16699 -5 -9.5
l-10 -12c-4 -4.66699 -8.66699 -9.66699 -14 -15l-119 -112v0v0z" />
    <glyph glyph-name="Ecircumflex" unicode="&#xca;" horiz-adv-x="648" 
d="M211 17l126.003 -0.000976562c29.333 -1.33301 55 -1.33301 77 0s40.333 3.33301 55 6c15.333 2.66699 29.166 6.5 41.499 11.5s23.833 10.833 34.5 17.5c14 9.33301 25 19.166 33 29.499s13.333 21.166 16 32.499c2 11.333 3.66699 23.833 5 37.5s2 27.834 2 42.501
l16 2v-196h-600v17h97v633h-97v17h549l16 -163h-16c-0.666992 0.666992 -1.16699 1.5 -1.5 2.5s-0.5 2.16699 -0.5 3.5v2v2c-0.666992 0.666992 -1 1.33398 -1 2.00098v2c-2.66699 16 -5.83398 29.667 -9.50098 41s-7.5 20.333 -11.5 27c-4 7.33301 -9 13.833 -15 19.5
s-13.333 10.834 -22 15.501s-18.5 8.66699 -29.5 12s-23.5 6 -37.5 8s-30.333 3.66699 -49 5s-39.667 2 -63 2l-115 2v-303h40c27.333 -1.33301 50.666 -0.166016 69.999 3.50098s35 8.83398 47 15.501c12 7.33301 21.167 16.666 27.5 27.999s9.5 24.666 9.5 39.999v33h17
v-251h-17v34c0 15.333 -2.66699 28.333 -8 39s-13.333 18.667 -24 24s-26.167 9.5 -46.5 12.5s-45.833 4.5 -76.5 4.5l-39 2v-315v0v0zM356.003 895.999l103 -188h-18l-119 122l-114 -122h-18l102 188h64v0v0z" />
    <glyph glyph-name="Edieresis" unicode="&#xcb;" horiz-adv-x="648" 
d="M211 17l126.003 -0.000976562c29.333 -1.33301 55 -1.33301 77 0s40.333 3.33301 55 6c15.333 2.66699 29.166 6.5 41.499 11.5s23.833 10.833 34.5 17.5c14 9.33301 25 19.166 33 29.499s13.333 21.166 16 32.499c2 11.333 3.66699 23.833 5 37.5s2 27.834 2 42.501
l16 2v-196h-600v17h97v633h-97v17h549l16 -163h-16c-0.666992 0.666992 -1.16699 1.5 -1.5 2.5s-0.5 2.16699 -0.5 3.5v2v2c-0.666992 0.666992 -1 1.33398 -1 2.00098v2c-2.66699 16 -5.83398 29.667 -9.50098 41s-7.5 20.333 -11.5 27c-4 7.33301 -9 13.833 -15 19.5
s-13.333 10.834 -22 15.501s-18.5 8.66699 -29.5 12s-23.5 6 -37.5 8s-30.333 3.66699 -49 5s-39.667 2 -63 2l-115 2v-303h40c27.333 -1.33301 50.666 -0.166016 69.999 3.50098s35 8.83398 47 15.501c12 7.33301 21.167 16.666 27.5 27.999s9.5 24.666 9.5 39.999v33h17
v-251h-17v34c0 15.333 -2.66699 28.333 -8 39s-13.333 18.667 -24 24s-26.167 9.5 -46.5 12.5s-45.833 4.5 -76.5 4.5l-39 2v-315v0v0zM238.003 846.999c6 -1.33301 11.667 -3.16699 17 -5.5s10.333 -5.5 15 -9.5c4 -4.66699 7.16699 -9.66699 9.5 -15s3.5 -11 3.5 -17
c0 -6.66699 -1.16699 -12.667 -3.5 -18s-5.5 -10.333 -9.5 -15c-4.66699 -4.66699 -9.66699 -8 -15 -10s-11 -3 -17 -3c-6.66699 0 -12.667 1 -18 3s-10.333 5.33301 -15 10s-8 9.66699 -10 15s-3 11.333 -3 18c0 6 1 11.667 3 17s5.33301 10.333 10 15
c4.66699 4 9.66699 7.16699 15 9.5s11.333 3.5 18 3.5v2v0zM411.003 846.998c6 -1.33301 11.667 -3.16699 17 -5.5s10.333 -5.5 15 -9.5c4 -4.66699 7.16699 -9.66699 9.5 -15s3.5 -11.333 3.5 -18s-1.16699 -12.667 -3.5 -18s-5.5 -10 -9.5 -14
c-4.66699 -4.66699 -9.66699 -8 -15 -10s-11 -3 -17 -3c-6.66699 0 -12.667 1 -18 3s-10 5.33301 -14 10c-4.66699 4 -8 8.66699 -10 14s-3 11.333 -3 18c0 6 1 11.667 3 17s5.33301 10.333 10 15c4 4.66699 8.66699 8.16699 14 10.5s11.333 3.5 18 3.5v2v0z" />
    <glyph glyph-name="Igrave" unicode="&#xcc;" horiz-adv-x="334" 
d="M20 667h294v-17h-97v-633h97v-17h-294v17h97v633h-97v17v0v0zM173 707l-119 114.002c-6 4.66699 -11 9.16699 -15 13.5s-7 8.16602 -9 11.499c-2.66699 3.33301 -4.5 6.5 -5.5 9.5s-1.5 5.83301 -1.5 8.5c0 4 0.833008 7.83301 2.5 11.5s4.5 6.83398 8.5 9.50098
c4 3.33301 8.33301 5.66602 13 6.99902s9.66699 2 15 2c3.33301 0 6.33301 -0.166992 9 -0.5s5.33398 -0.833008 8.00098 -1.5c1.33301 -0.666992 2.5 -1.16699 3.5 -1.5s2.16699 -0.833008 3.5 -1.5c0.666992 -0.666992 1.66699 -1.33398 3 -2.00098s2.33301 -1.66699 3 -3
c2.66699 -2.66699 5.5 -5.66699 8.5 -9s5.83301 -7.66602 8.5 -12.999c3.33301 -4.66699 6.66602 -10.334 9.99902 -17.001s7.33301 -14 12 -22l62 -116h-20v0v0z" />
    <glyph glyph-name="Iacute" unicode="&#xcd;" horiz-adv-x="334" 
d="M20 667h294v-17h-97v-633h97v-17h-294v17h97v633h-97v17v0v0zM159 707h-19.998l62 118l13 21l10 17c1.33301 2.66699 2.66602 5 3.99902 7s3 4 5 6c1.33301 2 2.66602 3.66699 3.99902 5l4 4l6 4c2 1.33301 4.33301 2.33301 7 3c2 0.666992 4.5 1.16699 7.5 1.5
s5.83301 0.5 8.5 0.5c5.33301 0 10.333 -0.666992 15 -2s9 -3.66602 13 -6.99902c3.33301 -2.66699 6 -5.83398 8 -9.50098s3 -7.5 3 -11.5c0 -2.66699 -0.666992 -5.5 -2 -8.5s-3 -6.16699 -5 -9.5l-10 -12c-4 -4.66699 -8.66699 -9.66699 -14 -15l-119 -112v0v0z" />
    <glyph glyph-name="Icircumflex" unicode="&#xce;" horiz-adv-x="334" 
d="M20 667h294v-17h-97v-633h97v-17h-294v17h97v633h-97v17v0v0zM199 896l103 -188h-18l-119 122l-114 -122h-18l102 188h64v0v0z" />
    <glyph glyph-name="Idieresis" unicode="&#xcf;" horiz-adv-x="334" 
d="M20 667h294v-17h-97v-633h97v-17h-294v17h97v633h-97v17v0v0zM81 847c6 -1.33301 11.667 -3.16699 17 -5.5s10.333 -5.5 15 -9.5c4 -4.66699 7.16699 -9.66699 9.5 -15s3.5 -11 3.5 -17c0 -6.66699 -1.16699 -12.667 -3.5 -18s-5.5 -10.333 -9.5 -15
c-4.66699 -4.66699 -9.66699 -8 -15 -10s-11 -3 -17 -3c-6.66699 0 -12.667 1 -18 3s-10.333 5.33301 -15 10s-8 9.66699 -10 15s-3 11.333 -3 18c0 6 1 11.667 3 17s5.33301 10.333 10 15c4.66699 4 9.66699 7.16699 15 9.5s11.333 3.5 18 3.5v2v0zM254 846.999
c6 -1.33301 11.667 -3.16699 17 -5.5s10.333 -5.5 15 -9.5c4 -4.66699 7.16699 -9.66699 9.5 -15s3.5 -11.333 3.5 -18s-1.16699 -12.667 -3.5 -18s-5.5 -10 -9.5 -14c-4.66699 -4.66699 -9.66699 -8 -15 -10s-11 -3 -17 -3c-6.66699 0 -12.667 1 -18 3s-10 5.33301 -14 10
c-4.66699 4 -8 8.66699 -10 14s-3 11.333 -3 18c0 6 1 11.667 3 17s5.33301 10.333 10 15c4 4.66699 8.66699 8.16699 14 10.5s11.333 3.5 18 3.5v2v0z" />
    <glyph glyph-name="Eth" unicode="&#xd0;" horiz-adv-x="717" 
d="M16 667l246.003 -0.000976562c5.33301 -1.33301 10.166 -2 14.499 -2h13.5h12h11c3.33301 -0.666992 6.66602 -1 9.99902 -1h9h8.5h6.5c47.333 -0.666992 90.833 -9.16699 130.5 -25.5s75.5 -40.166 107.5 -71.499c31.333 -31.333 55 -66.833 71 -106.5
s24 -83.167 24 -130.5c0 -37.333 -5 -72.5 -15 -105.5s-24.667 -63.833 -44 -92.5c-20 -28.667 -42.833 -52.5 -68.5 -71.5s-54.5 -33.167 -86.5 -42.5c-4.66699 -2 -9.33398 -3.5 -14.001 -4.5s-9 -2.16699 -13 -3.5c-4 -0.666992 -8 -1.5 -12 -2.5
s-7.66699 -1.83301 -11 -2.5c-8 -2 -16.5 -3.33301 -25.5 -4s-18.167 -1 -27.5 -1h-36h-50h-261v17h97v321h-89v17h89v295h-97v17v0v0zM211.003 16.999c1.33301 -1.33301 2.49902 -2.00098 3.49902 -2.00098h2.5h2h2h1h2c1.33301 -0.666992 2.5 -1 3.5 -1h2.5h2h2h1h2
c23.333 0 44.166 0.333008 62.499 1s34.166 2 47.499 4s26.333 4.66699 39 8s25 7.33301 37 12c0.666992 0 1.33398 0.166992 2.00098 0.5s1.33398 0.833008 2.00098 1.5l1 0.5c0.666992 0.333008 1.33398 0.5 2.00098 0.5l4 2l4 2c22 10 41.333 23.5 58 40.5
s30.334 37.167 41.001 60.5c11.333 23.333 19.666 50.333 24.999 81s8 64.667 8 102c0 50 -6 94.333 -18 133s-29.667 71.667 -53 99c-24 27.333 -54.833 48.333 -92.5 63s-82.167 22.334 -133.5 23.001l-62 2v-295h147v-17h-147v-321v0v0z" />
    <glyph glyph-name="Ntilde" unicode="&#xd1;" horiz-adv-x="725" 
d="M10 17l33.002 -0.000976562c13.333 -1.33301 24.333 -1 33 1s14.334 5 17.001 9c3.33301 4 6.16602 9.83301 8.49902 17.5s3.83301 16.834 4.5 27.501v1v2v0.5c0 0.333008 0.333008 0.833008 1 1.5v0.5v1.5v44v515l-18 12h-79v17h207l389 -492v392
c0 12.667 -0.166992 23.334 -0.5 32.001s-0.833008 15.334 -1.5 20.001s-1.83398 8.66699 -3.50098 12s-3.83398 6 -6.50098 8c-2 1.33301 -4.66699 2.66602 -8 3.99902s-7 2.33301 -11 3s-9.5 1.16699 -16.5 1.5s-15.5 0.5 -25.5 0.5l-29 2v17h214v-17h-28
c-10 -1.33301 -18.5 -2.16602 -25.5 -2.49902s-12.5 -0.833008 -16.5 -1.5s-7.5 -1.83398 -10.5 -3.50098s-5.16699 -3.5 -6.5 -5.5l-1.5 -1.5l-0.5 -0.5v-0.5v-0.5h-1v0c-2 -2.66699 -3.5 -5.5 -4.5 -8.5s-1.5 -6.5 -1.5 -10.5c-0.666992 -4 -1 -10.167 -1 -18.5v-31.5
v-570h-6l-492 625v-497c0 -27.333 1.16699 -48.833 3.5 -64.5s5.83301 -25.834 10.5 -30.501s14.5 -8 29.5 -10s35.167 -3 60.5 -3v-15h-217v17v0v0zM503.002 857.999l17.0039 -0.00195312c-4.66699 -18.667 -10.5 -34.834 -17.5 -48.501s-14.833 -25.167 -23.5 -34.5
s-17.667 -16.333 -27 -21s-19.666 -7 -30.999 -7c-6.66699 0 -13.334 0.5 -20.001 1.5s-13 2.83301 -19 5.5c-6.66699 2.66699 -13.167 5.5 -19.5 8.5l-18.5 8.5l-10 4c-3.33301 1.33301 -6.66602 3 -9.99902 5c-3.33301 1.33301 -6.83301 2.83301 -10.5 4.5
s-7.16699 2.83398 -10.5 3.50098c-2.66699 1.33301 -5.33398 2.16602 -8.00098 2.49902s-5.33398 0.833008 -8.00098 1.5s-5.33398 1.16699 -8.00098 1.5s-5.33398 0.5 -8.00098 0.5c-6.66699 0 -12.5 -1 -17.5 -3s-9.5 -5 -13.5 -9s-7.5 -9 -10.5 -15
s-5.83301 -13.333 -8.5 -22l-17 2c3.33301 16 8 30.5 14 43.5s13 24.167 21 33.5s17 16.333 27 21s20.667 7 32 7c7.33301 0 14.166 -0.666992 20.499 -2s12.833 -3 19.5 -5c3.33301 -1.33301 6.5 -2.66602 9.5 -3.99902s6.16699 -2.66602 9.5 -3.99902
c2.66699 -1.33301 5.66699 -2.66602 9 -3.99902s6.33301 -2.66602 9 -3.99902v0h1c0 -0.666992 0.166992 -1 0.5 -1h0.5v0h1c0 -0.666992 0.166992 -1 0.5 -1h0.5l18 -8c6 -2.66699 12 -5 18 -7s12 -3.5 18 -4.5s12.333 -1.5 19 -1.5c3.33301 0 6.33301 0.333008 9 1l8 2
c2.66699 1.33301 5.16699 3.16602 7.5 5.49902l7.5 7.5l4.5 6.5c1.66699 2.33301 3.16699 4.83301 4.5 7.5l4.5 9l5.5 11v2v0z" />
    <glyph glyph-name="Ograve" unicode="&#xd2;" 
 />
    <glyph glyph-name="Oacute" unicode="&#xd3;" horiz-adv-x="697" 
d="M37 331c0 24.667 1.99902 48.5029 5.99902 71.5029s10.333 44.833 19 65.5s19.5 40.5 32.5 59.5s28.167 37.167 45.5 54.5c9.33301 9.33301 19.333 18.166 30 26.499s21.334 15.833 32.001 22.5c11.333 7.33301 22.5 13.666 33.5 18.999s22.167 10 33.5 14
c6.66699 2.66699 13.167 5 19.5 7s12.833 3.33301 19.5 4c6.66699 1.33301 13.167 2.33301 19.5 3s12.833 1 19.5 1c41.333 0 80.333 -8.66699 117 -26s70.667 -43.333 102 -78s54.833 -72.334 70.5 -113.001s23.5 -84.334 23.5 -131.001s-7.66699 -90.167 -23 -130.5
s-38.666 -77.5 -69.999 -111.5c-30.667 -34 -64.5 -59.333 -101.5 -76s-76.833 -25 -119.5 -25c-40.667 0 -78.834 8.33301 -114.501 25s-69.167 42.334 -100.5 77.001s-54.833 72 -70.5 112s-23.5 82.333 -23.5 127v2v0zM348.999 665.003
c-32.667 -1.33301 -61.5 -9.16699 -86.5 -23.5s-46.167 -35.5 -63.5 -63.5c-16.667 -28.667 -29.334 -63.5 -38.001 -104.5s-13 -88.167 -13 -141.5c0 -55.333 4.16699 -103.833 12.5 -145.5s20.833 -76.167 37.5 -103.5c17.333 -27.333 38.5 -47.833 63.5 -61.5
s54.167 -20.5 87.5 -20.5s62.5 6.83301 87.5 20.5s45.833 34.167 62.5 61.5s29.167 61.833 37.5 103.5s12.5 90.167 12.5 145.5c0 53.333 -4.16699 100.5 -12.5 141.5s-21.166 75.833 -38.499 104.5c-16.667 28 -37.5 49.167 -62.5 63.5s-53.833 21.5 -86.5 21.5v2v0z
M349.999 708.002h-19.998l62 118l13 21l10 17c1.33301 2.66699 2.66602 5 3.99902 7s3 4 5 6c1.33301 2 2.66602 3.66699 3.99902 5l4 4l6 4c2 1.33301 4.33301 2.33301 7 3c2 0.666992 4.5 1.16699 7.5 1.5s5.83301 0.5 8.5 0.5c5.33301 0 10.333 -0.666992 15 -2
s9 -3.66602 13 -6.99902c3.33301 -2.66699 6 -5.83398 8 -9.50098s3 -7.5 3 -11.5c0 -2.66699 -0.666992 -5.5 -2 -8.5s-3 -6.16699 -5 -9.5l-10 -12c-4 -4.66699 -8.66699 -9.66699 -14 -15l-119 -112v0v0z" />
    <glyph glyph-name="Ocircumflex" unicode="&#xd4;" horiz-adv-x="697" 
d="M37 331c0 24.667 1.99902 48.5029 5.99902 71.5029s10.333 44.833 19 65.5s19.5 40.5 32.5 59.5s28.167 37.167 45.5 54.5c9.33301 9.33301 19.333 18.166 30 26.499s21.334 15.833 32.001 22.5c11.333 7.33301 22.5 13.666 33.5 18.999s22.167 10 33.5 14
c6.66699 2.66699 13.167 5 19.5 7s12.833 3.33301 19.5 4c6.66699 1.33301 13.167 2.33301 19.5 3s12.833 1 19.5 1c41.333 0 80.333 -8.66699 117 -26s70.667 -43.333 102 -78s54.833 -72.334 70.5 -113.001s23.5 -84.334 23.5 -131.001s-7.66699 -90.167 -23 -130.5
s-38.666 -77.5 -69.999 -111.5c-30.667 -34 -64.5 -59.333 -101.5 -76s-76.833 -25 -119.5 -25c-40.667 0 -78.834 8.33301 -114.501 25s-69.167 42.334 -100.5 77.001s-54.833 72 -70.5 112s-23.5 82.333 -23.5 127v2v0zM348.999 665.003
c-32.667 -1.33301 -61.5 -9.16699 -86.5 -23.5s-46.167 -35.5 -63.5 -63.5c-16.667 -28.667 -29.334 -63.5 -38.001 -104.5s-13 -88.167 -13 -141.5c0 -55.333 4.16699 -103.833 12.5 -145.5s20.833 -76.167 37.5 -103.5c17.333 -27.333 38.5 -47.833 63.5 -61.5
s54.167 -20.5 87.5 -20.5s62.5 6.83301 87.5 20.5s45.833 34.167 62.5 61.5s29.167 61.833 37.5 103.5s12.5 90.167 12.5 145.5c0 53.333 -4.16699 100.5 -12.5 141.5s-21.166 75.833 -38.499 104.5c-16.667 28 -37.5 49.167 -62.5 63.5s-53.833 21.5 -86.5 21.5v2v0z
M379.999 897.002l103 -188h-18l-119 122l-114 -122h-18l102 188h64v0v0z" />
    <glyph glyph-name="Otilde" unicode="&#xd5;" horiz-adv-x="697" 
d="M37 331c0 24.667 1.99902 48.5029 5.99902 71.5029s10.333 44.833 19 65.5s19.5 40.5 32.5 59.5s28.167 37.167 45.5 54.5c9.33301 9.33301 19.333 18.166 30 26.499s21.334 15.833 32.001 22.5c11.333 7.33301 22.5 13.666 33.5 18.999s22.167 10 33.5 14
c6.66699 2.66699 13.167 5 19.5 7s12.833 3.33301 19.5 4c6.66699 1.33301 13.167 2.33301 19.5 3s12.833 1 19.5 1c41.333 0 80.333 -8.66699 117 -26s70.667 -43.333 102 -78s54.833 -72.334 70.5 -113.001s23.5 -84.334 23.5 -131.001s-7.66699 -90.167 -23 -130.5
s-38.666 -77.5 -69.999 -111.5c-30.667 -34 -64.5 -59.333 -101.5 -76s-76.833 -25 -119.5 -25c-40.667 0 -78.834 8.33301 -114.501 25s-69.167 42.334 -100.5 77.001s-54.833 72 -70.5 112s-23.5 82.333 -23.5 127v2v0zM348.999 665.003
c-32.667 -1.33301 -61.5 -9.16699 -86.5 -23.5s-46.167 -35.5 -63.5 -63.5c-16.667 -28.667 -29.334 -63.5 -38.001 -104.5s-13 -88.167 -13 -141.5c0 -55.333 4.16699 -103.833 12.5 -145.5s20.833 -76.167 37.5 -103.5c17.333 -27.333 38.5 -47.833 63.5 -61.5
s54.167 -20.5 87.5 -20.5s62.5 6.83301 87.5 20.5s45.833 34.167 62.5 61.5s29.167 61.833 37.5 103.5s12.5 90.167 12.5 145.5c0 53.333 -4.16699 100.5 -12.5 141.5s-21.166 75.833 -38.499 104.5c-16.667 28 -37.5 49.167 -62.5 63.5s-53.833 21.5 -86.5 21.5v2v0z
M488.999 858.002l17.0039 -0.00195312c-4.66699 -18.667 -10.5 -34.834 -17.5 -48.501s-14.833 -25.167 -23.5 -34.5s-17.667 -16.333 -27 -21s-19.666 -7 -30.999 -7c-6.66699 0 -13.334 0.5 -20.001 1.5s-13 2.83301 -19 5.5c-6.66699 2.66699 -13.167 5.5 -19.5 8.5
l-18.5 8.5l-10 4c-3.33301 1.33301 -6.66602 3 -9.99902 5c-3.33301 1.33301 -6.83301 2.83301 -10.5 4.5s-7.16699 2.83398 -10.5 3.50098c-2.66699 1.33301 -5.33398 2.16602 -8.00098 2.49902s-5.33398 0.833008 -8.00098 1.5s-5.33398 1.16699 -8.00098 1.5
s-5.33398 0.5 -8.00098 0.5c-6.66699 0 -12.5 -1 -17.5 -3s-9.5 -5 -13.5 -9s-7.5 -9 -10.5 -15s-5.83301 -13.333 -8.5 -22l-17 2c3.33301 16 8 30.5 14 43.5s13 24.167 21 33.5s17 16.333 27 21s20.667 7 32 7c7.33301 0 14.166 -0.666992 20.499 -2s12.833 -3 19.5 -5
c3.33301 -1.33301 6.5 -2.66602 9.5 -3.99902s6.16699 -2.66602 9.5 -3.99902c2.66699 -1.33301 5.66699 -2.66602 9 -3.99902s6.33301 -2.66602 9 -3.99902v0h1c0 -0.666992 0.166992 -1 0.5 -1h0.5v0h1c0 -0.666992 0.166992 -1 0.5 -1h0.5l18 -8c6 -2.66699 12 -5 18 -7
s12 -3.5 18 -4.5s12.333 -1.5 19 -1.5c3.33301 0 6.33301 0.333008 9 1l8 2c2.66699 1.33301 5.16699 3.16602 7.5 5.49902l7.5 7.5l4.5 6.5c1.66699 2.33301 3.16699 4.83301 4.5 7.5l4.5 9l5.5 11v2v0z" />
    <glyph glyph-name="Odieresis" unicode="&#xd6;" horiz-adv-x="697" 
d="M37 331c0 24.667 1.99902 48.5029 5.99902 71.5029s10.333 44.833 19 65.5s19.5 40.5 32.5 59.5s28.167 37.167 45.5 54.5c9.33301 9.33301 19.333 18.166 30 26.499s21.334 15.833 32.001 22.5c11.333 7.33301 22.5 13.666 33.5 18.999s22.167 10 33.5 14
c6.66699 2.66699 13.167 5 19.5 7s12.833 3.33301 19.5 4c6.66699 1.33301 13.167 2.33301 19.5 3s12.833 1 19.5 1c41.333 0 80.333 -8.66699 117 -26s70.667 -43.333 102 -78s54.833 -72.334 70.5 -113.001s23.5 -84.334 23.5 -131.001s-7.66699 -90.167 -23 -130.5
s-38.666 -77.5 -69.999 -111.5c-30.667 -34 -64.5 -59.333 -101.5 -76s-76.833 -25 -119.5 -25c-40.667 0 -78.834 8.33301 -114.501 25s-69.167 42.334 -100.5 77.001s-54.833 72 -70.5 112s-23.5 82.333 -23.5 127v2v0zM348.999 665.003
c-32.667 -1.33301 -61.5 -9.16699 -86.5 -23.5s-46.167 -35.5 -63.5 -63.5c-16.667 -28.667 -29.334 -63.5 -38.001 -104.5s-13 -88.167 -13 -141.5c0 -55.333 4.16699 -103.833 12.5 -145.5s20.833 -76.167 37.5 -103.5c17.333 -27.333 38.5 -47.833 63.5 -61.5
s54.167 -20.5 87.5 -20.5s62.5 6.83301 87.5 20.5s45.833 34.167 62.5 61.5s29.167 61.833 37.5 103.5s12.5 90.167 12.5 145.5c0 53.333 -4.16699 100.5 -12.5 141.5s-21.166 75.833 -38.499 104.5c-16.667 28 -37.5 49.167 -62.5 63.5s-53.833 21.5 -86.5 21.5v2v0z
M262.999 848.002c6 -1.33301 11.667 -3.16699 17 -5.5s10.333 -5.5 15 -9.5c4 -4.66699 7.16699 -9.66699 9.5 -15s3.5 -11 3.5 -17c0 -6.66699 -1.16699 -12.667 -3.5 -18s-5.5 -10.333 -9.5 -15c-4.66699 -4.66699 -9.66699 -8 -15 -10s-11 -3 -17 -3
c-6.66699 0 -12.667 1 -18 3s-10.333 5.33301 -15 10s-8 9.66699 -10 15s-3 11.333 -3 18c0 6 1 11.667 3 17s5.33301 10.333 10 15c4.66699 4 9.66699 7.16699 15 9.5s11.333 3.5 18 3.5v2v0zM435.999 848.001c6 -1.33301 11.667 -3.16699 17 -5.5s10.333 -5.5 15 -9.5
c4 -4.66699 7.16699 -9.66699 9.5 -15s3.5 -11.333 3.5 -18s-1.16699 -12.667 -3.5 -18s-5.5 -10 -9.5 -14c-4.66699 -4.66699 -9.66699 -8 -15 -10s-11 -3 -17 -3c-6.66699 0 -12.667 1 -18 3s-10 5.33301 -14 10c-4.66699 4 -8 8.66699 -10 14s-3 11.333 -3 18
c0 6 1 11.667 3 17s5.33301 10.333 10 15c4 4.66699 8.66699 8.16699 14 10.5s11.333 3.5 18 3.5v2v0z" />
    <glyph glyph-name="multiply" unicode="&#xd7;" 
 />
    <glyph glyph-name="Oslash" unicode="&#xd8;" horiz-adv-x="691" 
d="M552 678l-35.999 -62.0039c21.333 -19.333 40.5 -39.666 57.5 -60.999s31.833 -44 44.5 -68c12 -24 21.167 -49 27.5 -75s9.5 -53.667 9.5 -83c0 -46 -7.83301 -89 -23.5 -129s-39.167 -77 -70.5 -111c-30.667 -34.667 -64.334 -60.334 -101.001 -77.001
s-75.667 -25 -117 -25c-6.66699 0 -13.5 0.166992 -20.5 0.5s-13.833 1.16602 -20.5 2.49902c-6.66699 0.666992 -13 2 -19 4l-18 6c-6.66699 0.666992 -13.167 2.33398 -19.5 5.00098s-12.833 5.66699 -19.5 9s-13.167 7.16602 -19.5 11.499l-20.5 13.5l-38 -63l-16 9
l38 68c-20.667 16.667 -39.334 35.167 -56.001 55.5s-30.667 42.5 -42 66.5c-12 24 -20.833 48.833 -26.5 74.5s-8.5 52.167 -8.5 79.5c0 24.667 1.83301 47.834 5.5 69.501s8.83398 41.834 15.501 60.501c7.33301 19.333 16.5 38 27.5 56s24.167 35.333 39.5 52
c10 11.333 21 22 33 32s24.333 19.333 37 28c13.333 8 26.5 15.167 39.5 21.5s26.167 11.833 39.5 16.5c3.33301 0.666992 6.33301 1.33398 9 2.00098s5.66699 1.33398 9 2.00098c2.66699 0.666992 5.5 1.33398 8.5 2.00098s5.83301 1.33398 8.5 2.00098
c3.33301 0.666992 6.33301 1.16699 9 1.5s5.66699 0.5 9 0.5c2.66699 0.666992 5.5 1 8.5 1h8.5c11.333 0 22 -0.833008 32 -2.5s20 -4.16699 30 -7.5c9.33301 -2.66699 18.833 -6 28.5 -10l28.5 -12c1.33301 -0.666992 2.83301 -1.5 4.5 -2.5s3.5 -1.83301 5.5 -2.5
c1.33301 -1.33301 2.83301 -2.33301 4.5 -3s3.16699 -1.33398 4.5 -2.00098l9.5 -5.5c3 -1.66699 6.16699 -3.16699 9.5 -4.5l36 63l15 -9v0v0zM207.001 76.9961c9.33301 -14.667 18.998 -26.835 28.998 -36.502s20.667 -17.5 32 -23.5s23.833 -10.333 37.5 -13
s28.834 -4 45.501 -4c31.333 0 59 7 83 21s44.333 35 61 63c16 28 28.167 62.5 36.5 103.5s12.5 88.5 12.5 142.5v9.5v9.5c-0.666992 2.66699 -1 5.66699 -1 9v10c0 6.66699 -0.166992 13.334 -0.5 20.001s-0.833008 13.334 -1.5 20.001
c-1.33301 14.667 -3.33301 29.167 -6 43.5s-5.66699 28.5 -9 42.5c-4 14 -8.66699 27.667 -14 41s-11.666 26.333 -18.999 39l-286 -497v0v0zM481.999 593.995c-0.666992 -0.666992 -1.16797 -0.835938 -1.50098 -0.50293l-1.5 1.5
c-0.666992 0.666992 -1.16699 1.33398 -1.5 2.00098s-0.833008 1.33398 -1.5 2.00098c-9.33301 11.333 -19 21.166 -29 29.499s-20 14.833 -30 19.5c-10.667 5.33301 -22 9.16602 -34 11.499s-25 3.5 -39 3.5c-32.667 0 -61.5 -6.66699 -86.5 -20
s-45.833 -33.666 -62.5 -60.999c-16.667 -26.667 -29.167 -60.167 -37.5 -100.5s-12.5 -87.166 -12.5 -140.499c0 -28.667 0.833008 -54.667 2.5 -78s4.5 -44.666 8.5 -63.999c4 -18.667 9.33301 -37 16 -55s14.334 -35 23.001 -51l287 501v0v0z" />
    <glyph glyph-name="Ugrave" unicode="&#xd9;" horiz-adv-x="721" 
d="M722 650l-41.0029 -0.000976562c-11.333 -1.33301 -20.833 -3.33301 -28.5 -6s-13.167 -6.66699 -16.5 -12c-4 -4.66699 -6.83301 -12.5 -8.5 -23.5s-2.5 -25.167 -2.5 -42.5v-339c0 -43.333 -5.16699 -80.5 -15.5 -111.5s-25.5 -55.833 -45.5 -74.5
c-20.667 -18.667 -46.667 -32.5 -78 -41.5s-68.666 -13.5 -111.999 -13.5c-30 0 -57.333 1.5 -82 4.5s-46.667 7.16699 -66 12.5c-19.333 6 -36.5 13.667 -51.5 23s-27.833 20.333 -38.5 33l-1.5 1.5c-0.333008 0.333008 -0.5 0.833008 -0.5 1.5
c-0.666992 0 -1.16699 0.166992 -1.5 0.5l-1.5 1.5c-0.666992 1.33301 -1.33398 2.5 -2.00098 3.5s-1 1.83301 -1 2.5c-4.66699 6.66699 -8.83398 14 -12.501 22s-6.16699 16.333 -7.5 25c-1.33301 9.33301 -2.33301 21.333 -3 36s-1 32.334 -1 53.001v444h-97v17h300v-17
h-105v-447c0 -24 0.666992 -44.333 2 -61s3.33301 -30 6 -40s6.83398 -19.333 12.501 -28s12.834 -16.667 21.501 -24c0.666992 -0.666992 1.33398 -1.16699 2.00098 -1.5s1.33398 -0.833008 2.00098 -1.5s1.33398 -1.16699 2.00098 -1.5s1.33398 -0.833008 2.00098 -1.5
c9.33301 -6.66699 19.166 -12.834 29.499 -18.501s21.5 -10.167 33.5 -13.5s24.833 -5.83301 38.5 -7.5s28.167 -2.5 43.5 -2.5c22 0 42.667 1.83301 62 5.5s37 9.5 53 17.5s30 17.833 42 29.5s22.333 25.167 31 40.5c0.666992 1.33301 1.16699 2.5 1.5 3.5
s0.833008 1.83301 1.5 2.5v1.5c0 0.333008 0.333008 0.833008 1 1.5l0.5 0.5l1.5 1.5c3.33301 7.33301 6.16602 14.833 8.49902 22.5s3.83301 15.834 4.5 24.501c1.33301 8 2.33301 17.833 3 29.5s1 24.834 1 39.501v346c0 16.667 -1 30.5 -3 41.5s-5 18.833 -9 23.5
c-4 5.33301 -10.667 9.16602 -20 11.499s-21.333 3.5 -36 3.5l-48 2v17h230v-17v0v0zM391.997 706.999l-119 114.002c-6 4.66699 -11 9.16699 -15 13.5s-7 8.16602 -9 11.499c-2.66699 3.33301 -4.5 6.5 -5.5 9.5s-1.5 5.83301 -1.5 8.5c0 4 0.833008 7.83301 2.5 11.5
s4.5 6.83398 8.5 9.50098c4 3.33301 8.33301 5.66602 13 6.99902s9.66699 2 15 2c3.33301 0 6.33301 -0.166992 9 -0.5s5.33398 -0.833008 8.00098 -1.5c1.33301 -0.666992 2.5 -1.16699 3.5 -1.5s2.16699 -0.833008 3.5 -1.5
c0.666992 -0.666992 1.66699 -1.33398 3 -2.00098s2.33301 -1.66699 3 -3c2.66699 -2.66699 5.5 -5.66699 8.5 -9s5.83301 -7.66602 8.5 -12.999c3.33301 -4.66699 6.66602 -10.334 9.99902 -17.001s7.33301 -14 12 -22l62 -116h-20v0v0z" />
    <glyph glyph-name="Uacute" unicode="&#xda;" horiz-adv-x="721" 
d="M722 650l-41.0029 -0.000976562c-11.333 -1.33301 -20.833 -3.33301 -28.5 -6s-13.167 -6.66699 -16.5 -12c-4 -4.66699 -6.83301 -12.5 -8.5 -23.5s-2.5 -25.167 -2.5 -42.5v-339c0 -43.333 -5.16699 -80.5 -15.5 -111.5s-25.5 -55.833 -45.5 -74.5
c-20.667 -18.667 -46.667 -32.5 -78 -41.5s-68.666 -13.5 -111.999 -13.5c-30 0 -57.333 1.5 -82 4.5s-46.667 7.16699 -66 12.5c-19.333 6 -36.5 13.667 -51.5 23s-27.833 20.333 -38.5 33l-1.5 1.5c-0.333008 0.333008 -0.5 0.833008 -0.5 1.5
c-0.666992 0 -1.16699 0.166992 -1.5 0.5l-1.5 1.5c-0.666992 1.33301 -1.33398 2.5 -2.00098 3.5s-1 1.83301 -1 2.5c-4.66699 6.66699 -8.83398 14 -12.501 22s-6.16699 16.333 -7.5 25c-1.33301 9.33301 -2.33301 21.333 -3 36s-1 32.334 -1 53.001v444h-97v17h300v-17
h-105v-447c0 -24 0.666992 -44.333 2 -61s3.33301 -30 6 -40s6.83398 -19.333 12.501 -28s12.834 -16.667 21.501 -24c0.666992 -0.666992 1.33398 -1.16699 2.00098 -1.5s1.33398 -0.833008 2.00098 -1.5s1.33398 -1.16699 2.00098 -1.5s1.33398 -0.833008 2.00098 -1.5
c9.33301 -6.66699 19.166 -12.834 29.499 -18.501s21.5 -10.167 33.5 -13.5s24.833 -5.83301 38.5 -7.5s28.167 -2.5 43.5 -2.5c22 0 42.667 1.83301 62 5.5s37 9.5 53 17.5s30 17.833 42 29.5s22.333 25.167 31 40.5c0.666992 1.33301 1.16699 2.5 1.5 3.5
s0.833008 1.83301 1.5 2.5v1.5c0 0.333008 0.333008 0.833008 1 1.5l0.5 0.5l1.5 1.5c3.33301 7.33301 6.16602 14.833 8.49902 22.5s3.83301 15.834 4.5 24.501c1.33301 8 2.33301 17.833 3 29.5s1 24.834 1 39.501v346c0 16.667 -1 30.5 -3 41.5s-5 18.833 -9 23.5
c-4 5.33301 -10.667 9.16602 -20 11.499s-21.333 3.5 -36 3.5l-48 2v17h230v-17v0v0zM395.997 706.999h-19.998l62 118l13 21l10 17c1.33301 2.66699 2.66602 5 3.99902 7s3 4 5 6c1.33301 2 2.66602 3.66699 3.99902 5l4 4l6 4c2 1.33301 4.33301 2.33301 7 3
c2 0.666992 4.5 1.16699 7.5 1.5s5.83301 0.5 8.5 0.5c5.33301 0 10.333 -0.666992 15 -2s9 -3.66602 13 -6.99902c3.33301 -2.66699 6 -5.83398 8 -9.50098s3 -7.5 3 -11.5c0 -2.66699 -0.666992 -5.5 -2 -8.5s-3 -6.16699 -5 -9.5l-10 -12
c-4 -4.66699 -8.66699 -9.66699 -14 -15l-119 -112v0v0z" />
    <glyph glyph-name="Ucircumflex" unicode="&#xdb;" horiz-adv-x="721" 
d="M722 650l-41.0029 -0.000976562c-11.333 -1.33301 -20.833 -3.33301 -28.5 -6s-13.167 -6.66699 -16.5 -12c-4 -4.66699 -6.83301 -12.5 -8.5 -23.5s-2.5 -25.167 -2.5 -42.5v-339c0 -43.333 -5.16699 -80.5 -15.5 -111.5s-25.5 -55.833 -45.5 -74.5
c-20.667 -18.667 -46.667 -32.5 -78 -41.5s-68.666 -13.5 -111.999 -13.5c-30 0 -57.333 1.5 -82 4.5s-46.667 7.16699 -66 12.5c-19.333 6 -36.5 13.667 -51.5 23s-27.833 20.333 -38.5 33l-1.5 1.5c-0.333008 0.333008 -0.5 0.833008 -0.5 1.5
c-0.666992 0 -1.16699 0.166992 -1.5 0.5l-1.5 1.5c-0.666992 1.33301 -1.33398 2.5 -2.00098 3.5s-1 1.83301 -1 2.5c-4.66699 6.66699 -8.83398 14 -12.501 22s-6.16699 16.333 -7.5 25c-1.33301 9.33301 -2.33301 21.333 -3 36s-1 32.334 -1 53.001v444h-97v17h300v-17
h-105v-447c0 -24 0.666992 -44.333 2 -61s3.33301 -30 6 -40s6.83398 -19.333 12.501 -28s12.834 -16.667 21.501 -24c0.666992 -0.666992 1.33398 -1.16699 2.00098 -1.5s1.33398 -0.833008 2.00098 -1.5s1.33398 -1.16699 2.00098 -1.5s1.33398 -0.833008 2.00098 -1.5
c9.33301 -6.66699 19.166 -12.834 29.499 -18.501s21.5 -10.167 33.5 -13.5s24.833 -5.83301 38.5 -7.5s28.167 -2.5 43.5 -2.5c22 0 42.667 1.83301 62 5.5s37 9.5 53 17.5s30 17.833 42 29.5s22.333 25.167 31 40.5c0.666992 1.33301 1.16699 2.5 1.5 3.5
s0.833008 1.83301 1.5 2.5v1.5c0 0.333008 0.333008 0.833008 1 1.5l0.5 0.5l1.5 1.5c3.33301 7.33301 6.16602 14.833 8.49902 22.5s3.83301 15.834 4.5 24.501c1.33301 8 2.33301 17.833 3 29.5s1 24.834 1 39.501v346c0 16.667 -1 30.5 -3 41.5s-5 18.833 -9 23.5
c-4 5.33301 -10.667 9.16602 -20 11.499s-21.333 3.5 -36 3.5l-48 2v17h230v-17v0v0zM432.997 895.999l103 -188h-18l-119 122l-114 -122h-18l102 188h64v0v0z" />
    </font>
</defs>
</svg>
