<?xml version="1.0" standalone="no"?>
<!DOCTYPE svg PUBLIC "-//W3C//DTD SVG 1.1//EN" "http://www.w3.org/Graphics/SVG/1.1/DTD/svg11.dtd" >
<svg>
<metadata>
Created by FontForge 20090914 at Thu Feb 25 22:57:21 2021
 By www-data
 C 1992 The Font Company Inc., ALL Rights Reserved
</metadata>
<defs>
<font id="FirminDidot" horiz-adv-x="500" >
  <font-face 
    font-family="Firmin Didot"
    font-weight="400"
    font-stretch="normal"
    units-per-em="1000"
    panose-1="2 0 5 4 4 0 0 2 0 3"
    ascent="800"
    descent="-200"
    x-height="380"
    cap-height="666"
    bbox="-141 -276.003 1070 921.001"
    underline-thickness="20"
    underline-position="-100"
    unicode-range="U+0020-U+FB02"
  />
<missing-glyph 
 />
    <glyph glyph-name="fi" unicode="fi" horiz-adv-x="474" 
d="M169 372l0.00195312 -362.998h56v-8h-199v8h65v363h-54l1 8h53v48v18c0 57.333 6.83301 102.666 20.5 135.999s36.5 59.666 68.5 78.999c23.333 14.667 50 22 80 22c17.333 0 33.666 -3 48.999 -9s28.666 -14.333 39.999 -25s20.333 -23 27 -37s10 -29 10 -45
c0 -15.333 -3.83301 -27.833 -11.5 -37.5s-17.5 -14.5 -29.5 -14.5c-11.333 0 -20.5 4 -27.5 12s-10.5 18 -10.5 30c0 7.33301 1 13.833 3 19.5s5.66699 13.167 11 22.5c8 14 12 23.667 12 29c0 13.333 -6.83301 24.833 -20.5 34.5s-30.5 14.5 -50.5 14.5
c-33.333 0 -59.333 -10.333 -78 -31s-28 -49.334 -28 -86.001c0 -7.33301 0.5 -16 1.5 -26l3.5 -35c3.33301 -23.333 5.5 -43.166 6.5 -59.499s1.5 -33.5 1.5 -51.5v-7h226v-372h53v-8h-182v8h50v363h-147z" />
    <glyph glyph-name="fl" unicode="fl" horiz-adv-x="461" 
d="M26 8l54 0.000976562v366l-53 1v8h53v101v9c0 62.667 14.167 111.834 42.5 147.501s67.166 53.5 116.499 53.5c38.667 0 69.334 -14 92.001 -42l56 24v-667h47v-8h-176v8h52v544c-20.667 6.66699 -31 20.667 -31 42c0 11.333 2.33301 21.666 7 30.999
c1.33301 3.33301 2.5 6 3.5 8l2.5 5c1.33301 4 2 7.33301 2 10c0 11.333 -4.83301 20.5 -14.5 27.5s-22.834 10.5 -39.501 10.5c-67.333 0 -101 -33.333 -101 -100c0 -15.333 1 -28.333 3 -39c0.666992 -0.666992 3 -11.667 7 -33c2 -9.33301 3.66699 -17.5 5 -24.5
s2.33301 -14.833 3 -23.5s1.33398 -18.834 2.00098 -30.501s1 -26.167 1 -43.5v-10h54v-8h-53v-366h48v-9h-183v8z" />
    <glyph glyph-name=".notdef" 
 />
    <glyph glyph-name="space" unicode=" " horiz-adv-x="250" 
 />
    <glyph glyph-name="exclam" unicode="!" horiz-adv-x="251" 
d="M121 0c-14 0 -24.999 5 -32.999 15s-12 24 -12 42s3.83301 32 11.5 42s18.5 15 32.5 15c13.333 0 23.666 -5.33301 30.999 -16s11 -24.667 11 -42c0 -37.333 -13.667 -56 -41 -56zM117.001 139l-6.99805 130.999c-0.666992 16 -1.66699 32.333 -3 49s-2.83301 34 -4.5 52
s-3.83398 37.333 -6.50098 58l-9 68l-5.5 40l-4.5 33c-1.33301 8 -2.33301 15.667 -3 23s-1 14.333 -1 21c0 16.667 5 30.167 15 40.5s23 15.5 39 15.5c15.333 0 27.666 -5 36.999 -15s14 -22.667 14 -38c0 -12 -2 -28 -6 -48c-1.33301 -6 -2.83301 -14.833 -4.5 -26.5
l-6.5 -43.5c-3.33301 -21.333 -5.83301 -38.5 -7.5 -51.5l-3.5 -27.5c-3.33301 -21.333 -8.33301 -70.666 -15 -147.999c-2.66699 -32 -4.66699 -59 -6 -81s-2 -39.333 -2 -52v-6h-10v6z" />
    <glyph glyph-name="quotedbl" unicode="&#x22;" horiz-adv-x="337" 
d="M89 394l-11 272h57l-11 -272h-35zM212 394l-11 272h57l-11 -272h-35z" />
    <glyph glyph-name="numbersign" unicode="#" horiz-adv-x="579" 
d="M507 223h-112l-34 -223h-44l34 223h-147l-35 -223h-43l34 223h-113l1 43h118l23 147h-113l1 43h118l32 210h44l-32 -210h148l32 210h44l-32 -210h106l-2 -43h-111l-22 -147h107zM233 413l-23 -147h148l22 147h-147z" />
    <glyph glyph-name="dollar" unicode="$" horiz-adv-x="535" 
d="M235 -6c-12 1.33301 -22.0029 2.49707 -30.0029 3.49707s-15.167 2.16699 -21.5 3.5s-12.666 2.83301 -18.999 4.5s-13.833 4.16699 -22.5 7.5c-29.333 11.333 -52.666 28.5 -69.999 51.5s-26 48.5 -26 76.5c0 20.667 5.66699 37.834 17 51.501s25.666 20.5 42.999 20.5
c14.667 0 27 -5 37 -15s15 -22.333 15 -37c0 -13.333 -4.5 -24.5 -13.5 -33.5s-19.833 -13.5 -32.5 -13.5c-6 0 -11.333 0.833008 -16 2.5s-9.66699 5.16699 -15 10.5c-2.66699 -7.33301 -4 -13.666 -4 -18.999c0 -26.667 13.667 -49.5 41 -68.5s64 -30.833 110 -35.5h7v292
l-6 3c-31.333 12 -57.666 24.333 -78.999 37s-38.666 26.167 -51.999 40.5s-23 30 -29 47s-9 35.833 -9 56.5c0 50 15.667 90.667 47 122s74 49 128 53v34h21v-33c52.667 -4 93.667 -16.667 123 -38s44 -49.333 44 -84c0 -19.333 -4.66699 -35.166 -14 -47.499
s-21.666 -18.5 -36.999 -18.5c-12.667 0 -23.334 4.16699 -32.001 12.5s-13 18.5 -13 30.5c0 11.333 4 21 12 29s17.667 12 29 12s20.666 -4 27.999 -12c3.33301 4 5 8.33301 5 13c0 12 -3.66699 23.333 -11 34s-17.5 20.167 -30.5 28.5s-28.333 15.166 -46 20.499
s-36.834 8.66602 -57.501 9.99902v-262c42 -15.333 77.333 -30.166 106 -44.499s51.5 -29.5 68.5 -45.5s29.167 -33.167 36.5 -51.5s11 -39.5 11 -63.5c0 -26.667 -5.33301 -51 -16 -73s-25.667 -41 -45 -57s-42.666 -28.667 -69.999 -38s-57.666 -14.666 -90.999 -15.999
v-43h-21v42zM259.997 2.99707c48 0 85.833 11.5 113.5 34.5s41.5 54.167 41.5 93.5c0 54.667 -28 96 -84 124c-17.333 8.66699 -39 18 -65 28l-10 4v-284h4zM234.997 645.997c-38 -2 -69.167 -13.668 -93.5 -35.001s-36.5 -47.666 -36.5 -78.999
c0 -64.667 43.333 -110.667 130 -138v252z" />
    <glyph glyph-name="percent" unicode="%" horiz-adv-x="701" 
d="M581 677h20l-480 -677h-21zM508 -11h-7.00195c-21.333 0 -41 4.16699 -59 12.5s-33.833 19.833 -47.5 34.5s-24.334 31.834 -32.001 51.501s-11.5 40.834 -11.5 63.501c0 25.333 4.33301 49.333 13 72s20.334 42.5 35.001 59.5s31.667 30.5 51 40.5s40 15 62 15
c20 0 39.333 -4.66699 58 -14s35.167 -21.833 49.5 -37.5s25.666 -33.834 33.999 -54.501s12.5 -42.334 12.5 -65.001c0 -23.333 -4.16699 -45.5 -12.5 -66.5s-19.666 -39.5 -33.999 -55.5s-31.166 -29 -50.499 -39s-39.666 -15.667 -60.999 -17zM181.998 324
c-20 0 -38.8311 4.5 -56.498 13.5s-33.334 21.333 -47.001 37s-24.5 33.667 -32.5 54s-12 41.833 -12 64.5c0 25.333 4.33301 49.333 13 72s20.5 42.5 35.5 59.5s32.167 30.5 51.5 40.5s40 15 62 15c21.333 0 41.166 -4.33301 59.499 -13s34.333 -20.5 48 -35.5
s24.5 -32.833 32.5 -53.5s12 -42.667 12 -66c0 -25.333 -4.5 -49.333 -13.5 -72s-21 -42.667 -36 -60s-32.667 -31 -53 -41s-41.5 -15 -63.5 -15zM508 -4c32 1.33301 54.667 14.6689 68 40.002s20 67.666 20 126.999c0 61.333 -6.66699 104.333 -20 129
s-36.666 37 -69.999 37c-30 0 -51.833 -13.333 -65.5 -40s-20.5 -68.334 -20.5 -125.001c0 -58.667 6.66699 -101.5 20 -128.5s34.666 -40.5 63.999 -40.5zM187 332.003c32.667 1.33301 56.333 15.833 71 43.5s22 71.167 22 130.5c0 60 -7 103 -21 129s-37.333 39 -70 39
c-58.667 0 -88 -55 -88 -165c0 -62 6.5 -107 19.5 -135s33.833 -42 62.5 -42h4z" />
    <glyph glyph-name="ampersand" unicode="&#x26;" horiz-adv-x="681" 
d="M206 403c-31.333 50.667 -46.999 95.668 -46.999 135.001c0 16 3.16699 31.167 9.5 45.5s15 27 26 38s23.667 19.667 38 26s29.5 9.5 45.5 9.5c13.333 0 26 -2.5 38 -7.5s22.5 -11.833 31.5 -20.5s16.167 -18.834 21.5 -30.501s8 -23.834 8 -36.501
c0 -24.667 -7.5 -47 -22.5 -67s-39.5 -40.667 -73.5 -62l5 -7l83 -120l95 -128l9 -13c8.66699 19.333 15 39.833 19 61.5s6.33301 44.834 7 69.501l2 123h-43v8h115v-8l-61 -1l-2 -115c-1.33301 -30 -4.33301 -58 -9 -84s-11.334 -48 -20.001 -66l40 -53
c0.666992 -1.33301 1.16699 -2 1.5 -2s0.833008 -0.666992 1.5 -2c14 -22 29.5 -39 46.5 -51s33.5 -18 49.5 -18c7.33301 0 13.333 1.66699 18 5s9.33398 9.66602 14.001 18.999l6 -2c-16 -37.333 -47 -56 -93 -56c-11.333 0 -22 1.33301 -32 4s-20 7.16699 -30 13.5
s-20.167 14.833 -30.5 25.5s-21.5 23.667 -33.5 39l-4 6c-30.667 -30 -62.167 -52.167 -94.5 -66.5s-66.833 -21.5 -103.5 -21.5c-28 0 -54.167 4.66699 -78.5 14s-45.833 22 -64.5 38s-33.334 34.833 -44.001 56.5s-16 44.834 -16 69.501c0 84.667 55.333 160.667 166 228z
M427.001 87.001c-16.667 19.333 -32.666 39 -47.999 59l-47.5 64.5l-51.5 75l-59 91.5l-11 17l-33 -21c-31.333 -20 -53.5 -40.667 -66.5 -62s-19.5 -47.333 -19.5 -78c0 -38 9.66699 -73.667 29 -107s47 -60.666 83 -81.999c31.333 -19.333 61 -29 89 -29
c21.333 0 42.666 5.66699 63.999 17s45 29.666 71 54.999zM275.002 441.001c30 17.333 53 35.9971 69 55.9971s24 40.667 24 62c0 12 -2.5 23.5 -7.5 34.5s-11.667 20.667 -20 29s-18 14.833 -29 19.5s-22.5 7 -34.5 7c-22.667 0 -40.5 -6.16699 -53.5 -18.5
s-19.5 -29.166 -19.5 -50.499c0 -13.333 2.33301 -26.166 7 -38.499s13 -27.166 25 -44.499l6 -8z" />
    <glyph glyph-name="quotesingle" unicode="'" horiz-adv-x="168" 
d="M66 394l-11 272h58l-12 -272h-35z" />
    <glyph glyph-name="parenleft" unicode="(" horiz-adv-x="220" 
d="M184 0c-22.667 17.333 -43.167 38.499 -61.5 63.499s-34 52.167 -47 81.5s-23.167 60.333 -30.5 93s-11 65.667 -11 99c0 130.667 49.667 242 149 334l6 -4c-10.667 -12 -19.667 -22.667 -27 -32s-13.5 -18.333 -18.5 -27s-9.33301 -17.5 -13 -26.5
s-7.16699 -19.167 -10.5 -30.5c-9.33301 -31.333 -17.333 -85.666 -24 -162.999c-0.666992 -2 -1 -5.33301 -1 -10v-65v-10c0 -37.333 1.5 -70.333 4.5 -99s8.33301 -54.5 16 -77.5s17.5 -44.333 29.5 -64s27 -39.167 45 -58.5z" />
    <glyph glyph-name="parenright" unicode=")" horiz-adv-x="220" 
d="M30 5c18 18.667 32.999 37.833 44.999 57.5s21.667 41 29 64s12.666 48.833 15.999 77.5s5 61.667 5 99v10v65c-0.666992 2 -1 5.33301 -1 10c-7.33301 76.667 -15.333 131 -24 163c-3.33301 10.667 -6.66602 20.5 -9.99902 29.5s-7.66602 18 -12.999 27
s-11.833 18.167 -19.5 27.5l-27.5 32l7 4c98.667 -92 148 -203.333 148 -334c0 -33.333 -3.66699 -66.333 -11 -99s-17.5 -63.667 -30.5 -93s-28.667 -56.5 -47 -81.5s-38.5 -46.167 -60.5 -63.5z" />
    <glyph glyph-name="asterisk" unicode="*" horiz-adv-x="333" 
d="M174 598c-0.666992 -3.33301 -1 -6.33203 -1 -8.99902c0 -6.66699 2.33301 -10 7 -10c2.66699 0 5.33398 1.33301 8.00098 4l6 5l22 20c10 9.33301 16.333 15 19 17s5.66699 3 9 3c6 0 11.167 -2.16699 15.5 -6.5s6.5 -9.83301 6.5 -16.5
c0 -9.33301 -7 -15.666 -21 -18.999l-23 -7l-21 -7c-9.33301 -2.66699 -14 -6 -14 -10c0 -5.33301 7 -10 21 -14l26 -7c14.667 -4.66699 23.834 -8.16699 27.501 -10.5s5.5 -6.83301 5.5 -13.5c0 -8 -3.33301 -14 -10 -18c-4 -2.66699 -7.33301 -4 -10 -4
c-7.33301 0 -15.666 5.66699 -24.999 17c-3.33301 4 -6.5 7.33301 -9.5 10s-5.5 4.66699 -7.5 6l-14 11c-5.33301 3.33301 -9 5 -11 5c-5.33301 0 -8 -4 -8 -12c0 -2.66699 0.166992 -5.33398 0.5 -8.00098s0.833008 -5.66699 1.5 -9l8 -29
c1.33301 -6.66699 2 -11.667 2 -15c0 -14 -6.33301 -21 -19 -21c-14 0 -21 7.33301 -21 22c0 4 0.666992 8.5 2 13.5s4.33301 13.833 9 26.5c2.66699 8.66699 4 15.667 4 21c0 7.33301 -2 11 -6 11c-2.66699 0 -6 -1.33301 -10 -4l-14 -11l-16 -18
c-10 -11.333 -19 -17 -27 -17c-6.66699 0 -12.334 3.66699 -17.001 11c-2.66699 4 -4 8 -4 12c0 10.667 8.33301 18 25 22c22 5.33301 36.5 9.5 43.5 12.5s10.5 6.83301 10.5 11.5c0 3.33301 -0.833008 5.66602 -2.5 6.99902s-5.5 2.66602 -11.5 3.99902
c-1.33301 0 -6 1.66699 -14 5c-3.33301 1.33301 -6.83301 2.5 -10.5 3.5s-7.16699 2.16699 -10.5 3.5c-18.667 4 -28 11.333 -28 22c0 6 2 11 6 15s8.66699 6 14 6c4.66699 0 8.66699 -1.16699 12 -3.5s7.66602 -6.5 12.999 -12.5c7.33301 -9.33301 14.833 -17 22.5 -23
s13.5 -9 17.5 -9c4.66699 0 7 3 7 9v4.5c0 1.66699 -0.333008 3.83398 -1 6.50098l-2 11c-0.666992 1.33301 -1.33398 3.5 -2.00098 6.5s-2 7.16699 -4 12.5c-2 8 -3 15.333 -3 22c0 6 1.83301 11.167 5.5 15.5s8.16699 6.5 13.5 6.5c13.333 0 20 -7.33301 20 -22
c0 -3.33301 -0.166992 -6.33301 -0.5 -9s-0.833008 -5.66699 -1.5 -9l-6 -20z" />
    <glyph glyph-name="plus" unicode="+" 
d="M226 365v201h47v-201h216v-47h-215v-201h-47v201h-216v47h215z" />
    <glyph glyph-name="comma" unicode="," horiz-adv-x="196" 
d="M53 -116l5 1.00098c54 17.333 81 48 81 92c0 10 -1 19.167 -3 27.5s-4.66699 14.166 -8 17.499c-11.333 -14.667 -24.666 -22 -39.999 -22c-13.333 0 -24.333 5 -33 15s-13 22.667 -13 38c0 16 4.83301 29.333 14.5 40s22.167 16 37.5 16
c19.333 0 34.166 -9.16699 44.499 -27.5s15.5 -44.5 15.5 -78.5s-7.66699 -61 -23 -81s-40.333 -35.333 -75 -46z" />
    <glyph glyph-name="hyphen" unicode="-" horiz-adv-x="284" 
d="M33 247h218v-30h-218v30z" />
    <glyph glyph-name="hyphen" unicode="&#xad;" horiz-adv-x="284" 
d="M33 247h218v-30h-218v30z" />
    <glyph glyph-name="period" unicode="." horiz-adv-x="211" 
d="M106 -2c-14 0 -25.334 5.33301 -34.001 16s-13 25 -13 43c0 19.333 4.33301 34.833 13 46.5s19.667 17.5 33 17.5s24.333 -5.83301 33 -17.5s13 -26.834 13 -45.501c0 -17.333 -4.16699 -31.666 -12.5 -42.999s-19.166 -17 -32.499 -17z" />
    <glyph glyph-name="slash" unicode="/" horiz-adv-x="577" 
d="M570 684l7 -5l-571 -686l-6 6z" />
    <glyph glyph-name="zero" unicode="0" horiz-adv-x="473" 
d="M238 0c-28 0 -54.168 7.99902 -78.501 23.999s-45.666 38 -63.999 66s-32.666 60.833 -42.999 98.5s-15.5 78.167 -15.5 121.5c0 42.667 5.33301 83.334 16 122.001s25 72.5 43 101.5s39 52 63 69s49.667 25.5 77 25.5c26.667 0 52.167 -8.5 76.5 -25.5
s45.666 -40 63.999 -69s32.833 -62.5 43.5 -100.5s16 -78 16 -120c0 -40 -5.5 -78.833 -16.5 -116.5s-25.667 -71 -44 -100s-39.5 -52.333 -63.5 -70s-48.667 -26.5 -74 -26.5zM238.999 8.99902c39.333 0 67.833 24 85.5 72s26.5 125.667 26.5 233c0 56 -2 103.5 -6 142.5
s-10.5 70.5 -19.5 94.5s-20.5 41.333 -34.5 52s-31.333 16 -52 16c-40 0 -69.167 -25.833 -87.5 -77.5s-27.5 -132.5 -27.5 -242.5c0 -54 2 -99.5 6 -136.5s10.5 -66.833 19.5 -89.5s20.833 -39 35.5 -49s32.667 -15 54 -15z" />
    <glyph glyph-name="one" unicode="1" horiz-adv-x="473" 
d="M128 8h89v570l-99 -208l-8 4l111 234h77v-599h100v-9h-270v8z" />
    <glyph glyph-name="two" unicode="2" horiz-adv-x="473" 
d="M33 -2c10.667 16 20.834 30.3291 30.501 42.9961s20 25.5 31 38.5l37.5 43l52 55.5c28 28.667 51.5 54.834 70.5 78.501s34.333 46.5 46 68.5s20 43.667 25 65s7.5 43.666 7.5 66.999c0 46.667 -11 82.834 -33 108.501s-53.333 38.5 -94 38.5
c-20 0 -39 -3.83301 -57 -11.5s-33.833 -18.167 -47.5 -31.5s-24.5 -28.666 -32.5 -45.999s-12 -35.333 -12 -54c0 -12 4.16699 -22.167 12.5 -30.5s18.166 -12.5 29.499 -12.5c2.66699 0 6.66699 0.666992 12 2c1.33301 0.666992 2.66602 1.5 3.99902 2.5
s3.66602 2.16699 6.99902 3.5c6.66699 3.33301 14 5 22 5c11.333 0 21 -4.33301 29 -13s12 -19.667 12 -33c0 -14 -5.66699 -26 -17 -36s-25 -15 -41 -15c-23.333 0 -42.833 10 -58.5 30s-23.5 45.333 -23.5 76c0 25.333 4.33301 48.5 13 69.5s20.834 39.167 36.501 54.5
s34.167 27.333 55.5 36s45 13 71 13s50.667 -4.5 74 -13.5s43.833 -21.167 61.5 -36.5s31.667 -33.166 42 -53.499s15.5 -41.833 15.5 -64.5c0 -20 -2.5 -38.667 -7.5 -56s-13.5 -34.5 -25.5 -51.5s-28.167 -35 -48.5 -54s-45.833 -40.5 -76.5 -64.5
c-35.333 -27.333 -64.5 -51.333 -87.5 -72s-41.5 -39.667 -55.5 -57c-0.666992 -1.33301 -1.66699 -2.66602 -3 -3.99902s-3 -3.66602 -5 -6.99902l26.5 3.5c7.66699 1 15.334 1.66699 23.001 2s15.834 0.666016 24.501 0.999023s19.334 0.5 32.001 0.5
c19.333 0 35.833 -0.166992 49.5 -0.5s26.167 -1 37.5 -2s22.666 -2.66699 33.999 -5l40 -8.5l22 55l10 -3l-46 -130l-45 13.5c-12.667 3.66699 -25 6.5 -37 8.5s-24.333 3.33301 -37 4s-27.667 1 -45 1c-32 0 -63.333 -2.5 -94 -7.5s-54.334 -11.167 -71.001 -18.5z" />
    <glyph glyph-name="three" unicode="3" horiz-adv-x="473" 
d="M138 324l4.99512 0.993164c42 10.667 77.167 23.834 105.5 39.501s48.833 33.834 61.5 54.501c12 18.667 18 46.334 18 83.001c0 72 -36.333 108 -109 108c-30 0 -54.5 -6.33301 -73.5 -19s-28.5 -28.667 -28.5 -48c0 -7.33301 1.5 -13.166 4.5 -17.499
s8.16699 -9.83301 15.5 -16.5c7.33301 -6 12.166 -11.167 14.499 -15.5s3.5 -9.5 3.5 -15.5c0 -10.667 -4 -19.5 -12 -26.5s-17.667 -10.5 -29 -10.5c-15.333 0 -27.833 5.5 -37.5 16.5s-14.5 25.5 -14.5 43.5c0 17.333 4 33.166 12 47.499s19 26.666 33 36.999
s31 18.333 51 24s42 8.5 66 8.5c26 0 49.833 -3.5 71.5 -10.5s40.5 -16.5 56.5 -28.5s28.5 -26.333 37.5 -43s13.5 -34.667 13.5 -54s-3.33301 -36.333 -10 -51s-18 -27.667 -34 -39s-37.167 -21.666 -63.5 -30.999s-59.5 -18.666 -99.5 -27.999c14 0 26 -0.333008 36 -1
s19 -1.66699 27 -3s15.833 -3.16602 23.5 -5.49902s16.5 -5.16602 26.5 -8.49902c34.667 -12 62.667 -31.833 84 -59.5s32 -58.167 32 -91.5c0 -24.667 -5.66699 -47.834 -17 -69.501s-26.666 -40.5 -45.999 -56.5s-42 -28.5 -68 -37.5s-54 -13.5 -84 -13.5
c-25.333 0 -48.666 3.5 -69.999 10.5s-39.666 16.833 -54.999 29.5s-27.5 27.834 -36.5 45.501s-13.5 36.834 -13.5 57.501c0 20 5.33301 36.333 16 49s24.334 19 41.001 19c14.667 0 27.167 -5 37.5 -15s15.5 -22 15.5 -36c0 -9.33301 -1.33301 -16.5 -4 -21.5
s-9 -11.167 -19 -18.5c-15.333 -12.667 -23 -25.667 -23 -39c0 -20 10 -37 30 -51s44.333 -21 73 -21c43.333 0 77.833 15.167 103.5 45.5s38.5 70.833 38.5 121.5s-11.5 90.167 -34.5 118.5s-55.167 42.5 -96.5 42.5c-9.33301 0 -19.666 -0.5 -30.999 -1.5
s-23.666 -3.16699 -36.999 -6.5h-6z" />
    <glyph glyph-name="four" unicode="4" horiz-adv-x="473" 
d="M230 8h60v169l-270 -2l205 430h122l-312 -420l255 1v157l83 37v-193h69v-9h-68v-169h66v-9h-210v8z" />
    <glyph glyph-name="five" unicode="5" horiz-adv-x="473" 
d="M90 338l0.00195312 281.002c12.667 -4.66699 24 -8.5 34 -11.5s19.833 -5.33301 29.5 -7s20.167 -2.83398 31.5 -3.50098s25 -1 41 -1c16.667 0 30.834 0.333008 42.501 1s22.5 2 32.5 4s19.833 4.66699 29.5 8s20.834 7.66602 33.501 12.999
c-4.66699 -9.33301 -9 -16.333 -13 -21s-11 -11.334 -21 -20.001c-12.667 -10 -25 -18.667 -37 -26s-24.667 -13.166 -38 -17.499s-27.666 -7.5 -42.999 -9.5s-32 -3 -50 -3c-12.667 0 -22.834 0.333008 -30.501 1s-18.5 1.66699 -32.5 3l-2 -169
c27.333 46.667 67.666 70 120.999 70c28 0 54.167 -5.66699 78.5 -17s45.5 -26.833 63.5 -46.5s32.333 -42.5 43 -68.5s16 -53.667 16 -83c0 -31.333 -5.66699 -60.5 -17 -87.5s-27 -50.5 -47 -70.5s-43.333 -35.667 -70 -47s-55 -17 -85 -17c-20.667 0 -40 3.5 -58 10.5
s-33.667 16.5 -47 28.5s-23.833 26.333 -31.5 43s-11.5 34.667 -11.5 54s5.33301 35.333 16 48s24 19 40 19c13.333 0 25.166 -5 35.499 -15s15.5 -21.667 15.5 -35c0 -8 -1.83301 -14.833 -5.5 -20.5s-10.167 -11.834 -19.5 -18.501
c-11.333 -7.33301 -18.833 -13.666 -22.5 -18.999s-5.5 -12.333 -5.5 -21c0 -19.333 8.83301 -35.333 26.5 -48s39.5 -19 65.5 -19c22 -0 42 4.83301 60 14.5s33.167 23.5 45.5 41.5s22 39.833 29 65.5s10.5 54.5 10.5 86.5c0 30.667 -3.16699 59.167 -9.5 85.5
s-15.333 49 -27 68s-25.334 33.833 -41.001 44.5s-32.5 16 -50.5 16c-12.667 0 -25.167 -2.16699 -37.5 -6.5s-23.833 -10.333 -34.5 -18s-19.834 -16.5 -27.501 -26.5s-13.167 -21 -16.5 -33h-9z" />
    <glyph glyph-name="six" unicode="6" horiz-adv-x="473" 
d="M118 251c17.333 46.667 37.8281 80.8369 61.4951 102.504s52.834 32.5 87.501 32.5c24.667 0 47.667 -4.83301 69 -14.5s39.833 -23 55.5 -40s28 -37.167 37 -60.5s13.5 -48.333 13.5 -75c0 -28.667 -5 -55.5 -15 -80.5s-23.667 -47 -41 -66s-37.666 -34 -60.999 -45
s-48 -16.5 -74 -16.5c-30.667 0 -59.167 7.83301 -85.5 23.5s-49.166 37.167 -68.499 64.5s-34.5 59.666 -45.5 96.999s-16.5 77.666 -16.5 120.999c0 46 6.16699 88.667 18.5 128s29.5 73.333 51.5 102s48 51 78 67s62.667 24 98 24c18.667 0 36 -2.83301 52 -8.5
s29.833 -13.334 41.5 -23.001s20.834 -21.167 27.501 -34.5s10 -27.666 10 -42.999c0 -18.667 -5.16699 -34 -15.5 -46s-23.166 -18 -38.499 -18c-13.333 0 -24.666 4.66699 -33.999 14s-14 20.666 -14 33.999s6.33301 26 19 38c9.33301 8 15.5 14.333 18.5 19
s4.5 9.66699 4.5 15c0 12.667 -6.83301 23.167 -20.5 31.5s-30.834 12.5 -51.501 12.5c-75.333 0 -123.666 -52.667 -144.999 -158c-2.66699 -15.333 -5.16699 -30.833 -7.5 -46.5l-6.5 -45.5c-2 -14.667 -3.5 -28.5 -4.5 -41.5s-1.5 -24.5 -1.5 -34.5
c0 -7.33301 0.166992 -12.333 0.5 -15s1.16602 -7.33398 2.49902 -14.001zM246.995 -2.99707c37.333 0 66.001 17.6689 86.001 53.002s30 86.333 30 153c0 57.333 -8.33301 100.666 -25 129.999s-41.334 44 -74.001 44c-20 0 -38.667 -5 -56 -15s-32.333 -23.833 -45 -41.5
s-22.667 -38.5 -30 -62.5s-11 -50 -11 -78c0 -56.667 11.167 -101.334 33.5 -134.001s52.833 -49 91.5 -49z" />
    <glyph glyph-name="seven" unicode="7" horiz-adv-x="473" 
d="M207 179c0.666992 1.33301 1.50098 2.83105 2.50098 4.49805s2.16699 3.83398 3.5 6.50098s6.16602 11.167 14.499 25.5l35.5 62.5c8 13.333 18.833 33 32.5 59l50.5 96c18.667 36.667 32.334 65.334 41.001 86.001c0 -0.666992 1.33301 2.33301 4 9
c-13.333 -3.33301 -24.833 -6 -34.5 -8s-19.334 -3.5 -29.001 -4.5s-20.167 -1.66699 -31.5 -2s-24.666 -0.5 -39.999 -0.5c-56.667 0 -115.334 4 -176.001 12l-11 2l-9 -69l-9 1l16 152l9 -1c32 -5.33301 63.833 -9.33301 95.5 -12s63.167 -4 94.5 -4
c19.333 0 36 0.333008 50 1s27 1.66699 39 3s24 3.5 36 6.5s26 6.83301 42 11.5l-71 -184c-2.66699 -5.33301 -6 -15 -10 -29l-27 -79c-6.66699 -19.333 -11 -32.333 -13 -39l-46 -148l-26.5 -89l-11.5 -39c-0.666992 -0.666992 -1 -1.66699 -1 -3
s-0.166992 -2.33301 -0.5 -3s-0.5 -1.66699 -0.5 -3h-123z" />
    <glyph glyph-name="eight" unicode="8" horiz-adv-x="473" 
d="M192 313c-5.33301 2 -9.33398 3.99902 -12.001 5.99902c-24 11.333 -44.167 22.333 -60.5 33s-29.5 21.667 -39.5 33s-17 23.5 -21 36.5s-6 27.5 -6 43.5c0 22 4.83301 42.333 14.5 61s22.834 35 39.501 49s36.334 25 59.001 33s47 12 73 12c24 0 46.667 -3.5 68 -10.5
s39.833 -16.5 55.5 -28.5s28 -26.333 37 -43s13.5 -34.334 13.5 -53.001c0 -62.667 -41.333 -105.667 -124 -129c2.66699 -1.33301 5 -2.66602 7 -3.99902s3.66699 -2.33301 5 -3c28 -16 51.167 -30.833 69.5 -44.5s32.833 -27.334 43.5 -41.001s18.167 -28.167 22.5 -43.5
s6.5 -32.666 6.5 -51.999c0 -25.333 -5.33301 -48.333 -16 -69s-25.667 -38.667 -45 -54s-42.333 -27.166 -69 -35.499s-56 -12.5 -88 -12.5c-28 0 -54 3.83301 -78 11.5s-44.833 18.167 -62.5 31.5s-31.334 29.5 -41.001 48.5s-14.5 39.5 -14.5 61.5
c0 74 51.333 127.333 154 160zM199.999 308.999c-2 -1.33301 -4.33496 -2.00195 -7.00195 -2.00195c-43.333 -15.333 -74.166 -34.166 -92.499 -56.499s-27.5 -52.166 -27.5 -89.499c0 -47.333 14.167 -85.333 42.5 -114s66.5 -43 114.5 -43
c23.333 0 44.833 2.83301 64.5 8.5s36.834 13.5 51.501 23.5s26 22 34 36s12 29 12 45c0 62 -43.667 115.333 -131 160l-7 4zM276.997 359.997c28 6.66699 50.668 21.668 68.001 45.001s26 50.666 26 81.999c0 39.333 -11.833 70.166 -35.5 92.499s-56.5 33.5 -98.5 33.5
c-40.667 0 -73.334 -8.66699 -98.001 -26s-37 -40.666 -37 -69.999c0 -27.333 8.83301 -50.833 26.5 -70.5s47.5 -39.167 89.5 -58.5c1.33301 -1.33301 2.5 -2 3.5 -2s2.16699 -0.333008 3.5 -1z" />
    <glyph glyph-name="nine" unicode="9" horiz-adv-x="473" 
d="M355 361c-15.333 -40.667 -35.9951 -72.1709 -61.9951 -94.5039s-55.667 -33.5 -89 -33.5c-24 0 -46.333 5 -67 15s-38.834 23.833 -54.501 41.5s-27.834 38.5 -36.501 62.5s-13 50 -13 78s5 54 15 78s23.5 45 40.5 63s37 32.167 60 42.5s47.833 15.5 74.5 15.5
c32 0 61 -7.16699 87 -21.5s48.333 -34.5 67 -60.5s33 -57.5 43 -94.5s15 -78.167 15 -123.5c0 -124.667 -33 -216 -99 -274c-21.333 -19.333 -44.833 -34.166 -70.5 -44.499s-51.5 -15.5 -77.5 -15.5c-18 0 -35.333 3.33301 -52 10s-31.334 15.667 -44.001 27
s-22.834 24.333 -30.501 39s-11.5 30.334 -11.5 47.001c0 17.333 4.66699 31.5 14 42.5s21.666 16.5 36.999 16.5c14 0 25.667 -4.83301 35 -14.5s14 -21.5 14 -35.5c0 -15.333 -7 -28 -21 -38c-7.33301 -5.33301 -12.333 -9.66602 -15 -12.999s-4 -7.66602 -4 -12.999
c0 -16 8.33301 -29.833 25 -41.5s36 -17.5 58 -17.5c40.667 0 74.5 16 101.5 48s44.167 77 51.5 135c2 14 3.5 27 4.5 39s1.83301 24.167 2.5 36.5s1.16699 25.5 1.5 39.5s0.5 30 0.5 48v11zM207.005 243.996c19.333 0 37.8301 5 55.4971 15s33.167 23.333 46.5 40
s23.833 36.167 31.5 58.5s11.5 45.833 11.5 70.5c0 16 -1.33301 32.333 -4 49s-6.16699 32.334 -10.5 47.001s-9.66602 28.167 -15.999 40.5s-13.166 22.166 -20.499 29.499s-18.666 13.5 -33.999 18.5s-30 7.5 -44 7.5c-74.667 0 -112 -67.667 -112 -203
c0 -115.333 32 -173 96 -173z" />
    <glyph glyph-name="colon" unicode=":" horiz-adv-x="211" 
d="M106 266c-14 0 -25.333 5.33301 -34 16s-13 25 -13 43c0 19.333 4.33301 34.833 13 46.5s20 17.5 34 17.5c13.333 0 24.166 -5.83301 32.499 -17.5s12.5 -26.834 12.5 -45.501c0 -17.333 -4.16699 -31.666 -12.5 -42.999s-19.166 -17 -32.499 -17zM106 -2
c-14 0 -25.334 5.33301 -34.001 16s-13 25 -13 43c0 19.333 4.33301 34.833 13 46.5s19.667 17.5 33 17.5s24.333 -5.83301 33 -17.5s13 -26.834 13 -45.501c0 -17.333 -4.16699 -31.666 -12.5 -42.999s-19.166 -17 -32.499 -17z" />
    <glyph glyph-name="semicolon" unicode=";" horiz-adv-x="196" 
d="M53 -116l5.00195 1c54 18 81 49.667 81 95c0 14 -3.66699 28.333 -11 43c-9.33301 -15.333 -23 -23 -41 -23c-12.667 0 -23.334 5 -32.001 15s-13 22.667 -13 38c0 16 4.83301 29.333 14.5 40s22.167 16 37.5 16c19.333 0 34.166 -9.16699 44.499 -27.5
s15.5 -44.5 15.5 -78.5s-7.66699 -61 -23 -81s-40.333 -35.333 -75 -46zM93.002 267c-14 0 -25.333 5.5 -34 16.5s-13 25.5 -13 43.5c0 19.333 4.33301 34.833 13 46.5s20 17.5 34 17.5c13.333 0 24.166 -6 32.499 -18s12.5 -27 12.5 -45s-4.16699 -32.667 -12.5 -44
s-19.166 -17 -32.499 -17z" />
    <glyph glyph-name="semicolon" unicode="&#x37e;" horiz-adv-x="196" 
d="M53 -116l5.00195 1c54 18 81 49.667 81 95c0 14 -3.66699 28.333 -11 43c-9.33301 -15.333 -23 -23 -41 -23c-12.667 0 -23.334 5 -32.001 15s-13 22.667 -13 38c0 16 4.83301 29.333 14.5 40s22.167 16 37.5 16c19.333 0 34.166 -9.16699 44.499 -27.5
s15.5 -44.5 15.5 -78.5s-7.66699 -61 -23 -81s-40.333 -35.333 -75 -46zM93.002 267c-14 0 -25.333 5.5 -34 16.5s-13 25.5 -13 43.5c0 19.333 4.33301 34.833 13 46.5s20 17.5 34 17.5c13.333 0 24.166 -6 32.499 -18s12.5 -27 12.5 -45s-4.16699 -32.667 -12.5 -44
s-19.166 -17 -32.499 -17z" />
    <glyph glyph-name="less" unicode="&#x3c;" 
d="M489 521l-419 -181l419 -185v-50l-478 209v51l478 206v-50z" />
    <glyph glyph-name="equal" unicode="=" 
d="M489 437v-47h-478v47h478zM489 294v-47h-478v47h478z" />
    <glyph glyph-name="greater" unicode="&#x3e;" 
d="M11 155l418 179l-418 186v51l478 -210v-51l-478 -206v51z" />
    <glyph glyph-name="question" unicode="?" horiz-adv-x="331" 
d="M76 372c21.333 -33.333 46.3359 -50.001 75.0029 -50.001c21.333 0 38.333 15.167 51 45.5s19 71.5 19 123.5c0 55.333 -7.16699 99.5 -21.5 132.5s-33.5 49.5 -57.5 49.5c-26 0 -39 -10.333 -39 -31c0 -4 0.666992 -7.66699 2 -11s3.66602 -8.33301 6.99902 -15
c6 -11.333 9 -19.333 9 -24c0 -8.66699 -3.5 -16.167 -10.5 -22.5s-15.167 -9.5 -24.5 -9.5c-11.333 0 -20.666 4.16699 -27.999 12.5s-11 18.5 -11 30.5c0 10.667 2.5 20.834 7.5 30.501s12 18 21 25s19.333 12.667 31 17s24.167 6.5 37.5 6.5
c21.333 0 41.166 -5 59.499 -15s34.333 -23.833 48 -41.5s24.5 -38.334 32.5 -62.001s12 -49.167 12 -76.5c0 -24.667 -3.5 -47.667 -10.5 -69s-16.833 -39.666 -29.5 -54.999s-27.334 -27.5 -44.001 -36.5s-35 -13.5 -55 -13.5c-14.667 0 -27.334 2.16699 -38.001 6.5
s-21.667 12.166 -33 23.499v-219c30.667 -7.33301 46 -29.333 46 -66c0 -18 -4.5 -32.667 -13.5 -44s-20.833 -17 -35.5 -17c-16 0 -28.667 5.33301 -38 16s-14 25.334 -14 44.001s3.5 33.167 10.5 43.5s18.167 18.5 33.5 24.5z" />
    <glyph glyph-name="at" unicode="@" horiz-adv-x="714" 
d="M644 132l-28.9971 -35c-8 -9.33301 -15.5 -17.5 -22.5 -24.5s-14 -13.167 -21 -18.5s-14.833 -11 -23.5 -17c-24.667 -16 -51.667 -27.833 -81 -35.5s-61 -11.5 -95 -11.5c-50 0 -96.5 8.5 -139.5 25.5s-80.333 40.833 -112 71.5s-56.334 66.667 -74.001 108
s-26.5 86.666 -26.5 135.999c0 48.667 8.83301 94.167 26.5 136.5s42.167 79 73.5 110s68.166 55.333 110.499 73s88.166 26.5 137.499 26.5c46 0 88.333 -7.33301 127 -22s72.334 -34.667 101.001 -60s51 -55.666 67 -90.999s24 -73.333 24 -114
c0 -56.667 -14 -106.5 -42 -149.5s-67 -74.167 -117 -93.5c-22.667 -8.66699 -42.334 -13 -59.001 -13c-14.667 0 -26.167 4.16699 -34.5 12.5s-12.5 19.833 -12.5 34.5v6.5c0 2.33301 0.333008 4.83301 1 7.5c-28 -38 -64.333 -57 -109 -57c-43.333 0 -78 14.833 -104 44.5
s-39 68.834 -39 117.501c0 30 4.5 57.667 13.5 83s21.5 47.333 37.5 66s34.833 33.167 56.5 43.5s45.5 15.5 71.5 15.5c57.333 0 96.666 -25.333 117.999 -76l13 63h44l-50 -265c-2.66699 -11.333 -4.33398 -19.5 -5.00098 -24.5s-1 -9.16699 -1 -12.5c0 -14 7 -21 21 -21
c9.33301 0 22 3.83301 38 11.5s31.667 17.5 47 29.5c24.667 19.333 44 44.166 58 74.499s21 62.5 21 96.5c0 36.667 -7.16699 70.834 -21.5 102.501s-34.166 59 -59.499 82s-55.5 41 -90.5 54s-72.833 19.5 -113.5 19.5c-43.333 0 -83.666 -8 -120.999 -24
s-69.833 -37.833 -97.5 -65.5s-49.334 -60.334 -65.001 -98.001s-23.5 -78.167 -23.5 -121.5s8 -83.833 24 -121.5s38 -70.5 66 -98.5s61 -50 99 -66s78.667 -24 122 -24c50 0 95.667 11.333 137 34c8 4.66699 15.333 9.33398 22 14.001s13.334 9.66699 20.001 15
s13.667 11.666 21 18.999l26 27h45zM332.003 182c35.333 2 63.501 19 84.501 51s31.5 74 31.5 126c0 32.667 -8.33301 58 -25 76s-40 27 -70 27c-18.667 0 -36 -4 -52 -12s-30 -19 -42 -33s-21.333 -30.667 -28 -50s-10 -40.333 -10 -63c0 -36.667 9.66699 -66.167 29 -88.5
s44.666 -33.5 75.999 -33.5h6z" />
    <glyph glyph-name="A" unicode="A" horiz-adv-x="665" 
d="M0 8h74l237 666h14l246 -666h94v-8h-269v8h76l-75 204h-240l-72 -204h74v-8h-159v8zM394 222l-119 325l-115 -325h234z" />
    <glyph glyph-name="B" unicode="B" horiz-adv-x="581" 
d="M31 8l73 -0.00195312v651h-72v9h239h9c35.333 0 67.333 -4.16699 96 -12.5s53 -20.166 73 -35.499s35.5 -33.833 46.5 -55.5s16.5 -45.834 16.5 -72.501c0 -39.333 -16 -71.166 -48 -95.499s-77.333 -39.166 -136 -44.499c31.333 -4.66699 59.833 -12.667 85.5 -24
s47.667 -25.333 66 -42s32.5 -35.667 42.5 -57s15 -44 15 -68c0 -52.667 -22.5 -92.667 -67.5 -120s-111.167 -41 -198.5 -41h-12h-228v8zM259 7.99805l9.99805 -0.000976562c37.333 0 66.833 3.33301 88.5 10s37.834 17.334 48.501 32.001s19.167 34 25.5 58s9.5 50 9.5 78
c0 40.667 -7.66699 74.5 -23 101.5s-36.666 44.5 -63.999 52.5c-9.33301 2.66699 -19.833 4.5 -31.5 5.5s-24.167 1.5 -37.5 1.5h-9h-75v-339h58zM275.998 355.997l8.00098 0.000976562c35.333 0 61.333 4.5 78 13.5s29.667 25.167 39 48.5c10 24.667 15 51.667 15 81
c0 17.333 -1.83301 35.666 -5.5 54.999s-8.16699 35.333 -13.5 48c-9.33301 20.667 -23.833 35.5 -43.5 44.5s-47.834 13.5 -84.501 13.5h-7h-61v-304h75z" />
    <glyph glyph-name="C" unicode="C" horiz-adv-x="622" 
d="M579 0c-14 11.333 -26.5049 18.9971 -37.5049 22.9971s-23.5 6 -37.5 6c-10 0 -19.333 -1 -28 -3s-19.667 -5.66699 -33 -11c-9.33301 -3.33301 -17.166 -6.33301 -23.499 -9l-14.5 -6c-15.333 -5.33301 -30.166 -9.5 -44.499 -12.5s-27.5 -4.5 -39.5 -4.5
c-23.333 0 -46.833 4.33301 -70.5 13s-46.5 20.5 -68.5 35.5s-42 33 -60 54s-32.667 43.5 -44 67.5c-24.667 52.667 -37 109.334 -37 170.001c0 50 7.83301 96.5 23.5 139.5s37.167 80.333 64.5 112s59.333 56.667 96 75s76.334 27.5 119.001 27.5
c33.333 0 63.333 -8.66699 90 -26l17 -10c7.33301 -4.66699 15.333 -8.16699 24 -10.5s16.667 -3.5 24 -3.5c20 0 39.333 6.33301 58 19v-198l-8 -1c-2 12 -4.16699 22.333 -6.5 31s-5 16.834 -8 24.501s-6.5 15.5 -10.5 23.5s-9 17 -15 27
c-24.667 40.667 -50.667 70.167 -78 88.5s-59.666 27.5 -96.999 27.5c-40 0 -72.333 -11.5 -97 -34.5s-44.667 -60.833 -60 -113.5c-20 -65.333 -30 -133.333 -30 -204c0 -50 4 -95 12 -135s19.333 -74 34 -102s32.5 -49.667 53.5 -65s44.5 -23 70.5 -23
c20.667 0 41.667 3.66699 63 11s41.833 17.666 61.5 30.999s37.834 29.333 54.501 48s30.667 39.334 42 62.001c4.66699 8.66699 8.5 16.334 11.5 23.001s5.66699 13.5 8 20.5s4.5 14.5 6.5 22.5s4.33301 18 7 30h8v-240z" />
    <glyph glyph-name="D" unicode="D" horiz-adv-x="665" 
d="M31 8h73.0029v652h-72v8h246h11c50 0 95.5 -8 136.5 -24s76.167 -38.667 105.5 -68s52.166 -64.5 68.499 -105.5s24.5 -86.5 24.5 -136.5c0 -35.333 -4.5 -69 -13.5 -101s-21.833 -61.333 -38.5 -88s-36.834 -50 -60.501 -70s-49.834 -35.333 -78.501 -46
c-26 -10 -53.333 -17.333 -82 -22s-59 -7 -91 -7h-16h-213v8zM266.003 8l6.99902 0.000976562c31.333 0 59.166 3.66699 83.499 11s45.833 18.5 64.5 33.5s34.334 34.333 47.001 58s23.334 52.167 32.001 85.5c12 48 18 97.333 18 148c0 75.333 -11 138.666 -33 189.999
s-53 86.333 -93 105c-31.333 14.667 -68.333 22 -111 22h-11h-66v-653h62z" />
    <glyph glyph-name="E" unicode="E" horiz-adv-x="643" 
d="M31 8l83.9961 0.000976562v652h-79v8h532v-167h-6v4c0 12.667 -2.16699 25.667 -6.5 39s-10 26 -17 38s-15.167 23.167 -24.5 33.5s-19.333 18.5 -30 24.5c-13.333 8 -26.166 13.5 -38.499 16.5s-28.166 4.5 -47.499 4.5h-184v-313h53h7
c18.667 0 35.834 3.16699 51.501 9.5s29.334 15.666 41.001 27.999s21.167 27 28.5 44s12 36.167 14 57.5h8v-294h-7v5c-0.666992 44 -14 78.667 -40 104s-61.333 38 -106 38h-10h-40v-331h148h12c29.333 0 57 4.66699 83 14s49.167 22.833 69.5 40.5s37 38.5 50 62.5
s21.167 50.667 24.5 80h5v-206h-575v8z" />
    <glyph glyph-name="F" unicode="F" horiz-adv-x="565" 
d="M31 8h80.0029v651h-78v8h509v-181h-9c-1.33301 25.333 -6.83301 48.5 -16.5 69.5s-22.334 39.167 -38.001 54.5s-34.167 27.333 -55.5 36s-44.333 13 -69 13h-11h-135v-312h53h21c17.333 0 34 3.66699 50 11s30 17.333 42 30s21.5 27.5 28.5 44.5s10.5 34.833 10.5 53.5
v5h8v-288h-8c-2.66699 41.333 -15.834 74 -39.501 98s-54.834 36 -93.501 36h-16h-56v-328h77v-9h-254v8z" />
    <glyph glyph-name="G" unicode="G" horiz-adv-x="680" 
d="M579 36c-9.33301 3.33301 -18 5.99707 -26 7.99707s-16.333 3 -25 3c-10.667 0 -21.334 -1.66699 -32.001 -5s-22.667 -8.66602 -36 -15.999l-26 -14c-16.667 -8.66699 -34.167 -15.334 -52.5 -20.001s-36.833 -7 -55.5 -7c-38 0 -74.333 9 -109 27s-65 42.5 -91 73.5
s-46.667 67 -62 108s-23 84.5 -23 130.5c0 46.667 8.16699 91.5 24.5 134.5s38.166 81 65.499 114s58.833 59.5 94.5 79.5s72.834 30 111.501 30c28.667 0 61.334 -11 98.001 -33c13.333 -8 23.833 -13.5 31.5 -16.5s15.167 -4.5 22.5 -4.5c10.667 0 19.834 2.5 27.501 7.5
s16.167 13.833 25.5 26.5v-203h-7c-7.33301 32 -17.5 61.167 -30.5 87.5s-28.333 49 -46 68s-37.167 33.833 -58.5 44.5s-43.333 16 -66 16c-29.333 0 -55.833 -8.66699 -79.5 -26s-43.834 -42 -60.501 -74s-29.5 -70.667 -38.5 -116s-13.5 -96 -13.5 -152
c0 -102.667 16.167 -180.667 48.5 -234s79.166 -80 140.499 -80c21.333 0 42 3.33301 62 10s37.667 16.334 53 29.001c6.66699 6 12.334 12.667 17.001 20s8.5 16.333 11.5 27s5 23.334 6 38.001s1.5 32.334 1.5 53.001v9v60h-82v8h257v-8h-78v-203z" />
    <glyph glyph-name="H" unicode="H" horiz-adv-x="727" 
d="M31 8h76v649h-75v9h252v-8h-74l-2 -313h307v312h-72v9h247v-9h-72v-648h77v-9h-263v8h83v327h-307v-326h78v-9h-255v8z" />
    <glyph glyph-name="I" unicode="I" horiz-adv-x="316" 
d="M31 8h81v649h-80v9h252v-8h-79v-649h79v-9h-253v8z" />
    <glyph glyph-name="J" unicode="J" horiz-adv-x="394" 
d="M112 658v7.99902h250v-8h-78v-508v-8c0 -14 -0.333008 -25.667 -1 -35s-2.33398 -17.666 -5.00098 -24.999s-6.16699 -14.166 -10.5 -20.499s-10.166 -13.166 -17.499 -20.499c-15.333 -16.667 -32.833 -29 -52.5 -37s-41.167 -12 -64.5 -12
c-17.333 0 -33.833 2.66699 -49.5 8s-29.167 12.666 -40.5 21.999s-20.333 20.333 -27 33s-10 26 -10 40c0 16 4.16699 29.333 12.5 40s18.833 16 31.5 16c14.667 0 26 -4.83301 34 -14.5s12 -23.167 12 -40.5c0 -6.66699 -0.5 -12.667 -1.5 -18s-3.16699 -14 -6.5 -26
c-1.33301 -6.66699 -2.5 -11.667 -3.5 -15s-1.5 -6.33301 -1.5 -9c0 -18.667 16 -28 48 -28c21.333 0 36 4.66699 44 14s12 27.666 12 54.999v7v582h-75z" />
    <glyph glyph-name="K" unicode="K" horiz-adv-x="694" 
d="M35 9h70v650h-73v9h244v-9h-72v-309h72l218 309h-67v9h154v-8l-74 -1l-166 -237l275 -414h72v-8h-259v8h70l-221 333h-74v-332h76v-9h-245v9z" />
    <glyph glyph-name="L" unicode="L" horiz-adv-x="626" 
d="M31 8h99.999v649h-90v9h283l1 -9h-93l-1 -648h141h9c40.667 0 78.334 10.5 113.001 31.5s60.334 48.5 77.001 82.5c4 8 7.16699 15.167 9.5 21.5s4.33301 12.833 6 19.5s3.16699 14 4.5 22s2.66602 18 3.99902 30h8v-216h-572v8z" />
    <glyph glyph-name="M" unicode="M" horiz-adv-x="801" 
d="M31 8h71v651h-69v8h174l199 -533l187 536h176v-8h-78v-653h75v-9h-236v8h69v650l-235 -676l-251 670v-643h67v-9h-149v8z" />
    <glyph glyph-name="N" unicode="N" horiz-adv-x="653" 
d="M31 8h70v652h-70v9h188l317 -493v484h-66v9h152v-9h-75v-676l-436 676v-651h69v-9h-149v8z" />
    <glyph glyph-name="O" unicode="O" horiz-adv-x="697" 
d="M342 -12c-40.667 0 -79.167 9.00293 -115.5 27.0029s-68.333 42.167 -96 72.5s-49.5 65.666 -65.5 105.999s-24 83.166 -24 128.499c0 48 8.33301 93.5 25 136.5s39.334 81 68.001 114s61.667 59.167 99 78.5s76.666 29 117.999 29c40.667 0 79.334 -9.66699 116.001 -29
s69 -45.5 97 -78.5s50.167 -71.167 66.5 -114.5s24.5 -89 24.5 -137c0 -45.333 -8.33301 -88 -25 -128s-39.334 -75.333 -68.001 -106s-62 -54.834 -100 -72.501s-78 -26.5 -120 -26.5zM339 -2.99707c55.333 0 98.501 13.998 129.501 41.998s53.5 73.667 67.5 137
c11.333 54.667 17 109 17 163c0 64.667 -7.33301 122.334 -22 173.001s-35 88.667 -61 114c-31.333 30 -72.333 45 -123 45c-90 0 -149.667 -50.667 -179 -152c-17.333 -59.333 -26 -121.666 -26 -186.999c0 -70 7.16699 -131 21.5 -183s34.166 -90 59.499 -114
c13.333 -12.667 30 -22.167 50 -28.5s42 -9.5 66 -9.5z" />
    <glyph glyph-name="P" unicode="P" horiz-adv-x="581" 
d="M33 8l71 -0.000976562v651h-73v9h206h10c137.333 0 232 -40 284 -120c17.333 -27.333 26 -56.666 26 -87.999c0 -52.667 -23.333 -92.5 -70 -119.5s-115.667 -40.5 -207 -40.5h-9h-70v-291h71v-9h-239v8zM285 309.999l8 -0.000976562c52 0 92.333 14.333 121 43
s43 69 43 121c0 34 -7 65.333 -21 94s-32.333 49.334 -55 62.001c-33.333 19.333 -76 29 -128 29h-9h-44v-349h85z" />
    <glyph glyph-name="Q" unicode="Q" horiz-adv-x="698" 
d="M621 -213c-6 -1.33301 -14.001 -2.50098 -24.001 -3.50098s-19.333 -1.5 -28 -1.5c-12 0 -25.167 1 -39.5 3s-28.166 4.83301 -41.499 8.5s-26.166 8 -38.499 13s-22.5 10.167 -30.5 15.5c-7.33301 5.33301 -15.833 13.5 -25.5 24.5s-18.167 21.833 -25.5 32.5l-22 34
c-7.33301 11.333 -14.666 21.333 -21.999 30s-14.833 16.5 -22.5 23.5s-16 13.5 -25 19.5s-19.167 12 -30.5 18c-20 10.667 -37.333 20.834 -52 30.501s-27.834 19.167 -39.501 28.5s-22 19.5 -31 30.5s-18.167 23.5 -27.5 37.5c-36.667 57.333 -55 120.333 -55 189
c0 47.333 8.5 92.5 25.5 135.5s39.667 81 68 114s61.166 59.333 98.499 79s76.333 29.5 117 29.5c40 0 78.5 -9.83301 115.5 -29.5s69.667 -46 98 -79s51 -71.167 68 -114.5s25.5 -88.333 25.5 -135c0 -45.333 -8.33301 -88.333 -25 -129s-39 -76.334 -67 -107.001
s-60.667 -54.834 -98 -72.501s-77 -26.5 -119 -26.5c-26 0 -49 3 -69 9c8 -7.33301 16.833 -13.333 26.5 -18s25.167 -10 46.5 -16c16.667 -5.33301 31.167 -10.333 43.5 -15s23 -9.66699 32 -15s16.667 -11.166 23 -17.499s12.166 -13.833 17.499 -22.5
c1.33301 -2.66699 2.33301 -4.16699 3 -4.5s1.33398 -0.833008 2.00098 -1.5l12 -17l5 -7c18 -25.333 34.333 -43.166 49 -53.499s31.667 -15.5 51 -15.5c5.33301 0 9.83301 0.166992 13.5 0.5s9.5 0.833008 17.5 1.5v-6zM346.999 -7.00098
c26 0 48.998 3.16797 68.998 9.50098s37.5 16.666 52.5 30.999s28 32.666 39 54.999s20.167 49.5 27.5 81.5c12.667 52.667 19 108.334 19 167.001c0 70 -8.16699 130.667 -24.5 182s-39.5 90 -69.5 116c-13.333 12 -29.666 21 -48.999 27s-40.666 9 -63.999 9
c-65.333 0 -115.166 -29.667 -149.499 -89s-51.5 -146 -51.5 -260s16.167 -197.333 48.5 -250s83.166 -79 152.499 -79z" />
    <glyph glyph-name="R" unicode="R" horiz-adv-x="609" 
d="M31 9l68.9971 0.000976562v650h-69v9h194h9c86 0 152.167 -15 198.5 -45s69.5 -73.333 69.5 -130c0 -40 -14 -71.333 -42 -94s-71.667 -38.334 -131 -47.001c11.333 -2.66699 21.166 -5.16699 29.499 -7.5s15.833 -5 22.5 -8s13.334 -6.33301 20.001 -10
s14.334 -8.5 23.001 -14.5c12.667 -8.66699 23.167 -17.334 31.5 -26.001s15.166 -18 20.499 -28s9.16602 -21 11.499 -33s3.5 -26 3.5 -42v-9l3 -75v-11c0 -61.333 16 -92 48 -92c16.667 0 33.334 5.33301 50.001 16l4 -5c-12 -7.33301 -22.5 -12.166 -31.5 -14.499
s-19.5 -3.5 -31.5 -3.5c-23.333 0 -45.666 5.16699 -66.999 15.5s-36.666 23.833 -45.999 40.5c-5.33301 9.33301 -9.66602 21.333 -12.999 36s-5.33301 29.667 -6 45l-1 94v6c-0.666992 45.333 -9.66699 77.333 -27 96s-47 28 -89 28h-11h-76v-341h76v-9h-242v9z
M285.997 359.001l10 -0.000976562c36 0 63.833 13.333 83.5 40s29.5 64.334 29.5 113.001s-13 85.5 -39 110.5s-64 37.5 -114 37.5h-16h-44v-301h90z" />
    <glyph glyph-name="S" unicode="S" horiz-adv-x="576" 
d="M43 212h8.00293c10 -33.333 23.333 -63.333 40 -90s35.667 -49.5 57 -68.5s44.333 -33.5 69 -43.5s50.667 -15 78 -15c22.667 0 43.667 3.5 63 10.5s35.666 16.833 48.999 29.5s23.833 27.667 31.5 45s11.5 36.666 11.5 57.999c0 24 -5 46.333 -15 67s-23.667 37 -41 49
c-23.333 16 -52 29.333 -86 40c-36 12 -66 22.833 -90 32.5s-44.333 19.167 -61 28.5s-30 19 -40 29s-19 21.333 -27 34c-14 22 -21 49 -21 81c0 26 5 49.833 15 71.5s23.833 40.5 41.5 56.5s38.667 28.5 63 37.5s50.833 13.5 79.5 13.5c27.333 0 54.333 -4.33301 81 -13
l18 -6c12.667 -4 23 -6.83301 31 -8.5s15.667 -2.5 23 -2.5c10 0 18.333 2 25 6s12.667 11.333 18 22v-170h-7c-5.33301 24.667 -14 47.167 -26 67.5s-26.167 37.666 -42.5 51.999s-34.833 25.5 -55.5 33.5s-42.667 12 -66 12c-40 0 -72.167 -11.167 -96.5 -33.5
s-36.5 -51.5 -36.5 -87.5c0 -18.667 2.83301 -35 8.5 -49s15.5 -26.833 29.5 -38.5s32.5 -22.667 55.5 -33s52.167 -20.833 87.5 -31.5c29.333 -9.33301 54.666 -18.5 75.999 -27.5s39.833 -18.167 55.5 -27.5s28.667 -19.5 39 -30.5s19.166 -23.167 26.499 -36.5
c14 -26 21 -54.333 21 -85c0 -29.333 -5.83301 -56.333 -17.5 -81s-27.834 -46.167 -48.501 -64.5s-45.167 -32.666 -73.5 -42.999s-58.833 -15.5 -91.5 -15.5c-15.333 0 -30.666 1.33301 -45.999 4s-30 6.33398 -44 11.001l-30 11c-16.667 6 -33.334 11 -50.001 15
s-29 6 -37 6c-21.333 0 -38.666 -10.667 -51.999 -32v210z" />
    <glyph glyph-name="T" unicode="T" horiz-adv-x="584" 
d="M169 8l74 -0.00195312v652h-35h-7c-22.667 0 -44.167 -4.33301 -64.5 -13s-38.5 -21 -54.5 -37s-29.667 -35.167 -41 -57.5s-19.333 -47.166 -24 -74.499h-7v189h564v-190h-6c-2.66699 24.667 -9.16699 48 -19.5 70s-23 41.333 -38 58s-31.833 29.834 -50.5 39.501
s-38 14.5 -58 14.5h-10h-51v-651h77v-8h-249v8z" />
    <glyph glyph-name="U" unicode="U" horiz-adv-x="681" 
d="M30 659l0.00195312 9.00293h257v-8h-79v-506v-8c-0.666992 -28 1.16602 -50.333 5.49902 -67s11.5 -30.334 21.5 -41.001c26 -28 66.333 -42 121 -42c21.333 0 42.166 2.66699 62.499 8s38.833 12.666 55.5 21.999s31 20.5 43 33.5s21 27.167 27 42.5
c5.33301 14 9.33301 30.333 12 49s4 39.667 4 63v8v437h-71v9h162v-8h-81v-443v-10c0 -50.667 -7 -90.667 -21 -120s-37.333 -52.333 -70 -69c-42.667 -20.667 -88.667 -31 -138 -31c-22.667 0 -44.5 2 -65.5 6s-40.5 9.66699 -58.5 17s-33.833 16.166 -47.5 26.499
s-24.5 22.166 -32.5 35.499c-9.33301 14.667 -16.5 32.834 -21.5 54.501s-7.5 46.167 -7.5 73.5v9v450h-78z" />
    <glyph glyph-name="V" unicode="V" horiz-adv-x="679" 
d="M84 658h-84v10h264v-9h-77l216 -533l184 532h-60v9h152v-9h-79l-236 -684z" />
    <glyph glyph-name="W" unicode="W" horiz-adv-x="1051" 
d="M83 659h-83v9h263v-8h-75l187 -525l148 449l-28 75h-81v8h263v-8h-77l187 -529l175 529h-69v8h158v-8h-78l-221 -671h-16l-207 579l-191 -579h-14z" />
    <glyph glyph-name="X" unicode="X" horiz-adv-x="687" 
d="M6 8h77l212 325l-196 326h-78v9h262v-8h-73l145 -237l155 237h-72v8h167v-8h-81l-164 -250l243 -402h77v-8h-267v8h77l-188 313l-205 -313h73v-8h-164v8z" />
    <glyph glyph-name="Y" unicode="Y" horiz-adv-x="629" 
d="M210 8h80v291l-214 360h-76v9h273v-8h-86l198 -333l144 332h-71v8h171v-8h-87l-152 -350v-300h72v-9h-252v8z" />
    <glyph glyph-name="Z" unicode="Z" horiz-adv-x="574" 
d="M401 659l-117.998 0.000976562h-22c-34.667 0 -63.667 -7 -87 -21s-45.333 -37 -66 -69l-14 -24.5c-4 -7 -7.33301 -14 -10 -21s-5.16699 -14.667 -7.5 -23s-4.83301 -18.5 -7.5 -30.5h-10v198h456l-374 -659h177h7c37.333 0 72.666 10.5 105.999 31.5s60 49.5 80 85.5
c3.33301 5.33301 6.16602 10.333 8.49902 15s4.5 9.66699 6.5 15l6.5 17.5c2.33301 6.33301 4.83301 14.166 7.5 23.499h9l-1 -197h-523z" />
    <glyph glyph-name="bracketleft" unicode="[" horiz-adv-x="165" 
d="M60 670h99v-9h-47v-653h44v-8h-96v670z" />
    <glyph glyph-name="backslash" unicode="\" horiz-adv-x="575" 
d="M570 -7l-570 685l7 6l569 -685z" />
    <glyph glyph-name="bracketright" unicode="]" horiz-adv-x="165" 
d="M9 0v8h43v653h-47v9h100v-670h-96z" />
    <glyph glyph-name="asciicircum" unicode="^" 
d="M30 384l191 282h57l192 -282h-55l-166 241l-165 -241h-54z" />
    <glyph glyph-name="underscore" unicode="_" 
d="M500 -132h-500v53h500v-53z" />
    <glyph glyph-name="grave" unicode="`" horiz-adv-x="247" 
d="M211 679c1.33301 -2.66699 2.16699 -4.16797 2.5 -4.50098s0.5 -0.833008 0.5 -1.5v-1c0 -3.33301 -0.5 -5.16602 -1.5 -5.49902s-2.5 -0.5 -4.5 -0.5c-3.33301 -0.666992 -7.33301 1.33301 -12 6l-159 150c-2.66699 2.66699 -4 5.66699 -4 9c0 5.33301 3 8 9 8h76z" />
    <glyph glyph-name="a" unicode="a" horiz-adv-x="468" 
d="M279 290l-0.00292969 1.99707c0 60.667 -26 91 -78 91c-22.667 0 -42.5 -5.5 -59.5 -16.5s-25.5 -23.5 -25.5 -37.5c0 -4.66699 0.833008 -8.83398 2.5 -12.501s4.83398 -8.83398 9.50098 -15.501c9.33301 -14 14 -25.667 14 -35c0 -11.333 -4.16699 -20.833 -12.5 -28.5
s-18.5 -11.5 -30.5 -11.5c-13.333 0 -24.5 5.16699 -33.5 15.5s-13.5 23.5 -13.5 39.5c0 15.333 3.83301 29.5 11.5 42.5s18.167 24.333 31.5 34s28.833 17.334 46.5 23.001s36.834 8.5 57.501 8.5c34 0 64 -7.33301 90 -22s43.667 -33.667 53 -57
c4.66699 -13.333 7.83398 -26.666 9.50098 -39.999s2.5 -32.666 2.5 -57.999v-4v-132v-7c0 -25.333 3.66699 -43.333 11 -54s20 -16 38 -16c5.33301 0 10 0.333008 14 1s7.66699 2.33398 11 5.00098c1.33301 0.666992 3.16602 1.83398 5.49902 3.50098s5.5 4.16699 9.5 7.5
l3 2l6 -5c-14.667 -16.667 -36.667 -25 -66 -25c-28.667 0 -52.667 7.66699 -72 23s-30.666 36 -33.999 62c-22.667 -57.333 -66.667 -86 -132 -86c-38 0 -68.333 9 -91 27s-34 43 -34 75c0 27.333 8.16699 47.166 24.5 59.499s45.5 20.5 87.5 24.5c20 2 37.167 4 51.5 6
s27 4.66699 38 8s20.833 7.33301 29.5 12s16.667 10.334 24 17.001zM277.997 203.997c-7.33301 -4.66699 -14.165 -8.50098 -20.498 -11.501s-12.666 -5.83301 -18.999 -8.5s-13.333 -5.16699 -21 -7.5s-16.834 -4.83301 -27.501 -7.5
c-30.667 -8.66699 -51.834 -19.834 -63.501 -33.501s-17.5 -34.167 -17.5 -61.5c0 -51.333 19.333 -77 58 -77c15.333 0 29.666 3.16699 42.999 9.5s25 14.833 35 25.5s17.833 23.334 23.5 38.001s8.5 30.334 8.5 47.001l1 7v80z" />
    <glyph glyph-name="b" unicode="b" horiz-adv-x="525" 
d="M26 8l59.001 0.00195312v668h-55v9h132v-401c15.333 33.333 35.166 58.666 59.499 75.999s51.5 26 81.5 26c24 0 47.167 -5.83301 69.5 -17.5s42.333 -27 60 -46s31.667 -40.833 42 -65.5s15.5 -50.334 15.5 -77.001c0 -26 -5 -50.167 -15 -72.5s-23.833 -42 -41.5 -59
s-38.167 -30.333 -61.5 -40s-48 -14.5 -74 -14.5c-64.667 0 -109 32.667 -133 98v-92h-139v8zM162.001 174.002c0.666992 -53.333 12.5 -95.166 35.5 -125.499s54.5 -45.5 94.5 -45.5c27.333 0 48.833 7 64.5 21s28.167 37.333 37.5 70c9.33301 35.333 14 70.333 14 105
c0 57.333 -9.16699 101.5 -27.5 132.5s-44.5 46.5 -78.5 46.5c-20 0 -38.5 -4.33301 -55.5 -13s-31.833 -20.834 -44.5 -36.501s-22.5 -34 -29.5 -55s-10.5 -43.833 -10.5 -68.5v-6v-25z" />
    <glyph glyph-name="c" unicode="c" horiz-adv-x="423" 
d="M392 63c-16.667 -28 -37.001 -48.501 -61.001 -61.501s-53 -19.5 -87 -19.5c-29.333 0 -56.666 5.33301 -81.999 16s-47.5 25.334 -66.5 44.001s-34 40.5 -45 65.5s-16.5 52.167 -16.5 81.5c0 28 5.5 54.5 16.5 79.5s26 46.833 45 65.5s41 33.5 66 44.5
s51.833 16.5 80.5 16.5c21.333 0 41.333 -3.16699 60 -9.5s35 -15.166 49 -26.499s25 -24.5 33 -39.5s12 -31.167 12 -48.5c0 -32.667 -13.333 -49 -40 -49c-13.333 0 -23.833 4.33301 -31.5 13s-11.5 20.334 -11.5 35.001c0 7.33301 1.66699 17.666 5 30.999
c2 7.33301 3.33301 12.5 4 15.5s1 6.5 1 10.5c0 16.667 -7 30.667 -21 42s-31 17 -51 17c-19.333 0 -36.833 -5.16699 -52.5 -15.5s-29.167 -24.666 -40.5 -42.999s-20.166 -40.5 -26.499 -66.5s-9.5 -54.667 -9.5 -86c0 -60.667 11.5 -106.334 34.5 -137.001
s56.833 -46 101.5 -46c27.333 0 51.666 6.16699 72.999 18.5s39 31.166 53 56.499z" />
    <glyph glyph-name="d" unicode="d" horiz-adv-x="518" 
d="M363 677l-53 -0.000976562v8h130v-676h52v-9h-129v96c-31.333 -71.333 -78 -107 -140 -107c-25.333 0 -49.333 5.33301 -72 16s-42.667 25.167 -60 43.5s-31.166 39.5 -41.499 63.5s-15.5 49.333 -15.5 76c0 27.333 5.66699 53.333 17 78s26.5 46.334 45.5 65.001
s41 33.5 66 44.5s51.5 16.5 79.5 16.5c51.333 0 91.666 -31.667 120.999 -95v380zM363 231.999l0.000976562 6.99707v7c0 18.667 -3.33301 36.334 -10 53.001s-15.667 31.334 -27 44.001s-24.333 22.667 -39 30s-30.334 11 -47.001 11c-80.667 0 -121 -73.667 -121 -221
c0 -54 9 -95.333 27 -124s44.333 -43 79 -43c20 0 38.333 4.33301 55 13s31.167 20.834 43.5 36.501s22 34 29 55s10.5 44.167 10.5 69.5v6v56z" />
    <glyph glyph-name="e" unicode="e" horiz-adv-x="429" 
d="M118 213l-0.999023 -21.001v-10c0 -56 11.667 -101 35 -135s54 -51 92 -51c32 0 60.167 9.16699 84.5 27.5s41.166 42.5 50.499 72.5l9 -2l-2 -6c-27.333 -68 -78.333 -102 -153 -102c-28 0 -54 5.33301 -78 16s-45 25.167 -63 43.5s-32.167 40 -42.5 65
s-15.5 52.167 -15.5 81.5c0 28.667 4.83301 55.334 14.5 80.001s23 46 40 64s37 32.167 60 42.5s47.5 15.5 73.5 15.5c23.333 0 45.5 -4.5 66.5 -13.5s39.5 -21.667 55.5 -38s29.167 -35.5 39.5 -57.5s16.5 -46 18.5 -72h-284zM321.001 223.999v35.0029v15
c0 34.667 -8.33301 62.167 -25 82.5s-39.667 30.5 -69 30.5c-25.333 0 -45.5 -7.33301 -60.5 -22s-27.5 -39.334 -37.5 -74.001c-4 -12.667 -6.66699 -23.334 -8 -32.001s-2.33301 -20.334 -3 -35.001h203z" />
    <glyph glyph-name="f" unicode="f" horiz-adv-x="275" 
d="M26 8h63.999v364h-51v10h51l3 106v9c0 28 3 53.667 9 77s14.167 43.166 24.5 59.499s23 29.166 38 38.499s31.5 14 49.5 14c24.667 0 45.667 -8.33301 63 -25s26 -37 26 -61c0 -14 -3.5 -25.667 -10.5 -35s-16.167 -14 -27.5 -14c-10 0 -18.667 4 -26 12
s-11 17.667 -11 29c0 8 1.5 15.167 4.5 21.5s8.5 13.833 16.5 22.5c6.66699 6.66699 10 12 10 16c0 7.33301 -4.66699 14 -14 20s-20.333 9 -33 9c-20.667 0 -36.667 -7.33301 -48 -22s-17 -35.667 -17 -63c0 -5.33301 0.166992 -10 0.5 -14s0.833008 -8.66699 1.5 -14
s1.83398 -11.833 3.50098 -19.5s3.5 -17.167 5.5 -28.5c3.33301 -19.333 6 -36.666 8 -51.999s3 -29.666 3 -42.999v-6v-37h56v-9h-56v-364l55 -1v-8h-198v8z" />
    <glyph glyph-name="g" unicode="g" horiz-adv-x="439" 
d="M100 -49c-24 5.33301 -42.5029 15.001 -55.5029 29.001s-19.5 30.667 -19.5 50c0 23.333 7.83301 41 23.5 53s44.167 22 85.5 30c-33.333 15.333 -58.666 34.5 -75.999 57.5s-26 49.167 -26 78.5c0 18.667 4.33301 36.5 13 53.5s20.167 31.833 34.5 44.5
s31 22.834 50 30.501s39.167 11.5 60.5 11.5c38.667 0 78 -17 118 -51c8 15.333 18.333 27.333 31 36s26.334 13 41.001 13c18 0 33.5 -7 46.5 -21s19.5 -31 19.5 -51c0 -10.667 -3 -19.5 -9 -26.5s-13.667 -10.5 -23 -10.5s-17.5 3.83301 -24.5 11.5
s-10.5 16.167 -10.5 25.5c0 8.66699 2.66699 18.667 8 30c2.66699 5.33301 4.33398 9.16602 5.00098 11.499s1 5.16602 1 8.49902c0 10 -4.66699 15 -14 15c-12.667 0 -24.667 -4.5 -36 -13.5s-20.333 -21.167 -27 -36.5c10.667 -17.333 18.5 -33.333 23.5 -48
s7.5 -29.667 7.5 -45c0 -18.667 -4 -36 -12 -52s-19 -30 -33 -42s-30.333 -21.333 -49 -28s-38.667 -10 -60 -10h-13c-3.33301 0 -8.33301 0.666992 -15 2c-32 -1.33301 -58 -6.5 -78 -15.5s-30 -20.5 -30 -34.5c0 -28 31 -42 93 -42h7h75h11
c39.333 0 69.833 -4.33301 91.5 -13s39.5 -23.334 53.5 -44.001c16 -24 24 -51.667 24 -83c0 -46.667 -17.167 -83.5 -51.5 -110.5s-81.166 -40.5 -140.499 -40.5c-58.667 0 -105.334 12.5 -140.001 37.5s-52 58.5 -52 100.5c0 38.667 24 68.334 72 89.001zM187.997 113.001
c60.667 0 91 43.666 91 130.999c0 47.333 -7.16699 81.833 -21.5 103.5s-36.5 32.5 -66.5 32.5c-59.333 0 -89 -44 -89 -132c0 -47.333 6.83301 -81.666 20.5 -102.999s35.5 -32 65.5 -32zM145.997 -49c-63.333 -6.66699 -95 -39.668 -95 -99.001
c0 -38 14.5 -67.5 43.5 -88.5s69.167 -31.5 120.5 -31.5c54.667 0 96.667 10.333 126 31s44 50 44 88c0 36 -12.167 62.167 -36.5 78.5s-63.166 24.5 -116.499 24.5c-14.667 0 -29.334 -0.166992 -44.001 -0.5s-28.667 -1.16602 -42 -2.49902z" />
    <glyph glyph-name="h" unicode="h" horiz-adv-x="514" 
d="M26 8h54.999v669h-54v8h137v-374c14.667 28.667 32.334 49.667 53.001 63s46 20 76 20c31.333 0 59 -7.5 83 -22.5s39.667 -34.833 47 -59.5c3.33301 -11.333 5.83301 -24.333 7.5 -39s2.5 -30.334 2.5 -47.001v-20v-197h54v-9h-181v8h50v278v8
c0 28.667 -6.33301 50.834 -19 66.501s-30.667 23.5 -54 23.5c-28 0 -52.5 -9.5 -73.5 -28.5s-36.167 -45.5 -45.5 -79.5v-267h56v-9h-194v8z" />
    <glyph glyph-name="i" unicode="i" horiz-adv-x="240" 
d="M26 8h57v365h-54v8h134v-373h51v-8h-188v8zM123 492c-13.333 0 -24.833 4.83301 -34.5 14.5s-14.5 21.167 -14.5 34.5s4.83301 24.833 14.5 34.5s21.167 14.5 34.5 14.5s24.833 -4.83301 34.5 -14.5s14.5 -21.167 14.5 -34.5s-4.83301 -24.833 -14.5 -34.5
s-21.167 -14.5 -34.5 -14.5z" />
    <glyph glyph-name="j" unicode="j" horiz-adv-x="236" 
d="M27 373l0.000976562 7.99707h130v-480v-7c0 -34 -3.5 -61.167 -10.5 -81.5s-18.5 -37.5 -34.5 -51.5c-28.667 -24.667 -62.667 -37 -102 -37c-30 0 -54.667 7.83301 -74 23.5s-29 36.167 -29 61.5c0 14.667 4 26.834 12 36.501s17.667 14.5 29 14.5
c9.33301 0 17.5 -3.5 24.5 -10.5s10.5 -15.5 10.5 -25.5c0 -6 -1.16699 -11.5 -3.5 -16.5s-6.83301 -10.5 -13.5 -16.5c-5.33301 -5.33301 -9 -9.66602 -11 -12.999s-3 -6.66602 -3 -9.99902c0 -10.667 4.83301 -19.167 14.5 -25.5s22.167 -9.5 37.5 -9.5
c29.333 0 49.666 7.66699 60.999 23s17 43 17 83v8v526h-55zM116.001 495.997c-13.333 0 -24.833 4.83301 -34.5 14.5s-14.5 21.167 -14.5 34.5s4.83301 24.833 14.5 34.5s21.167 14.5 34.5 14.5s24.833 -4.83301 34.5 -14.5s14.5 -21.167 14.5 -34.5
s-4.83301 -24.833 -14.5 -34.5s-21.167 -14.5 -34.5 -14.5z" />
    <glyph glyph-name="k" unicode="k" horiz-adv-x="509" 
d="M47 8h59v669h-79v8h159v-495h51l137 182h-41v9h107v-9h-52l-89 -119l144 -245h59v-8h-208v8h55l-99 172h-64v-171h55v-9h-194v8z" />
    <glyph glyph-name="l" unicode="l" horiz-adv-x="237" 
d="M26 8h55v669h-47v8h128v-676h49v-9h-185v8z" />
    <glyph glyph-name="m" unicode="m" horiz-adv-x="779" 
d="M27 8h54.0029v364h-54v9h131v-85c12 30 29.5 52.833 52.5 68.5s50.5 23.5 82.5 23.5c73.333 0 117.666 -36.667 132.999 -110c29.333 72.667 77.666 109 144.999 109c42 0 74.333 -12.5 97 -37.5s34 -60.5 34 -106.5v-8v-226h51v-9h-179v8h52v269v6
c-1.33301 64 -23.666 96 -66.999 96c-20.667 0 -40.834 -6.66699 -60.501 -20s-35.834 -31 -48.501 -53c-14.667 -26 -22 -50.667 -22 -74v-8v-215h54v-9h-180v8h51v280v8c-1.33301 55.333 -25 83 -71 83c-16.667 0 -32.5 -3.66699 -47.5 -11s-28.167 -17 -39.5 -29
s-20.333 -26.167 -27 -42.5s-10 -33.5 -10 -51.5v-11v-225h54v-9h-185v8z" />
    <glyph glyph-name="n" unicode="n" horiz-adv-x="506" 
d="M31 8h45v363h-49v10h129v-82c11.333 30 29.333 53.333 54 70s53.334 25 86.001 25c28 0 52.5 -6 73.5 -18s35.833 -28 44.5 -48c9.33301 -24.667 14 -55.667 14 -93v-18v-208h52v-9h-180v8h51v272v8c-0.666992 30 -7.33398 53.167 -20.001 69.5
s-30.334 24.5 -53.001 24.5c-16 0 -31.167 -3.66699 -45.5 -11s-27.166 -17.333 -38.499 -30s-20.333 -27 -27 -43s-10 -32.667 -10 -50v-9v-230h51v-9h-177v8z" />
    <glyph glyph-name="o" unicode="o" horiz-adv-x="511" 
d="M253 -14c-30.667 0 -59.3311 5.33398 -85.998 16.001s-49.834 25.334 -69.501 44.001s-35.167 40.834 -46.5 66.501s-17 53.167 -17 82.5c0 28.667 5.66699 55.167 17 79.5s26.666 45.5 45.999 63.5s42.333 32.167 69 42.5s55.667 15.5 87 15.5
c32 0 61.5 -5.33301 88.5 -16s50.5 -25.334 70.5 -44.001s35.667 -40.834 47 -66.501s17 -53.167 17 -82.5s-5.5 -56.333 -16.5 -81s-26.5 -45.834 -46.5 -63.501s-43.667 -31.5 -71 -41.5s-57 -15 -89 -15zM259.003 -5.99902c42 0 74.498 16.833 97.498 50.5
s34.5 81.167 34.5 142.5c0 65.333 -11.667 115.333 -35 150s-57 52 -101 52c-27.333 0 -52.166 -8.5 -74.499 -25.5s-37.166 -39.167 -44.499 -66.5c-4 -14.667 -7.16699 -30.167 -9.5 -46.5s-3.5 -33.833 -3.5 -52.5c0 -70 11.167 -121.5 33.5 -154.5
s56.5 -49.5 102.5 -49.5z" />
    <glyph glyph-name="p" unicode="p" horiz-adv-x="524" 
d="M34 -261l52 0.00195312v633h-59v9h134v-72c13.333 28 31.833 49.667 55.5 65s50.167 23 79.5 23c26 0 50.667 -5.5 74 -16.5s43.833 -25.833 61.5 -44.5s31.667 -40.5 42 -65.5s15.5 -51.167 15.5 -78.5s-5.33301 -53.333 -16 -78s-25.334 -46.334 -44.001 -65.001
s-40.167 -33.334 -64.5 -44.001s-50.166 -16 -77.499 -16c-62 0 -104 33.333 -126 100v-351h57v-7h-184v8zM162 146.002l0.000976562 -5.00098c0 -19.333 3.5 -37.833 10.5 -55.5s16.167 -33 27.5 -46s24.666 -23.333 39.999 -31s31.333 -11.5 48 -11.5
c38 0 67.667 15.833 89 47.5s32 76.834 32 135.501c0 67.333 -10.333 118.833 -31 154.5s-51 53.5 -91 53.5c-28 0 -53.333 -9.5 -76 -28.5s-39 -44.5 -49 -76.5v-137z" />
    <glyph glyph-name="q" unicode="q" horiz-adv-x="548" 
d="M308 -259h54.002v341c-17.333 -34 -35.833 -57.5 -55.5 -70.5s-44.834 -19.5 -75.501 -19.5c-26 0 -50.833 5.33301 -74.5 16s-44.667 25 -63 43s-32.833 38.833 -43.5 62.5s-16 48.5 -16 74.5c0 26.667 5.66699 52.167 17 76.5s26.666 46 45.999 65
s41.333 34.167 66 45.5s50.667 17 78 17c52.667 0 92.667 -27 120 -81v70h160v-8h-80v-631h49v-9h-182v8zM362.002 254v8c0 16.667 -3.33301 32.334 -10 47.001s-15.5 27.5 -26.5 38.5s-23.667 19.833 -38 26.5s-29.5 10 -45.5 10c-38.667 0 -69 -16.167 -91 -48.5
s-33 -76.166 -33 -131.499c0 -38 4.16699 -73 12.5 -105s19.833 -56 34.5 -72c8.66699 -9.33301 19.334 -16.333 32.001 -21s26.667 -7 42 -7c36.667 0 67.667 17 93 51c9.33301 11.333 16.666 23.166 21.999 35.499s8 23.166 8 32.499v10v126z" />
    <glyph glyph-name="r" unicode="r" horiz-adv-x="387" 
d="M27 8h50.999v364h-51v9h134v-91c17.333 36 35.833 62.333 55.5 79s41.834 25 66.501 25c12.667 0 24.5 -2.33301 35.5 -7s20.667 -11.167 29 -19.5s14.833 -18.166 19.5 -29.499s7 -23.333 7 -36c0 -18 -4.66699 -33.167 -14 -45.5s-21 -18.5 -35 -18.5
c-12 0 -22 4.16699 -30 12.5s-12 19.166 -12 32.499c0 6.66699 1 13.667 3 21c0.666992 2 1.5 5.16699 2.5 9.5s2.5 9.83301 4.5 16.5c4 14 6 23.667 6 29c0 7.33301 -2.5 13.333 -7.5 18s-11.5 7 -19.5 7c-15.333 0 -30.5 -6 -45.5 -18s-28.5 -28.667 -40.5 -50
c-16.667 -30.667 -25 -60 -25 -88v-7v-212h49v-9h-183v8z" />
    <glyph glyph-name="s" unicode="s" horiz-adv-x="375" 
d="M33 147l8.99609 -0.000976562c0.666992 -11.333 2.33398 -20.166 5.00098 -26.499s7.66699 -15.833 15 -28.5c18.667 -30.667 40.834 -54.167 66.501 -70.5s52.834 -24.5 81.501 -24.5c25.333 0 46 6.66699 62 20s24 30.666 24 51.999c0 23.333 -7.33301 41.333 -22 54
s-40.667 23.667 -78 33c-22 5.33301 -40.667 10.333 -56 15s-28.333 9.66699 -39 15s-19.5 11.166 -26.5 17.499s-13.5 13.833 -19.5 22.5c-11.333 17.333 -17 36.333 -17 57c0 16 3.16699 30.667 9.5 44s15 25 26 35s24 17.833 39 23.5s31.167 8.5 48.5 8.5
c8.66699 0 17.167 -0.833008 25.5 -2.5s18.5 -4.16699 30.5 -7.5l22 -6c6 -2 12 -3.66699 18 -5s10.667 -2 14 -2c12 0 22.667 6 32 18v-133h-8c-5.33301 38 -19.666 69 -42.999 93s-52 36 -86 36c-24.667 0 -44.834 -6.16699 -60.501 -18.5s-23.5 -28.166 -23.5 -47.499
c0 -10.667 1.83301 -20 5.5 -28s9.66699 -15.167 18 -21.5s19.5 -12.166 33.5 -17.499s31.667 -10.333 53 -15c33.333 -8 58.833 -16.167 76.5 -24.5s32.834 -18.833 45.501 -31.5c18.667 -20 28 -44.667 28 -74c0 -16.667 -3.5 -32.167 -10.5 -46.5
s-16.5 -26.833 -28.5 -37.5s-26 -19 -42 -25s-33.333 -9 -52 -9c-12.667 0 -23.667 1.16699 -33 3.5s-22.333 6.83301 -39 13.5c-16 6.66699 -28.167 11.167 -36.5 13.5s-16.5 3.5 -24.5 3.5c-16.667 0 -31 -8 -43 -24v148z" />
    <glyph glyph-name="t" unicode="t" horiz-adv-x="299" 
d="M23 370v10.999h65v129c14.667 7.33301 27.834 15 39.501 23s23.834 18 36.501 30v-182h68v-10h-68v-295v-7c0 -26 2.5 -44 7.5 -54s14.167 -15 27.5 -15c21.333 0 38.166 9.66699 50.499 29s20.166 47.333 23.499 84v6h9v-7
c-3.33301 -43.333 -12.833 -74.666 -28.5 -93.999s-39.5 -29 -71.5 -29c-34 0 -58.167 10.5 -72.5 31.5s-21.5 55.5 -21.5 103.5v9v237h-65z" />
    <glyph glyph-name="u" unicode="u" horiz-adv-x="507" 
d="M160 382l0.000976562 -281.004v-10c0 -34 4.66699 -57.833 14 -71.5s25.666 -20.5 48.999 -20.5c16 0 31.667 3.83301 47 11.5s28.833 17.834 40.5 30.501s21 27.334 28 44.001s10.5 34 10.5 52v8v228h-52v9h131v-373h52v-9h-132v84
c-16 -35.333 -34.167 -60.166 -54.5 -74.499s-46.5 -21.5 -78.5 -21.5c-28 0 -53.5 6.16699 -76.5 18.5s-38.5 27.833 -46.5 46.5c-7.33301 18.667 -11 47.334 -11 86.001v9v225h-55v9h134z" />
    <glyph glyph-name="v" unicode="v" horiz-adv-x="442" 
d="M52 372h-52v9h209v-8h-68l131 -285l104 284h-45v9h111v-8h-55l-139 -382h-17z" />
    <glyph glyph-name="w" unicode="w" horiz-adv-x="695" 
d="M53 372h-53v9h187v-8h-48l121 -288l87 233l-23 54h-53v9h188v-8h-51l120 -292l107 291h-43v9h103v-8h-49l-141 -381h-21l-133 313l-113 -313h-21z" />
    <glyph glyph-name="x" unicode="x" horiz-adv-x="469" 
d="M27 8h50l116 167l-140 196h-46v9h184v-8h-49l95 -133l92 132h-40v9h119v-8h-65l-100 -143l164 -221h55v-8h-200v8h51l-114 157l-109 -157h37v-8h-100v8z" />
    <glyph glyph-name="y" unicode="y" horiz-adv-x="436" 
d="M59 372l-58.999 0.00195312v9h213v-8h-67l119 -276l112 275h-44v9h103v-8h-48l-229 -557c-13.333 -32.667 -27.666 -55.834 -42.999 -69.501s-34.666 -20.5 -57.999 -20.5c-10.667 0 -20.834 2 -30.501 6s-18 9.5 -25 16.5s-12.667 15.167 -17 24.5s-6.5 19 -6.5 29
c0 12 3.83301 22.5 11.5 31.5s16.5 13.5 26.5 13.5c9.33301 0 17.166 -3.83301 23.499 -11.5s9.5 -17.5 9.5 -29.5c0 -14 -5.33301 -26 -16 -36c-6 -6 -9 -11 -9 -15c0 -13.333 11.333 -20 34 -20c21.333 0 39 6.33301 53 19s27 34 39 64
c1.33301 3.33301 2.16602 5.16602 2.49902 5.49902s0.5 0.833008 0.5 1.5l68 170z" />
    <glyph glyph-name="z" unicode="z" horiz-adv-x="401" 
d="M274 373h-56h-7c-28.667 0 -51.667 -3.83301 -69 -11.5s-33 -20.5 -47 -38.5c-5.33301 -6.66699 -9.5 -12.667 -12.5 -18s-5.5 -10.666 -7.5 -15.999s-3.5 -11.333 -4.5 -18s-1.83301 -14.334 -2.5 -23.001h-8l-1 133h317l-255 -372h89h10c18.667 0 37 3.5 55 10.5
s34.167 16.5 48.5 28.5s25.833 25.833 34.5 41.5s13.667 32.167 15 49.5h8v-139h-361z" />
    <glyph glyph-name="braceleft" unicode="{" horiz-adv-x="258" 
d="M82 248c22.667 -11.333 38.5 -25.6689 47.5 -43.002s13.5 -41.666 13.5 -72.999v-172c0 -20.667 1.33301 -37.5 4 -50.5s7.5 -23.333 14.5 -31s16.667 -13.167 29 -16.5s28.166 -5 47.499 -5v-40h-14c-48 0 -82.167 11.333 -102.5 34s-30.5 60.667 -30.5 114v167
c0 30 -4.16699 52 -12.5 66s-23.166 24 -44.499 30v40c21.333 6 36.166 16 44.499 30s12.5 36 12.5 66v183c0 47.333 10.667 81.666 32 102.999s55 32 101 32h14v-40c-19.333 -0.666992 -35.166 -2.66699 -47.499 -6s-22 -8.66602 -29 -15.999s-11.833 -17.333 -14.5 -30
s-4 -28.667 -4 -48v-180c0 -32 -4.33301 -56.167 -13 -72.5s-24.667 -30.166 -48 -41.499z" />
    <glyph glyph-name="bar" unicode="|" 
d="M272 666v-837h-46v837h46z" />
    <glyph glyph-name="braceright" unicode="}" horiz-adv-x="258" 
d="M175 250c-22.667 11.333 -38.5 25.5029 -47.5 42.5029s-13.5 41.167 -13.5 72.5v173c0 20.667 -1.33301 37.667 -4 51s-7.5 23.833 -14.5 31.5s-16.667 13 -29 16s-28.166 4.5 -47.499 4.5v41h14c48 0 82.167 -11.333 102.5 -34s30.5 -60.667 30.5 -114v-167
c0 -30.667 4.16699 -53 12.5 -67s23.166 -24.333 44.499 -31v-39c-21.333 -6.66699 -36.166 -17 -44.499 -31s-12.5 -36 -12.5 -66v-182c0 -46.667 -10.667 -80.834 -32 -102.501s-55 -32.5 -101 -32.5c-2 0 -4 0.166992 -6 0.5s-4.66699 0.5 -8 0.5v40
c19.333 0.666992 35.166 2.5 47.499 5.5s22 8.33301 29 16s11.833 17.667 14.5 30s4 28.5 4 48.5v180c0 31.333 4.33301 55.166 13 71.499s24.667 30.166 48 41.499z" />
    <glyph glyph-name="asciitilde" unicode="~" 
d="M494 685c-22.667 -41.333 -44.335 -71.168 -65.002 -89.501s-43 -27.5 -67 -27.5c-5.33301 0 -11 0.5 -17 1.5s-13.167 3 -21.5 6s-18.666 7.16699 -30.999 12.5l-45.5 20l-47 21c-28 12 -48.667 18 -62 18c-18 0 -34.5 -6.66699 -49.5 -20s-32.833 -37.333 -53.5 -72
l-30 26c24.667 41.333 46.834 70.333 66.501 87s40.834 25 63.501 25c6.66699 0 13.334 -0.5 20.001 -1.5s14.5 -3 23.5 -6s20.167 -7.5 33.5 -13.5l52 -23c15.333 -7.33301 28.166 -13.166 38.499 -17.499s19.166 -7.83301 26.499 -10.5s13.333 -4.5 18 -5.5
s9 -1.5 13 -1.5c18 0 35.333 7.5 52 22.5s33.667 39.5 51 73.5z" />
    <glyph glyph-name="nonbreakingspace" unicode="&#xa0;" horiz-adv-x="250" 
 />
    <glyph glyph-name="exclamdown" unicode="&#xa1;" horiz-adv-x="252" 
d="M130 670c14 0 24.999 -5.33203 32.999 -15.999s12 -25 12 -43c0 -17.333 -3.83301 -31 -11.5 -41s-18.5 -15 -32.5 -15c-13.333 0 -23.666 5.16699 -30.999 15.5s-11 24.5 -11 42.5c0 17.333 3.5 31.166 10.5 41.499s17.167 15.5 30.5 15.5zM134.999 530.001l6 -131.999
c1.33301 -32 3.66602 -65.5 6.99902 -100.5s8.66602 -77.167 15.999 -126.5l5.5 -40l4.5 -32c1.33301 -8.66699 2.33301 -16.667 3 -24s1 -14 1 -20c0 -17.333 -5 -30.833 -15 -40.5s-23 -14.5 -39 -14.5c-15.333 0 -27.666 4.83301 -36.999 14.5s-14 22.167 -14 37.5
c0 12 2 28 6 48c1.33301 5.33301 2.83301 13.833 4.5 25.5l6.5 43.5c3.33301 22 5.83301 39.5 7.5 52.5s2.83398 21.833 3.50098 26.5c2.66699 19.333 7.66699 68.666 15 147.999c2.66699 32.667 4.66699 60 6 82s2 39 2 51v6h10z" />
    <glyph glyph-name="cent" unicode="&#xa2;" horiz-adv-x="362" 
d="M189 225c-19.333 2.66699 -36.668 8.66895 -52.001 18.002s-28.666 21 -39.999 35s-20 30 -26 48s-9 37.667 -9 59c0 20 3.5 40 10.5 60s16.167 38.167 27.5 54.5s24.666 30.333 39.999 42s31.666 19.5 48.999 23.5v80h21v-76c12 -0.666992 23.667 -3.33398 35 -8.00098
s21.333 -10.5 30 -17.5s15.667 -14.833 21 -23.5s8 -17.334 8 -26.001c0 -8 -3.16699 -15 -9.5 -21s-14.166 -9 -23.499 -9s-17.666 3.66699 -24.999 11s-11 16 -11 26c0 8.66699 4.66699 17.334 14 26.001c5.33301 5.33301 8 9.33301 8 12c0 6 -8 11.667 -24 17
c-8 2 -14.333 3 -19 3h-4v-324c38 5.33301 67.667 27 89 65l8 -3c-11.333 -22 -25.5 -39.333 -42.5 -52s-35.167 -19.334 -54.5 -20.001v-98h-21v98zM188.998 555.002c-10.667 -2 -19.6689 -6.33105 -27.002 -12.998s-13.166 -16.5 -17.499 -29.5s-7.5 -29.667 -9.5 -50
s-3 -44.833 -3 -73.5c0 -27.333 0.833008 -50.333 2.5 -69s4.83398 -33.834 9.50098 -45.501s10.5 -20.334 17.5 -26.001s16.167 -9.5 27.5 -11.5v318z" />
    <glyph glyph-name="sterling" unicode="&#xa3;" horiz-adv-x="474" 
d="M220 97c10.667 18.667 15.999 35.0049 15.999 49.0049c0 36 -23 76 -69 120h-83l-1 11l74 1l-7 8c-14 15.333 -25.667 29.5 -35 42.5s-16.833 25.5 -22.5 37.5s-9.66699 24 -12 36s-3.5 25 -3.5 39c0 25.333 4.83301 48.833 14.5 70.5s23 40.334 40 56.001
s37.333 28 61 37s49.167 13.5 76.5 13.5c22.667 0 44 -4 64 -12s37.333 -19.167 52 -33.5s26.167 -31.166 34.5 -50.499s12.5 -40.333 12.5 -63c0 -15.333 -2.16699 -29.666 -6.5 -42.999s-10.166 -24.833 -17.499 -34.5s-16 -17.334 -26 -23.001s-21 -8.5 -33 -8.5
c-14 0 -25.5 4.16699 -34.5 12.5s-13.5 19.166 -13.5 32.499c0 12 4.33301 23 13 33s18.667 15 30 15c6.66699 0 15 -3 25 -9c4 -2.66699 6.83301 -4.5 8.5 -5.5s3.83398 -1.5 6.50098 -1.5c10 0 18.333 4.83301 25 14.5s10 21.5 10 35.5c0 16.667 -4.16699 33 -12.5 49
s-19.333 30.167 -33 42.5s-29.5 22.166 -47.5 29.499s-36.667 11 -56 11c-32.667 0 -59.667 -11.5 -81 -34.5s-32 -51.833 -32 -86.5c0 -24 5.33301 -51.333 16 -82s27.667 -68 51 -112c2.66699 -4.66699 4.5 -8 5.5 -10s2.83301 -4.66699 5.5 -8h93v-12h-87
c5.33301 -16.667 8.83301 -29.667 10.5 -39s2.5 -21.333 2.5 -36c0 -15.333 -1.66699 -30.166 -5 -44.499s-9.33301 -31.5 -18 -51.5l8 -2c16 -5.33301 29.667 -9.5 41 -12.5s22 -5.33301 32 -7s19.833 -2.83398 29.5 -3.50098s20.5 -1 32.5 -1
c14.667 0 27.167 1.5 37.5 4.5s18.666 8 24.999 15s11.166 16.667 14.499 29s6 27.833 8 46.5h10c-4 -54 -16.5 -96.667 -37.5 -128s-47.833 -47 -80.5 -47c-10 0 -19.167 0.666992 -27.5 2s-17 3.66602 -26 6.99902s-18.5 7.66602 -28.5 12.999s-21.667 12.333 -35 21
c-10 6 -16.667 10.167 -20 12.5s-8 5.16602 -14 8.49902c-18 -18 -35.167 -31 -51.5 -39s-33.833 -12 -52.5 -12c-20.667 0 -37.834 5.33301 -51.501 16s-20.5 23.667 -20.5 39c0 17.333 8.5 31.666 25.5 42.999s38.5 17 64.5 17c14.667 0 29.834 -1.33301 45.501 -4
s35.834 -7.33398 60.501 -14.001zM188.999 57.0049c-13.333 11.333 -29.333 20.166 -48 26.499s-37.334 9.5 -56.001 9.5c-16 0 -28.667 -3 -38 -9s-14 -14.333 -14 -25c0 -13.333 6.33301 -24.666 19 -33.999s27.667 -14 45 -14s34.333 4.16699 51 12.5
s30.334 19.5 41.001 33.5z" />
    <glyph glyph-name="currency" unicode="&#xa4;" horiz-adv-x="666" 
d="M154 211c-18 23.333 -31 46 -39 68s-12 46.667 -12 74c0 28 3.83301 52.667 11.5 74s21.167 44.333 40.5 69l-94 94l33 33l94 -93c25.333 18.667 49 32 71 40s46.667 12 74 12c26.667 0 50.834 -3.83301 72.501 -11.5s45.167 -20.5 70.5 -38.5l92 91l33 -34l-91 -91
c19.333 -23.333 33 -46.333 41 -69s12 -48.334 12 -77.001c0 -27.333 -3.83301 -51.666 -11.5 -72.999s-20.834 -44 -39.501 -68l92 -92l-33 -34l-92 92c-24 -19.333 -47.333 -33.166 -70 -41.499s-47.667 -12.5 -75 -12.5s-52.333 4.16699 -75 12.5
s-46.667 22.166 -72 41.499l-92 -92l-34 34zM336 530c-24.667 0 -47.834 -4.66504 -69.501 -13.998s-40.667 -22 -57 -38s-29.166 -34.667 -38.499 -56s-14 -44.333 -14 -69c0 -24 4.66699 -46.833 14 -68.5s22 -40.5 38 -56.5s34.833 -28.667 56.5 -38s44.5 -14 68.5 -14
s46.667 4.66699 68 14s39.833 22 55.5 38s28 34.667 37 56s13.5 44.333 13.5 69c0 24 -4.5 46.667 -13.5 68s-21.333 40.166 -37 56.499s-34 29.166 -55 38.499s-43.167 14 -66.5 14z" />
    <glyph glyph-name="yen" unicode="&#xa5;" 
d="M66 313v20h129l-53 113h-118v20h109l-83 180h-44v20h226v-20h-74l80 -180h93l76 180h-84v20h170v-20h-60l-75 -180h117v-20h-124l-48 -113h131v-20h-137v-293h81v-20h-256v20h81v293h-137zM284 361l39 85h-76z" />
    <glyph glyph-name="section" unicode="&#xa7;" 
d="M348 159c34 -22.667 57.501 -43.3311 70.501 -61.998s19.5 -41.334 19.5 -68.001c0 -22 -5 -42.333 -15 -61s-24 -34.834 -42 -48.501s-39.5 -24.167 -64.5 -31.5s-52.5 -11 -82.5 -11c-25.333 0 -48.666 3.16699 -69.999 9.5s-40 15 -56 26s-28.5 24 -37.5 39
s-13.5 31.167 -13.5 48.5c0 18.667 6.33301 34.667 19 48s27.667 20 45 20c15.333 0 28 -5.16699 38 -15.5s15 -23.833 15 -40.5s-6.16699 -31.167 -18.5 -43.5s-27.166 -18.5 -44.499 -18.5c-4.66699 0 -8.33398 0.333008 -11.001 1
c11.333 -17.333 28.833 -30.666 52.5 -39.999s50.5 -14 80.5 -14c45.333 0 81.333 9 108 27s40 42.333 40 73c0 23.333 -9.33301 42.666 -28 57.999c-5.33301 4 -11 8 -17 12s-13.833 8.66699 -23.5 14l-35 18.5l-50.5 25.5l-53 26.5l-33 17.5
c-8.66699 4.66699 -15.5 8.66699 -20.5 12s-10.167 7 -15.5 11c-30 22 -45 53.333 -45 94c0 32 8.33301 59.333 25 82s39.667 38.334 69 47.001c-23.333 16 -40.5 33.167 -51.5 51.5s-16.5 39.166 -16.5 62.499c0 22 4.16699 42 12.5 60s20 33.5 35 46.5s32.833 23 53.5 30
s43.667 10.5 69 10.5c22 0 42.5 -2.83301 61.5 -8.5s35.5 -13.167 49.5 -22.5s25 -20.333 33 -33s12 -26.334 12 -41.001c0 -17.333 -5.83301 -32.166 -17.5 -44.499s-25.834 -18.5 -42.501 -18.5c-13.333 0 -25 4.66699 -35 14s-15 20.333 -15 33
c0 14.667 5.33301 26.834 16 36.501s25 16.167 43 19.5c-12.667 16 -27.334 27.667 -44.001 35s-37.667 11 -63 11c-36 0 -64.5 -7.66699 -85.5 -23s-31.5 -36 -31.5 -62c0 -12 1.16699 -21.833 3.5 -29.5s8 -15.334 17 -23.001s22.833 -16.5 41.5 -26.5l76 -39l53 -26.5
c14 -7 25.5 -13.167 34.5 -18.5s16.5 -10.166 22.5 -14.499l18 -13.5c26 -22 39 -51.333 39 -88c0 -64.667 -31.333 -109.334 -94 -134.001zM173.001 401.003c-9.33301 0 -18.332 -2.16602 -26.999 -6.49902s-16.334 -10 -23.001 -17s-12 -15 -16 -24s-6 -18.5 -6 -28.5
s1.33301 -18.667 4 -26s8.16699 -14.833 16.5 -22.5s20.166 -15.834 35.499 -24.501s35.333 -19 60 -31l48.5 -24c12.333 -6 22.333 -10.5 30 -13.5s13.834 -4.83301 18.501 -5.5s9.66699 -1 15 -1c9.33301 0 18.333 2 27 6s16.167 9.33301 22.5 16s11.333 14.334 15 23.001
s5.5 18 5.5 28c0 30 -16 54.333 -48 73c-46 25.333 -83.833 44.666 -113.5 57.999s-51.167 20 -64.5 20z" />
    <glyph glyph-name="dieresis" unicode="&#xa8;" horiz-adv-x="305" 
d="M75 666c-11.333 0 -21.166 4.16699 -29.499 12.5s-12.5 18.5 -12.5 30.5c0 11.333 4.16699 21.166 12.5 29.499s18.166 12.5 29.499 12.5c12 0 22.167 -4.16699 30.5 -12.5s12.5 -18.166 12.5 -29.499c0 -12 -4.16699 -22.167 -12.5 -30.5s-18.5 -12.5 -30.5 -12.5z
M229 666c-12 0 -22.167 4.16699 -30.5 12.5s-12.5 18.5 -12.5 30.5c0 11.333 4.16699 21.166 12.5 29.499s18.5 12.5 30.5 12.5c11.333 0 21.166 -4.16699 29.499 -12.5s12.5 -18.166 12.5 -29.499c0 -12 -4.16699 -22.167 -12.5 -30.5s-18.166 -12.5 -29.499 -12.5z" />
    <glyph glyph-name="copyright" unicode="&#xa9;" horiz-adv-x="784" 
d="M392 678c48 0 92.833 -9 134.5 -27s78.167 -42.667 109.5 -74s56 -67.833 74 -109.5s27 -86.5 27 -134.5s-9 -92.833 -27 -134.5s-42.667 -78.167 -74 -109.5s-68 -56 -110 -74s-87 -27 -135 -27c-47.333 0 -92 9.16699 -134 27.5s-78.667 43 -110 74s-56 67.333 -74 109
s-27 86.5 -27 134.5s9 92.833 27 134.5s42.667 78.167 74 109.5s68 56 110 74s87 27 135 27zM391 642c-42.667 0 -82.667 -8 -120 -24s-69.833 -38 -97.5 -66s-49.5 -60.833 -65.5 -98.5s-24 -77.834 -24 -120.501s8 -82.834 24 -120.501s37.833 -70.5 65.5 -98.5
s60.167 -50.167 97.5 -66.5s77.333 -24.5 120 -24.5c42 0 81.667 8.16699 119 24.5s70 38.5 98 66.5s50 60.833 66 98.5s24 77.834 24 120.501s-8 82.834 -24 120.501s-37.833 70.5 -65.5 98.5s-60.167 50 -97.5 66s-77.333 24 -120 24zM581 296
c-2 -25.333 -7.83789 -48.333 -17.5049 -69s-22.5 -38.5 -38.5 -53.5s-34.833 -26.5 -56.5 -34.5s-45.5 -12 -71.5 -12c-29.333 0 -55.833 5 -79.5 15s-44.167 24.167 -61.5 42.5s-30.666 40.166 -39.999 65.499s-14 53.666 -14 84.999c0 30.667 4.83301 58.834 14.5 84.501
s23.167 47.834 40.5 66.501s38 33 62 43s50.667 15 80 15c23.333 0 45.333 -3.5 66 -10.5s38.834 -16.667 54.501 -29s28.334 -27 38.001 -44s15.5 -35.5 17.5 -55.5h-44c-6.66699 31.333 -21.667 55.833 -45 73.5s-52.666 26.5 -87.999 26.5
c-45.333 0 -81.666 -15.5 -108.999 -46.5s-41 -72.167 -41 -123.5s13.5 -92.333 40.5 -123s63.167 -46 108.5 -46c39.333 0 71 11.333 95 34s38.667 54.667 44 96h45z" />
    <glyph glyph-name="ordfeminine" unicode="&#xaa;" horiz-adv-x="438" 
d="M303 375c-3.33301 6 -5.33203 11.0029 -5.99902 15.0029s-1.33398 10.667 -2.00098 20v11c-9.33301 -10.667 -17.833 -19.5 -25.5 -26.5s-15.5 -12.5 -23.5 -16.5s-16.833 -6.83301 -26.5 -8.5s-20.5 -2.5 -32.5 -2.5c-34 0 -60 7.5 -78 22.5s-27 36.167 -27 63.5
c0 55.333 41.667 86 125 92l49 4c16 1.33301 26.5 4.16602 31.5 8.49902s7.5 13.166 7.5 26.499c0 42 -25.333 63 -76 63c-25.333 0 -44.333 -5.66699 -57 -17s-20.667 -29.666 -24 -54.999h-40c4.66699 68.667 46 103 124 103c76 0 114 -31.667 114 -95v-6v-31v-35v-56
c0 -12 0.166992 -22 0.5 -30s0.833008 -14.833 1.5 -20.5s1.66699 -10.834 3 -15.501s3 -9.33398 5 -14.001h-43zM371.001 285.003h-288v30h288v-30zM294.001 531.003c-5.33301 -3.33301 -10.833 -5.83398 -16.5 -7.50098s-14.167 -3.16699 -25.5 -4.5l-43 -3
c-56 -5.33301 -84 -25.666 -84 -60.999c0 -18 6 -32 18 -42s28.667 -15 50 -15c67.333 0 101 37.667 101 113v20z" />
    <glyph glyph-name="guillemotleft" unicode="&#xab;" horiz-adv-x="382" 
d="M158 303h59l-112 -106l112 -104h-63l-111 104zM273 303h59l-112 -106l112 -104h-63l-111 104z" />
    <glyph glyph-name="logicalnot" unicode="&#xac;" 
d="M445 220h-434v43h478v-263h-44v220z" />
    <glyph glyph-name="registered" unicode="&#xae;" 
d="M250 754c26 0 50.667 -5 74 -15s43.5 -23.5 60.5 -40.5s30.5 -37 40.5 -60s15 -47.5 15 -73.5s-5 -50.5 -15 -73.5s-23.5 -43 -40.5 -60s-37.167 -30.333 -60.5 -40s-48 -14.5 -74 -14.5c-26.667 0 -51.5 4.83301 -74.5 14.5s-43.167 23 -60.5 40s-31 37 -41 60
s-15 47.5 -15 73.5s5 50.5 15 73.5s23.667 43 41 60s37.5 30.5 60.5 40.5s47.833 15 74.5 15zM250 725c-22 0 -42.833 -4.16699 -62.5 -12.5s-36.834 -19.666 -51.501 -33.999s-26.167 -31.333 -34.5 -51s-12.5 -40.5 -12.5 -62.5s4.16699 -42.667 12.5 -62
s19.833 -36.333 34.5 -51s31.834 -26.167 51.501 -34.5s40.5 -12.5 62.5 -12.5s42.667 4.16699 62 12.5s36.333 19.833 51 34.5s26.167 31.667 34.5 51s12.5 40 12.5 62s-4.16699 42.833 -12.5 62.5s-19.833 36.667 -34.5 51s-31.667 25.666 -51 33.999s-40 12.5 -62 12.5z
M258 666c50.667 0 76.001 -18.6689 76.001 -56.002c0 -9.33301 -1.66699 -17.166 -5 -23.499s-10 -13.166 -20 -20.499l6 -10l10 -13c1.33301 -2 2.5 -5.83301 3.5 -11.5s1.83301 -11.834 2.5 -18.501l1 -14l1 -10l1 -7c0 -2 0.666992 -5 2 -9
c0 -2 0.166992 -3.16699 0.5 -3.5s0.833008 -1.16602 1.5 -2.49902h-30c-2 4 -3.33301 7.83301 -4 11.5s-1.33398 11.167 -2.00098 22.5c-0.666992 10.667 -1.66699 19.167 -3 25.5s-4 11.333 -8 15s-9.33301 6 -16 7s-15.667 1.5 -27 1.5h-50v-83h-31v199h91z
M198.001 575.998h50c37.333 -0.666992 56 10 56 32s-17.333 33 -52 33h-54v-65z" />
    <glyph glyph-name="macron" unicode="&#xaf;" horiz-adv-x="333" 
d="M300 700v-33h-267v33h267z" />
    <glyph glyph-name="macron" unicode="&#x2c9;" horiz-adv-x="333" 
d="M300 700v-33h-267v33h267z" />
    <glyph glyph-name="degree" unicode="&#xb0;" 
d="M250 679c19.333 0 37.666 -3.66699 54.999 -11s32.5 -17.333 45.5 -30s23.167 -27.5 30.5 -44.5s11 -35.167 11 -54.5s-3.66699 -37.5 -11 -54.5s-17.5 -31.833 -30.5 -44.5s-28.167 -22.667 -45.5 -30s-35.666 -11 -54.999 -11c-20 0 -38.667 3.66699 -56 11
s-32.5 17.333 -45.5 30s-23.167 27.5 -30.5 44.5s-11 35.167 -11 54.5s3.66699 37.5 11 54.5s17.5 31.833 30.5 44.5s28.167 22.667 45.5 30s36 11 56 11zM249 642c-14 0 -27.167 -2.66699 -39.5 -8s-23.166 -12.666 -32.499 -21.999s-16.666 -20.333 -21.999 -33
s-8 -26 -8 -40s2.66699 -27.333 8 -40s12.666 -23.834 21.999 -33.501s20.166 -17.167 32.499 -22.5s25.5 -8 39.5 -8s27.333 2.66699 40 8s23.5 12.833 32.5 22.5s16.167 20.834 21.5 33.501s8 26 8 40s-2.66699 27.333 -8 40s-12.5 23.667 -21.5 33
s-19.833 16.666 -32.5 21.999s-26 8 -40 8z" />
    <glyph glyph-name="plusminus" unicode="&#xb1;" 
d="M226 391v202h47v-201h216v-47h-215v-185h-47v185h-216v46h215zM489 119v-47h-478v47h478z" />
    <glyph glyph-name="acute" unicode="&#xb4;" horiz-adv-x="247" 
d="M205 839c6 0 9 -2.66504 9 -7.99805c0 -3.33301 -1.33301 -6.33301 -4 -9l-159 -150c-3.33301 -3.33301 -5.66602 -5.33301 -6.99902 -6s-3 -1 -5 -1c-2 1.33301 -3.5 2.16602 -4.5 2.49902s-1.5 1.5 -1.5 3.5v2c0 1.33301 0.166992 2.16602 0.5 2.49902
s1.16602 1.5 2.49902 3.5l93 160h76z" />
    <glyph glyph-name="mu" unicode="&#xb5;" 
d="M52 481l54.998 -0.000976562v-277c0 -19.333 0.833008 -36.166 2.5 -50.499s4.33398 -26.833 8.00098 -37.5s8.83398 -20.167 15.501 -28.5s15 -16.5 25 -24.5c24.667 -20.667 52.667 -31 84 -31c21.333 0 41 4.5 59 13.5s33.5 21.5 46.5 37.5s23 35.167 30 57.5
s10.5 46.833 10.5 73.5v267h55v-481h-54v93c-18 -38 -38.5 -65.333 -61.5 -82s-51.5 -25 -85.5 -25c-30.667 0 -56.5 6 -77.5 18s-40.167 32 -57.5 60v-230h-55v647z" />
    <glyph glyph-name="mu" unicode="&#x3bc;" 
d="M52 481l54.998 -0.000976562v-277c0 -19.333 0.833008 -36.166 2.5 -50.499s4.33398 -26.833 8.00098 -37.5s8.83398 -20.167 15.501 -28.5s15 -16.5 25 -24.5c24.667 -20.667 52.667 -31 84 -31c21.333 0 41 4.5 59 13.5s33.5 21.5 46.5 37.5s23 35.167 30 57.5
s10.5 46.833 10.5 73.5v267h55v-481h-54v93c-18 -38 -38.5 -65.333 -61.5 -82s-51.5 -25 -85.5 -25c-30.667 0 -56.5 6 -77.5 18s-40.167 32 -57.5 60v-230h-55v647z" />
    <glyph glyph-name="paragraph" unicode="&#xb6;" horiz-adv-x="539" 
d="M233 314c-2.66699 -0.666992 -5.33496 -0.998047 -8.00195 -0.998047h-8c-27.333 0 -52.166 4.33301 -74.499 13s-41.666 20.667 -57.999 36s-29 33.666 -38 54.999s-13.5 45 -13.5 71c0 38 9.83301 71.667 29.5 101s45.5 49.666 77.5 60.999s69 17 111 17h221v-32h-48
v-734h-40v734h-110v-734h-41v413z" />
    <glyph glyph-name="periodcentered" unicode="&#xb7;" horiz-adv-x="211" 
d="M106 354c-14 0 -25.334 5.33301 -34.001 16s-13 25 -13 43c0 19.333 4.33301 34.833 13 46.5s19.667 17.5 33 17.5s24.333 -5.83301 33 -17.5s13 -26.834 13 -45.501c0 -17.333 -4.16699 -31.666 -12.5 -42.999s-19.166 -17 -32.499 -17z" />
    <glyph glyph-name="periodcentered" unicode="&#x2219;" horiz-adv-x="211" 
d="M106 354c-14 0 -25.334 5.33301 -34.001 16s-13 25 -13 43c0 19.333 4.33301 34.833 13 46.5s19.667 17.5 33 17.5s24.333 -5.83301 33 -17.5s13 -26.834 13 -45.501c0 -17.333 -4.16699 -31.666 -12.5 -42.999s-19.166 -17 -32.499 -17z" />
    <glyph glyph-name="cedilla" unicode="&#xb8;" 
d="M285 0l-12.999 -50c3.33301 0.666992 6.33301 1 9 1h7c24.667 0 44.667 -5 60 -15s23 -23 23 -39c0 -10.667 -3 -20.834 -9 -30.501s-14 -18 -24 -25s-21.833 -12.5 -35.5 -16.5s-28.167 -6 -43.5 -6c-26 0 -47.667 5.83301 -65 17.5s-26 26.167 -26 43.5
c0 6 1.33301 11 4 15s6.66699 6 12 6c6 0 10.833 -2.66699 14.5 -8s5.5 -12.666 5.5 -21.999v-9v-6c-0.666992 -5.33301 3.16602 -10 11.499 -14s17.833 -6 28.5 -6c16 0 28.833 4.5 38.5 13.5s14.5 21.167 14.5 36.5c0 13.333 -3.83301 24.333 -11.5 33
s-20.167 16.667 -37.5 24l17 57h20z" />
    <glyph glyph-name="ordmasculine" unicode="&#xba;" horiz-adv-x="445" 
d="M223 678c44 0 79 -14.166 105 -42.499s39 -66.5 39 -114.5c0 -46.667 -13.167 -84 -39.5 -112s-61.5 -42 -105.5 -42s-79 14.167 -105 42.5s-39 65.833 -39 112.5c0 47.333 13.167 85.166 39.5 113.499s61.5 42.5 105.5 42.5zM368 285.001h-289v30h289v-30zM223 645.001
c-31.333 0 -56.167 -10.999 -74.5 -32.999s-27.5 -51.667 -27.5 -89c0 -38 9 -67.833 27 -89.5s43 -32.5 75 -32.5c31.333 0 56 10.667 74 32s27 50.666 27 87.999c0 38 -9 68.167 -27 90.5s-42.667 33.5 -74 33.5z" />
    <glyph glyph-name="guillemotright" unicode="&#xbb;" horiz-adv-x="382" 
d="M224 93h-59l112 107l-113 103h64l111 -103zM109 93h-59l112 107l-112 103h63l111 -103z" />
    <glyph glyph-name="questiondown" unicode="&#xbf;" horiz-adv-x="331" 
d="M255 305c-22.667 34 -47.667 51.002 -75 51.002c-21.333 0 -38.333 -15.167 -51 -45.5s-19 -71.833 -19 -124.5c0 -55.333 7.16699 -99.333 21.5 -132s33.5 -49 57.5 -49c25.333 0 38 10 38 30c0 4.66699 -0.5 8.66699 -1.5 12s-3.5 8.33301 -7.5 15
c-5.33301 10 -8 18 -8 24c0 8 3.5 15.167 10.5 21.5s15.167 9.5 24.5 9.5c10.667 0 19.667 -4.16699 27 -12.5s11 -18.5 11 -30.5c0 -10.667 -2.5 -20.667 -7.5 -30s-12 -17.5 -21 -24.5s-19.333 -12.5 -31 -16.5s-23.834 -6 -36.501 -6c-21.333 0 -41.333 5 -60 15
s-34.834 23.667 -48.501 41s-24.5 37.666 -32.5 60.999s-12 48.666 -12 75.999c0 24.667 3.5 47.834 10.5 69.501s16.833 40.167 29.5 55.5s27.334 27.5 44.001 36.5s35 13.5 55 13.5c14.667 0 27.334 -2.33301 38.001 -7s22 -12.667 34 -24v220
c-14.667 3.33301 -26.167 10.666 -34.5 21.999s-12.5 25.666 -12.5 42.999c0 18.667 4.5 33.834 13.5 45.501s21.167 17.5 36.5 17.5c16 0 28.667 -5.5 38 -16.5s14 -26.167 14 -45.5c0 -18 -3.5 -32.333 -10.5 -43s-18.5 -18.667 -34.5 -24v-248z" />
    <glyph glyph-name="Agrave" unicode="&#xc0;" horiz-adv-x="665" 
d="M0 8h74l237 666h14l246 -666h94v-8h-269v8h76l-75 204h-240l-72 -204h74v-8h-159v8zM394 222l-119 325l-115 -325h234zM419 755c1.33301 -2.66699 2.16699 -4.16797 2.5 -4.50098s0.5 -0.833008 0.5 -1.5v-1c0 -3.33301 -0.5 -5.16602 -1.5 -5.49902s-2.5 -0.5 -4.5 -0.5
c-3.33301 -0.666992 -7.33301 1.33301 -12 6l-159 150c-2.66699 2.66699 -4 5.66699 -4 9c0 5.33301 3 8 9 8h76z" />
    <glyph glyph-name="Aacute" unicode="&#xc1;" horiz-adv-x="665" 
d="M0 8h74l237 666h14l246 -666h94v-8h-269v8h76l-75 204h-240l-72 -204h74v-8h-159v8zM394 222l-119 325l-115 -325h234zM413 915c6 0 9 -2.66504 9 -7.99805c0 -3.33301 -1.33301 -6.33301 -4 -9l-159 -150c-3.33301 -3.33301 -5.66602 -5.33301 -6.99902 -6s-3 -1 -5 -1
c-2 1.33301 -3.5 2.16602 -4.5 2.49902s-1.5 1.5 -1.5 3.5v2c0 1.33301 0.166992 2.16602 0.5 2.49902s1.16602 1.5 2.49902 3.5l93 160h76z" />
    <glyph glyph-name="Acircumflex" unicode="&#xc2;" horiz-adv-x="665" 
d="M0 8h74l237 666h14l246 -666h94v-8h-269v8h76l-75 204h-240l-72 -204h74v-8h-159v8zM394 222l-119 325l-115 -325h234zM215 742l-8 8l126 142l124 -141l-9 -10l-115 68z" />
    <glyph glyph-name="Atilde" unicode="&#xc3;" horiz-adv-x="665" 
d="M0 8h74l237 666h14l246 -666h94v-8h-269v8h76l-75 204h-240l-72 -204h74v-8h-159v8zM394 222l-119 325l-115 -325h234zM484 828c-12 -27.333 -26.668 -48.665 -44.001 -63.998s-35.666 -23 -54.999 -23c-6.66699 0 -13.5 0.833008 -20.5 2.5s-17.167 4.5 -30.5 8.5
c-5.33301 1.33301 -10 2.66602 -14 3.99902s-7.33301 2.33301 -10 3l-29 9c-6.66699 1.33301 -12.167 2.66602 -16.5 3.99902s-7.5 2.33301 -9.5 3c-6.66699 1.33301 -11.667 2 -15 2c-8 0 -15.5 -2.5 -22.5 -7.5s-14.5 -13.833 -22.5 -26.5h-13
c10.667 27.333 24.167 48.333 40.5 63s34.166 22 53.499 22c4.66699 0 10.334 -0.666992 17.001 -2l20 -6l28 -7l33 -10c10 -3.33301 19.667 -5.83301 29 -7.5s16.333 -2.5 21 -2.5c18.667 0 34 11.667 46 35h14z" />
    <glyph glyph-name="Adieresis" unicode="&#xc4;" horiz-adv-x="665" 
d="M0 8h74l237 666h14l246 -666h94v-8h-269v8h76l-75 204h-240l-72 -204h74v-8h-159v8zM394 222l-119 325l-115 -325h234zM255 741c-11.333 0 -21.166 4.16699 -29.499 12.5s-12.5 18.5 -12.5 30.5c0 11.333 4.16699 21.166 12.5 29.499s18.166 12.5 29.499 12.5
c12 0 22.167 -4.16699 30.5 -12.5s12.5 -18.166 12.5 -29.499c0 -12 -4.16699 -22.167 -12.5 -30.5s-18.5 -12.5 -30.5 -12.5zM409 741c-12 0 -22.167 4.16699 -30.5 12.5s-12.5 18.5 -12.5 30.5c0 11.333 4.16699 21.166 12.5 29.499s18.5 12.5 30.5 12.5
c11.333 0 21.166 -4.16699 29.499 -12.5s12.5 -18.166 12.5 -29.499c0 -12 -4.16699 -22.167 -12.5 -30.5s-18.166 -12.5 -29.499 -12.5z" />
    <glyph glyph-name="Aring" unicode="&#xc5;" horiz-adv-x="665" 
d="M0 8h74l237 666h14l246 -666h94v-8h-269v8h76l-75 204h-240l-72 -204h74v-8h-159v8zM394 222l-119 325l-115 -325h234zM332 741c-18 0 -33.167 6.33301 -45.5 19s-18.5 27.667 -18.5 45s6.33301 32.333 19 45s27.667 19 45 19s32.333 -6.33301 45 -19s19 -27.667 19 -45
s-6.33301 -32.333 -19 -45s-27.667 -19 -45 -19zM332 762c11.333 0 21.166 4.16699 29.499 12.5s12.5 18.5 12.5 30.5s-4.16699 22.167 -12.5 30.5s-18.166 12.5 -29.499 12.5c-12 0 -22.167 -4.33301 -30.5 -13s-12.5 -18.667 -12.5 -30c0 -12 4.16699 -22.167 12.5 -30.5
s18.5 -12.5 30.5 -12.5z" />
    <glyph glyph-name="AE" unicode="&#xc6;" horiz-adv-x="1107" 
d="M0 8l60 -0.000976562l515 652h-73v9h528v-164h-5c-6 50 -22.333 88.333 -49 115s-62.334 40 -107.001 40h-9h-184v-312h49h12c18 0 35.167 3.66699 51.5 11s30.833 17.333 43.5 30s22.667 27.5 30 44.5s11 35.167 11 54.5h6v-293h-6
c-1.33301 46 -14.166 81.833 -38.499 107.5s-57.833 38.5 -100.5 38.5h-14h-43v-332h154h7c28.667 0 56.5 5.33301 83.5 16s50.833 25.334 71.5 44.001s37.5 40 50.5 64s19.833 49.333 20.5 76h6v-209h-573v8h81v211h-339l-162 -211l67 1v-9h-144v8zM578 227.999v419
l-330 -419h330z" />
    <glyph glyph-name="Ccedilla" unicode="&#xc7;" horiz-adv-x="622" 
d="M557 450l-7.99902 -0.00292969c-2 11.333 -4 21.166 -6 29.499s-4.5 16.333 -7.5 24s-6.66699 15.5 -11 23.5l-15.5 28c-24 41.333 -49.5 71.166 -76.5 89.499s-59.5 27.5 -97.5 27.5c-40.667 0 -73.167 -11.5 -97.5 -34.5s-44.5 -60.833 -60.5 -113.5
c-20 -66 -30 -134 -30 -204c0 -50 4 -95 12 -135s19.5 -74.167 34.5 -102.5s32.833 -50.166 53.5 -65.499s44 -23 70 -23c20 0 40.667 3.83301 62 11.5s42 18.334 62 32.001s38.333 29.667 55 48s30.667 38.5 42 60.5c4 8 7.33301 15.167 10 21.5s5.33398 13 8.00098 20
s5 14.833 7 23.5s4.66699 19.334 8 32.001h8l-3 -241c-18 20 -42.333 30 -73 30c-9.33301 0 -18.333 -1 -27 -3s-19.667 -5.66699 -33 -11c-12.667 -5.33301 -23.5 -9.66602 -32.5 -12.999s-16.167 -5.66602 -21.5 -6.99902c-19.333 -7.33301 -36.333 -11.333 -51 -12h-4
l-13 -50c3.33301 0.666992 6.33301 1 9 1h7c24.667 0 44.667 -5 60 -15s23 -23 23 -39c0 -10.667 -3 -20.834 -9 -30.501s-14 -18 -24 -25s-21.833 -12.5 -35.5 -16.5s-28.167 -6 -43.5 -6c-26 0 -47.667 5.83301 -65 17.5s-26 26.167 -26 43.5c0 13.333 5.33301 20 16 20
c6 0 10.833 -2.66699 14.5 -8s5.5 -12.666 5.5 -21.999v-8v-6c-0.666992 -5.33301 3.33301 -10 12 -14s18 -6 28 -6c16 0 28.833 4.5 38.5 13.5s14.5 21.167 14.5 36.5c0 13.333 -3.66699 24.333 -11 33s-20 16.667 -38 24l17 57h-3c-20.667 0 -42.334 4.5 -65.001 13.5
s-44.667 21.167 -66 36.5s-41 33.333 -59 54s-32.333 42.667 -43 66c-24.667 51.333 -37 108 -37 170c0 48.667 7.66699 94.5 23 137.5s36.5 80.5 63.5 112.5s58.667 57.167 95 75.5s75.166 27.5 116.499 27.5c8.66699 0 16.667 -0.5 24 -1.5s14.833 -2.66699 22.5 -5
s16.167 -5.5 25.5 -9.5s20.333 -9.33301 33 -16c12 -6.66699 22 -11.167 30 -13.5s15.667 -3.5 23 -3.5c22.667 0 42.667 6.33301 60 19v-199z" />
    <glyph glyph-name="Egrave" unicode="&#xc8;" horiz-adv-x="643" 
d="M31 8l83.9961 0.000976562v652h-79v8h532v-167h-6v4c0 12.667 -2.16699 25.667 -6.5 39s-10 26 -17 38s-15.167 23.167 -24.5 33.5s-19.333 18.5 -30 24.5c-13.333 8 -26.166 13.5 -38.499 16.5s-28.166 4.5 -47.499 4.5h-184v-313h53h7
c18.667 0 35.834 3.16699 51.501 9.5s29.334 15.666 41.001 27.999s21.167 27 28.5 44s12 36.167 14 57.5h8v-294h-7v5c-0.666992 44 -14 78.667 -40 104s-61.333 38 -106 38h-10h-40v-331h148h12c29.333 0 57 4.66699 83 14s49.167 22.833 69.5 40.5s37 38.5 50 62.5
s21.167 50.667 24.5 80h5v-206h-575v8zM405.996 749.001c1.33301 -2.66699 2.16699 -4.16797 2.5 -4.50098s0.5 -0.833008 0.5 -1.5v-1c0 -3.33301 -0.5 -5.16602 -1.5 -5.49902s-2.5 -0.5 -4.5 -0.5c-3.33301 -0.666992 -7.33301 1.33301 -12 6l-159 150
c-2.66699 2.66699 -4 5.66699 -4 9c0 5.33301 3 8 9 8h76z" />
    <glyph glyph-name="Eacute" unicode="&#xc9;" horiz-adv-x="643" 
d="M31 8l83.9961 0.000976562v652h-79v8h532v-167h-6v4c0 12.667 -2.16699 25.667 -6.5 39s-10 26 -17 38s-15.167 23.167 -24.5 33.5s-19.333 18.5 -30 24.5c-13.333 8 -26.166 13.5 -38.499 16.5s-28.166 4.5 -47.499 4.5h-184v-313h53h7
c18.667 0 35.834 3.16699 51.501 9.5s29.334 15.666 41.001 27.999s21.167 27 28.5 44s12 36.167 14 57.5h8v-294h-7v5c-0.666992 44 -14 78.667 -40 104s-61.333 38 -106 38h-10h-40v-331h148h12c29.333 0 57 4.66699 83 14s49.167 22.833 69.5 40.5s37 38.5 50 62.5
s21.167 50.667 24.5 80h5v-206h-575v8zM399.996 909.001c6 0 9 -2.66504 9 -7.99805c0 -3.33301 -1.33301 -6.33301 -4 -9l-159 -150c-3.33301 -3.33301 -5.66602 -5.33301 -6.99902 -6s-3 -1 -5 -1c-2 1.33301 -3.5 2.16602 -4.5 2.49902s-1.5 1.5 -1.5 3.5v2
c0 1.33301 0.166992 2.16602 0.5 2.49902s1.16602 1.5 2.49902 3.5l93 160h76z" />
    <glyph glyph-name="Ecircumflex" unicode="&#xca;" horiz-adv-x="643" 
d="M31 8l83.9961 0.000976562v652h-79v8h532v-167h-6v4c0 12.667 -2.16699 25.667 -6.5 39s-10 26 -17 38s-15.167 23.167 -24.5 33.5s-19.333 18.5 -30 24.5c-13.333 8 -26.166 13.5 -38.499 16.5s-28.166 4.5 -47.499 4.5h-184v-313h53h7
c18.667 0 35.834 3.16699 51.501 9.5s29.334 15.666 41.001 27.999s21.167 27 28.5 44s12 36.167 14 57.5h8v-294h-7v5c-0.666992 44 -14 78.667 -40 104s-61.333 38 -106 38h-10h-40v-331h148h12c29.333 0 57 4.66699 83 14s49.167 22.833 69.5 40.5s37 38.5 50 62.5
s21.167 50.667 24.5 80h5v-206h-575v8zM201.996 736.001l-8 8l126 142l124 -141l-9 -10l-115 68z" />
    <glyph glyph-name="Edieresis" unicode="&#xcb;" horiz-adv-x="643" 
d="M31 8l83.9961 0.000976562v652h-79v8h532v-167h-6v4c0 12.667 -2.16699 25.667 -6.5 39s-10 26 -17 38s-15.167 23.167 -24.5 33.5s-19.333 18.5 -30 24.5c-13.333 8 -26.166 13.5 -38.499 16.5s-28.166 4.5 -47.499 4.5h-184v-313h53h7
c18.667 0 35.834 3.16699 51.501 9.5s29.334 15.666 41.001 27.999s21.167 27 28.5 44s12 36.167 14 57.5h8v-294h-7v5c-0.666992 44 -14 78.667 -40 104s-61.333 38 -106 38h-10h-40v-331h148h12c29.333 0 57 4.66699 83 14s49.167 22.833 69.5 40.5s37 38.5 50 62.5
s21.167 50.667 24.5 80h5v-206h-575v8zM240.996 735.001c-11.333 0 -21.166 4.16699 -29.499 12.5s-12.5 18.5 -12.5 30.5c0 11.333 4.16699 21.166 12.5 29.499s18.166 12.5 29.499 12.5c12 0 22.167 -4.16699 30.5 -12.5s12.5 -18.166 12.5 -29.499
c0 -12 -4.16699 -22.167 -12.5 -30.5s-18.5 -12.5 -30.5 -12.5zM394.996 735.001c-12 0 -22.167 4.16699 -30.5 12.5s-12.5 18.5 -12.5 30.5c0 11.333 4.16699 21.166 12.5 29.499s18.5 12.5 30.5 12.5c11.333 0 21.166 -4.16699 29.499 -12.5s12.5 -18.166 12.5 -29.499
c0 -12 -4.16699 -22.167 -12.5 -30.5s-18.166 -12.5 -29.499 -12.5z" />
    <glyph glyph-name="Igrave" unicode="&#xcc;" horiz-adv-x="316" 
d="M31 8h81v649h-80v9h252v-8h-79v-649h79v-9h-253v8zM245 747c1.33301 -2.66699 2.16699 -4.16797 2.5 -4.50098s0.5 -0.833008 0.5 -1.5v-1c0 -3.33301 -0.5 -5.16602 -1.5 -5.49902s-2.5 -0.5 -4.5 -0.5c-3.33301 -0.666992 -7.33301 1.33301 -12 6l-159 150
c-2.66699 2.66699 -4 5.66699 -4 9c0 5.33301 3 8 9 8h76z" />
    <glyph glyph-name="Iacute" unicode="&#xcd;" horiz-adv-x="316" 
d="M31 8h81v649h-80v9h252v-8h-79v-649h79v-9h-253v8zM239 907c6 0 9 -2.66504 9 -7.99805c0 -3.33301 -1.33301 -6.33301 -4 -9l-159 -150c-3.33301 -3.33301 -5.66602 -5.33301 -6.99902 -6s-3 -1 -5 -1c-2 1.33301 -3.5 2.16602 -4.5 2.49902s-1.5 1.5 -1.5 3.5v2
c0 1.33301 0.166992 2.16602 0.5 2.49902s1.16602 1.5 2.49902 3.5l93 160h76z" />
    <glyph glyph-name="Icircumflex" unicode="&#xce;" horiz-adv-x="316" 
d="M31 8h81v649h-80v9h252v-8h-79v-649h79v-9h-253v8zM42 734l-8 8l126 142l124 -141l-9 -10l-115 68z" />
    <glyph glyph-name="Idieresis" unicode="&#xcf;" horiz-adv-x="316" 
d="M31 8h81v649h-80v9h252v-8h-79v-649h79v-9h-253v8zM80 733c-11.333 0 -21.166 4.16699 -29.499 12.5s-12.5 18.5 -12.5 30.5c0 11.333 4.16699 21.166 12.5 29.499s18.166 12.5 29.499 12.5c12 0 22.167 -4.16699 30.5 -12.5s12.5 -18.166 12.5 -29.499
c0 -12 -4.16699 -22.167 -12.5 -30.5s-18.5 -12.5 -30.5 -12.5zM234 733c-12 0 -22.167 4.16699 -30.5 12.5s-12.5 18.5 -12.5 30.5c0 11.333 4.16699 21.166 12.5 29.499s18.5 12.5 30.5 12.5c11.333 0 21.166 -4.16699 29.499 -12.5s12.5 -18.166 12.5 -29.499
c0 -12 -4.16699 -22.167 -12.5 -30.5s-18.166 -12.5 -29.499 -12.5z" />
    <glyph glyph-name="Ntilde" unicode="&#xd1;" horiz-adv-x="653" 
d="M31 8h70v652h-70v9h188l317 -493v484h-66v9h152v-9h-75v-676l-436 676v-651h69v-9h-149v8zM478 823c-12 -27.333 -26.668 -48.665 -44.001 -63.998s-35.666 -23 -54.999 -23c-6.66699 0 -13.5 0.833008 -20.5 2.5s-17.167 4.5 -30.5 8.5
c-5.33301 1.33301 -10 2.66602 -14 3.99902s-7.33301 2.33301 -10 3l-29 9c-6.66699 1.33301 -12.167 2.66602 -16.5 3.99902s-7.5 2.33301 -9.5 3c-6.66699 1.33301 -11.667 2 -15 2c-8 0 -15.5 -2.5 -22.5 -7.5s-14.5 -13.833 -22.5 -26.5h-13
c10.667 27.333 24.167 48.333 40.5 63s34.166 22 53.499 22c4.66699 0 10.334 -0.666992 17.001 -2l20 -6l28 -7l33 -10c10 -3.33301 19.667 -5.83301 29 -7.5s16.333 -2.5 21 -2.5c18.667 0 34 11.667 46 35h14z" />
    <glyph glyph-name="Ograve" unicode="&#xd2;" horiz-adv-x="697" 
d="M342 -12c-40.667 0 -79.167 9.00293 -115.5 27.0029s-68.333 42.167 -96 72.5s-49.5 65.666 -65.5 105.999s-24 83.166 -24 128.499c0 48 8.33301 93.5 25 136.5s39.334 81 68.001 114s61.667 59.167 99 78.5s76.666 29 117.999 29c40.667 0 79.334 -9.66699 116.001 -29
s69 -45.5 97 -78.5s50.167 -71.167 66.5 -114.5s24.5 -89 24.5 -137c0 -45.333 -8.33301 -88 -25 -128s-39.334 -75.333 -68.001 -106s-62 -54.834 -100 -72.501s-78 -26.5 -120 -26.5zM339 -2.99707c55.333 0 98.501 13.998 129.501 41.998s53.5 73.667 67.5 137
c11.333 54.667 17 109 17 163c0 64.667 -7.33301 122.334 -22 173.001s-35 88.667 -61 114c-31.333 30 -72.333 45 -123 45c-90 0 -149.667 -50.667 -179 -152c-17.333 -59.333 -26 -121.666 -26 -186.999c0 -70 7.16699 -131 21.5 -183s34.166 -90 59.499 -114
c13.333 -12.667 30 -22.167 50 -28.5s42 -9.5 66 -9.5zM435.001 761.001c1.33301 -2.66699 2.16699 -4.16797 2.5 -4.50098s0.5 -0.833008 0.5 -1.5v-1c0 -3.33301 -0.5 -5.16602 -1.5 -5.49902s-2.5 -0.5 -4.5 -0.5c-3.33301 -0.666992 -7.33301 1.33301 -12 6l-159 150
c-2.66699 2.66699 -4 5.66699 -4 9c0 5.33301 3 8 9 8h76z" />
    <glyph glyph-name="Oacute" unicode="&#xd3;" horiz-adv-x="697" 
d="M342 -12c-40.667 0 -79.167 9.00293 -115.5 27.0029s-68.333 42.167 -96 72.5s-49.5 65.666 -65.5 105.999s-24 83.166 -24 128.499c0 48 8.33301 93.5 25 136.5s39.334 81 68.001 114s61.667 59.167 99 78.5s76.666 29 117.999 29c40.667 0 79.334 -9.66699 116.001 -29
s69 -45.5 97 -78.5s50.167 -71.167 66.5 -114.5s24.5 -89 24.5 -137c0 -45.333 -8.33301 -88 -25 -128s-39.334 -75.333 -68.001 -106s-62 -54.834 -100 -72.501s-78 -26.5 -120 -26.5zM339 -2.99707c55.333 0 98.501 13.998 129.501 41.998s53.5 73.667 67.5 137
c11.333 54.667 17 109 17 163c0 64.667 -7.33301 122.334 -22 173.001s-35 88.667 -61 114c-31.333 30 -72.333 45 -123 45c-90 0 -149.667 -50.667 -179 -152c-17.333 -59.333 -26 -121.666 -26 -186.999c0 -70 7.16699 -131 21.5 -183s34.166 -90 59.499 -114
c13.333 -12.667 30 -22.167 50 -28.5s42 -9.5 66 -9.5zM429.001 921.001c6 0 9 -2.66504 9 -7.99805c0 -3.33301 -1.33301 -6.33301 -4 -9l-159 -150c-3.33301 -3.33301 -5.66602 -5.33301 -6.99902 -6s-3 -1 -5 -1c-2 1.33301 -3.5 2.16602 -4.5 2.49902s-1.5 1.5 -1.5 3.5
v2c0 1.33301 0.166992 2.16602 0.5 2.49902s1.16602 1.5 2.49902 3.5l93 160h76z" />
    <glyph glyph-name="Ocircumflex" unicode="&#xd4;" horiz-adv-x="697" 
d="M342 -12c-40.667 0 -79.167 9.00293 -115.5 27.0029s-68.333 42.167 -96 72.5s-49.5 65.666 -65.5 105.999s-24 83.166 -24 128.499c0 48 8.33301 93.5 25 136.5s39.334 81 68.001 114s61.667 59.167 99 78.5s76.666 29 117.999 29c40.667 0 79.334 -9.66699 116.001 -29
s69 -45.5 97 -78.5s50.167 -71.167 66.5 -114.5s24.5 -89 24.5 -137c0 -45.333 -8.33301 -88 -25 -128s-39.334 -75.333 -68.001 -106s-62 -54.834 -100 -72.501s-78 -26.5 -120 -26.5zM339 -2.99707c55.333 0 98.501 13.998 129.501 41.998s53.5 73.667 67.5 137
c11.333 54.667 17 109 17 163c0 64.667 -7.33301 122.334 -22 173.001s-35 88.667 -61 114c-31.333 30 -72.333 45 -123 45c-90 0 -149.667 -50.667 -179 -152c-17.333 -59.333 -26 -121.666 -26 -186.999c0 -70 7.16699 -131 21.5 -183s34.166 -90 59.499 -114
c13.333 -12.667 30 -22.167 50 -28.5s42 -9.5 66 -9.5zM231.001 748.001l-8 8l126 142l124 -141l-9 -10l-115 68z" />
    <glyph glyph-name="Otilde" unicode="&#xd5;" horiz-adv-x="697" 
d="M342 -12c-40.667 0 -79.167 9.00293 -115.5 27.0029s-68.333 42.167 -96 72.5s-49.5 65.666 -65.5 105.999s-24 83.166 -24 128.499c0 48 8.33301 93.5 25 136.5s39.334 81 68.001 114s61.667 59.167 99 78.5s76.666 29 117.999 29c40.667 0 79.334 -9.66699 116.001 -29
s69 -45.5 97 -78.5s50.167 -71.167 66.5 -114.5s24.5 -89 24.5 -137c0 -45.333 -8.33301 -88 -25 -128s-39.334 -75.333 -68.001 -106s-62 -54.834 -100 -72.501s-78 -26.5 -120 -26.5zM339 -2.99707c55.333 0 98.501 13.998 129.501 41.998s53.5 73.667 67.5 137
c11.333 54.667 17 109 17 163c0 64.667 -7.33301 122.334 -22 173.001s-35 88.667 -61 114c-31.333 30 -72.333 45 -123 45c-90 0 -149.667 -50.667 -179 -152c-17.333 -59.333 -26 -121.666 -26 -186.999c0 -70 7.16699 -131 21.5 -183s34.166 -90 59.499 -114
c13.333 -12.667 30 -22.167 50 -28.5s42 -9.5 66 -9.5zM499.001 834.001c-12 -27.333 -26.668 -48.665 -44.001 -63.998s-35.666 -23 -54.999 -23c-6.66699 0 -13.5 0.833008 -20.5 2.5s-17.167 4.5 -30.5 8.5c-5.33301 1.33301 -10 2.66602 -14 3.99902
s-7.33301 2.33301 -10 3l-29 9c-6.66699 1.33301 -12.167 2.66602 -16.5 3.99902s-7.5 2.33301 -9.5 3c-6.66699 1.33301 -11.667 2 -15 2c-8 0 -15.5 -2.5 -22.5 -7.5s-14.5 -13.833 -22.5 -26.5h-13c10.667 27.333 24.167 48.333 40.5 63s34.166 22 53.499 22
c4.66699 0 10.334 -0.666992 17.001 -2l20 -6l28 -7l33 -10c10 -3.33301 19.667 -5.83301 29 -7.5s16.333 -2.5 21 -2.5c18.667 0 34 11.667 46 35h14z" />
    <glyph glyph-name="Odieresis" unicode="&#xd6;" horiz-adv-x="697" 
d="M342 -12c-40.667 0 -79.167 9.00293 -115.5 27.0029s-68.333 42.167 -96 72.5s-49.5 65.666 -65.5 105.999s-24 83.166 -24 128.499c0 48 8.33301 93.5 25 136.5s39.334 81 68.001 114s61.667 59.167 99 78.5s76.666 29 117.999 29c40.667 0 79.334 -9.66699 116.001 -29
s69 -45.5 97 -78.5s50.167 -71.167 66.5 -114.5s24.5 -89 24.5 -137c0 -45.333 -8.33301 -88 -25 -128s-39.334 -75.333 -68.001 -106s-62 -54.834 -100 -72.501s-78 -26.5 -120 -26.5zM339 -2.99707c55.333 0 98.501 13.998 129.501 41.998s53.5 73.667 67.5 137
c11.333 54.667 17 109 17 163c0 64.667 -7.33301 122.334 -22 173.001s-35 88.667 -61 114c-31.333 30 -72.333 45 -123 45c-90 0 -149.667 -50.667 -179 -152c-17.333 -59.333 -26 -121.666 -26 -186.999c0 -70 7.16699 -131 21.5 -183s34.166 -90 59.499 -114
c13.333 -12.667 30 -22.167 50 -28.5s42 -9.5 66 -9.5zM270.001 747.001c-11.333 0 -21.166 4.16699 -29.499 12.5s-12.5 18.5 -12.5 30.5c0 11.333 4.16699 21.166 12.5 29.499s18.166 12.5 29.499 12.5c12 0 22.167 -4.16699 30.5 -12.5s12.5 -18.166 12.5 -29.499
c0 -12 -4.16699 -22.167 -12.5 -30.5s-18.5 -12.5 -30.5 -12.5zM424.001 747.001c-12 0 -22.167 4.16699 -30.5 12.5s-12.5 18.5 -12.5 30.5c0 11.333 4.16699 21.166 12.5 29.499s18.5 12.5 30.5 12.5c11.333 0 21.166 -4.16699 29.499 -12.5s12.5 -18.166 12.5 -29.499
c0 -12 -4.16699 -22.167 -12.5 -30.5s-18.166 -12.5 -29.499 -12.5z" />
    <glyph glyph-name="Oslash" unicode="&#xd8;" horiz-adv-x="697" 
d="M706 668l6.00195 -7.00098l-126 -119c21.333 -32 38.166 -67.667 50.499 -107s18.5 -77.666 18.5 -114.999c0 -44.667 -8.5 -87 -25.5 -127s-39.667 -75.167 -68 -105.5s-61.333 -54.5 -99 -72.5s-77.167 -27 -118.5 -27c-42 0 -82.167 9.5 -120.5 28.5
s-73.166 46.833 -104.499 83.5l-115 -106l-7 7l115 108c-24.667 34 -42.667 68 -54 102s-17 71 -17 111c0 48 8.33301 93.5 25 136.5s39.334 81 68.001 114s61.667 59.167 99 78.5s76.666 29 117.999 29c45.333 0 87.666 -11.167 126.999 -33.5s73.666 -54.5 102.999 -96.5z
M533.002 505.999c-17.333 58.667 -40.5 100.832 -69.5 126.499s-67.833 38.5 -116.5 38.5c-90.667 0 -150.334 -50.667 -179.001 -152c-17.333 -58 -26 -119 -26 -183c0 -19.333 0.166992 -36.166 0.5 -50.499s1.33301 -28 3 -41s3.83398 -26.5 6.50098 -40.5
s6 -30.333 10 -49zM165.002 143.997c1.33301 -2 2.16699 -3.83301 2.5 -5.5s0.833008 -3.16699 1.5 -4.5c10 -27.333 20.167 -49.833 30.5 -67.5s22.333 -31.667 36 -42s29.667 -17.5 48 -21.5s40.166 -6 65.499 -6c98 0 160.333 59.667 187 179
c11.333 56.667 17 112.334 17 167.001c0 18.667 -0.166992 34.667 -0.5 48s-1.16602 25.333 -2.49902 36s-3 21.167 -5 31.5s-5 22.166 -9 35.499z" />
    <glyph glyph-name="Ugrave" unicode="&#xd9;" horiz-adv-x="681" 
d="M30 659l0.00195312 9.00293h257v-8h-79v-506v-8c-0.666992 -28 1.16602 -50.333 5.49902 -67s11.5 -30.334 21.5 -41.001c26 -28 66.333 -42 121 -42c21.333 0 42.166 2.66699 62.499 8s38.833 12.666 55.5 21.999s31 20.5 43 33.5s21 27.167 27 42.5
c5.33301 14 9.33301 30.333 12 49s4 39.667 4 63v8v437h-71v9h162v-8h-81v-443v-10c0 -50.667 -7 -90.667 -21 -120s-37.333 -52.333 -70 -69c-42.667 -20.667 -88.667 -31 -138 -31c-22.667 0 -44.5 2 -65.5 6s-40.5 9.66699 -58.5 17s-33.833 16.166 -47.5 26.499
s-24.5 22.166 -32.5 35.499c-9.33301 14.667 -16.5 32.834 -21.5 54.501s-7.5 46.167 -7.5 73.5v9v450h-78zM427.002 749.003c1.33301 -2.66699 2.16699 -4.16797 2.5 -4.50098s0.5 -0.833008 0.5 -1.5v-1c0 -3.33301 -0.5 -5.16602 -1.5 -5.49902s-2.5 -0.5 -4.5 -0.5
c-3.33301 -0.666992 -7.33301 1.33301 -12 6l-159 150c-2.66699 2.66699 -4 5.66699 -4 9c0 5.33301 3 8 9 8h76z" />
    <glyph glyph-name="Uacute" unicode="&#xda;" horiz-adv-x="681" 
d="M30 659l0.00195312 9.00293h257v-8h-79v-506v-8c-0.666992 -28 1.16602 -50.333 5.49902 -67s11.5 -30.334 21.5 -41.001c26 -28 66.333 -42 121 -42c21.333 0 42.166 2.66699 62.499 8s38.833 12.666 55.5 21.999s31 20.5 43 33.5s21 27.167 27 42.5
c5.33301 14 9.33301 30.333 12 49s4 39.667 4 63v8v437h-71v9h162v-8h-81v-443v-10c0 -50.667 -7 -90.667 -21 -120s-37.333 -52.333 -70 -69c-42.667 -20.667 -88.667 -31 -138 -31c-22.667 0 -44.5 2 -65.5 6s-40.5 9.66699 -58.5 17s-33.833 16.166 -47.5 26.499
s-24.5 22.166 -32.5 35.499c-9.33301 14.667 -16.5 32.834 -21.5 54.501s-7.5 46.167 -7.5 73.5v9v450h-78zM421.002 909.003c6 0 9 -2.66504 9 -7.99805c0 -3.33301 -1.33301 -6.33301 -4 -9l-159 -150c-3.33301 -3.33301 -5.66602 -5.33301 -6.99902 -6s-3 -1 -5 -1
c-2 1.33301 -3.5 2.16602 -4.5 2.49902s-1.5 1.5 -1.5 3.5v2c0 1.33301 0.166992 2.16602 0.5 2.49902s1.16602 1.5 2.49902 3.5l93 160h76z" />
    <glyph glyph-name="Ucircumflex" unicode="&#xdb;" horiz-adv-x="681" 
d="M30 659l0.00195312 9.00293h257v-8h-79v-506v-8c-0.666992 -28 1.16602 -50.333 5.49902 -67s11.5 -30.334 21.5 -41.001c26 -28 66.333 -42 121 -42c21.333 0 42.166 2.66699 62.499 8s38.833 12.666 55.5 21.999s31 20.5 43 33.5s21 27.167 27 42.5
c5.33301 14 9.33301 30.333 12 49s4 39.667 4 63v8v437h-71v9h162v-8h-81v-443v-10c0 -50.667 -7 -90.667 -21 -120s-37.333 -52.333 -70 -69c-42.667 -20.667 -88.667 -31 -138 -31c-22.667 0 -44.5 2 -65.5 6s-40.5 9.66699 -58.5 17s-33.833 16.166 -47.5 26.499
s-24.5 22.166 -32.5 35.499c-9.33301 14.667 -16.5 32.834 -21.5 54.501s-7.5 46.167 -7.5 73.5v9v450h-78zM223.002 736.003l-8 8l126 142l124 -141l-9 -10l-115 68z" />
    <glyph glyph-name="Udieresis" unicode="&#xdc;" horiz-adv-x="681" 
d="M30 659l0.00195312 9.00293h257v-8h-79v-506v-8c-0.666992 -28 1.16602 -50.333 5.49902 -67s11.5 -30.334 21.5 -41.001c26 -28 66.333 -42 121 -42c21.333 0 42.166 2.66699 62.499 8s38.833 12.666 55.5 21.999s31 20.5 43 33.5s21 27.167 27 42.5
c5.33301 14 9.33301 30.333 12 49s4 39.667 4 63v8v437h-71v9h162v-8h-81v-443v-10c0 -50.667 -7 -90.667 -21 -120s-37.333 -52.333 -70 -69c-42.667 -20.667 -88.667 -31 -138 -31c-22.667 0 -44.5 2 -65.5 6s-40.5 9.66699 -58.5 17s-33.833 16.166 -47.5 26.499
s-24.5 22.166 -32.5 35.499c-9.33301 14.667 -16.5 32.834 -21.5 54.501s-7.5 46.167 -7.5 73.5v9v450h-78zM263.002 735.003c-11.333 0 -21.166 4.16699 -29.499 12.5s-12.5 18.5 -12.5 30.5c0 11.333 4.16699 21.166 12.5 29.499s18.166 12.5 29.499 12.5
c12 0 22.167 -4.16699 30.5 -12.5s12.5 -18.166 12.5 -29.499c0 -12 -4.16699 -22.167 -12.5 -30.5s-18.5 -12.5 -30.5 -12.5zM417.002 735.003c-12 0 -22.167 4.16699 -30.5 12.5s-12.5 18.5 -12.5 30.5c0 11.333 4.16699 21.166 12.5 29.499s18.5 12.5 30.5 12.5
c11.333 0 21.166 -4.16699 29.499 -12.5s12.5 -18.166 12.5 -29.499c0 -12 -4.16699 -22.167 -12.5 -30.5s-18.166 -12.5 -29.499 -12.5z" />
    <glyph glyph-name="germandbls" unicode="&#xdf;" horiz-adv-x="503" 
d="M18 8l45.002 -0.00292969v364h-47v9h47v96v9c1.33301 50.667 5.66602 86.667 12.999 108c4 13.333 11.167 26 21.5 38s22.5 22.333 36.5 31s29.167 15.5 45.5 20.5s33.166 7.5 50.499 7.5c23.333 0 44.833 -3.83301 64.5 -11.5s36.5 -18.167 50.5 -31.5
s25 -29.5 33 -48.5s12 -39.5 12 -61.5c0 -75.333 -37 -127.666 -111 -156.999c60 -6.66699 106.667 -26.834 140 -60.501s50 -77.5 50 -131.5c0 -27.333 -4.66699 -53 -14 -77s-21.833 -45 -37.5 -63s-34 -32.167 -55 -42.5s-43.167 -15.5 -66.5 -15.5
c-17.333 0 -33.5 2.5 -48.5 7.5s-28.333 12 -40 21s-20.834 19.167 -27.501 30.5s-10 23.666 -10 36.999c0 15.333 4 28 12 38s18.333 15 31 15c11.333 0 20.666 -3.66699 27.999 -11s11 -16.666 11 -27.999c0 -7.33301 -1.5 -14.166 -4.5 -20.499
s-8.16699 -13.166 -15.5 -20.499c-8 -8 -12 -14.333 -12 -19s3 -10.167 9 -16.5s13.333 -11.833 22 -16.5c10.667 -5.33301 23.334 -8 38.001 -8c33.333 0 58.666 15.667 75.999 47s26 77 26 137c0 50 -8.5 90.833 -25.5 122.5s-41.167 51.834 -72.5 60.501
c-7.33301 1.33301 -15.666 2.5 -24.999 3.5s-20.666 1.5 -33.999 1.5h-2h-45v9h21c36 0 62.333 12.167 79 36.5s25 62.833 25 115.5c0 47.333 -7.16699 84 -21.5 110s-34.5 39 -60.5 39c-59.333 0 -89 -42.333 -89 -127v-547h48v-8h-171v8z" />
    <glyph glyph-name="agrave" unicode="&#xe0;" horiz-adv-x="468" 
d="M279 290l-0.00292969 1.99707c0 60.667 -26 91 -78 91c-22.667 0 -42.5 -5.5 -59.5 -16.5s-25.5 -23.5 -25.5 -37.5c0 -4.66699 0.833008 -8.83398 2.5 -12.501s4.83398 -8.83398 9.50098 -15.501c9.33301 -14 14 -25.667 14 -35c0 -11.333 -4.16699 -20.833 -12.5 -28.5
s-18.5 -11.5 -30.5 -11.5c-13.333 0 -24.5 5.16699 -33.5 15.5s-13.5 23.5 -13.5 39.5c0 15.333 3.83301 29.5 11.5 42.5s18.167 24.333 31.5 34s28.833 17.334 46.5 23.001s36.834 8.5 57.501 8.5c34 0 64 -7.33301 90 -22s43.667 -33.667 53 -57
c4.66699 -13.333 7.83398 -26.666 9.50098 -39.999s2.5 -32.666 2.5 -57.999v-4v-132v-7c0 -25.333 3.66699 -43.333 11 -54s20 -16 38 -16c5.33301 0 10 0.333008 14 1s7.66699 2.33398 11 5.00098c1.33301 0.666992 3.16602 1.83398 5.49902 3.50098s5.5 4.16699 9.5 7.5
l3 2l6 -5c-14.667 -16.667 -36.667 -25 -66 -25c-28.667 0 -52.667 7.66699 -72 23s-30.666 36 -33.999 62c-22.667 -57.333 -66.667 -86 -132 -86c-38 0 -68.333 9 -91 27s-34 43 -34 75c0 27.333 8.16699 47.166 24.5 59.499s45.5 20.5 87.5 24.5c20 2 37.167 4 51.5 6
s27 4.66699 38 8s20.833 7.33301 29.5 12s16.667 10.334 24 17.001zM277.997 203.997c-7.33301 -4.66699 -14.165 -8.50098 -20.498 -11.501s-12.666 -5.83301 -18.999 -8.5s-13.333 -5.16699 -21 -7.5s-16.834 -4.83301 -27.501 -7.5
c-30.667 -8.66699 -51.834 -19.834 -63.501 -33.501s-17.5 -34.167 -17.5 -61.5c0 -51.333 19.333 -77 58 -77c15.333 0 29.666 3.16699 42.999 9.5s25 14.833 35 25.5s17.833 23.334 23.5 38.001s8.5 30.334 8.5 47.001l1 7v80zM323.998 470.996
c1.33301 -2.66699 2.16699 -4.16797 2.5 -4.50098s0.5 -0.833008 0.5 -1.5v-1c0 -3.33301 -0.5 -5.16602 -1.5 -5.49902s-2.5 -0.5 -4.5 -0.5c-3.33301 -0.666992 -7.33301 1.33301 -12 6l-159 150c-2.66699 2.66699 -4 5.66699 -4 9c0 5.33301 3 8 9 8h76z" />
    <glyph glyph-name="aacute" unicode="&#xe1;" horiz-adv-x="468" 
d="M279 290l-0.00292969 1.99707c0 60.667 -26 91 -78 91c-22.667 0 -42.5 -5.5 -59.5 -16.5s-25.5 -23.5 -25.5 -37.5c0 -4.66699 0.833008 -8.83398 2.5 -12.501s4.83398 -8.83398 9.50098 -15.501c9.33301 -14 14 -25.667 14 -35c0 -11.333 -4.16699 -20.833 -12.5 -28.5
s-18.5 -11.5 -30.5 -11.5c-13.333 0 -24.5 5.16699 -33.5 15.5s-13.5 23.5 -13.5 39.5c0 15.333 3.83301 29.5 11.5 42.5s18.167 24.333 31.5 34s28.833 17.334 46.5 23.001s36.834 8.5 57.501 8.5c34 0 64 -7.33301 90 -22s43.667 -33.667 53 -57
c4.66699 -13.333 7.83398 -26.666 9.50098 -39.999s2.5 -32.666 2.5 -57.999v-4v-132v-7c0 -25.333 3.66699 -43.333 11 -54s20 -16 38 -16c5.33301 0 10 0.333008 14 1s7.66699 2.33398 11 5.00098c1.33301 0.666992 3.16602 1.83398 5.49902 3.50098s5.5 4.16699 9.5 7.5
l3 2l6 -5c-14.667 -16.667 -36.667 -25 -66 -25c-28.667 0 -52.667 7.66699 -72 23s-30.666 36 -33.999 62c-22.667 -57.333 -66.667 -86 -132 -86c-38 0 -68.333 9 -91 27s-34 43 -34 75c0 27.333 8.16699 47.166 24.5 59.499s45.5 20.5 87.5 24.5c20 2 37.167 4 51.5 6
s27 4.66699 38 8s20.833 7.33301 29.5 12s16.667 10.334 24 17.001zM277.997 203.997c-7.33301 -4.66699 -14.165 -8.50098 -20.498 -11.501s-12.666 -5.83301 -18.999 -8.5s-13.333 -5.16699 -21 -7.5s-16.834 -4.83301 -27.501 -7.5
c-30.667 -8.66699 -51.834 -19.834 -63.501 -33.501s-17.5 -34.167 -17.5 -61.5c0 -51.333 19.333 -77 58 -77c15.333 0 29.666 3.16699 42.999 9.5s25 14.833 35 25.5s17.833 23.334 23.5 38.001s8.5 30.334 8.5 47.001l1 7v80zM317.998 630.996c6 0 9 -2.66504 9 -7.99805
c0 -3.33301 -1.33301 -6.33301 -4 -9l-159 -150c-3.33301 -3.33301 -5.66602 -5.33301 -6.99902 -6s-3 -1 -5 -1c-2 1.33301 -3.5 2.16602 -4.5 2.49902s-1.5 1.5 -1.5 3.5v2c0 1.33301 0.166992 2.16602 0.5 2.49902s1.16602 1.5 2.49902 3.5l93 160h76z" />
    <glyph glyph-name="acircumflex" unicode="&#xe2;" horiz-adv-x="468" 
d="M279 290l-0.00292969 1.99707c0 60.667 -26 91 -78 91c-22.667 0 -42.5 -5.5 -59.5 -16.5s-25.5 -23.5 -25.5 -37.5c0 -4.66699 0.833008 -8.83398 2.5 -12.501s4.83398 -8.83398 9.50098 -15.501c9.33301 -14 14 -25.667 14 -35c0 -11.333 -4.16699 -20.833 -12.5 -28.5
s-18.5 -11.5 -30.5 -11.5c-13.333 0 -24.5 5.16699 -33.5 15.5s-13.5 23.5 -13.5 39.5c0 15.333 3.83301 29.5 11.5 42.5s18.167 24.333 31.5 34s28.833 17.334 46.5 23.001s36.834 8.5 57.501 8.5c34 0 64 -7.33301 90 -22s43.667 -33.667 53 -57
c4.66699 -13.333 7.83398 -26.666 9.50098 -39.999s2.5 -32.666 2.5 -57.999v-4v-132v-7c0 -25.333 3.66699 -43.333 11 -54s20 -16 38 -16c5.33301 0 10 0.333008 14 1s7.66699 2.33398 11 5.00098c1.33301 0.666992 3.16602 1.83398 5.49902 3.50098s5.5 4.16699 9.5 7.5
l3 2l6 -5c-14.667 -16.667 -36.667 -25 -66 -25c-28.667 0 -52.667 7.66699 -72 23s-30.666 36 -33.999 62c-22.667 -57.333 -66.667 -86 -132 -86c-38 0 -68.333 9 -91 27s-34 43 -34 75c0 27.333 8.16699 47.166 24.5 59.499s45.5 20.5 87.5 24.5c20 2 37.167 4 51.5 6
s27 4.66699 38 8s20.833 7.33301 29.5 12s16.667 10.334 24 17.001zM277.997 203.997c-7.33301 -4.66699 -14.165 -8.50098 -20.498 -11.501s-12.666 -5.83301 -18.999 -8.5s-13.333 -5.16699 -21 -7.5s-16.834 -4.83301 -27.501 -7.5
c-30.667 -8.66699 -51.834 -19.834 -63.501 -33.501s-17.5 -34.167 -17.5 -61.5c0 -51.333 19.333 -77 58 -77c15.333 0 29.666 3.16699 42.999 9.5s25 14.833 35 25.5s17.833 23.334 23.5 38.001s8.5 30.334 8.5 47.001l1 7v80zM121.998 457.996l-8 8l126 142l124 -141
l-9 -10l-115 68z" />
    <glyph glyph-name="atilde" unicode="&#xe3;" horiz-adv-x="468" 
d="M279 290l-0.00292969 1.99707c0 60.667 -26 91 -78 91c-22.667 0 -42.5 -5.5 -59.5 -16.5s-25.5 -23.5 -25.5 -37.5c0 -4.66699 0.833008 -8.83398 2.5 -12.501s4.83398 -8.83398 9.50098 -15.501c9.33301 -14 14 -25.667 14 -35c0 -11.333 -4.16699 -20.833 -12.5 -28.5
s-18.5 -11.5 -30.5 -11.5c-13.333 0 -24.5 5.16699 -33.5 15.5s-13.5 23.5 -13.5 39.5c0 15.333 3.83301 29.5 11.5 42.5s18.167 24.333 31.5 34s28.833 17.334 46.5 23.001s36.834 8.5 57.501 8.5c34 0 64 -7.33301 90 -22s43.667 -33.667 53 -57
c4.66699 -13.333 7.83398 -26.666 9.50098 -39.999s2.5 -32.666 2.5 -57.999v-4v-132v-7c0 -25.333 3.66699 -43.333 11 -54s20 -16 38 -16c5.33301 0 10 0.333008 14 1s7.66699 2.33398 11 5.00098c1.33301 0.666992 3.16602 1.83398 5.49902 3.50098s5.5 4.16699 9.5 7.5
l3 2l6 -5c-14.667 -16.667 -36.667 -25 -66 -25c-28.667 0 -52.667 7.66699 -72 23s-30.666 36 -33.999 62c-22.667 -57.333 -66.667 -86 -132 -86c-38 0 -68.333 9 -91 27s-34 43 -34 75c0 27.333 8.16699 47.166 24.5 59.499s45.5 20.5 87.5 24.5c20 2 37.167 4 51.5 6
s27 4.66699 38 8s20.833 7.33301 29.5 12s16.667 10.334 24 17.001zM277.997 203.997c-7.33301 -4.66699 -14.165 -8.50098 -20.498 -11.501s-12.666 -5.83301 -18.999 -8.5s-13.333 -5.16699 -21 -7.5s-16.834 -4.83301 -27.501 -7.5
c-30.667 -8.66699 -51.834 -19.834 -63.501 -33.501s-17.5 -34.167 -17.5 -61.5c0 -51.333 19.333 -77 58 -77c15.333 0 29.666 3.16699 42.999 9.5s25 14.833 35 25.5s17.833 23.334 23.5 38.001s8.5 30.334 8.5 47.001l1 7v80zM388.998 543.996
c-12 -27.333 -26.668 -48.665 -44.001 -63.998s-35.666 -23 -54.999 -23c-6.66699 0 -13.5 0.833008 -20.5 2.5s-17.167 4.5 -30.5 8.5c-5.33301 1.33301 -10 2.66602 -14 3.99902s-7.33301 2.33301 -10 3l-29 9c-6.66699 1.33301 -12.167 2.66602 -16.5 3.99902
s-7.5 2.33301 -9.5 3c-6.66699 1.33301 -11.667 2 -15 2c-8 0 -15.5 -2.5 -22.5 -7.5s-14.5 -13.833 -22.5 -26.5h-13c10.667 27.333 24.167 48.333 40.5 63s34.166 22 53.499 22c4.66699 0 10.334 -0.666992 17.001 -2l20 -6l28 -7l33 -10
c10 -3.33301 19.667 -5.83301 29 -7.5s16.333 -2.5 21 -2.5c18.667 0 34 11.667 46 35h14z" />
    <glyph glyph-name="adieresis" unicode="&#xe4;" horiz-adv-x="468" 
d="M279 290l-0.00292969 1.99707c0 60.667 -26 91 -78 91c-22.667 0 -42.5 -5.5 -59.5 -16.5s-25.5 -23.5 -25.5 -37.5c0 -4.66699 0.833008 -8.83398 2.5 -12.501s4.83398 -8.83398 9.50098 -15.501c9.33301 -14 14 -25.667 14 -35c0 -11.333 -4.16699 -20.833 -12.5 -28.5
s-18.5 -11.5 -30.5 -11.5c-13.333 0 -24.5 5.16699 -33.5 15.5s-13.5 23.5 -13.5 39.5c0 15.333 3.83301 29.5 11.5 42.5s18.167 24.333 31.5 34s28.833 17.334 46.5 23.001s36.834 8.5 57.501 8.5c34 0 64 -7.33301 90 -22s43.667 -33.667 53 -57
c4.66699 -13.333 7.83398 -26.666 9.50098 -39.999s2.5 -32.666 2.5 -57.999v-4v-132v-7c0 -25.333 3.66699 -43.333 11 -54s20 -16 38 -16c5.33301 0 10 0.333008 14 1s7.66699 2.33398 11 5.00098c1.33301 0.666992 3.16602 1.83398 5.49902 3.50098s5.5 4.16699 9.5 7.5
l3 2l6 -5c-14.667 -16.667 -36.667 -25 -66 -25c-28.667 0 -52.667 7.66699 -72 23s-30.666 36 -33.999 62c-22.667 -57.333 -66.667 -86 -132 -86c-38 0 -68.333 9 -91 27s-34 43 -34 75c0 27.333 8.16699 47.166 24.5 59.499s45.5 20.5 87.5 24.5c20 2 37.167 4 51.5 6
s27 4.66699 38 8s20.833 7.33301 29.5 12s16.667 10.334 24 17.001zM277.997 203.997c-7.33301 -4.66699 -14.165 -8.50098 -20.498 -11.501s-12.666 -5.83301 -18.999 -8.5s-13.333 -5.16699 -21 -7.5s-16.834 -4.83301 -27.501 -7.5
c-30.667 -8.66699 -51.834 -19.834 -63.501 -33.501s-17.5 -34.167 -17.5 -61.5c0 -51.333 19.333 -77 58 -77c15.333 0 29.666 3.16699 42.999 9.5s25 14.833 35 25.5s17.833 23.334 23.5 38.001s8.5 30.334 8.5 47.001l1 7v80zM159.998 456.996
c-11.333 0 -21.166 4.16699 -29.499 12.5s-12.5 18.5 -12.5 30.5c0 11.333 4.16699 21.166 12.5 29.499s18.166 12.5 29.499 12.5c12 0 22.167 -4.16699 30.5 -12.5s12.5 -18.166 12.5 -29.499c0 -12 -4.16699 -22.167 -12.5 -30.5s-18.5 -12.5 -30.5 -12.5z
M313.998 456.996c-12 0 -22.167 4.16699 -30.5 12.5s-12.5 18.5 -12.5 30.5c0 11.333 4.16699 21.166 12.5 29.499s18.5 12.5 30.5 12.5c11.333 0 21.166 -4.16699 29.499 -12.5s12.5 -18.166 12.5 -29.499c0 -12 -4.16699 -22.167 -12.5 -30.5s-18.166 -12.5 -29.499 -12.5
z" />
    <glyph glyph-name="aring" unicode="&#xe5;" horiz-adv-x="468" 
d="M279 290l-0.00292969 1.99707c0 60.667 -26 91 -78 91c-22.667 0 -42.5 -5.5 -59.5 -16.5s-25.5 -23.5 -25.5 -37.5c0 -4.66699 0.833008 -8.83398 2.5 -12.501s4.83398 -8.83398 9.50098 -15.501c9.33301 -14 14 -25.667 14 -35c0 -11.333 -4.16699 -20.833 -12.5 -28.5
s-18.5 -11.5 -30.5 -11.5c-13.333 0 -24.5 5.16699 -33.5 15.5s-13.5 23.5 -13.5 39.5c0 15.333 3.83301 29.5 11.5 42.5s18.167 24.333 31.5 34s28.833 17.334 46.5 23.001s36.834 8.5 57.501 8.5c34 0 64 -7.33301 90 -22s43.667 -33.667 53 -57
c4.66699 -13.333 7.83398 -26.666 9.50098 -39.999s2.5 -32.666 2.5 -57.999v-4v-132v-7c0 -25.333 3.66699 -43.333 11 -54s20 -16 38 -16c5.33301 0 10 0.333008 14 1s7.66699 2.33398 11 5.00098c1.33301 0.666992 3.16602 1.83398 5.49902 3.50098s5.5 4.16699 9.5 7.5
l3 2l6 -5c-14.667 -16.667 -36.667 -25 -66 -25c-28.667 0 -52.667 7.66699 -72 23s-30.666 36 -33.999 62c-22.667 -57.333 -66.667 -86 -132 -86c-38 0 -68.333 9 -91 27s-34 43 -34 75c0 27.333 8.16699 47.166 24.5 59.499s45.5 20.5 87.5 24.5c20 2 37.167 4 51.5 6
s27 4.66699 38 8s20.833 7.33301 29.5 12s16.667 10.334 24 17.001zM277.997 203.997c-7.33301 -4.66699 -14.165 -8.50098 -20.498 -11.501s-12.666 -5.83301 -18.999 -8.5s-13.333 -5.16699 -21 -7.5s-16.834 -4.83301 -27.501 -7.5
c-30.667 -8.66699 -51.834 -19.834 -63.501 -33.501s-17.5 -34.167 -17.5 -61.5c0 -51.333 19.333 -77 58 -77c15.333 0 29.666 3.16699 42.999 9.5s25 14.833 35 25.5s17.833 23.334 23.5 38.001s8.5 30.334 8.5 47.001l1 7v80zM236.998 456.996
c-18 0 -33.167 6.33301 -45.5 19s-18.5 27.667 -18.5 45s6.33301 32.333 19 45s27.667 19 45 19s32.333 -6.33301 45 -19s19 -27.667 19 -45s-6.33301 -32.333 -19 -45s-27.667 -19 -45 -19zM236.998 477.996c11.333 0 21.166 4.16699 29.499 12.5s12.5 18.5 12.5 30.5
s-4.16699 22.167 -12.5 30.5s-18.166 12.5 -29.499 12.5c-12 0 -22.167 -4.33301 -30.5 -13s-12.5 -18.667 -12.5 -30c0 -12 4.16699 -22.167 12.5 -30.5s18.5 -12.5 30.5 -12.5z" />
    <glyph glyph-name="ae" unicode="&#xe6;" horiz-adv-x="667" 
d="M273 294l-0.00683594 8.00293c0 25.333 -6.66699 45.166 -20 59.499s-31.666 21.5 -54.999 21.5s-43.166 -5.5 -59.499 -16.5s-24.5 -24.167 -24.5 -39.5c0 -5.33301 0.666992 -9.5 2 -12.5s4.66602 -8.16699 9.99902 -15.5c9.33301 -11.333 14 -22.333 14 -33
c0 -11.333 -4 -20.833 -12 -28.5s-18.333 -11.5 -31 -11.5c-13.333 0 -24.666 5.5 -33.999 16.5s-14 24.167 -14 39.5c0 14.667 3.83301 28.5 11.5 41.5s18.334 24.333 32.001 34s29.5 17.334 47.5 23.001s37.333 8.5 58 8.5c13.333 0 25.333 -0.833008 36 -2.5
s21 -4.66699 31 -9s19.833 -10.166 29.5 -17.499s19.834 -16.333 30.501 -27c38 40 82.333 60 133 60c48 0 88.167 -15.833 120.5 -47.5s52.833 -75.834 61.5 -132.501h-286c0 -6.66699 -0.166992 -11.667 -0.5 -15s-0.5 -7 -0.5 -11
c0 -60.667 11.833 -107.834 35.5 -141.501s55.834 -50.5 96.501 -50.5c30.667 0 58 8.66699 82 26s41.667 41.666 53 72.999l7 -1c-11.333 -34.667 -30.166 -61.334 -56.499 -80.001s-57.833 -28 -94.5 -28c-31.333 0 -61.166 6.33301 -89.499 19s-50.5 29.667 -66.5 51
c-34 -44.667 -86.333 -67 -157 -67c-45.333 0 -80 8.66699 -104 26s-36 42.666 -36 75.999c0 14 2 26 6 36s10.667 18.333 20 25s21.833 11.834 37.5 15.501s35.5 6.5 59.5 8.5c34 3.33301 60.167 7.83301 78.5 13.5s34.833 14.5 49.5 26.5zM272.993 203.003
c-5.33301 -3.33301 -10.667 -6.49902 -16 -9.49902s-11 -5.66699 -17 -8s-13 -4.83301 -21 -7.5s-17.667 -5.33398 -29 -8.00098c-30.667 -9.33301 -52 -20.833 -64 -34.5s-18 -33.167 -18 -58.5c0 -54 24.333 -81 73 -81c34.667 0 59 9.33301 73 28s21 52 21 100v2z
M558.992 223.004v37.999c0 40.667 -8.16699 71.834 -24.5 93.501s-40.166 32.5 -71.499 32.5c-32.667 0 -58.834 -15 -78.501 -45s-29.5 -70 -29.5 -120z" />
    <glyph glyph-name="ccedilla" unicode="&#xe7;" horiz-adv-x="423" 
d="M392 63c-12.667 -25.333 -31.999 -45.1641 -57.999 -59.4971s-56 -21.5 -90 -21.5h-2l-14 -49c3.33301 0.666992 6.5 1 9.5 1h6.5c25.333 0 45.666 -5 60.999 -15s23 -23 23 -39c0 -10.667 -3 -20.834 -9 -30.501s-14.167 -18 -24.5 -25s-22.333 -12.5 -36 -16.5
s-28.167 -6 -43.5 -6c-26 0 -47.667 5.83301 -65 17.5s-26 26.167 -26 43.5c0 13.333 5.66699 20 17 20c6 0 10.833 -2.66699 14.5 -8s5.5 -12.666 5.5 -21.999v-8v-6c-0.666992 -5.33301 3.16602 -10.166 11.499 -14.499s17.833 -6.5 28.5 -6.5
c16 0 28.833 4.66699 38.5 14s14.5 21.666 14.5 36.999c0 13.333 -3.83301 24.166 -11.5 32.499s-20.167 16.166 -37.5 23.499l17 57c-27.333 3.33301 -52.5 11 -75.5 23s-42.833 27.167 -59.5 45.5s-29.667 39.166 -39 62.499s-14 48.666 -14 75.999
c0 28 5.5 54.5 16.5 79.5s26 46.833 45 65.5s41 33.5 66 44.5s51.833 16.5 80.5 16.5c21.333 0 41.333 -3.16699 60 -9.5s35 -15.166 49 -26.499s25 -24.5 33 -39.5s12 -31.167 12 -48.5c0 -32.667 -13.333 -49 -40 -49c-13.333 0 -23.833 4.16699 -31.5 12.5
s-11.5 19.833 -11.5 34.5v9c0 2.66699 0.666992 5.66699 2 9l6 26c1.33301 3.33301 2 8 2 14c0 16.667 -7 30.667 -21 42s-31 17 -51 17c-19.333 0 -36.833 -5.16699 -52.5 -15.5s-29.167 -24.666 -40.5 -42.999s-20.166 -40.5 -26.499 -66.5s-9.5 -54.667 -9.5 -86
c0 -60.667 11.5 -106.334 34.5 -137.001s56.5 -46 100.5 -46c28 0 53.167 6.5 75.5 19.5s39.5 31.5 51.5 55.5z" />
    <glyph glyph-name="egrave" unicode="&#xe8;" horiz-adv-x="429" 
d="M118 213l-0.999023 -21.001v-10c0 -56 11.667 -101 35 -135s54 -51 92 -51c32 0 60.167 9.16699 84.5 27.5s41.166 42.5 50.499 72.5l9 -2l-2 -6c-27.333 -68 -78.333 -102 -153 -102c-28 0 -54 5.33301 -78 16s-45 25.167 -63 43.5s-32.167 40 -42.5 65
s-15.5 52.167 -15.5 81.5c0 28.667 4.83301 55.334 14.5 80.001s23 46 40 64s37 32.167 60 42.5s47.5 15.5 73.5 15.5c23.333 0 45.5 -4.5 66.5 -13.5s39.5 -21.667 55.5 -38s29.167 -35.5 39.5 -57.5s16.5 -46 18.5 -72h-284zM321.001 223.999v35.0029v15
c0 34.667 -8.33301 62.167 -25 82.5s-39.667 30.5 -69 30.5c-25.333 0 -45.5 -7.33301 -60.5 -22s-27.5 -39.334 -37.5 -74.001c-4 -12.667 -6.66699 -23.334 -8 -32.001s-2.33301 -20.334 -3 -35.001h203zM305.001 476.002c1.33301 -2.66699 2.16699 -4.16797 2.5 -4.50098
s0.5 -0.833008 0.5 -1.5v-1c0 -3.33301 -0.5 -5.16602 -1.5 -5.49902s-2.5 -0.5 -4.5 -0.5c-3.33301 -0.666992 -7.33301 1.33301 -12 6l-159 150c-2.66699 2.66699 -4 5.66699 -4 9c0 5.33301 3 8 9 8h76z" />
    <glyph glyph-name="eacute" unicode="&#xe9;" horiz-adv-x="429" 
d="M118 213l-0.999023 -21.001v-10c0 -56 11.667 -101 35 -135s54 -51 92 -51c32 0 60.167 9.16699 84.5 27.5s41.166 42.5 50.499 72.5l9 -2l-2 -6c-27.333 -68 -78.333 -102 -153 -102c-28 0 -54 5.33301 -78 16s-45 25.167 -63 43.5s-32.167 40 -42.5 65
s-15.5 52.167 -15.5 81.5c0 28.667 4.83301 55.334 14.5 80.001s23 46 40 64s37 32.167 60 42.5s47.5 15.5 73.5 15.5c23.333 0 45.5 -4.5 66.5 -13.5s39.5 -21.667 55.5 -38s29.167 -35.5 39.5 -57.5s16.5 -46 18.5 -72h-284zM321.001 223.999v35.0029v15
c0 34.667 -8.33301 62.167 -25 82.5s-39.667 30.5 -69 30.5c-25.333 0 -45.5 -7.33301 -60.5 -22s-27.5 -39.334 -37.5 -74.001c-4 -12.667 -6.66699 -23.334 -8 -32.001s-2.33301 -20.334 -3 -35.001h203zM299.001 636.002c6 0 9 -2.66504 9 -7.99805
c0 -3.33301 -1.33301 -6.33301 -4 -9l-159 -150c-3.33301 -3.33301 -5.66602 -5.33301 -6.99902 -6s-3 -1 -5 -1c-2 1.33301 -3.5 2.16602 -4.5 2.49902s-1.5 1.5 -1.5 3.5v2c0 1.33301 0.166992 2.16602 0.5 2.49902s1.16602 1.5 2.49902 3.5l93 160h76z" />
    <glyph glyph-name="ecircumflex" unicode="&#xea;" horiz-adv-x="429" 
d="M118 213l-0.999023 -21.001v-10c0 -56 11.667 -101 35 -135s54 -51 92 -51c32 0 60.167 9.16699 84.5 27.5s41.166 42.5 50.499 72.5l9 -2l-2 -6c-27.333 -68 -78.333 -102 -153 -102c-28 0 -54 5.33301 -78 16s-45 25.167 -63 43.5s-32.167 40 -42.5 65
s-15.5 52.167 -15.5 81.5c0 28.667 4.83301 55.334 14.5 80.001s23 46 40 64s37 32.167 60 42.5s47.5 15.5 73.5 15.5c23.333 0 45.5 -4.5 66.5 -13.5s39.5 -21.667 55.5 -38s29.167 -35.5 39.5 -57.5s16.5 -46 18.5 -72h-284zM321.001 223.999v35.0029v15
c0 34.667 -8.33301 62.167 -25 82.5s-39.667 30.5 -69 30.5c-25.333 0 -45.5 -7.33301 -60.5 -22s-27.5 -39.334 -37.5 -74.001c-4 -12.667 -6.66699 -23.334 -8 -32.001s-2.33301 -20.334 -3 -35.001h203zM103.001 463.002l-8 8l126 142l124 -141l-9 -10l-115 68z" />
    <glyph glyph-name="edieresis" unicode="&#xeb;" horiz-adv-x="429" 
d="M118 213l-0.999023 -21.001v-10c0 -56 11.667 -101 35 -135s54 -51 92 -51c32 0 60.167 9.16699 84.5 27.5s41.166 42.5 50.499 72.5l9 -2l-2 -6c-27.333 -68 -78.333 -102 -153 -102c-28 0 -54 5.33301 -78 16s-45 25.167 -63 43.5s-32.167 40 -42.5 65
s-15.5 52.167 -15.5 81.5c0 28.667 4.83301 55.334 14.5 80.001s23 46 40 64s37 32.167 60 42.5s47.5 15.5 73.5 15.5c23.333 0 45.5 -4.5 66.5 -13.5s39.5 -21.667 55.5 -38s29.167 -35.5 39.5 -57.5s16.5 -46 18.5 -72h-284zM321.001 223.999v35.0029v15
c0 34.667 -8.33301 62.167 -25 82.5s-39.667 30.5 -69 30.5c-25.333 0 -45.5 -7.33301 -60.5 -22s-27.5 -39.334 -37.5 -74.001c-4 -12.667 -6.66699 -23.334 -8 -32.001s-2.33301 -20.334 -3 -35.001h203zM141.001 462.002c-11.333 0 -21.166 4.16699 -29.499 12.5
s-12.5 18.5 -12.5 30.5c0 11.333 4.16699 21.166 12.5 29.499s18.166 12.5 29.499 12.5c12 0 22.167 -4.16699 30.5 -12.5s12.5 -18.166 12.5 -29.499c0 -12 -4.16699 -22.167 -12.5 -30.5s-18.5 -12.5 -30.5 -12.5zM295.001 462.002c-12 0 -22.167 4.16699 -30.5 12.5
s-12.5 18.5 -12.5 30.5c0 11.333 4.16699 21.166 12.5 29.499s18.5 12.5 30.5 12.5c11.333 0 21.166 -4.16699 29.499 -12.5s12.5 -18.166 12.5 -29.499c0 -12 -4.16699 -22.167 -12.5 -30.5s-18.166 -12.5 -29.499 -12.5z" />
    <glyph glyph-name="igrave" unicode="&#xec;" horiz-adv-x="234" 
d="M30 8h57l-1 365h-54v8h135v-373h50v-8h-187v8zM211 463c1.33301 -2.66699 2.16699 -4.16797 2.5 -4.50098s0.5 -0.833008 0.5 -1.5v-1c0 -3.33301 -0.5 -5.16602 -1.5 -5.49902s-2.5 -0.5 -4.5 -0.5c-3.33301 -0.666992 -7.33301 1.33301 -12 6l-159 150
c-2.66699 2.66699 -4 5.66699 -4 9c0 5.33301 3 8 9 8h76z" />
    <glyph glyph-name="iacute" unicode="&#xed;" horiz-adv-x="234" 
d="M30 8h57l-1 365h-54v8h135v-373h50v-8h-187v8zM205 623c6 0 9 -2.66504 9 -7.99805c0 -3.33301 -1.33301 -6.33301 -4 -9l-159 -150c-3.33301 -3.33301 -5.66602 -5.33301 -6.99902 -6s-3 -1 -5 -1c-2 1.33301 -3.5 2.16602 -4.5 2.49902s-1.5 1.5 -1.5 3.5v2
c0 1.33301 0.166992 2.16602 0.5 2.49902s1.16602 1.5 2.49902 3.5l93 160h76z" />
    <glyph glyph-name="icircumflex" unicode="&#xee;" horiz-adv-x="234" 
d="M30 8h57l-1 365h-54v8h135v-373h50v-8h-187v8zM39 450l-8 8l126 142l124 -141l-9 -10l-115 68z" />
    <glyph glyph-name="idieresis" unicode="&#xef;" horiz-adv-x="234" 
d="M30 8h57l-1 365h-54v8h135v-373h50v-8h-187v8zM73 449c-11.333 0 -21.166 4.16699 -29.499 12.5s-12.5 18.5 -12.5 30.5c0 11.333 4.16699 21.166 12.5 29.499s18.166 12.5 29.499 12.5c12 0 22.167 -4.16699 30.5 -12.5s12.5 -18.166 12.5 -29.499
c0 -12 -4.16699 -22.167 -12.5 -30.5s-18.5 -12.5 -30.5 -12.5zM227 449c-12 0 -22.167 4.16699 -30.5 12.5s-12.5 18.5 -12.5 30.5c0 11.333 4.16699 21.166 12.5 29.499s18.5 12.5 30.5 12.5c11.333 0 21.166 -4.16699 29.499 -12.5s12.5 -18.166 12.5 -29.499
c0 -12 -4.16699 -22.167 -12.5 -30.5s-18.166 -12.5 -29.499 -12.5z" />
    <glyph glyph-name="ntilde" unicode="&#xf1;" horiz-adv-x="506" 
d="M31 8h45v363h-49v10h129v-82c11.333 30 29.333 53.333 54 70s53.334 25 86.001 25c28 0 52.5 -6 73.5 -18s35.833 -28 44.5 -48c9.33301 -24.667 14 -55.667 14 -93v-18v-208h52v-9h-180v8h51v272v8c-0.666992 30 -7.33398 53.167 -20.001 69.5
s-30.334 24.5 -53.001 24.5c-16 0 -31.167 -3.66699 -45.5 -11s-27.166 -17.333 -38.499 -30s-20.333 -27 -27 -43s-10 -32.667 -10 -50v-9v-230h51v-9h-177v8zM404 549c-12 -27.333 -26.668 -48.665 -44.001 -63.998s-35.666 -23 -54.999 -23
c-6.66699 0 -13.5 0.833008 -20.5 2.5s-17.167 4.5 -30.5 8.5c-5.33301 1.33301 -10 2.66602 -14 3.99902s-7.33301 2.33301 -10 3l-29 9c-6.66699 1.33301 -12.167 2.66602 -16.5 3.99902s-7.5 2.33301 -9.5 3c-6.66699 1.33301 -11.667 2 -15 2
c-8 0 -15.5 -2.5 -22.5 -7.5s-14.5 -13.833 -22.5 -26.5h-13c10.667 27.333 24.167 48.333 40.5 63s34.166 22 53.499 22c4.66699 0 10.334 -0.666992 17.001 -2l20 -6l28 -7l33 -10c10 -3.33301 19.667 -5.83301 29 -7.5s16.333 -2.5 21 -2.5c18.667 0 34 11.667 46 35h14z
" />
    <glyph glyph-name="ograve" unicode="&#xf2;" horiz-adv-x="511" 
d="M253 -14c-30.667 0 -59.3311 5.33398 -85.998 16.001s-49.834 25.334 -69.501 44.001s-35.167 40.834 -46.5 66.501s-17 53.167 -17 82.5c0 28.667 5.66699 55.167 17 79.5s26.666 45.5 45.999 63.5s42.333 32.167 69 42.5s55.667 15.5 87 15.5
c32 0 61.5 -5.33301 88.5 -16s50.5 -25.334 70.5 -44.001s35.667 -40.834 47 -66.501s17 -53.167 17 -82.5s-5.5 -56.333 -16.5 -81s-26.5 -45.834 -46.5 -63.501s-43.667 -31.5 -71 -41.5s-57 -15 -89 -15zM259.003 -5.99902c42 0 74.498 16.833 97.498 50.5
s34.5 81.167 34.5 142.5c0 65.333 -11.667 115.333 -35 150s-57 52 -101 52c-27.333 0 -52.166 -8.5 -74.499 -25.5s-37.166 -39.167 -44.499 -66.5c-4 -14.667 -7.16699 -30.167 -9.5 -46.5s-3.5 -33.833 -3.5 -52.5c0 -70 11.167 -121.5 33.5 -154.5
s56.5 -49.5 102.5 -49.5zM342.001 478.001c1.33301 -2.66699 2.16699 -4.16797 2.5 -4.50098s0.5 -0.833008 0.5 -1.5v-1c0 -3.33301 -0.5 -5.16602 -1.5 -5.49902s-2.5 -0.5 -4.5 -0.5c-3.33301 -0.666992 -7.33301 1.33301 -12 6l-159 150
c-2.66699 2.66699 -4 5.66699 -4 9c0 5.33301 3 8 9 8h76z" />
    <glyph glyph-name="oacute" unicode="&#xf3;" horiz-adv-x="511" 
d="M253 -14c-30.667 0 -59.3311 5.33398 -85.998 16.001s-49.834 25.334 -69.501 44.001s-35.167 40.834 -46.5 66.501s-17 53.167 -17 82.5c0 28.667 5.66699 55.167 17 79.5s26.666 45.5 45.999 63.5s42.333 32.167 69 42.5s55.667 15.5 87 15.5
c32 0 61.5 -5.33301 88.5 -16s50.5 -25.334 70.5 -44.001s35.667 -40.834 47 -66.501s17 -53.167 17 -82.5s-5.5 -56.333 -16.5 -81s-26.5 -45.834 -46.5 -63.501s-43.667 -31.5 -71 -41.5s-57 -15 -89 -15zM259.003 -5.99902c42 0 74.498 16.833 97.498 50.5
s34.5 81.167 34.5 142.5c0 65.333 -11.667 115.333 -35 150s-57 52 -101 52c-27.333 0 -52.166 -8.5 -74.499 -25.5s-37.166 -39.167 -44.499 -66.5c-4 -14.667 -7.16699 -30.167 -9.5 -46.5s-3.5 -33.833 -3.5 -52.5c0 -70 11.167 -121.5 33.5 -154.5
s56.5 -49.5 102.5 -49.5zM336.001 638.001c6 0 9 -2.66504 9 -7.99805c0 -3.33301 -1.33301 -6.33301 -4 -9l-159 -150c-3.33301 -3.33301 -5.66602 -5.33301 -6.99902 -6s-3 -1 -5 -1c-2 1.33301 -3.5 2.16602 -4.5 2.49902s-1.5 1.5 -1.5 3.5v2
c0 1.33301 0.166992 2.16602 0.5 2.49902s1.16602 1.5 2.49902 3.5l93 160h76z" />
    <glyph glyph-name="ocircumflex" unicode="&#xf4;" horiz-adv-x="511" 
d="M253 -14c-30.667 0 -59.3311 5.33398 -85.998 16.001s-49.834 25.334 -69.501 44.001s-35.167 40.834 -46.5 66.501s-17 53.167 -17 82.5c0 28.667 5.66699 55.167 17 79.5s26.666 45.5 45.999 63.5s42.333 32.167 69 42.5s55.667 15.5 87 15.5
c32 0 61.5 -5.33301 88.5 -16s50.5 -25.334 70.5 -44.001s35.667 -40.834 47 -66.501s17 -53.167 17 -82.5s-5.5 -56.333 -16.5 -81s-26.5 -45.834 -46.5 -63.501s-43.667 -31.5 -71 -41.5s-57 -15 -89 -15zM259.003 -5.99902c42 0 74.498 16.833 97.498 50.5
s34.5 81.167 34.5 142.5c0 65.333 -11.667 115.333 -35 150s-57 52 -101 52c-27.333 0 -52.166 -8.5 -74.499 -25.5s-37.166 -39.167 -44.499 -66.5c-4 -14.667 -7.16699 -30.167 -9.5 -46.5s-3.5 -33.833 -3.5 -52.5c0 -70 11.167 -121.5 33.5 -154.5
s56.5 -49.5 102.5 -49.5zM138.001 465.001l-8 8l126 142l124 -141l-9 -10l-115 68z" />
    <glyph glyph-name="otilde" unicode="&#xf5;" horiz-adv-x="511" 
d="M253 -14c-30.667 0 -59.3311 5.33398 -85.998 16.001s-49.834 25.334 -69.501 44.001s-35.167 40.834 -46.5 66.501s-17 53.167 -17 82.5c0 28.667 5.66699 55.167 17 79.5s26.666 45.5 45.999 63.5s42.333 32.167 69 42.5s55.667 15.5 87 15.5
c32 0 61.5 -5.33301 88.5 -16s50.5 -25.334 70.5 -44.001s35.667 -40.834 47 -66.501s17 -53.167 17 -82.5s-5.5 -56.333 -16.5 -81s-26.5 -45.834 -46.5 -63.501s-43.667 -31.5 -71 -41.5s-57 -15 -89 -15zM259.003 -5.99902c42 0 74.498 16.833 97.498 50.5
s34.5 81.167 34.5 142.5c0 65.333 -11.667 115.333 -35 150s-57 52 -101 52c-27.333 0 -52.166 -8.5 -74.499 -25.5s-37.166 -39.167 -44.499 -66.5c-4 -14.667 -7.16699 -30.167 -9.5 -46.5s-3.5 -33.833 -3.5 -52.5c0 -70 11.167 -121.5 33.5 -154.5
s56.5 -49.5 102.5 -49.5zM407.001 551.001c-12 -27.333 -26.668 -48.665 -44.001 -63.998s-35.666 -23 -54.999 -23c-6.66699 0 -13.5 0.833008 -20.5 2.5s-17.167 4.5 -30.5 8.5c-5.33301 1.33301 -10 2.66602 -14 3.99902s-7.33301 2.33301 -10 3l-29 9
c-6.66699 1.33301 -12.167 2.66602 -16.5 3.99902s-7.5 2.33301 -9.5 3c-6.66699 1.33301 -11.667 2 -15 2c-8 0 -15.5 -2.5 -22.5 -7.5s-14.5 -13.833 -22.5 -26.5h-13c10.667 27.333 24.167 48.333 40.5 63s34.166 22 53.499 22c4.66699 0 10.334 -0.666992 17.001 -2
l20 -6l28 -7l33 -10c10 -3.33301 19.667 -5.83301 29 -7.5s16.333 -2.5 21 -2.5c18.667 0 34 11.667 46 35h14z" />
    <glyph glyph-name="odieresis" unicode="&#xf6;" horiz-adv-x="511" 
d="M253 -14c-30.667 0 -59.3311 5.33398 -85.998 16.001s-49.834 25.334 -69.501 44.001s-35.167 40.834 -46.5 66.501s-17 53.167 -17 82.5c0 28.667 5.66699 55.167 17 79.5s26.666 45.5 45.999 63.5s42.333 32.167 69 42.5s55.667 15.5 87 15.5
c32 0 61.5 -5.33301 88.5 -16s50.5 -25.334 70.5 -44.001s35.667 -40.834 47 -66.501s17 -53.167 17 -82.5s-5.5 -56.333 -16.5 -81s-26.5 -45.834 -46.5 -63.501s-43.667 -31.5 -71 -41.5s-57 -15 -89 -15zM259.003 -5.99902c42 0 74.498 16.833 97.498 50.5
s34.5 81.167 34.5 142.5c0 65.333 -11.667 115.333 -35 150s-57 52 -101 52c-27.333 0 -52.166 -8.5 -74.499 -25.5s-37.166 -39.167 -44.499 -66.5c-4 -14.667 -7.16699 -30.167 -9.5 -46.5s-3.5 -33.833 -3.5 -52.5c0 -70 11.167 -121.5 33.5 -154.5
s56.5 -49.5 102.5 -49.5zM178.001 464.001c-11.333 0 -21.166 4.16699 -29.499 12.5s-12.5 18.5 -12.5 30.5c0 11.333 4.16699 21.166 12.5 29.499s18.166 12.5 29.499 12.5c12 0 22.167 -4.16699 30.5 -12.5s12.5 -18.166 12.5 -29.499c0 -12 -4.16699 -22.167 -12.5 -30.5
s-18.5 -12.5 -30.5 -12.5zM332.001 464.001c-12 0 -22.167 4.16699 -30.5 12.5s-12.5 18.5 -12.5 30.5c0 11.333 4.16699 21.166 12.5 29.499s18.5 12.5 30.5 12.5c11.333 0 21.166 -4.16699 29.499 -12.5s12.5 -18.166 12.5 -29.499c0 -12 -4.16699 -22.167 -12.5 -30.5
s-18.166 -12.5 -29.499 -12.5z" />
    <glyph glyph-name="divide" unicode="&#xf7;" 
d="M249 574c12 0 22.167 -4.16699 30.5 -12.5s12.5 -18.166 12.5 -29.499c0 -12 -4.16699 -22.167 -12.5 -30.5s-18.5 -12.5 -30.5 -12.5c-11.333 0 -21.166 4.16699 -29.499 12.5s-12.5 18.5 -12.5 30.5c0 11.333 4.16699 21.166 12.5 29.499s18.166 12.5 29.499 12.5z
M249 195c12 0 22.167 -4.33301 30.5 -13s12.5 -18.667 12.5 -30c0 -12 -4.16699 -22.167 -12.5 -30.5s-18.5 -12.5 -30.5 -12.5c-11.333 0 -21.166 4.16699 -29.499 12.5s-12.5 18.5 -12.5 30.5c0 11.333 4.16699 21.333 12.5 30s18.166 13 29.499 13zM489 365v-47h-478v47
h478z" />
    <glyph glyph-name="oslash" unicode="&#xf8;" horiz-adv-x="509" 
d="M42 -12l-7.00195 7l58 55c-17.333 18 -31.166 40.167 -41.499 66.5s-15.5 53.5 -15.5 81.5s5.66699 54 17 78s26.833 44.667 46.5 62s43 31 70 41s56.5 15 88.5 15c28 0 52.833 -3.83301 74.5 -11.5s44.834 -21.167 69.501 -40.5l58 54l7 -7l-57 -54
c20 -20.667 35.667 -44 47 -70s17 -52.667 17 -80c0 -28 -5.5 -54 -16.5 -78s-26.333 -44.833 -46 -62.5s-42.667 -31.5 -69 -41.5s-54.833 -15 -85.5 -15c-59.333 0 -111.333 18.333 -156 55zM138.998 78c24.667 -56 63.667 -83.999 117 -83.999c42 0 74 15.333 96 46
s33 74.667 33 132c0 28.667 -1.16699 52.167 -3.5 70.5s-6.5 36.166 -12.5 53.499zM364.998 307.001c-9.33301 26 -23.5 45.834 -42.5 59.501s-42.167 20.5 -69.5 20.5c-42 0 -74.667 -16.333 -98 -49s-35 -78.334 -35 -137.001c0 -46 4.66699 -83.667 14 -113z" />
    <glyph glyph-name="ugrave" unicode="&#xf9;" horiz-adv-x="507" 
d="M160 382l0.000976562 -281.004v-10c0 -34 4.66699 -57.833 14 -71.5s25.666 -20.5 48.999 -20.5c16 0 31.667 3.83301 47 11.5s28.833 17.834 40.5 30.501s21 27.334 28 44.001s10.5 34 10.5 52v8v228h-52v9h131v-373h52v-9h-132v84
c-16 -35.333 -34.167 -60.166 -54.5 -74.499s-46.5 -21.5 -78.5 -21.5c-28 0 -53.5 6.16699 -76.5 18.5s-38.5 27.833 -46.5 46.5c-7.33301 18.667 -11 47.334 -11 86.001v9v225h-55v9h134zM340.001 463.996c1.33301 -2.66699 2.16699 -4.16797 2.5 -4.50098
s0.5 -0.833008 0.5 -1.5v-1c0 -3.33301 -0.5 -5.16602 -1.5 -5.49902s-2.5 -0.5 -4.5 -0.5c-3.33301 -0.666992 -7.33301 1.33301 -12 6l-159 150c-2.66699 2.66699 -4 5.66699 -4 9c0 5.33301 3 8 9 8h76z" />
    <glyph glyph-name="uacute" unicode="&#xfa;" horiz-adv-x="507" 
d="M160 382l0.000976562 -281.004v-10c0 -34 4.66699 -57.833 14 -71.5s25.666 -20.5 48.999 -20.5c16 0 31.667 3.83301 47 11.5s28.833 17.834 40.5 30.501s21 27.334 28 44.001s10.5 34 10.5 52v8v228h-52v9h131v-373h52v-9h-132v84
c-16 -35.333 -34.167 -60.166 -54.5 -74.499s-46.5 -21.5 -78.5 -21.5c-28 0 -53.5 6.16699 -76.5 18.5s-38.5 27.833 -46.5 46.5c-7.33301 18.667 -11 47.334 -11 86.001v9v225h-55v9h134zM334.001 623.996c6 0 9 -2.66504 9 -7.99805c0 -3.33301 -1.33301 -6.33301 -4 -9
l-159 -150c-3.33301 -3.33301 -5.66602 -5.33301 -6.99902 -6s-3 -1 -5 -1c-2 1.33301 -3.5 2.16602 -4.5 2.49902s-1.5 1.5 -1.5 3.5v2c0 1.33301 0.166992 2.16602 0.5 2.49902s1.16602 1.5 2.49902 3.5l93 160h76z" />
    <glyph glyph-name="ucircumflex" unicode="&#xfb;" horiz-adv-x="507" 
d="M160 382l0.000976562 -281.004v-10c0 -34 4.66699 -57.833 14 -71.5s25.666 -20.5 48.999 -20.5c16 0 31.667 3.83301 47 11.5s28.833 17.834 40.5 30.501s21 27.334 28 44.001s10.5 34 10.5 52v8v228h-52v9h131v-373h52v-9h-132v84
c-16 -35.333 -34.167 -60.166 -54.5 -74.499s-46.5 -21.5 -78.5 -21.5c-28 0 -53.5 6.16699 -76.5 18.5s-38.5 27.833 -46.5 46.5c-7.33301 18.667 -11 47.334 -11 86.001v9v225h-55v9h134zM136.001 450.996l-8 8l126 142l124 -141l-9 -10l-115 68z" />
    <glyph glyph-name="udieresis" unicode="&#xfc;" horiz-adv-x="507" 
d="M160 382l0.000976562 -281.004v-10c0 -34 4.66699 -57.833 14 -71.5s25.666 -20.5 48.999 -20.5c16 0 31.667 3.83301 47 11.5s28.833 17.834 40.5 30.501s21 27.334 28 44.001s10.5 34 10.5 52v8v228h-52v9h131v-373h52v-9h-132v84
c-16 -35.333 -34.167 -60.166 -54.5 -74.499s-46.5 -21.5 -78.5 -21.5c-28 0 -53.5 6.16699 -76.5 18.5s-38.5 27.833 -46.5 46.5c-7.33301 18.667 -11 47.334 -11 86.001v9v225h-55v9h134zM175.001 449.996c-11.333 0 -21.166 4.16699 -29.499 12.5s-12.5 18.5 -12.5 30.5
c0 11.333 4.16699 21.166 12.5 29.499s18.166 12.5 29.499 12.5c12 0 22.167 -4.16699 30.5 -12.5s12.5 -18.166 12.5 -29.499c0 -12 -4.16699 -22.167 -12.5 -30.5s-18.5 -12.5 -30.5 -12.5zM329.001 449.996c-12 0 -22.167 4.16699 -30.5 12.5s-12.5 18.5 -12.5 30.5
c0 11.333 4.16699 21.166 12.5 29.499s18.5 12.5 30.5 12.5c11.333 0 21.166 -4.16699 29.499 -12.5s12.5 -18.166 12.5 -29.499c0 -12 -4.16699 -22.167 -12.5 -30.5s-18.166 -12.5 -29.499 -12.5z" />
    <glyph glyph-name="ydieresis" unicode="&#xff;" horiz-adv-x="436" 
d="M59 372l-58.999 0.00195312v9h213v-8h-67l119 -276l112 275h-44v9h103v-8h-48l-229 -557c-13.333 -32.667 -27.666 -55.834 -42.999 -69.501s-34.666 -20.5 -57.999 -20.5c-10.667 0 -20.834 2 -30.501 6s-18 9.5 -25 16.5s-12.667 15.167 -17 24.5s-6.5 19 -6.5 29
c0 12 3.83301 22.5 11.5 31.5s16.5 13.5 26.5 13.5c9.33301 0 17.166 -3.83301 23.499 -11.5s9.5 -17.5 9.5 -29.5c0 -14 -5.33301 -26 -16 -36c-6 -6 -9 -11 -9 -15c0 -13.333 11.333 -20 34 -20c21.333 0 39 6.33301 53 19s27 34 39 64
c1.33301 3.33301 2.16602 5.16602 2.49902 5.49902s0.5 0.833008 0.5 1.5l68 170zM130.001 449.002c-11.333 0 -21.166 4.16699 -29.499 12.5s-12.5 18.5 -12.5 30.5c0 11.333 4.16699 21.166 12.5 29.499s18.166 12.5 29.499 12.5c12 0 22.167 -4.16699 30.5 -12.5
s12.5 -18.166 12.5 -29.499c0 -12 -4.16699 -22.167 -12.5 -30.5s-18.5 -12.5 -30.5 -12.5zM284.001 449.002c-12 0 -22.167 4.16699 -30.5 12.5s-12.5 18.5 -12.5 30.5c0 11.333 4.16699 21.166 12.5 29.499s18.5 12.5 30.5 12.5c11.333 0 21.166 -4.16699 29.499 -12.5
s12.5 -18.166 12.5 -29.499c0 -12 -4.16699 -22.167 -12.5 -30.5s-18.166 -12.5 -29.499 -12.5z" />
    <glyph glyph-name="dotlessi" unicode="&#x131;" horiz-adv-x="234" 
d="M30 8h57l-1 365h-54v8h135v-373h50v-8h-187v8z" />
    <glyph glyph-name="OE" unicode="&#x152;" horiz-adv-x="1080" 
d="M1005 668l-0.00488281 -166.999h-6v4c0 12.667 -2.16699 25.667 -6.5 39s-10 26 -17 38s-15.167 23.167 -24.5 33.5s-19.333 18.5 -30 24.5c-13.333 8 -26.166 13.5 -38.499 16.5s-28.166 4.5 -47.499 4.5h-184v-313h53h7c18.667 0 35.834 3.16699 51.501 9.5
s29.334 15.666 41.001 27.999s21.167 27 28.5 44s12 36.167 14 57.5h8v-294h-7v5c-0.666992 44 -14 78.667 -40 104s-61.333 38 -106 38h-10h-40v-331h148h12c30 0 58 4.66699 84 14s49 22.833 69 40.5s36.5 38.5 49.5 62.5s21.167 50.667 24.5 80h6v-206h-596
c-10 -0.666992 -17.667 -1.66699 -23 -3c-43.333 -6 -73 -9 -89 -9c-39.333 0 -76.666 9 -111.999 27s-66.666 42.333 -93.999 73s-49 66.167 -65 106.5s-24 82.833 -24 127.5c0 47.333 8.33301 92.5 25 135.5s39.167 81 67.5 114s61 59.333 98 79s75.5 29.5 115.5 29.5
c8 0 15.167 -0.166992 21.5 -0.5s12.666 -1 18.999 -2l21.5 -3.5c8 -1.33301 18 -3.33301 30 -6h566zM338.995 -2.99902c55.333 0 98.501 13.998 129.501 41.998s53.5 73.667 67.5 137c11.333 54.667 17 109 17 163c0 64.667 -7.33301 122.334 -22 173.001
s-35 88.667 -61 114c-31.333 30 -72.333 45 -123 45c-90 0 -149.667 -50.667 -179 -152c-17.333 -59.333 -26 -121.666 -26 -186.999c0 -70 7.16699 -131 21.5 -183s34.166 -90 59.499 -114c13.333 -12.667 30 -22.167 50 -28.5s42 -9.5 66 -9.5z" />
    <glyph glyph-name="oe" unicode="&#x153;" horiz-adv-x="785" 
d="M434 62c-16 -14.667 -31 -26.834 -45 -36.501s-28 -17.5 -42 -23.5s-28.5 -10.333 -43.5 -13s-31.167 -4 -48.5 -4c-31.333 0 -60.5 5.33301 -87.5 16s-50.333 25.334 -70 44.001s-35.167 40.667 -46.5 66s-17 53 -17 83c0 28.667 5.66699 55.167 17 79.5
s26.666 45.5 45.999 63.5s42.333 32.167 69 42.5s55.667 15.5 87 15.5c69.333 0 128 -25.667 176 -77c24.667 27.333 48.334 46.833 71.001 58.5s48.334 17.5 77.001 17.5c24 0 46.5 -4.5 67.5 -13.5s39.5 -21.667 55.5 -38s29.167 -35.5 39.5 -57.5s16.5 -46 18.5 -72h-284
l-1 -21v-10c0 -56 11.5 -101 34.5 -135s53.833 -51 92.5 -51c32 0 60.167 9.16699 84.5 27.5s41.166 42.5 50.499 72.5l9 -2l-2 -6c-27.333 -68 -78.333 -102 -153 -102c-30 0 -59 6.83301 -87 20.5s-50.667 32.167 -68 55.5zM676 224l-0.000976562 35.0029v15
c0 34.667 -8.33301 62.167 -25 82.5s-39.667 30.5 -69 30.5c-25.333 0 -45.5 -7.33301 -60.5 -22s-27.5 -39.334 -37.5 -74.001c-3.33301 -12.667 -5.66602 -23.334 -6.99902 -32.001s-2.33301 -20.334 -3 -35.001h202zM258.999 -6.99707c42 0 74.498 16.833 97.498 50.5
s34.5 81.167 34.5 142.5c0 65.333 -11.667 115.333 -35 150s-57 52 -101 52c-27.333 0 -52.166 -8.5 -74.499 -25.5s-37.166 -39.167 -44.499 -66.5c-4 -14.667 -7.16699 -30.167 -9.5 -46.5s-3.5 -33.833 -3.5 -52.5c0 -70 11.167 -121.5 33.5 -154.5
s56.5 -49.5 102.5 -49.5z" />
    <glyph glyph-name="Ydieresis" unicode="&#x178;" horiz-adv-x="629" 
d="M210 8h80v291l-214 360h-76v9h273v-8h-86l198 -333l144 332h-71v8h171v-8h-87l-152 -350v-300h72v-9h-252v8zM237 735c-11.333 0 -21.166 4.16699 -29.499 12.5s-12.5 18.5 -12.5 30.5c0 11.333 4.16699 21.166 12.5 29.499s18.166 12.5 29.499 12.5
c12 0 22.167 -4.16699 30.5 -12.5s12.5 -18.166 12.5 -29.499c0 -12 -4.16699 -22.167 -12.5 -30.5s-18.5 -12.5 -30.5 -12.5zM391 735c-12 0 -22.167 4.16699 -30.5 12.5s-12.5 18.5 -12.5 30.5c0 11.333 4.16699 21.166 12.5 29.499s18.5 12.5 30.5 12.5
c11.333 0 21.166 -4.16699 29.499 -12.5s12.5 -18.166 12.5 -29.499c0 -12 -4.16699 -22.167 -12.5 -30.5s-18.166 -12.5 -29.499 -12.5z" />
    <glyph glyph-name="florin" unicode="&#x192;" horiz-adv-x="496" 
d="M30 8l53.998 1v363h-53v9h52l1 72v8c0 54.667 5.66699 97.5 17 128.5s30.333 55.167 57 72.5c25.333 16 53.666 24 84.999 24c22 0 40.333 -3.83301 55 -11.5s29.334 -20.834 44.001 -39.501c13.333 17.333 27.166 30 41.499 38s31.5 12 51.5 12
c26 0 47.333 -7.83301 64 -23.5s25 -35.834 25 -60.501c0 -15.333 -3.66699 -27.666 -11 -36.999s-17 -14 -29 -14c-10.667 0 -19.5 4 -26.5 12s-10.5 18 -10.5 30c0 9.33301 1.33301 16.5 4 21.5s8.33398 11.167 17.001 18.5c8.66699 8 13 15.333 13 22
c0 7.33301 -4.33301 13.333 -13 18s-20 7 -34 7c-21.333 0 -38 -7.16699 -50 -21.5s-18 -34.166 -18 -59.499c0 -6 0.166992 -11.5 0.5 -16.5s0.833008 -10.5 1.5 -16.5s1.83398 -12.833 3.50098 -20.5s3.5 -17.167 5.5 -28.5l5.5 -32c1.66699 -9.33301 3 -18.666 4 -27.999
s1.66699 -19.166 2 -29.499s0.5 -21.833 0.5 -34.5v-11h56v-8h-56v-364h50v-8h-176v7h48v364h-49v9h49v165c-8.66699 1.33301 -16 5.66602 -22 12.999s-9 15.666 -9 24.999c0 13.333 0.666992 21 2 23l9 20l4 10.5c1.33301 3.66699 2 6.5 2 8.5
c0 8.66699 -6.16699 16.167 -18.5 22.5s-27.166 9.5 -44.499 9.5c-28.667 0 -51.167 -8.16699 -67.5 -24.5s-24.5 -38.833 -24.5 -67.5c0 -9.33301 0.333008 -18.333 1 -27s2.66699 -20.667 6 -36c2.66699 -14.667 4.66699 -27.167 6 -37.5s2.5 -20.333 3.5 -30
s1.66699 -19.5 2 -29.5s0.5 -22 0.5 -36v-9h54v-8h-53l-1 -365h52v-8h-183v8z" />
    <glyph glyph-name="circumflex" unicode="&#x2c6;" 
d="M132 667l-8 8l126 142l124 -141l-9 -10l-115 68z" />
    <glyph glyph-name="caron" unicode="&#x2c7;" horiz-adv-x="316" 
d="M274 816l8 -8l-125 -142l-124 141l8 10l115 -68z" />
    <glyph glyph-name="breve" unicode="&#x2d8;" horiz-adv-x="283" 
d="M250 794c-1.33301 -38 -11.833 -68.833 -31.5 -92.5s-44.5 -35.5 -74.5 -35.5c-15.333 0 -29.833 3.33301 -43.5 10s-25.5 15.667 -35.5 27s-17.833 24.833 -23.5 40.5s-8.5 32.5 -8.5 50.5h20c6 -20.667 16.667 -36.5 32 -47.5s34 -16.5 56 -16.5
c42.667 0 72.667 21.333 90 64h19z" />
    <glyph glyph-name="dotaccent" unicode="&#x2d9;" horiz-adv-x="169" 
d="M83 766c14.667 0 27.168 -4.83398 37.501 -14.501s15.5 -22.167 15.5 -37.5c0 -14 -4.83301 -25.667 -14.5 -35s-21.834 -14 -36.501 -14c-15.333 0 -27.833 4.83301 -37.5 14.5s-14.5 21.834 -14.5 36.501c0 14 4.83301 25.833 14.5 35.5s21.5 14.5 35.5 14.5z" />
    <glyph glyph-name="ring" unicode="&#x2da;" horiz-adv-x="194" 
d="M97 666c-18 0 -33.167 6.33301 -45.5 19s-18.5 27.667 -18.5 45s6.33301 32.333 19 45s27.667 19 45 19s32.333 -6.33301 45 -19s19 -27.667 19 -45s-6.33301 -32.333 -19 -45s-27.667 -19 -45 -19zM97 687c11.333 0 21.166 4.16699 29.499 12.5s12.5 18.5 12.5 30.5
s-4.16699 22.167 -12.5 30.5s-18.166 12.5 -29.499 12.5c-12 0 -22.167 -4.33301 -30.5 -13s-12.5 -18.667 -12.5 -30c0 -12 4.16699 -22.167 12.5 -30.5s18.5 -12.5 30.5 -12.5z" />
    <glyph glyph-name="ogonek" unicode="&#x2db;" 
d="M317 0c-30.667 -18 -46 -40.333 -46 -67c0 -17.333 7 -31.166 21 -41.499s32.667 -15.5 56 -15.5c7.33301 0 13.5 0.333008 18.5 1s12.167 2.66699 21.5 6v-18c-36 -16.667 -65.667 -25 -89 -25s-42.666 6.66699 -57.999 20s-23 29.666 -23 48.999
c0 16.667 6.16699 33 18.5 49s29.166 30 50.499 42h30z" />
    <glyph glyph-name="tilde" unicode="&#x2dc;" horiz-adv-x="369" 
d="M336 753c-12 -27.333 -26.668 -48.665 -44.001 -63.998s-35.666 -23 -54.999 -23c-6.66699 0 -13.5 0.833008 -20.5 2.5s-17.167 4.5 -30.5 8.5c-5.33301 1.33301 -10 2.66602 -14 3.99902s-7.33301 2.33301 -10 3l-29 9c-6.66699 1.33301 -12.167 2.66602 -16.5 3.99902
s-7.5 2.33301 -9.5 3c-6.66699 1.33301 -11.667 2 -15 2c-8 0 -15.5 -2.5 -22.5 -7.5s-14.5 -13.833 -22.5 -26.5h-13c10.667 27.333 24.167 48.333 40.5 63s34.166 22 53.499 22c4.66699 0 10.334 -0.666992 17.001 -2l20 -6l28 -7l33 -10
c10 -3.33301 19.667 -5.83301 29 -7.5s16.333 -2.5 21 -2.5c18.667 0 34 11.667 46 35h14z" />
    <glyph glyph-name="hungarumlaut" unicode="&#x2dd;" horiz-adv-x="397" 
d="M205 839c6 0 9 -2.66504 9 -7.99805c0 -3.33301 -1.33301 -6.33301 -4 -9l-159 -150c-3.33301 -3.33301 -5.66602 -5.33301 -6.99902 -6s-3 -1 -5 -1c-2 1.33301 -3.5 2.16602 -4.5 2.49902s-1.5 1.5 -1.5 3.5v2c0 1.33301 0.166992 2.16602 0.5 2.49902
s1.16602 1.5 2.49902 3.5l93 160h76zM354 840.002c6.66699 0 10.002 -2.66504 10.002 -7.99805c0 -2.66699 -1.66699 -5.66699 -5 -9l-159 -150c-4.66699 -4.66699 -8.33398 -7 -11.001 -7c-2 1.33301 -3.5 2.16602 -4.5 2.49902s-1.5 1.5 -1.5 3.5v2
c0 1.33301 0.166992 2.16602 0.5 2.49902s1.16602 1.5 2.49902 3.5l92 160h76z" />
    <glyph glyph-name="Delta" unicode="&#x394;" horiz-adv-x="666" 
d="M296 666h67l300 -666h-660zM589 44l-259 573l-255 -573h514z" />
    <glyph glyph-name="Delta" unicode="&#x2206;" horiz-adv-x="666" 
d="M296 666h67l300 -666h-660zM589 44l-259 573l-255 -573h514z" />
    <glyph glyph-name="Omega" unicode="&#x3a9;" horiz-adv-x="666" 
d="M12 51h200.997c-130.667 72.667 -196 175.667 -196 309c0 46 8 88.667 24 128s38.167 73.5 66.5 102.5s61.833 51.667 100.5 68s80.334 24.5 125.001 24.5s86.334 -8.33301 125.001 -25s72.167 -39.5 100.5 -68.5s50.5 -63 66.5 -102s24 -81.5 24 -127.5
c0 -133.333 -65.333 -236.333 -196 -309h201v-51h-269v48l46 27.5c13.333 8.33301 25.333 16.833 36 25.5s20.5 17.667 29.5 27s17.833 19.666 26.5 30.999c44 58 66 123.333 66 196c0 38.667 -6.5 74.834 -19.5 108.501s-31 63 -54 88s-50 44.5 -81 58.5
s-64.5 21 -100.5 21c-37.333 0 -71.666 -7 -102.999 -21s-58.333 -33.167 -81 -57.5s-40.5 -53.333 -53.5 -87s-19.5 -70.5 -19.5 -110.5c0 -66 16.667 -124.167 50 -174.5s85 -94.5 155 -132.5v-48h-270v51z" />
    <glyph glyph-name="Omega" unicode="&#x2126;" horiz-adv-x="666" 
d="M12 51h200.997c-130.667 72.667 -196 175.667 -196 309c0 46 8 88.667 24 128s38.167 73.5 66.5 102.5s61.833 51.667 100.5 68s80.334 24.5 125.001 24.5s86.334 -8.33301 125.001 -25s72.167 -39.5 100.5 -68.5s50.5 -63 66.5 -102s24 -81.5 24 -127.5
c0 -133.333 -65.333 -236.333 -196 -309h201v-51h-269v48l46 27.5c13.333 8.33301 25.333 16.833 36 25.5s20.5 17.667 29.5 27s17.833 19.666 26.5 30.999c44 58 66 123.333 66 196c0 38.667 -6.5 74.834 -19.5 108.501s-31 63 -54 88s-50 44.5 -81 58.5
s-64.5 21 -100.5 21c-37.333 0 -71.666 -7 -102.999 -21s-58.333 -33.167 -81 -57.5s-40.5 -53.333 -53.5 -87s-19.5 -70.5 -19.5 -110.5c0 -66 16.667 -124.167 50 -174.5s85 -94.5 155 -132.5v-48h-270v51z" />
    <glyph glyph-name="pi" unicode="&#x3c0;" horiz-adv-x="558" 
d="M100 471h-69v46h496v-46h-68v-471h-56v471h-246v-471h-57v471z" />
    <glyph glyph-name="endash" unicode="&#x2013;" horiz-adv-x="433" 
d="M33 247h367v-30h-367v30z" />
    <glyph glyph-name="emdash" unicode="&#x2014;" horiz-adv-x="666" 
d="M0 248h666v-29h-666v29z" />
    <glyph glyph-name="quoteleft" unicode="&#x2018;" horiz-adv-x="185" 
d="M109 669c-18.667 -10.667 -32 -21.501 -40 -32.501s-12 -24.167 -12 -39.5c0 -7.33301 0.666992 -12.5 2 -15.5s3.66602 -7.16699 6.99902 -12.5c8 9.33301 14.333 15.5 19 18.5s10.667 4.5 18 4.5c10.667 0 19.167 -3.66699 25.5 -11s9.5 -17 9.5 -29
c0 -13.333 -3.83301 -24.333 -11.5 -33s-17.5 -13 -29.5 -13c-15.333 0 -27.666 6.5 -36.999 19.5s-14 30.167 -14 51.5c0 25.333 4.5 45.333 13.5 60s24.5 27.334 46.5 38.001z" />
    <glyph glyph-name="quoteright" unicode="&#x2019;" horiz-adv-x="185" 
d="M76 513c18 9.33301 31.001 19.501 39.001 30.501s12 24.167 12 39.5c0 7.33301 -0.5 12.666 -1.5 15.999s-3.5 7.66602 -7.5 12.999c-7.33301 -9.33301 -13.5 -15.666 -18.5 -18.999s-11.167 -5 -18.5 -5c-10.667 0 -19.167 3.66699 -25.5 11s-9.5 17.333 -9.5 30
c0 13.333 3.83301 24.333 11.5 33s17.5 13 29.5 13c15.333 0 27.666 -6.5 36.999 -19.5s14 -30.167 14 -51.5c0 -25.333 -4.5 -45.5 -13.5 -60.5s-24.167 -27.5 -45.5 -37.5z" />
    <glyph glyph-name="quotesinglbase" unicode="&#x201a;" horiz-adv-x="185" 
d="M76 -81c18 10 31.001 20.668 39.001 32.001s12 24.666 12 39.999c0 6.66699 -0.5 11.5 -1.5 14.5s-3.5 7.16699 -7.5 12.5c-7.33301 -9.33301 -13.5 -15.333 -18.5 -18s-11.167 -4 -18.5 -4c-10.667 0 -19.167 3.5 -25.5 10.5s-9.5 16.5 -9.5 28.5
c0 13.333 3.83301 24.333 11.5 33s17.5 13 29.5 13c15.333 0 27.666 -6.5 36.999 -19.5s14 -30.167 14 -51.5c0 -24.667 -4.5 -44.5 -13.5 -59.5s-24.167 -27.5 -45.5 -37.5z" />
    <glyph glyph-name="quotedblleft" unicode="&#x201c;" horiz-adv-x="296" 
d="M220 669c-18 -10 -30.998 -20.6689 -38.998 -32.002s-12 -24.666 -12 -39.999c0 -7.33301 0.5 -12.5 1.5 -15.5s3.5 -7.16699 7.5 -12.5c7.33301 9.33301 13.333 15.5 18 18.5s10.667 4.5 18 4.5c11.333 0 20.166 -3.66699 26.499 -11s9.5 -17 9.5 -29
c0 -13.333 -3.83301 -24.333 -11.5 -33s-17.834 -13 -30.501 -13c-15.333 0 -27.666 6.5 -36.999 19.5s-14 30.167 -14 51.5c0 25.333 4.66699 45.333 14 60s24.666 27.334 45.999 38.001zM109.002 668.998c-18.667 -10.667 -32 -21.501 -40 -32.501s-12 -24.167 -12 -39.5
c0 -7.33301 0.666992 -12.5 2 -15.5s3.66602 -7.16699 6.99902 -12.5c8 9.33301 14.333 15.5 19 18.5s10.667 4.5 18 4.5c10.667 0 19.167 -3.66699 25.5 -11s9.5 -17 9.5 -29c0 -13.333 -3.83301 -24.333 -11.5 -33s-17.5 -13 -29.5 -13
c-15.333 0 -27.666 6.5 -36.999 19.5s-14 30.167 -14 51.5c0 25.333 4.5 45.333 13.5 60s24.5 27.334 46.5 38.001z" />
    <glyph glyph-name="quotedblright" unicode="&#x201d;" horiz-adv-x="296" 
d="M76 513c18 9.33301 31.001 19.501 39.001 30.501s12 24.167 12 39.5c0 7.33301 -0.5 12.666 -1.5 15.999s-3.5 7.66602 -7.5 12.999c-7.33301 -9.33301 -13.5 -15.666 -18.5 -18.999s-11.167 -5 -18.5 -5c-10.667 0 -19.167 3.66699 -25.5 11s-9.5 17.333 -9.5 30
c0 13.333 3.83301 24.333 11.5 33s17.5 13 29.5 13c15.333 0 27.666 -6.5 36.999 -19.5s14 -30.167 14 -51.5c0 -25.333 -4.5 -45.5 -13.5 -60.5s-24.167 -27.5 -45.5 -37.5zM187.001 513.001c18.667 9.33301 31.833 19.502 39.5 30.502s11.5 24.167 11.5 39.5
c0 7.33301 -0.5 12.666 -1.5 15.999s-3.5 7.66602 -7.5 12.999c-7.33301 -9.33301 -13.333 -15.666 -18 -18.999s-10.667 -5 -18 -5c-10.667 0 -19.334 3.83301 -26.001 11.5s-10 17.5 -10 29.5c0 13.333 3.83301 24.333 11.5 33s17.834 13 30.501 13
c15.333 0 27.666 -6.5 36.999 -19.5s14 -30.167 14 -51.5c0 -25.333 -4.66699 -45.333 -14 -60s-24.666 -27.334 -45.999 -38.001z" />
    <glyph glyph-name="quotedblbase" unicode="&#x201e;" horiz-adv-x="296" 
d="M76 -81c18 10 31.001 20.668 39.001 32.001s12 24.666 12 39.999c0 6.66699 -0.5 11.5 -1.5 14.5s-3.5 7.16699 -7.5 12.5c-7.33301 -9.33301 -13.5 -15.333 -18.5 -18s-11.167 -4 -18.5 -4c-10.667 0 -19.167 3.5 -25.5 10.5s-9.5 16.5 -9.5 28.5
c0 13.333 3.83301 24.333 11.5 33s17.5 13 29.5 13c15.333 0 27.666 -6.5 36.999 -19.5s14 -30.167 14 -51.5c0 -24.667 -4.5 -44.5 -13.5 -59.5s-24.167 -27.5 -45.5 -37.5zM187.001 -80.999c18.667 10.667 31.833 21.502 39.5 32.502s11.5 24.167 11.5 39.5
c0 6.66699 -0.5 11.5 -1.5 14.5s-3.5 7.16699 -7.5 12.5c-7.33301 -9.33301 -13.333 -15.333 -18 -18s-10.667 -4 -18 -4c-10.667 0 -19.334 3.5 -26.001 10.5s-10 16.5 -10 28.5c0 13.333 3.83301 24.333 11.5 33s17.834 13 30.501 13c15.333 0 27.666 -6.5 36.999 -19.5
s14 -30.167 14 -51.5c0 -24.667 -4.66699 -44.334 -14 -59.001s-24.666 -27.334 -45.999 -38.001z" />
    <glyph glyph-name="dagger" unicode="&#x2020;" horiz-adv-x="511" 
d="M480 392h-184v-530h-81v530h-183v72h183v202h81v-202h184v-72z" />
    <glyph glyph-name="daggerdbl" unicode="&#x2021;" horiz-adv-x="511" 
d="M479 415h-183v-301h183v-71h-183v-181h-81v181h-183v70h183v302h-183v71h183v180h81v-180h183v-71z" />
    <glyph glyph-name="bullet" unicode="&#x2022;" horiz-adv-x="255" 
d="M127 407c19.333 0 35.667 -6.5 49 -19.5s20 -29.167 20 -48.5c-0.666992 -18.667 -7.5 -34.667 -20.5 -48s-29.167 -20 -48.5 -20c-18.667 0 -34.667 6.66699 -48 20s-20 29.333 -20 48c0 19.333 6.66699 35.5 20 48.5s29.333 19.5 48 19.5z" />
    <glyph glyph-name="ellipsis" unicode="&#x2026;" horiz-adv-x="564" 
d="M106 -2c-14 0 -25.334 5.33301 -34.001 16s-13 25 -13 43c0 19.333 4.33301 34.833 13 46.5s19.667 17.5 33 17.5s24.333 -5.83301 33 -17.5s13 -26.834 13 -45.501c0 -17.333 -4.16699 -31.666 -12.5 -42.999s-19.166 -17 -32.499 -17zM279.999 -2
c-14 0 -25.334 5.33301 -34.001 16s-13 25 -13 43c0 19.333 4.16699 34.833 12.5 46.5s19.5 17.5 33.5 17.5c13.333 0 24.333 -5.83301 33 -17.5s13 -26.834 13 -45.501c0 -17.333 -4.16699 -31.666 -12.5 -42.999s-19.166 -17 -32.499 -17zM458.998 -2
c-14 0 -25.334 5.33301 -34.001 16s-13 25 -13 43c0 19.333 4.16699 34.833 12.5 46.5s19.5 17.5 33.5 17.5c13.333 0 24.333 -5.83301 33 -17.5s13 -26.834 13 -45.501c0 -17.333 -4.16699 -31.666 -12.5 -42.999s-19.166 -17 -32.499 -17z" />
    <glyph glyph-name="perthousand" unicode="&#x2030;" horiz-adv-x="1062" 
d="M581 677h20l-480 -677h-21zM508 -11h-7.00195c-21.333 0 -41 4.16699 -59 12.5s-33.833 19.833 -47.5 34.5s-24.334 31.834 -32.001 51.501s-11.5 40.834 -11.5 63.501c0 25.333 4.33301 49.333 13 72s20.334 42.5 35.001 59.5s31.667 30.5 51 40.5s40 15 62 15
c20 0 39.333 -4.66699 58 -14s35.167 -21.833 49.5 -37.5s25.666 -33.834 33.999 -54.501s12.5 -42.334 12.5 -65.001c0 -23.333 -4.16699 -45.5 -12.5 -66.5s-19.666 -39.5 -33.999 -55.5s-31.166 -29 -50.499 -39s-39.666 -15.667 -60.999 -17zM181.998 324
c-20 0 -38.8311 4.5 -56.498 13.5s-33.334 21.333 -47.001 37s-24.5 33.667 -32.5 54s-12 41.833 -12 64.5c0 25.333 4.33301 49.333 13 72s20.5 42.5 35.5 59.5s32.167 30.5 51.5 40.5s40 15 62 15c21.333 0 41.166 -4.33301 59.499 -13s34.333 -20.5 48 -35.5
s24.5 -32.833 32.5 -53.5s12 -42.667 12 -66c0 -25.333 -4.5 -49.333 -13.5 -72s-21 -42.667 -36 -60s-32.667 -31 -53 -41s-41.5 -15 -63.5 -15zM869 -11h-7.00195c-21.333 0 -41 4.16699 -59 12.5s-33.833 19.833 -47.5 34.5s-24.334 31.834 -32.001 51.501
s-11.5 40.834 -11.5 63.501c0 25.333 4.33301 49.333 13 72s20.334 42.5 35.001 59.5s31.667 30.5 51 40.5s40 15 62 15c20 0 39.333 -4.66699 58 -14s35.167 -21.833 49.5 -37.5s25.666 -33.834 33.999 -54.501s12.5 -42.334 12.5 -65.001
c0 -23.333 -4.16699 -45.5 -12.5 -66.5s-19.666 -39.5 -33.999 -55.5s-31.166 -29 -50.499 -39s-39.666 -15.667 -60.999 -17zM507.998 -4c32 1.33301 54.667 14.6689 68 40.002s20 67.666 20 126.999c0 61.333 -6.66699 104.333 -20 129s-36.666 37 -69.999 37
c-30 0 -51.833 -13.333 -65.5 -40s-20.5 -68.334 -20.5 -125.001c0 -58.667 6.66699 -101.5 20 -128.5s34.666 -40.5 63.999 -40.5zM186.998 332.003c32.667 1.33301 56.333 15.833 71 43.5s22 71.167 22 130.5c0 60 -7 103 -21 129s-37.333 39 -70 39
c-58.667 0 -88 -55 -88 -165c0 -62 6.5 -107 19.5 -135s33.833 -42 62.5 -42h4zM868.997 -3.99707c32 1.33301 54.667 14.6689 68 40.002s20 67.666 20 126.999c0 61.333 -6.66699 104.333 -20 129s-36.666 37 -69.999 37c-30 0 -51.833 -13.333 -65.5 -40
s-20.5 -68.334 -20.5 -125.001c0 -58.667 6.66699 -101.5 20 -128.5s34.666 -40.5 63.999 -40.5z" />
    <glyph glyph-name="guilsinglleft" unicode="&#x2039;" horiz-adv-x="267" 
d="M158 303h59l-112 -106l112 -104h-63l-111 104z" />
    <glyph glyph-name="guilsinglright" unicode="&#x203a;" horiz-adv-x="267" 
d="M109 93h-59l112 107l-112 103h63l111 -103z" />
    <glyph glyph-name="fraction" unicode="&#x2044;" horiz-adv-x="112" 
d="M233 668h21l-373 -668h-22z" />
    <glyph glyph-name="fraction" unicode="&#x2215;" horiz-adv-x="112" 
d="M233 668h21l-373 -668h-22z" />
    <glyph glyph-name="trademark" unicode="&#x2122;" horiz-adv-x="846" 
d="M778 267h-41v350l-147 -351h-28l-143 350v-350h-43v400h65l134 -318l139 318h64v-399zM330 628h-135v-361h-46v361h-137v38h318v-38z" />
    <glyph glyph-name="partialdiff" unicode="&#x2202;" 
d="M392 371c-3.33301 18 -8.32812 36.1689 -14.9951 54.502s-14.834 36 -24.501 53s-20.167 32.833 -31.5 47.5s-23.333 27 -36 37c-15.333 12 -34.333 24.167 -57 36.5s-43.667 21.833 -63 28.5c-6.66699 2 -12.5 3.83301 -17.5 5.5s-10.333 3 -16 4
s-11.667 1.83301 -18 2.5s-13.833 1.66699 -22.5 3l14 32c24.667 -2.66699 43.834 -5.5 57.501 -8.5s29.167 -8.16699 46.5 -15.5c30 -12.667 60.167 -31.334 90.5 -56.001s55.166 -51 74.499 -79c6.66699 -10.667 13.667 -22.834 21 -36.501s14.166 -28 20.499 -43
s12.166 -30.333 17.499 -46s9.66602 -30.5 12.999 -44.5c8 -33.333 12 -67 12 -101c0 -38 -5.33301 -72.833 -16 -104.5s-25.5 -58.667 -44.5 -81s-41.833 -39.666 -68.5 -51.999s-56.334 -18.5 -89.001 -18.5c-30 0 -58 5.83301 -84 17.5s-48.667 27.5 -68 47.5
s-34.666 43.5 -45.999 70.5s-17 56.167 -17 87.5c0 30.667 5.66699 59.667 17 87s26.666 51.166 45.999 71.499s42 36.333 68 48s54 17.5 84 17.5c28 0 53.667 -5 77 -15s48.333 -26.667 75 -50zM245.005 391.002c-23.333 0 -45.333 -4.66699 -66 -14
s-38.667 -22.166 -54 -38.499s-27.333 -35.5 -36 -57.5s-13 -45.333 -13 -70s4.33301 -47.834 13 -69.501s20.5 -40.5 35.5 -56.5s32.667 -28.667 53 -38s41.833 -14 64.5 -14c23.333 0 45 4.66699 65 14s37.5 22.166 52.5 38.499s26.667 35.5 35 57.5s12.5 46 12.5 72
s-4 49.667 -12 71s-19.167 39.833 -33.5 55.5s-31.333 27.834 -51 36.501s-41.5 13 -65.5 13z" />
    <glyph glyph-name="product" unicode="&#x220f;" horiz-adv-x="666" 
d="M662 750v-39h-84v-921h84v-40h-224v39h90v921h-389v-920h88v-40h-223v39h85v921h-85v40h658z" />
    <glyph glyph-name="summation" unicode="&#x2211;" horiz-adv-x="666" 
d="M594 531h-42l-6 179h-463l257 -439l-260 -481h477l3 178h43v-218h-579v44l259 479l-259 434v43h570v-219z" />
    <glyph glyph-name="radical" unicode="&#x221a;" horiz-adv-x="666" 
d="M632 743h-144l-279 -757l-106 326h-69v40h100l79 -252l243 682h176v-39z" />
    <glyph glyph-name="infinity" unicode="&#x221e;" horiz-adv-x="666" 
d="M333 371c30 41.333 59.332 70.998 87.999 88.998s61 27 97 27c44.667 0 80.667 -13.667 108 -41s41 -64 41 -110c0 -22.667 -3.66699 -43.5 -11 -62.5s-17.5 -35.167 -30.5 -48.5s-28.5 -23.833 -46.5 -31.5s-38 -11.5 -60 -11.5c-66.667 0 -128.667 38.667 -186 116
c-31.333 -41.333 -61.166 -71 -89.499 -89s-59.833 -27 -94.5 -27c-22 0 -42.167 3.66699 -60.5 11s-34 17.833 -47 31.5s-23.167 29.834 -30.5 48.501s-11 39.334 -11 62.001s3.66699 43.334 11 62.001s17.5 34.667 30.5 48s28.667 23.666 47 30.999s38.5 11 60.5 11
c34 0 65.667 -9.33301 95 -28s59 -48 89 -88zM360.999 333.998c28.667 -38 55.5 -65.332 80.5 -81.999s51.167 -25 78.5 -25c30.667 0 55.167 9.66699 73.5 29s27.5 45 27.5 77c0 33.333 -9.16699 59.666 -27.5 78.999s-43.5 29 -75.5 29c-14 0 -27 -1.66699 -39 -5
s-24.167 -9.16602 -36.5 -17.499s-25 -19.333 -38 -33s-27.5 -30.834 -43.5 -51.501zM303.999 333.999c-28 38.667 -54.167 66.167 -78.5 82.5s-50.5 24.5 -78.5 24.5c-30.667 0 -55.5 -9.66699 -74.5 -29s-28.5 -45 -28.5 -77s9.5 -58 28.5 -78s43.833 -30 74.5 -30
c27.333 0 53 8.33301 77 25s50.667 44 80 82z" />
    <glyph glyph-name="integral" unicode="&#x222b;" 
d="M365 618c0.666992 5.33301 1 9.50098 1 12.501v9.5c0 31.333 -3 52.5 -9 63.5s-17.667 16.5 -35 16.5c-15.333 0 -26.5 -5.5 -33.5 -16.5s-10.833 -28.833 -11.5 -53.5v-21v-31v-691v-35c0 -81.333 -30.333 -122 -91 -122c-33.333 0 -57.5 11.167 -72.5 33.5
s-23.167 59.166 -24.5 110.499h48v-8v-28c0 -51.333 15.667 -77 47 -77c17.333 0 29.5 6 36.5 18s10.5 32.333 10.5 61v33v685v42c0.666992 46 8 79.167 22 99.5s36.667 30.5 68 30.5c30 0 51.5 -8.83301 64.5 -26.5s21.5 -49.167 25.5 -94.5v-11h-46z" />
    <glyph glyph-name="approxequal" unicode="&#x2248;" 
d="M493 482c-23.333 -41.333 -45.167 -71.1689 -65.5 -89.502s-42.166 -27.5 -65.499 -27.5c-6 0 -11.833 0.5 -17.5 1.5s-12.834 3 -21.501 6s-19 7.16699 -31 12.5l-45 20l-47 21c-12 5.33301 -21.667 9.33301 -29 12s-13.5 4.33398 -18.5 5.00098s-9.83301 1 -14.5 1
c-17.333 0 -33.5 -6.83301 -48.5 -20.5s-32.833 -37.5 -53.5 -71.5l-30 26c24.667 40.667 46.834 69.5 66.501 86.5s40.834 25.5 63.501 25.5c6.66699 0 13.167 -0.5 19.5 -1.5s14.166 -3 23.499 -6s20.666 -7.5 33.999 -13.5l51 -23
c15.333 -7.33301 28.333 -13.166 39 -17.499l26.5 -11c7 -3 12.833 -5 17.5 -6s8.66699 -1.5 12 -1.5c18 0 35.333 7.66699 52 23s33.667 40 51 74zM492.999 316.997c-23.333 -41.333 -45.1689 -71.166 -65.502 -89.499s-42.166 -27.5 -65.499 -27.5
c-6 0 -11.833 0.5 -17.5 1.5s-12.834 3 -21.501 6s-19 7 -31 12l-45 19.5l-47 21c-12 5.33301 -21.833 9.5 -29.5 12.5s-13.834 4.83301 -18.501 5.5s-9.33398 1 -14.001 1c-17.333 0 -33.666 -6.83301 -48.999 -20.5s-33 -37.5 -53 -71.5l-30 26
c24.667 40.667 46.834 69.5 66.501 86.5s40.834 25.5 63.501 25.5c6.66699 0 13.334 -0.5 20.001 -1.5s14.5 -3.16699 23.5 -6.5s20.167 -7.83301 33.5 -13.5l51 -22.5c15.333 -7.33301 28.333 -13.333 39 -18s19.5 -8.33398 26.5 -11.001s12.833 -4.5 17.5 -5.5
s8.66699 -1.5 12 -1.5c18 0 35.333 7.66699 52 23s33.667 40 51 74z" />
    <glyph glyph-name="notequal" unicode="&#x2260;" 
d="M336 557l44 -15l-53 -106h166v-45h-188l-54 -110h242v-46h-265l-68 -136l-45 15l61 122h-169v45h192l54 109h-247v46h270z" />
    <glyph glyph-name="lessequal" unicode="&#x2264;" 
d="M489 539l-419 -180l419 -186v-50l-478 210v51l478 205v-50zM489 45h-478v52h478v-52z" />
    <glyph glyph-name="greaterequal" unicode="&#x2265;" 
d="M11 173l418 180l-418 186v50l478 -210v-51l-478 -205v50zM489 45h-478v52h478v-52z" />
    <glyph glyph-name="lozenge" unicode="&#x25ca;" horiz-adv-x="666" 
d="M584 334l-252 -348l-250 348l250 347zM137 334l195 -274l197 274l-197 276z" />
    <glyph glyph-name=".null" horiz-adv-x="0" 
 />
    <glyph glyph-name="nonmarkingreturn" horiz-adv-x="250" 
 />
    <glyph glyph-name="apple" horiz-adv-x="782" 
d="M534 681c0 -22 -4 -42.833 -12 -62.5s-18.833 -37 -32.5 -52s-29.5 -26.833 -47.5 -35.5s-37 -13 -57 -13c1.33301 48 15 87.333 41 118s62 49 108 55v-10zM677 456c-29.333 -22 -50.165 -43.667 -62.498 -65s-18.5 -46 -18.5 -74c0 -34 8.83301 -64 26.5 -90
s42.167 -45.667 73.5 -59c-25.333 -62 -52.833 -109.833 -82.5 -143.5s-58.5 -50.5 -86.5 -50.5c-13.333 0 -27 3 -41 9l-41 17c-6.66699 1.33301 -17.334 2 -32.001 2c-10.667 0 -21.167 -0.333008 -31.5 -1s-17.166 -1.66699 -20.499 -3l-43 -17c-13.333 -6 -26 -9 -38 -9
c-18 0 -36.5 6.83301 -55.5 20.5s-37.167 33.834 -54.5 60.501c-26.667 39.333 -47.334 81.166 -62.001 125.499s-22 86.833 -22 127.5c0 32.667 4.5 62.334 13.5 89.001s21.833 49.667 38.5 69s36.334 34.333 59.001 45s48 16 76 16c12 0 23.667 -1.16699 35 -3.5
s25.333 -6.83301 42 -13.5c22.667 -8.66699 38.334 -13 47.001 -13c5.33301 0 11.666 0.833008 18.999 2.5s15.666 4.16699 24.999 7.5l33.5 12.5c8.33301 3 15.5 5.16699 21.5 6.5s11.667 2.16602 17 2.49902s11.666 0.5 18.999 0.5c62 0 110.333 -23.667 145 -71z" />
  </font>
</defs>
</svg>
